<svg width="35" height="40" viewBox="0 0 35 40" fill="none" xmlns="http://www.w3.org/2000/svg">
<path d="M8.78463 32.2382L12.9107 39.9992L17.4955 32.0585L22.0804 40L26.2065 32.239L34.9903 32.5463L28.1105 20.6294L29.1408 20.1714L28.754 16.4636L30.9412 13.4457L28.754 10.4278L29.1416 6.71995L25.7361 5.20518L24.2213 1.79966L20.5135 2.18643L17.4955 0L14.4776 2.18725L10.7698 1.79966L9.25504 5.20518L5.84952 6.71995L6.23628 10.4278L4.04986 13.4457L6.23711 16.4636L5.84952 20.1714L6.88062 20.6303L0 32.5454L8.78463 32.2382ZM26.5891 21.3069L32.0618 30.7864L25.2292 30.547L22.02 36.5837L18.4513 30.4021L21.6705 24.8259L22.4614 24.9087L24.2205 25.0926L25.7352 21.6862L26.5891 21.3069ZM7.62185 19.1461L7.94981 16.0048L6.09549 13.4457L7.94981 10.8866L7.62185 7.74525L10.5098 6.45989L11.7951 3.57199L14.9364 3.89995L17.4955 2.04563L20.0547 3.89995L23.196 3.57199L24.4813 6.45989L27.3692 7.74525L27.0413 10.8866L28.8956 13.4457L27.0413 16.0048L27.3692 19.1461L27.2781 19.1867L24.4813 20.4315L23.196 23.3194L20.0547 22.9914L17.4955 24.8457L14.9364 22.9914L11.7951 23.3194L10.5098 20.4315L7.71295 19.1867L7.62185 19.1461ZM10.7698 25.0917L14.4776 24.705L17.4955 26.8914L19.3366 25.5572L16.5398 30.4021L12.9711 36.5837L9.76189 30.547L2.93014 30.7864L8.40283 21.3069L9.25587 21.6862L10.7698 25.0917Z" fill="#E31E23"/>
</svg>
