<svg width="40" height="40" viewBox="0 0 40 40" fill="none" xmlns="http://www.w3.org/2000/svg">
<path d="M39.9843 38.1257C39.9744 35.7633 39.0298 33.5008 37.357 31.8327C35.6841 30.1645 33.419 29.2263 31.0565 29.223H26.7364C26.6605 29.2238 26.5852 29.2097 26.5147 29.1814C26.4443 29.1531 26.3801 29.1112 26.3259 29.0581C26.2717 29.0051 26.2284 28.9418 26.1986 28.872C26.1688 28.8022 26.153 28.7272 26.1522 28.6513V25.3714L27.8765 23.2597C28.5498 22.4338 28.9182 21.4014 28.9199 20.3358V18.877C29.4136 18.7089 29.8422 18.3904 30.1459 17.9664C30.4495 17.5423 30.6128 17.0339 30.613 16.5124V14.0133C30.6132 13.5153 30.4647 13.0286 30.1864 12.6156C29.9081 12.2027 29.5127 11.8822 29.0511 11.6955V10.6678C29.7276 10.523 30.358 10.2139 30.8867 9.76784C31.4155 9.32173 31.8263 8.75231 32.0828 8.10985C32.3394 7.46738 32.4338 6.77164 32.3578 6.08403C32.2818 5.39642 32.0376 4.73811 31.6469 4.1672C31.5699 4.05478 31.4692 3.96052 31.3519 3.89101C31.2347 3.82149 31.1037 3.77839 30.9681 3.76471C30.8325 3.75103 30.6955 3.7671 30.5667 3.8118C30.4379 3.8565 30.3205 3.92875 30.2225 4.02351C30.0599 4.17918 29.8758 4.31069 29.6758 4.41398C29.72 3.72906 29.5966 3.0437 29.3163 2.41721C29.036 1.79073 28.6072 1.242 28.0671 0.818518C27.9597 0.734978 27.8354 0.675833 27.7028 0.645196C27.5702 0.614558 27.4325 0.613163 27.2993 0.641106C27.1662 0.66905 27.0407 0.725663 26.9316 0.807009C26.8225 0.888354 26.7324 0.992482 26.6676 1.11215C26.4528 1.50886 26.1272 1.83448 25.7305 2.04928C24.4024 0.962026 22.7927 0.274455 21.0889 0.0666458C19.3851 -0.141164 17.6574 0.139339 16.1068 0.875489C14.5563 1.61164 13.2468 2.77314 12.3309 4.22472C11.4149 5.67631 10.9302 7.35824 10.9332 9.07465V11.6955C10.4715 11.8822 10.0762 12.2027 9.79793 12.6156C9.51964 13.0286 9.37108 13.5153 9.37132 14.0133V16.5124C9.37148 17.0339 9.53482 17.5423 9.83844 17.9664C10.1421 18.3904 10.5707 18.7089 11.0644 18.877V20.3358C11.0663 21.4013 11.4347 22.4337 12.1077 23.2597L13.8321 25.3714V28.6513C13.8312 28.7272 13.8155 28.8022 13.7857 28.872C13.7559 28.9418 13.7126 29.0051 13.6584 29.0581C13.6042 29.1112 13.54 29.1531 13.4696 29.1814C13.3991 29.2097 13.3238 29.2238 13.2479 29.223H8.92774C6.56069 29.2271 4.29181 30.1695 2.61834 31.8435C0.944864 33.5176 0.0033035 35.7868 0 38.1538L0 39.0629C0 39.3114 0.0987332 39.5498 0.27448 39.7255C0.450226 39.9013 0.688589 40 0.937132 40H39.0472C39.2957 40 39.5341 39.9013 39.7098 39.7255C39.8856 39.5498 39.9843 39.3114 39.9843 39.0629V38.1257ZM1.87426 38.1257C1.88416 36.2607 2.63136 34.4752 3.95281 33.1591C5.27425 31.8429 7.06266 31.1028 8.92774 31.1004H13.2479C13.898 31.1012 14.5219 30.8442 14.9828 30.3857C15.4436 29.9271 15.7038 29.3046 15.7063 28.6545V25.0403C15.7062 24.8238 15.6311 24.6141 15.4939 24.4467L13.5572 22.0758C13.1552 21.5848 12.9346 20.9704 12.9324 20.3358V18.0742C12.9324 17.8257 12.8337 17.5873 12.6579 17.4116C12.4822 17.2358 12.2438 17.1371 11.9953 17.1371H11.8703C11.7046 17.1371 11.5457 17.0713 11.4286 16.9541C11.3114 16.837 11.2456 16.678 11.2456 16.5124V14.0133C11.2456 13.8476 11.3114 13.6887 11.4286 13.5716C11.5457 13.4544 11.7046 13.3886 11.8703 13.3886C12.1189 13.3886 12.3572 13.2898 12.533 13.1141C12.7087 12.9384 12.8075 12.7 12.8075 12.4514V9.07465C12.808 7.67436 13.2177 6.30475 13.9862 5.1342C14.7547 3.96366 15.8486 3.0432 17.1332 2.486C18.4179 1.92879 19.8373 1.75914 21.2171 1.99789C22.5969 2.23663 23.8769 2.87338 24.8996 3.82983C25.0193 3.94159 25.1663 4.02001 25.3258 4.05728C25.4853 4.09456 25.6517 4.08937 25.8086 4.04225C26.4583 3.85026 27.052 3.50411 27.5392 3.03327C27.7163 3.36388 27.8116 3.73214 27.817 4.10717C27.8225 4.4822 27.7379 4.85307 27.5704 5.18868C27.5008 5.32749 27.4668 5.48143 27.4714 5.63666C27.476 5.79189 27.5191 5.94353 27.5969 6.07797C27.6746 6.2124 27.7846 6.3254 27.9168 6.40682C28.049 6.48823 28.1994 6.53551 28.3545 6.54439C29.0848 6.58543 29.8133 6.43693 30.4693 6.11331C30.54 6.48772 30.5184 6.87373 30.4063 7.23789C30.2942 7.60205 30.0949 7.93337 29.8258 8.20312C29.6035 8.42945 29.3365 8.60692 29.0417 8.72418C28.7469 8.84143 28.431 8.8959 28.114 8.8841C27.8641 8.88513 27.624 8.98117 27.4423 9.15274C27.3534 9.2399 27.2828 9.34391 27.2345 9.45869C27.1862 9.57347 27.1613 9.69672 27.1612 9.82123V12.4514C27.1612 12.7 27.2599 12.9384 27.4357 13.1141C27.6114 13.2898 27.8498 13.3886 28.0983 13.3886C28.264 13.3886 28.4229 13.4544 28.5401 13.5716C28.6573 13.6887 28.7231 13.8476 28.7231 14.0133V16.5124C28.7231 16.678 28.6573 16.837 28.5401 16.9541C28.4229 17.0713 28.264 17.1371 28.0983 17.1371H27.9671C27.7186 17.1371 27.4802 17.2358 27.3045 17.4116C27.1287 17.5873 27.03 17.8257 27.03 18.0742V20.3358C27.0281 20.9704 26.8075 21.5849 26.4053 22.0758L24.4904 24.4467C24.3532 24.6141 24.2781 24.8238 24.278 25.0403V28.6513C24.2804 29.3014 24.5406 29.924 25.0015 30.3825C25.4624 30.841 26.0863 31.0981 26.7364 31.0972H31.0565C32.9222 31.0997 34.711 31.8402 36.0326 33.157C37.3541 34.4739 38.101 36.2601 38.11 38.1257H1.87426Z" fill="#E31E23"/>
</svg>
