<svg width="40" height="28" viewBox="0 0 40 28" fill="none" xmlns="http://www.w3.org/2000/svg">
<path d="M40.0005 23.7535H35.005V21.2512H37.4982V13.9544L35.3521 7.50692H26.2471V21.2512H27.4982V23.7535H23.7539V5.00464H37.1512L40.0005 13.5526V23.7535Z" fill="#E31E23"/>
<path d="M31.2507 27.5067C28.4927 27.5067 26.2461 25.2601 26.2461 22.5021C26.2461 19.7441 28.4927 17.4976 31.2507 17.4976C34.0087 17.4976 36.2552 19.7441 36.2552 22.5021C36.2461 25.2601 34.0087 27.5067 31.2507 27.5067ZM31.2507 19.9998C29.8717 19.9998 28.7484 21.1231 28.7484 22.5021C28.7484 23.8811 29.8717 25.0044 31.2507 25.0044C32.6297 25.0044 33.7529 23.8811 33.7529 22.5021C33.7529 21.1231 32.6297 19.9998 31.2507 19.9998Z" fill="#E31E23"/>
<path d="M7.49739 23.7533H2.50195V15.0044H4.9951V21.251H7.49739V23.7533Z" fill="#E31E23"/>
<path d="M26.2466 23.7534H14.9954V21.2511H23.7534V2.50228H0V0H26.2466V23.7534Z" fill="#E31E23"/>
<path d="M11.2516 27.5067C8.49365 27.5067 6.24707 25.2601 6.24707 22.5021C6.24707 19.7441 8.49365 17.4976 11.2516 17.4976C14.0096 17.4976 16.2562 19.7441 16.2562 22.5021C16.2471 25.2601 14.0096 27.5067 11.2516 27.5067ZM11.2516 19.9998C9.87264 19.9998 8.74935 21.1231 8.74935 22.5021C8.74935 23.8811 9.87264 25.0044 11.2516 25.0044C12.6306 25.0044 13.7539 23.8811 13.7539 22.5021C13.7539 21.1231 12.6306 19.9998 11.2516 19.9998Z" fill="#E31E23"/>
<path d="M12.5021 5.00464H1.25098V7.50692H12.5021V5.00464Z" fill="#E31E23"/>
<path d="M9.99967 10H2.50195V12.5023H9.99967V10Z" fill="#E31E23"/>
</svg>
