<svg width="50" height="40" viewBox="0 0 50 40" fill="none" xmlns="http://www.w3.org/2000/svg">
<path d="M48.5169 38.2977H46.8145V13.6136C46.8145 13.6136 46.8145 13.5455 46.8145 13.52C46.8193 13.4634 46.8193 13.4064 46.8145 13.3498C46.7969 13.2966 46.7741 13.2453 46.7464 13.1966L46.6528 13.0689C46.6166 13.0228 46.5735 12.9827 46.5251 12.9497C46.5251 12.9497 46.4826 12.8987 46.4485 12.8816L25.1692 0.114036C25.0398 0.0393299 24.893 0 24.7436 0C24.5942 0 24.4474 0.0393299 24.318 0.114036L3.03869 12.8816C3.03869 12.8816 2.98762 12.9327 2.96208 12.9497C2.91366 12.9827 2.87059 13.0228 2.83441 13.0689C2.79843 13.1108 2.76704 13.1565 2.74078 13.2051C2.7114 13.2499 2.68847 13.2986 2.67268 13.3498C2.66787 13.4064 2.66787 13.4634 2.67268 13.52L2.55352 13.6136V38.2977H0.851173C0.625428 38.2977 0.408929 38.3873 0.249303 38.547C0.0896769 38.7066 0 38.9231 0 39.1488C0 39.3746 0.0896769 39.5911 0.249303 39.7507C0.408929 39.9103 0.625428 40 0.851173 40H48.5169C48.7426 40 48.9591 39.9103 49.1187 39.7507C49.2784 39.5911 49.368 39.3746 49.368 39.1488C49.368 38.9231 49.2784 38.7066 49.1187 38.547C48.9591 38.3873 48.7426 38.2977 48.5169 38.2977ZM13.6188 38.2977H8.51173V29.7859H13.6188V38.2977ZM40.8563 38.2977H20.4282V21.2742H40.8563V38.2977ZM45.1122 38.2977H42.5586V20.423C42.5586 20.1973 42.469 19.9808 42.3093 19.8212C42.1497 19.6615 41.9332 19.5718 41.7075 19.5718H19.577C19.3512 19.5718 19.1347 19.6615 18.9751 19.8212C18.8155 19.9808 18.7258 20.1973 18.7258 20.423V38.2977H15.3211V28.9348C15.3211 28.709 15.2314 28.4925 15.0718 28.3329C14.9122 28.1733 14.6957 28.0836 14.4699 28.0836H7.66056C7.43481 28.0836 7.21831 28.1733 7.05869 28.3329C6.89906 28.4925 6.80938 28.709 6.80938 28.9348V38.2977H4.25586V14.0988L24.684 1.84192L45.1122 14.0988V38.2977Z" fill="#E31E23"/>
<path d="M28.94 17.8696H32.3447C32.5705 17.8696 32.787 17.7799 32.9466 17.6203C33.1062 17.4607 33.1959 17.2442 33.1959 17.0184C33.1959 16.7927 33.1062 16.5762 32.9466 16.4165C32.787 16.2569 32.5705 16.1672 32.3447 16.1672H28.94C28.7143 16.1672 28.4978 16.2569 28.3382 16.4165C28.1785 16.5762 28.0889 16.7927 28.0889 17.0184C28.0889 17.2442 28.1785 17.4607 28.3382 17.6203C28.4978 17.7799 28.7143 17.8696 28.94 17.8696Z" fill="#E31E23"/>
<path d="M24.6842 26.3813H36.6006C36.8263 26.3813 37.0428 26.2916 37.2025 26.132C37.3621 25.9724 37.4518 25.7559 37.4518 25.5301C37.4518 25.3044 37.3621 25.0879 37.2025 24.9283C37.0428 24.7686 36.8263 24.679 36.6006 24.679H24.6842C24.4584 24.679 24.2419 24.7686 24.0823 24.9283C23.9227 25.0879 23.833 25.3044 23.833 25.5301C23.833 25.7559 23.9227 25.9724 24.0823 26.132C24.2419 26.2916 24.4584 26.3813 24.6842 26.3813Z" fill="#E31E23"/>
<path d="M24.6842 30.6372H36.6006C36.8263 30.6372 37.0428 30.5475 37.2025 30.3879C37.3621 30.2282 37.4518 30.0117 37.4518 29.786C37.4518 29.5602 37.3621 29.3437 37.2025 29.1841C37.0428 29.0245 36.8263 28.9348 36.6006 28.9348H24.6842C24.4584 28.9348 24.2419 29.0245 24.0823 29.1841C23.9227 29.3437 23.833 29.5602 23.833 29.786C23.833 30.0117 23.9227 30.2282 24.0823 30.3879C24.2419 30.5475 24.4584 30.6372 24.6842 30.6372Z" fill="#E31E23"/>
<path d="M24.6842 34.893H36.6006C36.8263 34.893 37.0428 34.8033 37.2025 34.6437C37.3621 34.4841 37.4518 34.2676 37.4518 34.0418C37.4518 33.8161 37.3621 33.5996 37.2025 33.44C37.0428 33.2804 36.8263 33.1907 36.6006 33.1907H24.6842C24.4584 33.1907 24.2419 33.2804 24.0823 33.44C23.9227 33.5996 23.833 33.8161 23.833 34.0418C23.833 34.2676 23.9227 34.4841 24.0823 34.6437C24.2419 34.8033 24.4584 34.893 24.6842 34.893Z" fill="#E31E23"/>
<path d="M12.7676 24.679H9.36289C9.13715 24.679 8.92065 24.7686 8.76102 24.9283C8.6014 25.0879 8.51172 25.3044 8.51172 25.5301C8.51172 25.7559 8.6014 25.9724 8.76102 26.132C8.92065 26.2916 9.13715 26.3813 9.36289 26.3813H12.7676C12.9933 26.3813 13.2098 26.2916 13.3695 26.132C13.5291 25.9724 13.6188 25.7559 13.6188 25.5301C13.6188 25.3044 13.5291 25.0879 13.3695 24.9283C13.2098 24.7686 12.9933 24.679 12.7676 24.679Z" fill="#E31E23"/>
</svg>
