<svg width="50" height="50" viewBox="0 0 50 50" fill="none" xmlns="http://www.w3.org/2000/svg">
<rect x="13.5" y="0.5" width="36" height="36" fill="white" stroke="black"/>
<path d="M37.5 0.5L49.5 12.5" stroke="black"/>
<path d="M26 0.5L49.5 23.5" stroke="black"/>
<path d="M14 0.5L40.5 26.5" stroke="black"/>
<path d="M46.5 0.5L20.5 26.5" stroke="black"/>
<path d="M33 0.5L7 26.5" stroke="black"/>
<path d="M19 0.5L13.5 5.5" stroke="black"/>
<path d="M49.5 12L34 26.5" stroke="black"/>
<rect x="0.5" y="6.5" width="22" height="43" fill="white" stroke="black"/>
<path d="M17 8L19 10" stroke="black"/>
<path d="M11 8L13 10" stroke="black"/>
<path d="M14 13L16 15" stroke="black"/>
<path d="M8 13L10 15" stroke="black"/>
<path d="M4 8L6 10" stroke="black"/>
<path d="M17 19L19 21" stroke="black"/>
<path d="M11 19L13 21" stroke="black"/>
<path d="M14 24L16 26" stroke="black"/>
<path d="M8 24L10 26" stroke="black"/>
<path d="M4 19L6 21" stroke="black"/>
<path d="M17 29L19 31" stroke="black"/>
<path d="M11 29L13 31" stroke="black"/>
<path d="M14 34L16 36" stroke="black"/>
<path d="M8 34L10 36" stroke="black"/>
<path d="M4 29L6 31" stroke="black"/>
<path d="M17 39L19 41" stroke="black"/>
<path d="M11 39L13 41" stroke="black"/>
<path d="M14 44L16 46" stroke="black"/>
<path d="M8 44L10 46" stroke="black"/>
<path d="M4 39L6 41" stroke="black"/>
<rect x="13.5" y="26.5" width="36" height="23" fill="white" stroke="black"/>
<rect x="23.5" y="36.5" width="26" height="13" fill="white" stroke="black"/>
<path d="M42.5 36.5L49.5 43.5M37.5 36.5L49 49M32.5 36.5L44.5 49.5M27.5 36.5L39.5 49.5M23.5 38L34.5 49.5M23.5 44L29 49.5" stroke="black"/>
</svg>
