<svg width="109" height="109" viewBox="0 0 109 109" fill="none" xmlns="http://www.w3.org/2000/svg">
<rect x="0.5" y="0.5" width="33.88" height="66.58" stroke="white"/>
<rect x="37.5605" y="41.92" width="33.88" height="66.58" stroke="white"/>
<rect x="0.5" y="70.26" width="33.88" height="38.24" stroke="white"/>
<rect x="74.6191" y="0.5" width="33.88" height="66.58" stroke="white"/>
<rect x="74.6191" y="70.26" width="33.88" height="38.24" stroke="white"/>
<rect x="37.5605" y="0.5" width="33.88" height="38.24" stroke="white"/>
<path d="M97.0098 4.35999L101.37 8.71999" stroke="white"/>
<path d="M93.7402 15.26L89.3802 19.62" stroke="white"/>
<path d="M82.8398 4.35999L87.1998 8.71999" stroke="white"/>
<path d="M97.0098 26.16L101.37 30.52" stroke="white"/>
<path d="M93.7402 37.06L89.3802 41.42" stroke="white"/>
<path d="M82.8398 26.16L87.1998 30.52" stroke="white"/>
<path d="M97.0098 47.96L101.37 52.32" stroke="white"/>
<path d="M93.7402 58.86L89.3802 63.22" stroke="white"/>
<path d="M82.8398 47.96L87.1998 52.32" stroke="white"/>
<path d="M59.9492 45.78L64.3092 50.14" stroke="white"/>
<path d="M56.6797 56.68L52.3197 61.04" stroke="white"/>
<path d="M45.7793 45.78L50.1393 50.14" stroke="white"/>
<path d="M59.9492 67.58L64.3092 71.94" stroke="white"/>
<path d="M56.6797 78.48L52.3197 82.84" stroke="white"/>
<path d="M45.7793 67.58L50.1393 71.94" stroke="white"/>
<path d="M59.9492 89.38L64.3092 93.74" stroke="white"/>
<path d="M56.6797 100.28L52.3197 104.64" stroke="white"/>
<path d="M45.7793 89.38L50.1393 93.74" stroke="white"/>
<path d="M22.8906 4.35999L27.2506 8.71999" stroke="white"/>
<path d="M19.6191 15.26L15.2591 19.62" stroke="white"/>
<path d="M8.7207 4.35999L13.0807 8.71999" stroke="white"/>
<path d="M22.8906 26.16L27.2506 30.52" stroke="white"/>
<path d="M19.6191 37.06L15.2591 41.42" stroke="white"/>
<path d="M8.7207 26.16L13.0807 30.52" stroke="white"/>
<path d="M59.9492 6.54001L64.3092 10.9" stroke="white"/>
<path d="M56.6797 17.44L52.3197 21.8" stroke="white"/>
<path d="M45.7793 6.54001L50.1393 10.9" stroke="white"/>
<path d="M59.9492 28.34L64.3092 32.7" stroke="white"/>
<path d="M45.7793 28.34L50.1393 32.7" stroke="white"/>
<path d="M22.8906 76.3L27.2506 80.66" stroke="white"/>
<path d="M19.6191 87.2L15.2591 91.56" stroke="white"/>
<path d="M8.7207 76.3L13.0807 80.66" stroke="white"/>
<path d="M22.8906 98.1L27.2506 102.46" stroke="white"/>
<path d="M8.7207 98.1L13.0807 102.46" stroke="white"/>
<path d="M97.0098 76.3L101.37 80.66" stroke="white"/>
<path d="M93.7402 87.2L89.3802 91.56" stroke="white"/>
<path d="M82.8398 76.3L87.1998 80.66" stroke="white"/>
<path d="M97.0098 98.1L101.37 102.46" stroke="white"/>
<path d="M82.8398 98.1L87.1998 102.46" stroke="white"/>
<path d="M22.8906 47.96L27.2506 52.32" stroke="white"/>
<path d="M19.6191 58.86L15.2591 63.22" stroke="white"/>
<path d="M8.7207 47.96L13.0807 52.32" stroke="white"/>
</svg>
