<svg width="102" height="102" viewBox="0 0 102 102" fill="none" xmlns="http://www.w3.org/2000/svg">
<rect x="27.0195" y="0.5" width="74.4804" height="74.4804" fill="white" stroke="black"/>
<path d="M76.5 1.01999L100.98 25.5001" stroke="black"/>
<path d="M53.041 1.01999L100.981 47.9402" stroke="black"/>
<path d="M28.5586 1.01999L82.6188 54.0602" stroke="black"/>
<path d="M94.8606 1.01999L41.8203 54.0602" stroke="black"/>
<path d="M67.3195 1.01999L14.2793 54.0602" stroke="black"/>
<path d="M38.7611 1.01999L27.541 11.22" stroke="black"/>
<path d="M100.98 24.4801L69.3594 54.0603" stroke="black"/>
<rect x="0.5" y="12.7401" width="45.9202" height="88.7604" fill="white" stroke="black"/>
<path d="M34.6816 16.3201L38.7617 20.4001" stroke="black"/>
<path d="M22.4414 16.3201L26.5214 20.4001" stroke="black"/>
<path d="M28.5586 26.5201L32.6386 30.6001" stroke="black"/>
<path d="M16.3203 26.5201L20.4003 30.6001" stroke="black"/>
<path d="M8.16016 16.3201L12.2402 20.4001" stroke="black"/>
<path d="M34.6816 38.7602L38.7617 42.8402" stroke="black"/>
<path d="M22.4414 38.7602L26.5214 42.8402" stroke="black"/>
<path d="M28.5586 48.9602L32.6386 53.0402" stroke="black"/>
<path d="M16.3203 48.9602L20.4003 53.0402" stroke="black"/>
<path d="M8.16016 38.7602L12.2402 42.8402" stroke="black"/>
<path d="M34.6816 59.1603L38.7617 63.2403" stroke="black"/>
<path d="M22.4414 59.1603L26.5214 63.2403" stroke="black"/>
<path d="M28.5586 69.3603L32.6386 73.4403" stroke="black"/>
<path d="M16.3203 69.3603L20.4003 73.4403" stroke="black"/>
<path d="M8.16016 59.1603L12.2402 63.2403" stroke="black"/>
<path d="M34.6816 79.5604L38.7617 83.6404" stroke="black"/>
<path d="M22.4414 79.5604L26.5214 83.6404" stroke="black"/>
<path d="M28.5586 89.7604L32.6386 93.8404" stroke="black"/>
<path d="M16.3203 89.7604L20.4003 93.8404" stroke="black"/>
<path d="M8.16016 79.5604L12.2402 83.6404" stroke="black"/>
<rect x="27.0195" y="53.5402" width="74.4804" height="47.9602" fill="white" stroke="black"/>
<rect x="47.4199" y="73.9403" width="54.0803" height="27.5601" fill="white" stroke="black"/>
<path d="M86.7016 74.4604L100.982 88.7404M76.5015 74.4604L99.9616 99.9605M66.3015 74.4604L90.7816 100.98M56.1014 74.4604L80.5816 100.98M47.9414 77.5204L70.3815 100.98M47.9414 89.7604L59.1615 100.98" stroke="black"/>
</svg>
