<svg width="113" height="113" viewBox="0 0 113 113" fill="none" xmlns="http://www.w3.org/2000/svg">
<path d="M57 92.5L57.5 92.5L57.5 92L57.5 1.00257L112.5 42.4294L112.5 112.5L0.500015 112.5L0.500006 92.5L57 92.5Z" stroke="black"/>
<rect x="62.5" y="67.5" width="10" height="5" stroke="black" stroke-linejoin="round"/>
<rect x="62.5" y="87.5" width="10" height="5" stroke="black" stroke-linejoin="round"/>
<rect x="72.5" y="77.5" width="10" height="5" stroke="black" stroke-linejoin="round"/>
<rect x="72.5" y="87.5" width="10" height="5" stroke="black" stroke-linejoin="round"/>
<rect x="82.5" y="87.5" width="10" height="5" stroke="black" stroke-linejoin="round"/>
<rect x="92.5" y="87.5" width="10" height="5" stroke="black" stroke-linejoin="round"/>
<rect x="62.5" y="97.5" width="10" height="5" stroke="black" stroke-linejoin="round"/>
<rect x="52.5" y="97.5" width="10" height="5" stroke="black" stroke-linejoin="round"/>
<rect x="52.5" y="107.5" width="10" height="5" stroke="black" stroke-linejoin="round"/>
<rect x="62.5" y="107.5" width="10" height="5" stroke="black" stroke-linejoin="round"/>
<rect x="72.5" y="97.5" width="10" height="5" stroke="black" stroke-linejoin="round"/>
<rect x="82.5" y="97.5" width="10" height="5" stroke="black" stroke-linejoin="round"/>
<rect x="92.5" y="97.5" width="10" height="5" stroke="black" stroke-linejoin="round"/>
<rect x="102.5" y="87.5" width="10" height="5" stroke="black" stroke-linejoin="round"/>
<rect x="102.5" y="97.5" width="10" height="5" stroke="black" stroke-linejoin="round"/>
<rect x="92.5" y="107.5" width="10" height="5" stroke="black" stroke-linejoin="round"/>
<rect x="102.5" y="107.5" width="10" height="5" stroke="black" stroke-linejoin="round"/>
<rect x="57.5" y="72.5" width="10" height="5" stroke="black" stroke-linejoin="round"/>
<rect x="67.5" y="72.5" width="10" height="5" stroke="black" stroke-linejoin="round"/>
<rect x="77.5" y="72.5" width="10" height="5" stroke="black" stroke-linejoin="round"/>
<rect x="57.5" y="92.5" width="10" height="5" stroke="black" stroke-linejoin="round"/>
<rect x="67.5" y="92.5" width="10" height="5" stroke="black" stroke-linejoin="round"/>
<rect x="37.5" y="92.5" width="10" height="5" stroke="black" stroke-linejoin="round"/>
<rect x="47.5" y="92.5" width="10" height="5" stroke="black" stroke-linejoin="round"/>
<rect x="77.5" y="92.5" width="10" height="5" stroke="black" stroke-linejoin="round"/>
<rect x="87.5" y="92.5" width="10" height="5" stroke="black" stroke-linejoin="round"/>
<rect x="97.5" y="92.5" width="10" height="5" stroke="black" stroke-linejoin="round"/>
<rect x="57.5" y="102.5" width="10" height="5" stroke="black" stroke-linejoin="round"/>
<rect x="67.5" y="102.5" width="10" height="5" stroke="black" stroke-linejoin="round"/>
<rect x="77.5" y="102.5" width="10" height="5" stroke="black" stroke-linejoin="round"/>
<rect x="87.5" y="102.5" width="10" height="5" stroke="black" stroke-linejoin="round"/>
<rect x="97.5" y="102.5" width="10" height="5" stroke="black" stroke-linejoin="round"/>
<rect x="87.5" y="82.5" width="10" height="5" stroke="black" stroke-linejoin="round"/>
<rect x="97.5" y="82.5" width="10" height="5" stroke="black" stroke-linejoin="round"/>
<rect x="67.5" y="82.5" width="10" height="5" stroke="black" stroke-linejoin="round"/>
<rect x="77.5" y="82.5" width="10" height="5" stroke="black" stroke-linejoin="round"/>
<rect x="61.5605" y="43.32" width="4.56" height="4.56" fill="black"/>
<rect x="70.6797" y="43.32" width="4.56" height="4.56" fill="black"/>
<rect x="79.8008" y="43.32" width="4.56" height="4.56" fill="black"/>
<rect x="88.9199" y="43.32" width="4.56" height="4.56" fill="black"/>
<rect x="61.5605" y="34.2" width="4.56" height="4.56" fill="black"/>
<rect x="70.6797" y="34.2" width="4.56" height="4.56" fill="black"/>
<rect x="79.8008" y="34.2" width="4.56" height="4.56" fill="black"/>
<rect x="61.5605" y="25.08" width="4.56" height="4.56" fill="black"/>
<rect x="70.6797" y="25.08" width="4.56" height="4.56" fill="black"/>
<rect x="61.5605" y="15.96" width="4.56" height="4.56" fill="black"/>
<rect x="79.8008" y="25.08" width="4.56" height="4.56" fill="black"/>
<rect x="88.9199" y="34.2" width="4.56" height="4.56" fill="black"/>
<rect x="98.0391" y="43.32" width="4.56" height="4.56" fill="black"/>
<rect x="61.5605" y="52.44" width="4.56" height="4.56" fill="black"/>
<rect x="70.6797" y="52.44" width="4.56" height="4.56" fill="black"/>
<rect x="79.8008" y="52.44" width="4.56" height="4.56" fill="black"/>
<rect x="88.9199" y="52.44" width="4.56" height="4.56" fill="black"/>
<rect x="98.0391" y="52.44" width="4.56" height="4.56" fill="black"/>
<rect x="6.83984" y="102.6" width="4.56" height="4.56" fill="black"/>
<rect x="15.9609" y="102.6" width="4.56" height="4.56" fill="black"/>
<rect x="25.0801" y="102.6" width="4.56" height="4.56" fill="black"/>
<rect x="34.1992" y="102.6" width="4.56" height="4.56" fill="black"/>
<rect x="43.3203" y="102.6" width="4.56" height="4.56" fill="black"/>
<rect x="79.8008" y="61.56" width="4.56" height="4.56" fill="black"/>
<rect x="88.9199" y="61.56" width="4.56" height="4.56" fill="black"/>
<rect x="98.0391" y="61.56" width="4.56" height="4.56" fill="black"/>
<rect x="52.5" y="25.5" width="5" height="21" stroke="black" stroke-linejoin="round"/>
<path d="M104.879 17.24H107.159V37.76L104.879 36.3303V17.24Z" fill="black"/>
<path d="M98.0391 5.84H100.319V33.2L98.0391 31.2937V5.84Z" fill="black"/>
<rect x="15.9609" y="60.56" width="2.28" height="31.92" fill="black"/>
<rect x="6.83984" y="74.24" width="2.28" height="18.24" fill="black"/>
<rect x="25.0801" y="83.36" width="2.28" height="9.12" fill="black"/>
</svg>
