<svg width="79" height="114" viewBox="0 0 79 114" fill="none" xmlns="http://www.w3.org/2000/svg">
<path d="M1.5 59.5H78.5V72.5H1.5V59.5Z" stroke="black" stroke-linejoin="round"/>
<rect x="11.5" y="72.5" width="56" height="13" stroke="black" stroke-linejoin="round"/>
<rect x="1.5" y="72.5" width="10" height="41" stroke="black" stroke-linejoin="round"/>
<rect x="67.5" y="72.5" width="11" height="41" stroke="black" stroke-linejoin="round"/>
<rect width="13.1598" height="2.28" transform="matrix(0.707103 -0.70711 0.707103 0.70711 32.9199 43.4821)" fill="black"/>
<rect width="6.20714" height="2.28" transform="matrix(0.707101 -0.707113 0.707101 0.707113 29.6406 39.9455)" fill="black"/>
<rect x="28.3594" y="77.52" width="22.8" height="2.28" fill="black"/>
<path d="M57.4995 26.22C57.4995 33.3711 55.4823 39.8236 52.2467 44.4748C49.0098 49.1278 44.587 51.94 39.7595 51.94C34.932 51.94 30.5092 49.1278 27.2724 44.4748C24.0367 39.8236 22.0195 33.3711 22.0195 26.22C22.0195 19.0689 24.0367 12.6164 27.2724 7.96519C30.5092 3.31221 34.932 0.5 39.7595 0.5C44.587 0.5 49.0098 3.31221 52.2467 7.96519C55.4823 12.6164 57.4995 19.0689 57.4995 26.22Z" stroke="black"/>
<path d="M52.9401 26.22C52.9401 32.1215 51.4283 37.4408 49.0106 41.2689C46.5888 45.1034 43.3056 47.38 39.7601 47.38C36.2145 47.38 32.9314 45.1034 30.5096 41.2689C28.0918 37.4408 26.5801 32.1215 26.5801 26.22C26.5801 20.3184 28.0918 14.9992 30.5096 11.1711C32.9314 7.33656 36.2145 5.06 39.7601 5.06C43.3056 5.06 46.5888 7.33656 49.0106 11.1711C51.4283 14.9992 52.9401 20.3184 52.9401 26.22Z" stroke="black"/>
<path d="M78.5208 59.28C72.8208 58.9 59.5968 55.404 52.3008 44.46" stroke="black"/>
<path d="M1.0007 59.28C6.94853 58.8708 19.6075 56.2458 27.2207 44.46" stroke="black"/>
</svg>
