<svg width="125" height="116" viewBox="0 0 125 116" fill="none" xmlns="http://www.w3.org/2000/svg">
<rect x="0.5" y="61.3132" width="123.611" height="13.9533" rx="5.5" stroke="black"/>
<path d="M8 85L116 83.9808" stroke="black"/>
<path d="M7.47613 62.0594L7.47613 8C7.47613 4.13401 10.6101 0.999999 14.4761 0.999999L35.3672 1C39.2332 1 42.3672 4.13401 42.3672 8L42.3672 14.7072" stroke="black"/>
<rect x="32.9004" y="13.9611" width="18.9377" height="8.96887" rx="4.48444" stroke="black"/>
<rect x="97.6973" y="3.99222" width="18.9377" height="18.9377" rx="1.5" stroke="black"/>
<rect x="102.682" y="23.4377" width="8.96887" height="8.96887" stroke="black"/>
<path d="M115.72 103.766L119.041 107.444C120.285 108.822 120.177 110.949 118.798 112.193C117.42 113.438 115.293 113.329 114.049 111.951L110.728 108.273L115.72 103.766Z" stroke="black"/>
<path d="M13.8222 108.651L10.3183 112.155C9.00509 113.468 6.8759 113.468 5.56266 112.155C4.24942 110.842 4.24942 108.713 5.56266 107.399L9.06652 103.895L13.8222 108.651Z" stroke="black"/>
<path d="M7.5 75.5H116.5V98C116.5 104.351 111.351 109.5 105 109.5H19C12.6487 109.5 7.5 104.351 7.5 98V75.5Z" stroke="black"/>
<rect x="44.8594" y="43.3677" width="2.49222" height="4.98444" fill="black"/>
<rect x="44.8594" y="28.4144" width="2.49222" height="4.98444" fill="black"/>
<rect x="39.877" y="35.8911" width="2.49222" height="4.98444" fill="black"/>
<rect x="37.3828" y="25.9222" width="2.49222" height="4.98444" fill="black"/>
</svg>
