<svg width="32" height="36" viewBox="0 0 32 36" fill="none" xmlns="http://www.w3.org/2000/svg">
<path d="M30.031 3.29587L29.5952 2.86009C31.1235 4.389 32 6.28763 32 8.06967V30.7939C32 30.9251 31.955 31.0523 31.8726 31.1544L28.4546 35.3833C28.3463 35.5159 28.1802 35.5962 28.0086 35.5962H1.53629C1.21962 35.5962 0.962891 35.3396 0.962891 35.0228V22.2818C0.962891 21.965 1.21962 21.7084 1.53629 21.7084C1.85295 21.7084 2.10968 21.965 2.10968 22.2818V34.4494H27.4352V32.2044V12.7626V9.83038C27.4352 6.96683 25.1056 4.63716 22.242 4.63716H2.10968V19.7585C2.10968 20.0753 1.85295 20.3319 1.53629 20.3319C1.21962 20.3319 0.962891 20.0753 0.962891 19.7585V4.06384C0.962891 3.88165 1.05387 3.70451 1.20181 3.59817L5.43072 0.560237C5.52812 0.490206 5.64517 0.452515 5.7652 0.452515H20.6925C21.0091 0.452515 21.2659 0.709167 21.2659 1.02591C21.2659 1.34266 21.0091 1.59931 20.6925 1.59931H5.94983L5.67178 1.799H8.14694C8.4636 1.799 8.72033 2.05565 8.72033 2.3724C8.72033 2.68914 8.4636 2.9458 8.14694 2.9458H4.07536L3.31726 3.49037H22.242C25.7379 3.49037 28.582 6.33449 28.582 9.83038V33.4012L29.1268 32.7271V26.1371C29.1268 25.8204 29.3836 25.5637 29.7002 25.5637C30.0169 25.5637 30.2736 25.8204 30.2736 26.1371V31.3082L30.8532 30.5911V8.06967C30.8532 6.61072 30.0793 4.96576 28.7828 3.66942C27.4865 2.37316 25.8416 1.59931 24.3829 1.59931H23.3622C23.0455 1.59931 22.7888 1.34266 22.7888 1.02591C22.7888 0.709167 23.0455 0.452515 23.3622 0.452515H24.3829C26.1647 0.452515 28.0632 1.32889 29.592 2.85696C29.2103 2.47523 28.8302 2.0951 29.5936 2.85849L30.031 3.29587Z" fill="black"/>
<path d="M16.2675 9.45862H4.7648C4.44813 9.45862 4.19141 9.71527 4.19141 10.032C4.19141 10.3488 4.44813 10.6054 4.7648 10.6054H16.2675C16.5842 10.6054 16.8409 10.3488 16.8409 10.032C16.8409 9.71527 16.5842 9.45862 16.2675 9.45862Z" fill="black"/>
<path d="M16.2675 11.4377H4.7648C4.44813 11.4377 4.19141 11.6944 4.19141 12.0111C4.19141 12.3279 4.44813 12.5845 4.7648 12.5845H16.2675C16.5842 12.5845 16.8409 12.3279 16.8409 12.0111C16.8409 11.6944 16.5842 11.4377 16.2675 11.4377Z" fill="black"/>
<path d="M6.96382 25.3588H4.7648C4.44813 25.3588 4.19141 25.6155 4.19141 25.9322C4.19141 26.249 4.44813 26.5056 4.7648 26.5056H6.96382C7.28048 26.5056 7.53721 26.249 7.53721 25.9322C7.53721 25.6155 7.28048 25.3588 6.96382 25.3588Z" fill="black"/>
<path d="M14.7735 27.1276H4.7648C4.44813 27.1276 4.19141 27.3842 4.19141 27.701C4.19141 28.0177 4.44813 28.2744 4.7648 28.2744H14.7735C15.0901 28.2744 15.3469 28.0177 15.3469 27.701C15.3469 27.3842 15.0901 27.1276 14.7735 27.1276Z" fill="black"/>
<path d="M14.7735 29.3467H4.7648C4.44813 29.3467 4.19141 29.6034 4.19141 29.9201C4.19141 30.2369 4.44813 30.4935 4.7648 30.4935H14.7735C15.0901 30.4935 15.3469 30.2369 15.3469 29.9201C15.3469 29.6034 15.0901 29.3467 14.7735 29.3467Z" fill="black"/>
</svg>
