<svg width="35" height="35" viewBox="0 0 35 35" fill="none" xmlns="http://www.w3.org/2000/svg">
<path d="M7.78125 25.4521L8.37798 24.3583L9.33829 24.8822L8.74156 25.976L7.78125 25.4521Z" fill="black"/>
<path d="M13.1978 17.7904C13.4991 17.2386 14.1062 16.9093 14.7269 16.9575L14.8051 15.8665C13.7605 15.7932 12.7428 16.3411 12.238 17.267L8.97266 23.2542L9.93297 23.7776L13.1978 17.7904Z" fill="black"/>
<path d="M34.4531 4.375C34.4531 2.26406 32.7354 0.546875 30.625 0.546875H29.8517L18.9142 11.4844L20.008 12.5781L17.7592 14.8269C16.8782 14.0809 15.7752 13.6719 14.6081 13.6719C12.962 13.6719 11.4466 14.5042 10.5459 15.8594H0.546875V34.4531H34.4531V15.8594H23.742L34.4531 5.14828V4.375ZM33.3594 4.375C31.8516 4.375 30.625 3.14836 30.625 1.64062C32.1327 1.64062 33.3594 2.86727 33.3594 4.375ZM32.6539 5.40094L25.1562 12.8986L22.1014 9.84375L29.5991 2.34609C29.8889 3.89156 31.1084 5.11109 32.6539 5.40094ZM21.3281 10.617L24.383 13.6719L23.5156 14.5392L20.4608 11.4844L21.3281 10.617ZM21.6486 14.2188L17.8402 18.0272C17.4021 17.9435 17.0565 17.5973 16.9728 17.1604L20.7812 13.3514L21.6486 14.2188ZM8.12711 20.2344H7.10938V16.9531H9.91648L8.12711 20.2344ZM7.53047 21.3281L5.74109 24.6094H4.92188V21.3281H7.53047ZM4.92188 24.6094H1.64062V21.3281H4.92188V24.6094ZM5.16797 25.7031C5.00828 26.087 4.92188 26.4999 4.92188 26.9166C4.92188 27.7074 5.21555 28.4293 5.69734 28.9844H1.64062V25.7031H5.16797ZM32.2656 30.0781V33.3594H4.92188V30.0781H32.2656ZM25.7031 21.3281V24.6094H20L21.3281 21.3281H25.7031ZM20 24.6094H18.8967C19.4152 24.307 20.2502 23.5374 20.6172 23.0846L20 24.6094ZM16.911 25.7031H17V28.9844H10.8943L16.911 25.7031ZM17 28.9844V25.7031H33.3594V28.9844H17ZM31.1719 24.6094V21.3281H33.3594V24.6094H31.1719ZM31.1719 24.6094H25.7031V21.3281H31.1719V24.6094ZM22.4219 20.2344V16.9531H27.8906V20.2344H22.4219ZM22.4219 20.2344H21.3205C21.2855 19.1253 20.8852 18.0813 20.1731 17.2408L20.4608 16.9531H22.4219V20.2344ZM11.2771 16.7431C11.9427 15.523 13.2191 14.7656 14.6081 14.7656C15.4831 14.7656 16.3122 15.0609 16.9837 15.6023L15.8594 16.7267V16.9531C15.8594 18.1595 16.8405 19.1406 18.0469 19.1406H18.2733L19.3971 18.0168C19.9391 18.6878 20.2344 19.5169 20.2344 20.3919C20.2344 21.7809 19.4764 23.0573 18.2574 23.7229L9.07375 28.7317C8.77023 28.8969 8.42789 28.9844 8.08336 28.9844C6.94312 28.9844 6.01562 28.0569 6.01562 26.9166C6.01562 26.5721 6.10312 26.2298 6.26828 25.9263L11.2771 16.7431ZM7.10938 16.9531V20.2344H1.64062V16.9531H7.10938ZM1.64062 30.0781H4.92188V33.3594H1.64062V30.0781ZM32.2656 33.3594V30.0781H33.3594V33.3594H32.2656ZM33.3594 20.2344H27.8906V16.9531H33.3594V20.2344ZM21.5545 15.8594L22.4219 14.992L23.2892 15.8594H21.5545Z" fill="black"/>
</svg>
