<svg width="37" height="37" viewBox="0 0 37 37" fill="none" xmlns="http://www.w3.org/2000/svg">
<path d="M9.92383 5.00835C10.1087 5.00835 10.2936 4.93749 10.4348 4.79663L11.2305 4.00086C11.4352 3.79592 11.7076 3.68329 11.9972 3.68329H13.2929C13.9687 3.68329 14.6039 3.41991 15.0818 2.94228L16.2609 1.76289C16.4658 1.55823 16.7383 1.44531 17.0279 1.44531H20.8853C21.2842 1.44531 21.608 1.12181 21.608 0.722656C21.608 0.323502 21.2842 0 20.8853 0H17.0279C16.3521 0 15.7169 0.263092 15.239 0.741005L14.0599 1.92012C13.855 2.12506 13.5826 2.23798 13.2929 2.23798H11.9972C11.3214 2.23798 10.6863 2.50107 10.2084 2.97898L9.41289 3.77447C9.1306 4.05676 9.1306 4.51434 9.41289 4.79663C9.55403 4.93749 9.73893 5.00835 9.92383 5.00835Z" fill="black"/>
<path d="M20.8849 3.03348H19.2871C18.6113 3.03348 17.9762 3.29685 17.4986 3.77448C17.2936 3.97942 17.0212 4.09234 16.7316 4.09234H15.8164C15.4173 4.09234 15.0938 4.41584 15.0938 4.815C15.0938 5.21387 15.4173 5.53765 15.8164 5.53765H16.7316C17.4074 5.53765 18.0425 5.27428 18.5204 4.79665C18.7254 4.59171 18.9978 4.47879 19.2871 4.47879H20.8849C21.284 4.47879 21.6075 4.15529 21.6075 3.75613C21.6075 3.35726 21.284 3.03348 20.8849 3.03348Z" fill="black"/>
<path d="M23.5002 0.998739C23.6145 1.27792 23.9027 1.45859 24.2034 1.44447C24.5006 1.43036 24.7643 1.22626 24.8552 0.943411C24.9475 0.656889 24.8475 0.33254 24.6076 0.149618C24.3634 -0.0364093 24.0227 -0.046854 23.7669 0.122236C23.4835 0.309393 23.3695 0.685118 23.5002 0.998739Z" fill="black"/>
<path d="M35.8523 26.4549H35.6593V18.4382C35.7719 18.5045 35.8984 18.5384 36.0251 18.5384C36.208 18.5384 36.391 18.4695 36.5318 18.3309C36.8164 18.0512 36.8203 17.5936 36.5403 17.309L35.6593 16.413V8.99453C35.6593 8.80286 35.583 8.61909 35.4475 8.48359C35.312 8.34781 35.128 8.27187 34.9363 8.27187L27.6539 8.27244L26.4279 7.02586C26.2927 6.88838 26.1083 6.81075 25.9158 6.80991H25.9155C25.9147 6.80991 25.9136 6.80991 25.9124 6.80991C25.8661 6.80991 25.8201 6.81442 25.7752 6.82317C25.7738 6.82346 25.7724 6.82374 25.771 6.82402C25.6321 6.85168 25.5034 6.91972 25.4018 7.02106L24.018 8.40314H13.4424V6.59311C13.4424 6.19395 13.1189 5.87045 12.7197 5.87045H8.52832C8.12917 5.87045 7.80566 6.19395 7.80566 6.59311V8.40314H0.94043C0.541275 8.40314 0.217773 8.72664 0.217773 9.12579V16.7086C0.217773 17.1078 0.541275 17.4313 0.94043 17.4313H1.66732V26.4549H1.63966C1.2405 26.4549 0.917 26.7787 0.917 27.1775C0.917 27.5767 1.2405 27.9002 1.63966 27.9002H1.66732V36.2773C1.66732 36.6765 1.99082 37 2.38998 37H34.9366C35.3355 37 35.6593 36.6765 35.6593 36.2773V27.9002H35.8523C36.2512 27.9002 36.575 27.5767 36.575 27.1775C36.575 26.7787 36.2512 26.4549 35.8523 26.4549ZM30.1309 12.8528L33.2121 15.9862H26.995L30.1309 12.8528ZM29.1175 11.8222L24.9504 15.9862H18.4705L25.9079 8.5584L29.1175 11.8222ZM17.4466 17.4315H24.527V26.4549H17.4466V17.4315ZM25.9723 17.4315H34.214V26.4549H25.9723V17.4315ZM34.214 9.71719V14.9432L29.0755 9.71775L34.214 9.71719ZM9.25098 7.31577H11.9971V11.9924H9.25098V7.31577ZM1.66309 9.84845H7.80566V11.9924H7.11039C6.71152 11.9924 6.38773 12.3162 6.38773 12.7151C6.38773 13.1142 6.71152 13.4377 7.11039 13.4377H14.3626C14.7618 13.4377 15.0853 13.1142 15.0853 12.7151C15.0853 12.3162 14.7618 11.9924 14.3626 11.9924H13.4424V9.84845H22.5707L16.425 15.9862L1.66309 15.9859V9.84845ZM3.11263 27.9002H6.20679C6.60594 27.9002 6.92944 27.5767 6.92944 27.1775C6.92944 26.7787 6.60594 26.4549 6.20679 26.4549H3.11263V17.4315H15.0314C14.8967 17.7017 14.9413 18.0387 15.1663 18.2643C15.3921 18.4904 15.7303 18.535 16.0013 18.3992V26.4549H12.8487C12.4496 26.4549 12.1261 26.7787 12.1261 27.1775C12.1261 27.5767 12.4496 27.9002 12.8487 27.9002H16.0013V35.5547H12.5007V30.4168C12.5007 30.0179 12.1772 29.6941 11.778 29.6941H7.34695C6.94779 29.6941 6.62429 30.0179 6.62429 30.4168V35.5547H3.11263V27.9002ZM8.0696 35.5547V31.1394H11.0554V35.5547H8.0696ZM17.4466 27.9002H24.527V35.5547H17.4466V27.9002ZM34.214 35.5547H25.9723V27.9002H34.214V35.5547Z" fill="black"/>
</svg>
