<svg width="38" height="44" viewBox="0 0 38 44" fill="none" xmlns="http://www.w3.org/2000/svg">
<g clip-path="url(#clip0)">
<path fill-rule="evenodd" clip-rule="evenodd" d="M23.4799 14.003C26.9423 14.2079 33.1302 14.877 36.2387 16.6387C37.4074 17.3011 38.0001 18.0747 38.0001 18.9384V29.7341V30.337V33.0761C38.0001 36.6613 27.6683 37.7037 24.6071 37.9352L25.0021 38.7759C25.4035 39.6304 24.9053 40.6827 24.0653 40.745C20.7127 40.9932 17.2112 40.9943 13.9153 40.7615C13.0825 40.7028 12.583 39.6592 12.9828 38.8084L13.393 37.9352C10.2081 37.6944 4.64388 37.0093 1.76136 35.3757C0.592638 34.7134 7.42189e-05 33.9397 7.42189e-05 33.076V18.9401L0 18.9384C0 15.1739 11.2891 14.1943 14.5206 14.0032V12.8802H13.8055C13.2855 12.8802 12.8626 12.3903 12.8626 11.7883V5.6096C12.8626 5.0076 13.2856 4.51784 13.8055 4.51784H14.5206V3.71106C14.5206 3.35511 14.7697 3.06653 15.0772 3.06653C15.3847 3.06653 15.6338 3.35511 15.6338 3.71106V4.51784H17.6943C18.0018 4.51784 18.2509 4.80642 18.2509 5.16238C18.2509 5.51833 18.0018 5.80691 17.6943 5.80691H13.9759V11.5908H24.0246V10.2028C24.0246 9.84684 24.2737 9.55826 24.5812 9.55826C24.8887 9.55826 25.1379 9.84684 25.1379 10.2028V11.7882C25.1379 12.3903 24.7148 12.88 24.1949 12.88H23.4799V14.003ZM36.8867 18.9384C36.8867 17.766 32.2885 15.8212 23.4798 15.2935V17.4913C25.484 17.6949 30.9061 18.3765 30.9061 20.6387C30.9061 21.05 30.7369 21.4233 30.3958 21.7615C30.916 21.6618 31.41 21.5574 31.9286 21.4331C35.8505 20.4931 36.8867 19.3902 36.8867 18.9384ZM22.3665 12.8801H15.6337V13.9461C17.8914 13.8474 20.174 13.8503 22.3665 13.9461V12.8801ZM22.3665 15.2359C20.1063 15.136 17.8195 15.1392 15.6337 15.2359V17.3939C17.8227 17.2334 20.1871 17.2342 22.3665 17.3939V15.2359ZM15.6336 18.9384C15.6336 19.2943 15.3845 19.5829 15.077 19.5829C14.7695 19.5829 14.5203 19.2943 14.5202 18.9384V18.7861C13.3521 18.908 12.2699 19.0777 11.3228 19.2917C8.98561 19.8197 8.28691 20.4407 8.21039 20.6388C8.28699 20.8369 8.98568 21.4579 11.3228 21.986C15.6259 22.9584 22.3801 22.957 26.677 21.986C29.0142 21.4579 29.7129 20.8369 29.7894 20.6388C29.7128 20.4407 29.0142 19.8197 26.677 19.2917C25.73 19.0777 24.6477 18.908 23.4797 18.7861V18.9384C23.4797 19.2943 23.2305 19.5829 22.923 19.5829C22.6155 19.5829 22.3664 19.2943 22.3664 18.9384V18.6867C20.17 18.5217 17.8255 18.522 15.6336 18.6867V18.9384ZM6.07148 16.4437C2.1522 17.3831 1.11477 18.4851 1.11343 18.9375C1.11343 19.3894 2.14968 20.4931 6.07155 21.4332C6.55999 21.5503 7.07232 21.6597 7.60432 21.7616C7.26328 21.4234 7.09407 21.05 7.09407 20.6388C7.09407 18.3759 12.5198 17.6947 14.5203 17.4913V15.2936C11.3471 15.4837 8.43943 15.8761 6.07148 16.4437ZM36.8867 20.8153C31.2957 25.0631 6.69425 25.0482 1.11343 20.8153V29C1.11343 31.5389 7.00148 32.9204 14 33.2995V37H24V33.1939C30.9986 32.6746 36.8867 31.2249 36.8867 29V20.8153ZM1.11343 33.0759C1.11343 34.124 5.09683 36.0527 13.7442 36.6696V34.4957C10.5495 34.2695 3.78657 33.5119 1.11343 31.4915V33.0759ZM13.9831 39.4746C17.2477 39.7053 20.7037 39.7021 23.9943 39.4584C24.0224 39.4563 24.0378 39.4206 24.0241 39.3919L23.3781 38.017C20.519 38.1821 17.4889 38.1826 14.622 38.017L13.9608 39.4244C13.9504 39.4467 13.9622 39.4732 13.9831 39.4746ZM31.9286 35.5707C35.8505 34.6307 36.8867 33.5278 36.8867 33.076V31.4916C34.2136 33.5119 27.45 34.2696 24.2559 34.4958V36.6698C27.1268 36.4649 29.7551 36.0917 31.9286 35.5707Z" fill="black"/>
<path d="M24.1958 4.51775H23.4808V3.71097C23.4808 3.35502 23.2317 3.06644 22.9242 3.06644C22.6167 3.06644 22.3675 3.35502 22.3675 3.71097V4.51775H17.293C16.9855 4.51775 16.7363 4.80633 16.7363 5.16228C16.7363 5.51824 16.9855 5.80682 17.293 5.80682H24.0254V10.1948C24.0254 10.5508 24.2746 10.8393 24.5821 10.8393C24.8896 10.8393 25.1387 10.5508 25.1387 10.1948V5.60942C25.1388 5.00751 24.7158 4.51775 24.1958 4.51775Z" fill="black"/>
<path d="M14 38L14.0252 31.5713C14.2411 31.2372 14.5755 31.0283 14.9216 31.0283H23.0139C23.2795 30.9632 23.8485 30.9686 24 31.5113V38" stroke="black" stroke-width="1.2"/>
</g>
<defs>
<clipPath id="clip0">
<rect width="38" height="44" fill="white"/>
</clipPath>
</defs>
</svg>
