<svg width="36" height="36" viewBox="0 0 36 36" fill="none" xmlns="http://www.w3.org/2000/svg">
<g clip-path="url(#clip0)">
<path d="M35.1617 7.9159C34.7772 7.9159 34.4658 8.22764 34.4658 8.61216V10.8201H30.2594C29.8748 10.8201 29.5631 11.1319 29.5631 11.5164V13.6211H26.0527V6.56953C26.0527 6.27949 25.8659 6.01445 25.5938 5.91502L9.37875 0.04173C9.16534 -0.0357235 8.92776 -0.00413789 8.74182 0.126325C8.55615 0.256513 8.44547 0.469373 8.44547 0.69624V4.19127V4.19786V15.2567C7.68246 15.8815 6.85492 16.6591 6.02628 17.6149C4.33301 19.5686 2.98471 21.8677 2.01929 24.4487C0.819305 27.6556 0.210938 31.308 0.210938 35.3037C0.210938 35.6882 0.522675 36 0.907196 36H35.1617C35.5463 36 35.858 35.6882 35.858 35.3037V8.61216C35.858 8.22764 35.5465 7.9159 35.1617 7.9159ZM30.9556 12.2127H34.4655V13.6211H30.9556V12.2127ZM9.83798 5.25886L11.5013 5.97737V13.2536C11.1297 13.4349 10.5477 13.7472 9.83798 14.2221V5.25886ZM3.30386 24.9892C4.20255 22.5695 5.45499 20.4156 7.02631 18.5875C8.73962 16.5943 10.4694 15.4218 11.5013 14.8326V20.5126H7.4166C7.03207 20.5126 6.72034 20.8246 6.72034 21.2088C6.72034 21.5933 7.03207 21.9051 7.4166 21.9051H11.5013V23.2841H5.99689C5.61237 23.2841 5.3009 23.5959 5.3009 23.9804C5.3009 24.3649 5.61237 24.6766 5.99689 24.6766H11.501V26.0554H5.07294C4.68842 26.0554 4.37668 26.3674 4.37668 26.7517C4.37668 27.1362 4.68842 27.4479 5.07294 27.4479H11.501V28.827H4.40359C4.01907 28.827 3.70734 29.1387 3.70734 29.5233C3.70734 29.9078 4.01907 30.2195 4.40359 30.2195H11.501V31.5983H4.19266C3.80786 31.5983 3.4964 31.9103 3.4964 32.2946C3.4964 32.6791 3.80786 32.9908 4.19266 32.9908H11.501V34.6075H1.60977C1.67569 31.0732 2.24478 27.8407 3.30386 24.9892ZM12.8938 34.6075V5.51979C12.8938 5.24183 12.7288 4.9908 12.4736 4.88038L9.83798 3.74193V1.68886L23.686 6.70494L21.7373 7.79313C21.517 7.91618 21.3805 8.14882 21.3805 8.40095V28.8899C21.3805 29.2741 21.6922 29.5859 22.0768 29.5859C22.4613 29.5859 22.773 29.2741 22.773 28.8899V8.80964L24.6602 7.75578V34.6075H12.8938ZM34.4658 34.6075H26.053V15.0136H34.4655V34.6075H34.4658Z" fill="black"/>
</g>
<defs>
<clipPath id="clip0">
<rect width="36" height="36" fill="white"/>
</clipPath>
</defs>
</svg>
