<svg width="42" height="42" viewBox="0 0 42 42" fill="none" xmlns="http://www.w3.org/2000/svg">
<path d="M36.0285 17.3481H30.9671V0.711864C30.9671 0.318737 30.6484 0 30.2553 0H5.97358C5.58046 0 5.26172 0.318737 5.26172 0.711864V41.2881C5.26172 41.6813 5.58046 42 5.97358 42H36.0285C36.4216 42 36.7404 41.6813 36.7404 41.2881V18.06C36.7404 17.6669 36.4216 17.3481 36.0285 17.3481ZM10.4797 18.06V40.5763H6.68545V1.42373H29.5434V17.3481H11.1915C10.7984 17.3481 10.4797 17.6669 10.4797 18.06ZM22.8946 40.5763H16.4878V34.0058H22.8946V40.5763ZM30.7251 40.5763H24.3183V34.0058H30.7251V40.5763ZM32.1275 40.5763V33.2939C32.1275 32.9008 31.8087 32.582 31.4156 32.582H15.8044C15.4113 32.582 15.0926 32.9008 15.0926 33.2939V40.5763H11.9034V18.7719H35.3166L35.338 40.5763H32.1275Z" fill="black"/>
<path d="M25.3776 4.00403H21.3271C20.934 4.00403 20.6152 4.32277 20.6152 4.71589V8.75928C20.6152 9.15241 20.934 9.47115 21.3271 9.47115H25.3705C25.7636 9.47115 26.0824 9.15241 26.0824 8.75928V4.71589C26.0824 4.32552 25.768 4.00794 25.3776 4.00403ZM22.039 8.04742V5.42776H24.6586L24.6657 8.04742H22.039Z" fill="black"/>
<path d="M14.6927 9.32202H10.6494C10.2562 9.32202 9.9375 9.64076 9.9375 10.0339V14.0915C9.9375 14.4846 10.2562 14.8034 10.6494 14.8034H14.6927C15.0859 14.8034 15.4046 14.4846 15.4046 14.0915V10.0339C15.4046 9.64076 15.0859 9.32202 14.6927 9.32202ZM13.9809 13.3654H11.3612V10.7458H13.9809V13.3654Z" fill="black"/>
<path d="M20.2884 20.7543H16.2451C15.8519 20.7543 15.5332 21.073 15.5332 21.4661V25.5095C15.5332 25.9027 15.8519 26.2214 16.2451 26.2214H20.2884C20.6816 26.2214 21.0003 25.9027 21.0003 25.5095V21.4661C21.0003 21.073 20.6816 20.7543 20.2884 20.7543ZM19.5766 24.7977H16.9569V22.178H19.5766V24.7977Z" fill="black"/>
<path d="M30.9652 25.3248H26.9218C26.5287 25.3248 26.21 25.6435 26.21 26.0366V30.08C26.21 30.4731 26.5287 30.7919 26.9218 30.7919H30.9652C31.3583 30.7919 31.6771 30.4731 31.6771 30.08V26.0366C31.6771 25.6435 31.3583 25.3248 30.9652 25.3248ZM30.2533 29.3682H27.6337V26.7485H30.2533V29.3682Z" fill="black"/>
</svg>
