<svg width="38" height="38" viewBox="0 0 38 38" fill="none" xmlns="http://www.w3.org/2000/svg">
<g clip-path="url(#clip0)">
<path d="M37.1181 8.01418H32.1147L23.6329 0.196564C23.4957 0.0701599 23.3163 0 23.1299 0H19H18.9977H14.7933C14.6072 0 14.4274 0.0701599 14.2906 0.196564L5.80878 8.01418H0.890625C0.480682 8.01418 0.148438 8.34671 0.148438 8.75636V11.8956C0.148438 12.3055 0.480682 12.6378 0.890625 12.6378H1.5383V37.2578C1.5383 37.6678 1.87054 38 2.28049 38H35.7282C36.1382 38 36.4704 37.6678 36.4704 37.2578C36.4704 36.8479 36.1382 36.5156 35.7282 36.5156H31.0675V31.7207C31.0675 29.922 29.7849 28.4171 28.0866 28.0718V12.6378H34.986V36.488C34.986 36.8979 35.3183 37.2301 35.7282 37.2301C36.1382 37.2301 36.4704 36.8979 36.4704 36.488V12.6378H37.1181C37.528 12.6378 37.8603 12.3055 37.8603 11.8956V8.75665C37.8603 8.34671 37.528 8.01418 37.1181 8.01418ZM22.84 1.48438L29.9244 8.01418H27.643L20.8433 1.48438H22.84ZM11.4065 9.07237L18.9994 1.77139L26.6022 9.07266V27.9976H11.4065V9.07237ZM15.0832 1.48438H17.1564L10.3654 8.01418H7.99881L15.0832 1.48438ZM1.63281 9.49855H9.92212V11.1534H1.63281V9.49855ZM3.02267 12.6378H9.92212V28.0721C8.61691 28.3353 7.50595 29.3292 7.11253 30.6039C7.00121 30.9655 6.94119 31.3423 6.94119 31.721V36.5156H3.02267V12.6378ZM13.4043 36.5156V33.7411H15.7338V36.5156H13.4043ZM22.5089 36.5156V33.7411H24.8383V36.5156H22.5089ZM29.5724 36.5156H26.3227V32.9989C26.3227 32.589 25.9905 32.2567 25.5805 32.2567H21.7667C21.3567 32.2567 21.0245 32.589 21.0245 32.9989V36.5156H17.2182V32.9989C17.2182 32.589 16.8859 32.2567 16.476 32.2567H12.6621C12.2522 32.2567 11.9199 32.589 11.9199 32.9989V36.5156H8.42557V31.7207C8.42557 30.4862 9.42984 29.4819 10.6643 29.4819H27.3337C28.5681 29.4819 29.5724 30.4862 29.5724 31.7207V36.5156ZM28.0866 11.1534V9.49884H36.3759V11.1534H28.0866Z" fill="black"/>
<path d="M14.8965 11.566H18.2569V14.9263C18.2569 15.3363 18.5894 15.6685 18.999 15.6685C19.409 15.6685 19.7412 15.3363 19.7412 14.9263V11.566H23.1019C23.5118 11.566 23.8441 11.2334 23.8441 10.8238C23.8441 10.4138 23.5118 10.0816 23.1019 10.0816H19.7412V6.72095C19.7412 6.311 19.409 5.97876 18.999 5.97876C18.5894 5.97876 18.2569 6.311 18.2569 6.72095V10.0816H14.8965C14.4865 10.0816 14.1543 10.4138 14.1543 10.8238C14.1543 11.2334 14.4865 11.566 14.8965 11.566Z" fill="black"/>
</g>
<defs>
<clipPath id="clip0">
<rect width="38" height="38" fill="white"/>
</clipPath>
</defs>
</svg>
