<svg width="33" height="45" viewBox="0 0 33 45" fill="none" xmlns="http://www.w3.org/2000/svg">
<path fill-rule="evenodd" clip-rule="evenodd" d="M30.3792 41.414H30.3802C31.369 41.414 32.1734 42.2184 32.1734 43.2068C32.1734 44.1956 31.369 45 30.3802 45H2.56075C1.57198 45 0.767578 44.1956 0.767578 43.2068C0.767578 42.2184 1.57198 41.414 2.56075 41.414H2.56178V30.0143C1.71687 29.6751 1.11845 28.848 1.11845 27.8833V24.55C1.11845 24.4576 1.13768 24.366 1.17545 24.2815L3.59656 18.8402V13.0243C3.01222 12.7342 2.60847 12.1327 2.60847 11.4371C2.60847 10.4597 3.40361 9.66419 4.38105 9.66419H8.74468C7.45963 8.60401 6.63874 6.99932 6.63874 5.20683V1.42101C6.63874 0.63755 7.27629 0 8.05975 0H19.0296C19.8131 0 20.4506 0.63755 20.4506 1.42101V1.46736C21.0593 1.07666 21.7752 0.85659 22.5167 0.85659C24.6264 0.85659 26.3431 2.5732 26.3431 4.68292C26.3431 6.79298 24.6264 8.50925 22.5167 8.50925C21.5534 8.50925 20.6511 8.15083 19.961 7.5301C19.594 8.36231 19.0375 9.09256 18.3447 9.66419H28.6062C29.584 9.66419 30.3792 10.4597 30.3792 11.4371C30.3792 12.1327 29.9758 12.7342 29.3911 13.0243V18.8083L31.8266 24.2815C31.864 24.366 31.8836 24.4576 31.8836 24.55V27.8833C31.8836 28.8714 31.2564 29.7153 30.3792 30.0383V41.414ZM28.6645 28.2C28.7963 28.5833 29.1606 28.8594 29.5882 28.8594C30.1261 28.8594 30.5639 28.4216 30.5639 27.8833V25.2095H30V25.2H3V25.2095H2.43784V27.8833C2.43784 28.4216 2.87558 28.8594 3.41391 28.8594C3.84143 28.8594 4.20551 28.5833 4.33728 28.2H5.7621C5.89396 28.5833 6.25825 28.8594 6.68578 28.8594C7.11302 28.8594 7.47726 28.5833 7.60911 28.2H9.03393C9.1657 28.5833 9.52978 28.8594 9.9573 28.8594C10.3848 28.8594 10.7491 28.5833 10.881 28.2H12.3058C12.4376 28.5833 12.8016 28.8594 13.2292 28.8594C13.6567 28.8594 14.0208 28.5833 14.1525 28.2H15.5774C15.7092 28.5833 16.0735 28.8594 16.501 28.8594C16.9283 28.8594 17.2925 28.5833 17.4244 28.2H18.8492C18.981 28.5833 19.345 28.8594 19.7726 28.8594C20.2001 28.8594 20.5641 28.5833 20.6959 28.2H22.1211C22.2528 28.5833 22.6169 28.8594 23.0444 28.8594C23.4719 28.8594 23.836 28.5833 23.9678 28.2H25.3929C25.5247 28.5833 25.8888 28.8594 26.3163 28.8594C26.7435 28.8594 27.1078 28.5833 27.2396 28.2H28.6645ZM28.0717 13.2097H4.91595V18.3207H28.0717V13.2097ZM4.68489 19.6401L2.79387 23.8901H30.2082L28.3172 19.6401H4.68489ZM25.0237 4.68327C25.0237 3.3007 23.8989 2.17632 22.5167 2.17632C21.6924 2.17632 20.9158 2.58934 20.4506 3.26431V5.20718C20.4506 5.4808 20.43 5.74963 20.3933 6.0133C20.8502 6.74355 21.6461 7.19021 22.5167 7.19021C23.8989 7.19021 25.0237 6.06548 25.0237 4.68327ZM7.95847 3.73672V5.20683C7.95847 7.66468 9.95798 9.66419 12.4155 9.66419H14.6739C17.1317 9.66419 19.1309 7.66468 19.1309 5.20683V3.73672H12.4193H11.6931H7.95847ZM11.6931 2.41734H7.95847V1.42101C7.95847 1.36505 8.00414 1.31939 8.05975 1.31939H19.0296C19.0856 1.31939 19.1309 1.36505 19.1309 1.42101V2.41734H12.4193H11.6931ZM28.6066 10.9836H4.38105C4.13145 10.9836 3.92786 11.1872 3.92786 11.4371C3.92786 11.687 4.13145 11.8903 4.38105 11.8903H28.6066C28.8562 11.8903 29.0598 11.687 29.0598 11.4371C29.0598 11.1872 28.8565 10.9836 28.6066 10.9836ZM5.04984 29.4918C4.73742 29.8097 4.33367 30.037 3.88117 30.131V41.4137H18.6279V33.7459C18.6279 32.4505 19.6816 31.3969 20.9769 31.3969H25.5191C26.8144 31.3969 27.8681 32.4505 27.8681 33.7459V39.0883V39.4495V41.4137H29.0594V30.117C28.632 30.0157 28.2502 29.7949 27.9519 29.4918C27.5351 29.9154 26.9559 30.1788 26.3159 30.1788C25.676 30.1788 25.0968 29.9154 24.68 29.4918C24.2636 29.9154 23.684 30.1788 23.0444 30.1788C22.4045 30.1788 21.8253 29.9154 21.4085 29.4918C20.9917 29.9154 20.4125 30.1788 19.7726 30.1788C19.1329 30.1788 18.5534 29.9154 18.1366 29.4918C17.7202 29.9154 17.1406 30.1788 16.501 30.1788C15.8611 30.1788 15.2815 29.9154 14.8651 29.4918C14.4483 29.9154 13.8688 30.1788 13.2292 30.1788C12.5892 30.1788 12.01 29.9154 11.5932 29.4918C11.1764 29.9154 10.5973 30.1788 9.9573 30.1788C9.31769 30.1788 8.73816 29.9154 8.32137 29.4918C7.90491 29.9154 7.32539 30.1788 6.68578 30.1788C6.04582 30.1788 5.46629 29.9154 5.04984 29.4918ZM26.5487 39.4495V39.0883V33.7459C26.5487 33.178 26.0869 32.7163 25.5191 32.7163H20.9769C20.4091 32.7163 19.9473 33.178 19.9473 33.7459V41.4137H26.5487V39.4495ZM2.56041 43.6806H30.3802C30.6411 43.6806 30.8536 43.4681 30.8536 43.2068C30.8536 42.9459 30.6415 42.7334 30.3802 42.7334H2.56041C2.29948 42.7334 2.08697 42.9459 2.08697 43.2068C2.08697 43.4681 2.29948 43.6806 2.56041 43.6806Z" fill="black"/>
</svg>
