<svg width="35" height="35" viewBox="0 0 35 35" fill="none" xmlns="http://www.w3.org/2000/svg">
<g clip-path="url(#clip0)">
<path d="M16.333 9.91667C16.331 9.71757 16.2948 9.52018 16.2256 9.33333H18.7737C18.7045 9.52018 18.6683 9.71757 18.6663 9.91667C18.6663 10.8831 19.4499 11.6667 20.4163 11.6667C21.3828 11.6667 22.1663 10.8831 22.1663 9.91667C22.1643 9.71757 22.1282 9.52018 22.059 9.33333H22.7497C23.0505 9.33476 23.3028 9.10746 23.333 8.80839L23.9163 2.97506C23.9329 2.81043 23.8787 2.64665 23.7677 2.52417C23.6563 2.40198 23.4985 2.33248 23.333 2.33333H11.9224L11.6606 0.500448C11.6193 0.213338 11.3733 0 11.083 0H9.33301V1.16667H10.5771L11.672 8.83289C11.7133 9.12 11.9594 9.33333 12.2497 9.33333H12.9404C12.8712 9.52018 12.835 9.71757 12.833 9.91667C12.833 10.8831 13.6166 11.6667 14.583 11.6667C15.5494 11.6667 16.333 10.8831 16.333 9.91667ZM20.9997 9.91667C20.9997 10.2388 20.7385 10.5 20.4163 10.5C20.0942 10.5 19.833 10.2388 19.833 9.91667C19.833 9.59452 20.0942 9.33333 20.4163 9.33333C20.7385 9.33333 20.9997 9.59452 20.9997 9.91667ZM12.0893 3.5H22.6913L22.2247 8.16667H12.7555L12.0893 3.5ZM14.583 10.5C14.2609 10.5 13.9997 10.2388 13.9997 9.91667C13.9997 9.59452 14.2609 9.33333 14.583 9.33333C14.9052 9.33333 15.1663 9.59452 15.1663 9.91667C15.1663 10.2388 14.9052 10.5 14.583 10.5Z" fill="black"/>
<path d="M34.5585 16.3507L25.6667 14.1279V12.25C25.6667 11.9279 25.4055 11.6667 25.0833 11.6667H9.91667C9.59452 11.6667 9.33333 11.9279 9.33333 12.25V14.1279L0.441488 16.3507C0.182007 16.416 0 16.6492 0 16.9167V34.4167C0 34.7388 0.26119 35 0.583333 35H34.4167C34.7388 35 35 34.7388 35 34.4167V16.9167C35 16.6492 34.818 16.416 34.5585 16.3507ZM1.16667 17.3721L9.33333 15.3305V33.8334H1.16667V17.3721ZM10.5 12.8334H24.5V33.8334H21.5833V28.5834C21.5833 28.2612 21.3221 28 21 28H14C13.6779 28 13.4167 28.2612 13.4167 28.5834V33.8334H10.5V12.8334ZM14.5833 29.1667H16.9167V33.8334H14.5833V29.1667ZM18.0833 33.8334V29.1667H20.4167V33.8334H18.0833ZM33.8333 33.8334H25.6667V15.3305L33.8333 17.3721V33.8334Z" fill="black"/>
</g>
<defs>
<clipPath id="clip0">
<rect width="35" height="35" fill="white"/>
</clipPath>
</defs>
</svg>
