<svg width="37" height="37" viewBox="0 0 37 37" fill="none" xmlns="http://www.w3.org/2000/svg">
<path d="M36.3224 8.15809H34.0749C34.0858 8.04882 34.0858 7.93862 34.0749 7.82935V2.38837C34.0749 1.46572 33.327 0.717834 32.4044 0.717834H4.55539C3.63274 0.717834 2.88486 1.46572 2.88486 2.38837V7.84948C2.87396 7.95875 2.87396 8.06894 2.88486 8.17822H0.670898C0.300394 8.17822 0 8.47861 0 8.84911V12.8745C0 13.245 0.300394 13.5454 0.670898 13.5454H1.20762C1.20762 13.5454 1.20762 13.6125 1.20762 13.646V34.8397C1.20762 35.6363 1.85344 36.2821 2.65005 36.2821H34.35C35.1466 36.2821 35.7924 35.6363 35.7924 34.8397V13.6058C35.7924 13.6058 35.7924 13.5387 35.7924 13.5051H36.3291C36.6996 13.5051 37 13.2047 37 12.8342V8.80886C36.9891 8.44364 36.6878 8.15432 36.3224 8.15809ZM4.22665 2.38837C4.22665 2.20681 4.37383 2.05963 4.55539 2.05963H32.4379C32.6195 2.05963 32.7666 2.20681 32.7666 2.38837V7.84948C32.7666 8.03104 32.6195 8.17822 32.4379 8.17822H4.55539C4.37383 8.17822 4.22665 8.03104 4.22665 7.84948V2.38837ZM17.8257 34.9403H13.7131V24.6555H17.8257V34.9403ZM23.2801 34.9403H19.1675V24.6555H23.2801V34.9403ZM34.3567 34.9403H24.6219V23.9846C24.6219 23.6141 24.3215 23.3137 23.951 23.3137H13.0422C12.6717 23.3137 12.3714 23.6141 12.3714 23.9846V34.9403H2.64334C2.58774 34.9403 2.5427 34.8953 2.5427 34.8397V13.6058C2.5427 13.5502 2.58774 13.5051 2.64334 13.5051H34.35C34.4056 13.5051 34.4506 13.5502 34.4506 13.6058L34.4573 34.8397C34.4573 34.8953 34.4123 34.9403 34.3567 34.9403ZM1.3418 12.1633V9.47976H35.6515L35.6582 12.1633H1.3418Z" fill="black"/>
<path d="M12.6333 3.3612C12.5572 3.27985 12.4494 3.23574 12.3381 3.24043C12.229 3.23683 12.1237 3.28094 12.0496 3.3612C11.9677 3.46611 11.9271 3.59735 11.9356 3.73019V4.87743H10.198V3.73019C10.2077 3.59718 10.167 3.46544 10.0839 3.3612C10.0054 3.27448 9.89211 3.22769 9.77529 3.23373C9.66367 3.22718 9.55515 3.27163 9.48009 3.35449C9.40109 3.46057 9.36302 3.59157 9.37275 3.72348V6.88341C9.36243 7.01541 9.40059 7.14657 9.48009 7.2524C9.55381 7.33777 9.66258 7.38474 9.77529 7.37987C9.8864 7.38365 9.99383 7.3397 10.0705 7.25911C10.1536 7.15487 10.1943 7.02304 10.1845 6.89012V5.54832H11.9356V6.89012C11.9259 7.02203 11.9639 7.15303 12.0429 7.25911C12.1166 7.34448 12.2254 7.39145 12.3381 7.38658C12.4494 7.39128 12.5572 7.34717 12.6333 7.26582C12.7164 7.16158 12.7571 7.02983 12.7474 6.89683V3.73019C12.7578 3.59718 12.717 3.46519 12.6333 3.3612Z" fill="black"/>
<path d="M17.1549 4.20652C17.01 3.9042 16.7758 3.65362 16.484 3.48866C16.1546 3.3113 15.7845 3.22341 15.4105 3.23372C15.1312 3.22827 14.8534 3.27616 14.592 3.37461C14.3599 3.46577 14.1513 3.60792 13.9815 3.79057C13.8075 3.98421 13.6771 4.21307 13.5991 4.46147C13.508 4.73385 13.4626 5.01957 13.4649 5.3068C13.4627 5.59134 13.5057 5.87437 13.5924 6.14542C13.6663 6.38728 13.7896 6.61119 13.9547 6.8029C14.127 6.99192 14.3405 7.13876 14.5786 7.23227C14.8476 7.33861 15.1348 7.39102 15.424 7.38658C15.7103 7.39161 15.9951 7.34146 16.2626 7.23898C16.4987 7.14547 16.71 6.99846 16.8798 6.8096C17.0515 6.6153 17.1795 6.3866 17.2555 6.13871C17.3429 5.86557 17.3859 5.58019 17.383 5.29338C17.3912 4.91843 17.3131 4.54659 17.1549 4.20652ZM16.4035 6.09845C16.3166 6.29763 16.1716 6.46602 15.9875 6.5815C15.6772 6.7634 15.2992 6.7883 14.9677 6.64859C14.8279 6.58519 14.7042 6.49118 14.6055 6.37352C14.4947 6.23951 14.4125 6.08428 14.3639 5.91731C14.3038 5.71713 14.2744 5.50907 14.2767 5.30009C14.2735 5.0911 14.303 4.88279 14.3639 4.68286V4.68957C14.4113 4.52554 14.4912 4.37266 14.5987 4.24007C14.6954 4.12484 14.817 4.0331 14.9543 3.97171C15.0959 3.90915 15.249 3.87711 15.4038 3.87779C15.617 3.87477 15.8266 3.93297 16.0076 4.04551C16.1909 4.16317 16.3336 4.33408 16.4169 4.53526C16.5163 4.77771 16.5643 5.03819 16.5578 5.30009C16.5657 5.57432 16.513 5.84695 16.4035 6.09845Z" fill="black"/>
<path d="M20.7843 3.39472C20.6945 3.32528 20.5821 3.29182 20.4689 3.30079H17.886C17.776 3.29157 17.6663 3.32251 17.5774 3.38801C17.5053 3.44981 17.4658 3.54139 17.47 3.63624C17.4661 3.72765 17.503 3.81612 17.5707 3.87776C17.6602 3.94779 17.7728 3.98133 17.886 3.97169H18.7716V6.88338C18.7625 7.01631 18.8031 7.1478 18.8856 7.25238C18.9618 7.33372 19.0695 7.37783 19.1808 7.37314C19.2899 7.37674 19.3953 7.33263 19.4693 7.25238C19.5534 7.14604 19.5942 7.01178 19.5834 6.87667V3.97169H20.4689C20.582 3.98008 20.6942 3.94661 20.7843 3.87776C20.8519 3.81612 20.8888 3.72765 20.8849 3.63624C20.8879 3.54491 20.8512 3.45686 20.7843 3.39472Z" fill="black"/>
<path d="M24.3479 6.76264C24.2661 6.69857 24.1631 6.66745 24.0594 6.67542H22.1809V5.5349H23.8649C23.9666 5.54395 24.0678 5.51259 24.1467 5.44768C24.2055 5.38939 24.2372 5.30905 24.2339 5.22628C24.2372 5.14217 24.2028 5.06099 24.14 5.00489C24.0612 4.94518 23.9633 4.91658 23.8649 4.92438H22.1809V3.93145H24.0125C24.1161 3.9395 24.2191 3.90839 24.301 3.84423C24.364 3.78553 24.3984 3.70225 24.3949 3.61613C24.3993 3.52983 24.3649 3.44614 24.301 3.38802C24.2191 3.32395 24.1161 3.29276 24.0125 3.30081H21.8522C21.7555 3.29821 21.6594 3.31649 21.5704 3.35448C21.499 3.38676 21.4417 3.44404 21.4094 3.51549C21.3704 3.60648 21.3521 3.70502 21.3557 3.80398V6.82302C21.3105 7.05205 21.4596 7.27428 21.6886 7.31948C21.7426 7.33013 21.7982 7.33013 21.8522 7.31948V7.31277H24.0594C24.1631 7.32082 24.2661 7.28971 24.3479 7.22556C24.4103 7.16635 24.4445 7.08341 24.4419 6.99745C24.4455 6.9094 24.4113 6.82386 24.3479 6.76264Z" fill="black"/>
<path d="M27.8356 6.73584C27.7503 6.66783 27.6426 6.63436 27.5337 6.64191H25.8766V3.73021C25.887 3.59721 25.8463 3.46521 25.7626 3.36122C25.6859 3.28063 25.5785 3.23669 25.4674 3.24046C25.3583 3.23685 25.2529 3.28096 25.1789 3.36122C25.0994 3.46705 25.0612 3.59822 25.0716 3.73021V6.81635C25.0264 7.04537 25.1755 7.26761 25.4044 7.31281C25.4584 7.32346 25.514 7.32346 25.568 7.31281H25.5814H27.5404C27.6491 7.3191 27.7564 7.28572 27.8424 7.21888C27.91 7.15733 27.9469 7.06877 27.943 6.97736C27.9453 6.88486 27.9058 6.79613 27.8356 6.73584Z" fill="black"/>
</svg>
