<svg width="32" height="32" viewBox="0 0 32 32" fill="none" xmlns="http://www.w3.org/2000/svg">
<g clip-path="url(#clip0)">
<path d="M28 5.8125C28.3452 5.8125 28.625 5.53269 28.625 5.1875V1.875C28.625 0.841125 27.7839 0 26.75 0H1.875C0.841125 0 0 0.841125 0 1.875V30.125C0 31.1589 0.841125 32 1.875 32H26.75C27.7839 32 28.625 31.1589 28.625 30.125V28.375C28.625 28.0298 28.3452 27.75 28 27.75C27.6548 27.75 27.375 28.0298 27.375 28.375V30.125C27.375 30.4696 27.0946 30.75 26.75 30.75H1.875C1.53038 30.75 1.25 30.4696 1.25 30.125V1.875C1.25 1.53038 1.53038 1.25 1.875 1.25H26.75C27.0946 1.25 27.375 1.53038 27.375 1.875V5.1875C27.375 5.53269 27.6548 5.8125 28 5.8125Z" fill="black"/>
<path d="M25.0008 3H3.625C3.27981 3 3 3.27981 3 3.625V16.6875C3 17.0327 3.27981 17.3125 3.625 17.3125C3.97019 17.3125 4.25 17.0327 4.25 16.6875V4.25H24.3758V5.25C24.3758 5.59519 24.6556 5.875 25.0008 5.875C25.3459 5.875 25.6258 5.59519 25.6258 5.25V3.625C25.6258 3.27981 25.3459 3 25.0008 3Z" fill="black"/>
<path d="M4.06688 18.5581C3.95063 18.4419 3.79 18.375 3.625 18.375C3.46063 18.375 3.29938 18.4419 3.18313 18.5581C3.06688 18.6744 3 18.8356 3 19C3 19.1644 3.06688 19.3256 3.18313 19.4419C3.29938 19.5581 3.46063 19.625 3.625 19.625C3.79 19.625 3.95063 19.5581 4.06688 19.4419C4.18375 19.3256 4.25 19.1644 4.25 19C4.25 18.8356 4.18375 18.6744 4.06688 18.5581Z" fill="black"/>
<path d="M25.0008 26.375C24.6556 26.375 24.3758 26.6548 24.3758 27V27.75H4.25V21.4062C4.25 21.0611 3.97019 20.7812 3.625 20.7812C3.27981 20.7812 3 21.0611 3 21.4062V28.375C3 28.7202 3.27981 29 3.625 29H25.0008C25.3459 29 25.6258 28.7202 25.6258 28.375V27C25.6258 26.6548 25.3459 26.375 25.0008 26.375Z" fill="black"/>
<path d="M19.3689 22.0835C19.1249 21.8394 18.7292 21.8394 18.4851 22.0834L17.2498 23.3187L16.482 22.5509C15.9972 22.0661 15.2085 22.0661 14.7237 22.5509L14.2241 23.0505C13.98 23.2946 13.98 23.6903 14.2241 23.9344C14.4681 24.1785 14.8639 24.1785 15.108 23.9344L15.6029 23.4396L16.3707 24.2074C16.6131 24.4498 16.9314 24.571 17.2498 24.571C17.5682 24.571 17.8866 24.4498 18.1289 24.2074L19.3689 22.9674C19.613 22.7234 19.613 22.3276 19.3689 22.0835Z" fill="black"/>
<path d="M31.7127 13.1114C31.9881 12.6817 32.0704 12.1524 31.9383 11.6594C31.8061 11.1664 31.4704 10.7493 31.017 10.5149C30.8203 10.4133 30.7 10.2048 30.7103 9.9837C30.734 9.47382 30.5406 8.97445 30.1797 8.61351C29.8188 8.25264 29.3196 8.05895 28.8095 8.08295C28.5874 8.0937 28.38 7.97282 28.2783 7.77626C28.044 7.32289 27.6268 6.98707 27.1338 6.85495C26.6406 6.72276 26.1115 6.80507 25.6819 7.08051C25.4956 7.20001 25.2548 7.19995 25.0686 7.08051C24.6389 6.80501 24.1098 6.72282 23.6167 6.85495C23.1237 6.98707 22.7065 7.32289 22.4721 7.77626C22.3705 7.97289 22.1615 8.09295 21.941 8.08295C21.4309 8.05914 20.9317 8.25264 20.5708 8.61351C20.2099 8.97445 20.0165 9.47382 20.0402 9.98364C20.0505 10.2048 19.9301 10.4133 19.7335 10.5149C19.2801 10.7493 18.9443 11.1664 18.8122 11.6594C18.7491 11.8946 18.7355 12.1381 18.7678 12.375H7.86152C7.51633 12.375 7.23652 12.6548 7.23652 13C7.23652 13.3452 7.51633 13.625 7.86152 13.625H19.0871C19.0736 13.6593 19.0581 13.693 19.0377 13.7248C18.7623 14.1544 18.68 14.6837 18.8121 15.1767C18.8303 15.2444 18.8526 15.3105 18.8782 15.375H7.86133C7.51614 15.375 7.23633 15.6548 7.23633 16C7.23633 16.3452 7.51614 16.625 7.86133 16.625H20.0029C20.0301 16.6965 20.0437 16.7735 20.04 16.8525C20.0163 17.3623 20.2097 17.8617 20.5706 18.2226C20.9315 18.5835 21.4307 18.7773 21.9408 18.7532C22.1616 18.7424 22.3703 18.8633 22.472 19.0599C22.547 19.2051 22.6411 19.3381 22.7501 19.4564V25.2935C22.7501 25.546 22.9021 25.7736 23.1352 25.8706C23.3683 25.9675 23.6369 25.9146 23.816 25.7365L25.3751 24.1855L26.9343 25.7365C27.0538 25.8554 27.2131 25.9185 27.3753 25.9185C27.456 25.9185 27.5375 25.9028 27.6151 25.8705C27.8482 25.7736 28.0001 25.5459 28.0001 25.2934V19.4563C28.1092 19.3381 28.2033 19.2051 28.2783 19.0598C28.38 18.8632 28.5887 18.7431 28.8095 18.7531C29.3199 18.7773 29.8188 18.5835 30.1796 18.2226C30.5406 17.8616 30.734 17.3623 30.7103 16.8524C30.7 16.6313 30.8204 16.4228 31.017 16.3212C31.4703 16.0868 31.8061 15.6697 31.9383 15.1766C32.0704 14.6836 31.9881 14.1544 31.7127 13.7246C31.5932 13.5384 31.5932 13.2977 31.7127 13.1114ZM26.7501 23.7901L25.8159 22.8608C25.5721 22.6182 25.1781 22.6182 24.9343 22.8608L24.0001 23.7901V20.0406C24.3741 20.0583 24.7488 19.9605 25.0685 19.7556C25.2548 19.6361 25.4956 19.6362 25.6818 19.7556C25.977 19.9449 26.3191 20.043 26.6643 20.043C26.693 20.043 26.7215 20.0415 26.7501 20.0401V23.7901ZM30.7308 14.8532C30.689 15.0095 30.5866 15.1366 30.4429 15.2109C29.8139 15.5361 29.4286 16.2032 29.4616 16.9106C29.4691 17.0723 29.4102 17.2243 29.2958 17.3388C29.1813 17.4533 29.0293 17.512 28.8676 17.5046C28.1598 17.4719 27.4931 17.8569 27.1679 18.4859C27.0936 18.6298 26.9665 18.732 26.8101 18.7739C26.6539 18.8157 26.4926 18.7908 26.3565 18.7034C26.0583 18.5123 25.7168 18.4168 25.3751 18.4168C25.0335 18.4168 24.6918 18.5123 24.3938 18.7034C24.2575 18.7907 24.0963 18.8157 23.94 18.7739C23.7836 18.732 23.6566 18.6297 23.5823 18.4859C23.2571 17.8569 22.5905 17.4716 21.8826 17.5046C21.7213 17.5121 21.5688 17.4533 21.4544 17.3388C21.3399 17.2243 21.281 17.0723 21.2886 16.9105C21.3118 16.4113 21.126 15.9326 20.7939 15.5796C20.7841 15.5689 20.7742 15.5584 20.7637 15.5484C20.6318 15.4147 20.479 15.2997 20.3073 15.2109C20.1635 15.1366 20.0613 15.0096 20.0194 14.8532C19.9775 14.6968 20.0025 14.5356 20.0899 14.3995C20.4721 13.8033 20.4721 13.0329 20.0899 12.4368C20.0026 12.3006 19.9775 12.1394 20.0194 11.983C20.0613 11.8267 20.1636 11.6996 20.3073 11.6253C20.9363 11.3001 21.3215 10.633 21.2886 9.92564C21.2811 9.76395 21.34 9.61189 21.4545 9.49739C21.5689 9.38289 21.7213 9.32414 21.8826 9.33157C22.5905 9.36439 23.2572 8.97932 23.5823 8.35026C23.6566 8.20645 23.7837 8.1042 23.9401 8.06232C24.0964 8.02051 24.2576 8.04545 24.3938 8.13282C24.99 8.51507 25.7604 8.51507 26.3564 8.13282C26.4926 8.04551 26.6538 8.02039 26.8101 8.06232C26.9665 8.1042 27.0935 8.20651 27.1679 8.35026C27.4931 8.97926 28.1601 9.36457 28.8676 9.33157C29.0293 9.3242 29.1813 9.38289 29.2958 9.49739C29.4103 9.61189 29.4691 9.76395 29.4616 9.92564C29.4287 10.6329 29.8138 11.3001 30.443 11.6253C30.5867 11.6996 30.689 11.8266 30.7308 11.983C30.7727 12.1394 30.7477 12.3006 30.6603 12.4368C30.2781 13.0329 30.2781 13.8033 30.6603 14.3994C30.7477 14.5356 30.7728 14.6968 30.7308 14.8532Z" fill="black"/>
<path d="M28.3472 11.7178C28.1031 11.4738 27.7074 11.4738 27.4633 11.7178L25.3889 13.7923L24.5631 12.9665C24.319 12.7225 23.9233 12.7225 23.6791 12.9665C23.4351 13.2106 23.4351 13.6063 23.6791 13.8505L24.9469 15.1182C25.0689 15.2403 25.2289 15.3013 25.3888 15.3013C25.5488 15.3013 25.7088 15.2403 25.8308 15.1182L28.3472 12.6018C28.5913 12.3577 28.5913 11.962 28.3472 11.7178Z" fill="black"/>
<path d="M7.62937 7.55813C7.51313 7.44188 7.35188 7.375 7.1875 7.375C7.02312 7.375 6.86188 7.44188 6.74563 7.55813C6.62938 7.67438 6.5625 7.83562 6.5625 8C6.5625 8.16438 6.62938 8.32563 6.74563 8.44188C6.86188 8.55813 7.02312 8.625 7.1875 8.625C7.35188 8.625 7.51313 8.55813 7.62937 8.44188C7.74563 8.32563 7.8125 8.16438 7.8125 8C7.8125 7.83562 7.74563 7.67438 7.62937 7.55813Z" fill="black"/>
<path d="M12.5632 7.375H9.52148C9.1763 7.375 8.89648 7.65481 8.89648 8C8.89648 8.34519 9.1763 8.625 9.52148 8.625H12.5632C12.9084 8.625 13.1882 8.34519 13.1882 8C13.1882 7.65481 12.9084 7.375 12.5632 7.375Z" fill="black"/>
<path d="M18.9283 18.375H11.7832C11.438 18.375 11.1582 18.6548 11.1582 19C11.1582 19.3452 11.438 19.625 11.7832 19.625H18.9283C19.2735 19.625 19.5533 19.3452 19.5533 19C19.5533 18.6548 19.2735 18.375 18.9283 18.375Z" fill="black"/>
</g>
<defs>
<clipPath id="clip0">
<rect width="32" height="32" fill="white"/>
</clipPath>
</defs>
</svg>
