<svg width="30" height="25" viewBox="0 0 30 25" fill="none" xmlns="http://www.w3.org/2000/svg">
<path d="M6.328 0.687994C8.824 0.687994 10.712 1.71199 11.992 3.75999C13.08 5.488 13.624 7.6 13.624 10.096C13.624 13.296 12.792 16.176 11.128 18.736C9.528 21.296 7.064 23.344 3.736 24.88L2.872 23.152C4.856 22.32 6.552 21.008 7.96 19.216C9.432 17.424 10.168 15.6 10.168 13.744C10.168 12.976 10.072 12.304 9.88 11.728C8.856 12.56 7.672 12.976 6.328 12.976C4.6 12.976 3.128 12.432 1.912 11.344C0.76 10.192 0.184 8.688 0.184 6.832C0.184 5.10399 0.76 3.664 1.912 2.512C3.128 1.296 4.6 0.687994 6.328 0.687994ZM22.648 0.687994C25.144 0.687994 27.032 1.71199 28.312 3.75999C29.4 5.488 29.944 7.6 29.944 10.096C29.944 13.296 29.112 16.176 27.448 18.736C25.848 21.296 23.384 23.344 20.056 24.88L19.192 23.152C21.176 22.32 22.872 21.008 24.28 19.216C25.752 17.424 26.488 15.6 26.488 13.744C26.488 12.976 26.392 12.304 26.2 11.728C25.176 12.56 23.992 12.976 22.648 12.976C20.92 12.976 19.448 12.432 18.232 11.344C17.08 10.192 16.504 8.688 16.504 6.832C16.504 5.10399 17.08 3.664 18.232 2.512C19.448 1.296 20.92 0.687994 22.648 0.687994Z" fill="#A2A2A2"/>
</svg>
