<svg width="31" height="25" viewBox="0 0 31 25" fill="none" xmlns="http://www.w3.org/2000/svg">
<path d="M23.896 24.88C21.4 24.88 19.512 23.856 18.232 21.808C17.144 20.08 16.6 17.968 16.6 15.472C16.6 12.272 17.4 9.392 19 6.832C20.664 4.272 23.16 2.224 26.488 0.687994L27.352 2.41599C25.368 3.248 23.64 4.56 22.168 6.352C20.76 8.144 20.056 9.968 20.056 11.824C20.056 12.592 20.152 13.264 20.344 13.84C21.368 13.008 22.552 12.592 23.896 12.592C25.624 12.592 27.064 13.168 28.216 14.32C29.432 15.408 30.04 16.88 30.04 18.736C30.04 20.464 29.432 21.936 28.216 23.152C27.064 24.304 25.624 24.88 23.896 24.88ZM7.576 24.88C5.08 24.88 3.192 23.856 1.912 21.808C0.824 20.08 0.28 17.968 0.28 15.472C0.28 12.272 1.08 9.392 2.68 6.832C4.344 4.272 6.84 2.224 10.168 0.687994L11.032 2.41599C9.048 3.248 7.32 4.56 5.848 6.352C4.44 8.144 3.736 9.968 3.736 11.824C3.736 12.592 3.832 13.264 4.024 13.84C5.048 13.008 6.232 12.592 7.576 12.592C9.304 12.592 10.744 13.168 11.896 14.32C13.112 15.408 13.72 16.88 13.72 18.736C13.72 20.464 13.112 21.936 11.896 23.152C10.744 24.304 9.304 24.88 7.576 24.88Z" fill="#A2A2A2"/>
</svg>
