<svg width="24" height="24" viewBox="0 0 24 24" fill="none" xmlns="http://www.w3.org/2000/svg">
<path d="M11.9022 14.2439C13.0876 14.2439 14.0485 13.2829 14.0485 12.0975C14.0485 10.9121 13.0876 9.95117 11.9022 9.95117C10.7168 9.95117 9.75586 10.9121 9.75586 12.0975C9.75586 13.2829 10.7168 14.2439 11.9022 14.2439Z" fill="black"/>
<path d="M14.586 6.8291H9.22013C8.43964 6.8291 7.75672 7.073 7.31769 7.51203C6.87867 7.95105 6.63477 8.63398 6.63477 9.41447V14.7803C6.63477 15.5608 6.87867 16.2437 7.36647 16.7315C7.85428 17.1706 8.48842 17.4145 9.26891 17.4145H14.586C15.3665 17.4145 16.0494 17.1706 16.4884 16.7315C16.9762 16.2925 17.2201 15.6096 17.2201 14.8291V9.46325C17.2201 8.68276 16.9762 8.04861 16.5372 7.56081C16.0494 7.073 15.4153 6.8291 14.586 6.8291ZM11.9031 15.4145C10.0494 15.4145 8.58598 13.9023 8.58598 12.0974C8.58598 10.2437 10.0982 8.78032 11.9031 8.78032C13.7079 8.78032 15.2689 10.2437 15.2689 12.0974C15.2689 13.9511 13.7567 15.4145 11.9031 15.4145ZM15.3665 9.41447C14.9274 9.41447 14.586 9.073 14.586 8.63398C14.586 8.19496 14.9274 7.85349 15.3665 7.85349C15.8055 7.85349 16.147 8.19496 16.147 8.63398C16.147 9.073 15.8055 9.41447 15.3665 9.41447Z" fill="black"/>
<path d="M12 -9.30414e-08C5.36585 -9.30414e-08 2.32603e-08 5.36585 2.32603e-08 12C2.32603e-08 18.6341 5.36585 24 12 24C18.6341 24 24 18.6341 24 12C24.0488 5.36585 18.6341 -9.30414e-08 12 -9.30414e-08ZM18.3902 14.8293C18.3902 15.9512 18 16.9268 17.3171 17.6098C16.6341 18.2927 15.6585 18.6341 14.5854 18.6341H9.26829C8.19512 18.6341 7.21951 18.2927 6.53658 17.6098C5.80488 16.9268 5.46341 15.9512 5.46341 14.8293V9.46341C5.46341 7.21951 6.97561 5.65854 9.26829 5.65854H14.6341C15.7561 5.65854 16.6829 6.04878 17.3659 6.73171C18.0488 7.41463 18.3902 8.34146 18.3902 9.46341V14.8293Z" fill="black"/>
</svg>
