<svg width="28" height="28" viewBox="0 0 28 28" fill="none" xmlns="http://www.w3.org/2000/svg">
<path d="M13.8861 16.618C15.2691 16.618 16.3902 15.4969 16.3902 14.1139C16.3902 12.731 15.2691 11.6099 13.8861 11.6099C12.5032 11.6099 11.3821 12.731 11.3821 14.1139C11.3821 15.4969 12.5032 16.618 13.8861 16.618Z" fill="url(#paint0_linear)"/>
<path d="M17.0164 7.96729H10.7563C9.84568 7.96729 9.04893 8.25184 8.53674 8.76403C8.02454 9.27623 7.73999 10.073 7.73999 10.9835V17.2437C7.73999 18.1543 8.02454 18.951 8.59365 19.5201C9.16275 20.0323 9.90259 20.3169 10.8132 20.3169H17.0164C17.927 20.3169 18.7237 20.0323 19.2359 19.5201C19.805 19.0079 20.0896 18.2112 20.0896 17.3006V11.0405C20.0896 10.1299 19.805 9.39005 19.2928 8.82094C18.7237 8.25184 17.9839 7.96729 17.0164 7.96729ZM13.8863 17.9835C11.7237 17.9835 10.0164 16.2193 10.0164 14.1136C10.0164 11.951 11.7806 10.2437 13.8863 10.2437C15.992 10.2437 17.8132 11.951 17.8132 14.1136C17.8132 16.2762 16.0489 17.9835 13.8863 17.9835ZM17.927 10.9835C17.4148 10.9835 17.0164 10.5852 17.0164 10.073C17.0164 9.56078 17.4148 9.16241 17.927 9.16241C18.4392 9.16241 18.8376 9.56078 18.8376 10.073C18.8376 10.5852 18.4392 10.9835 17.927 10.9835Z" fill="url(#paint1_linear)"/>
<path d="M14 -1.08548e-07C6.26016 -1.08548e-07 2.71371e-08 6.26016 2.71371e-08 14C2.71371e-08 21.7398 6.26016 28 14 28C21.7398 28 28 21.7398 28 14C28.0569 6.26016 21.7398 -1.08548e-07 14 -1.08548e-07ZM21.4553 17.3008C21.4553 18.6098 21 19.748 20.2033 20.5447C19.4065 21.3415 18.2683 21.7398 17.0163 21.7398H10.813C9.56098 21.7398 8.42276 21.3415 7.62602 20.5447C6.77236 19.748 6.37398 18.6098 6.37398 17.3008V11.0407C6.37398 8.42276 8.13821 6.60163 10.813 6.60163H17.0732C18.3821 6.60163 19.4634 7.05691 20.2602 7.85366C21.0569 8.65041 21.4553 9.73171 21.4553 11.0407V17.3008Z" fill="url(#paint2_linear)"/>
<defs>
<linearGradient id="paint0_linear" x1="11.3821" y1="15.5746" x2="16.3902" y2="12.862" gradientUnits="userSpaceOnUse">
<stop stop-color="#933154"/>
<stop offset="1" stop-color="#9635D2"/>
</linearGradient>
<linearGradient id="paint1_linear" x1="7.73999" y1="17.744" x2="20.0895" y2="11.0548" gradientUnits="userSpaceOnUse">
<stop stop-color="#933154"/>
<stop offset="1" stop-color="#9635D2"/>
</linearGradient>
<linearGradient id="paint2_linear" x1="4.46212e-07" y1="22.1667" x2="28" y2="7" gradientUnits="userSpaceOnUse">
<stop stop-color="#933154"/>
<stop offset="1" stop-color="#9635D2"/>
</linearGradient>
</defs>
</svg>
