<svg width="376" height="76" viewBox="0 0 376 76" fill="none" xmlns="http://www.w3.org/2000/svg">
<path fill-rule="evenodd" clip-rule="evenodd" d="M374.223 19.6355C374.714 19.6355 375.129 19.8048 375.479 20.1434C375.824 20.4793 376 20.8894 376 21.3708C376 21.8443 375.824 22.2491 375.479 22.5929C375.129 22.9342 374.714 23.1061 374.223 23.1061C373.73 23.1061 373.314 22.9342 372.969 22.6009C372.627 22.2623 372.454 21.8522 372.454 21.3708C372.454 20.8894 372.627 20.4793 372.969 20.1434C373.314 19.8048 373.73 19.6355 374.223 19.6355ZM372.796 7.52002H375.649V18.4266H372.796V7.52002ZM364.056 14.0565C363.182 14.0565 362.454 14.3581 361.877 14.9639C361.298 15.5723 361.009 16.3447 361.009 17.2918C361.009 18.2467 361.303 19.0297 361.891 19.6461C362.481 20.2624 363.209 20.5719 364.067 20.5719C364.956 20.5719 365.695 20.265 366.283 19.6619C366.868 19.0588 367.159 18.2652 367.159 17.2838C367.159 16.3236 366.868 15.5458 366.283 14.9533C365.692 14.3528 364.954 14.0565 364.056 14.0565ZM367.024 11.779H369.839V22.8204H367.024V21.6539C366.474 22.1697 365.921 22.5374 365.366 22.7649C364.808 22.9897 364.207 23.1061 363.557 23.1061C362.104 23.1061 360.845 22.5506 359.782 21.4449C358.723 20.3391 358.192 18.9636 358.192 17.3208C358.192 15.6173 358.704 14.2205 359.731 13.1307C360.759 12.0435 362.009 11.4959 363.476 11.4959C364.15 11.4959 364.786 11.6255 365.38 11.8742C365.97 12.1255 366.52 12.5011 367.022 13.0011V11.779H367.024ZM347.329 11.779H350.155V15.9109L354.045 11.779H357.488L352.471 17.1595L357.55 22.8204H353.805L350.454 18.9265L350.155 19.2731V22.8204H347.329V11.779ZM336.108 22.8204H334.607V11.779H337.362V18.2679L343.121 11.779H344.471V22.8204H341.721V16.4691L336.108 22.8204ZM324.919 18.7414L328.373 11.779H330.236L333.048 22.8204H330.287L328.786 16.35L325.437 22.8204H324.278L320.999 16.35L319.487 22.8204H316.737L319.549 11.779H321.412L324.919 18.7414ZM309.395 14.0565C308.522 14.0565 307.794 14.3581 307.214 14.9639C306.637 15.5723 306.349 16.3447 306.349 17.2918C306.349 18.2467 306.64 19.0297 307.23 19.6461C307.818 20.2624 308.546 20.5719 309.406 20.5719C310.296 20.5719 311.035 20.265 311.62 19.6619C312.207 19.0588 312.498 18.2652 312.498 17.2838C312.498 16.3236 312.207 15.5458 311.62 14.9533C311.035 14.3528 310.293 14.0565 309.395 14.0565ZM312.366 11.779H315.181V22.8204H312.366V21.6539C311.816 22.1697 311.264 22.5374 310.708 22.7649C310.15 22.9897 309.549 23.1061 308.899 23.1061C307.443 23.1061 306.187 22.5506 305.125 21.4449C304.062 20.3391 303.534 18.9636 303.534 17.3208C303.534 15.6173 304.046 14.2205 305.073 13.1307C306.101 12.0435 307.349 11.4959 308.818 11.4959C309.493 11.4959 310.126 11.6255 310.719 11.8742C311.312 12.1255 311.859 12.5011 312.364 13.0011V11.779H312.366ZM295.839 14.0565C294.95 14.0565 294.211 14.3528 293.626 14.9506C293.038 15.5432 292.747 16.3236 292.747 17.2812C292.747 18.2626 293.038 19.0588 293.626 19.6593C294.211 20.2651 294.95 20.5693 295.839 20.5693C296.702 20.5693 297.427 20.2598 298.015 19.6434C298.605 19.0297 298.897 18.244 298.897 17.2891C298.897 16.3421 298.608 15.567 298.031 14.9612C297.451 14.3581 296.721 14.0565 295.839 14.0565ZM292.868 11.779V12.9984C293.378 12.5011 293.931 12.1228 294.524 11.8715C295.117 11.6229 295.75 11.4932 296.424 11.4932C297.894 11.4932 299.142 12.0408 300.169 13.1281C301.196 14.2179 301.709 15.6146 301.709 17.3182C301.709 18.9636 301.18 20.3365 300.118 21.4423C299.056 22.5479 297.8 23.1035 296.344 23.1035C295.694 23.1035 295.09 22.9871 294.532 22.7622C293.971 22.5347 293.421 22.167 292.865 21.6512V26.8572H290.062V11.7763H292.868V11.779ZM284.947 15.9215C284.759 15.3078 284.392 14.8078 283.845 14.419C283.297 14.0354 282.658 13.8423 281.933 13.8423C281.151 13.8423 280.458 14.0592 279.865 14.493C279.496 14.7628 279.151 15.2416 278.833 15.9241H284.947V15.9215ZM287.784 18.1039H278.711C278.84 18.8895 279.194 19.5112 279.76 19.9741C280.329 20.4396 281.051 20.6698 281.936 20.6698C282.992 20.6698 283.898 20.3074 284.659 19.5852L287.037 20.683C286.443 21.5057 285.734 22.1168 284.904 22.5162C284.079 22.9104 283.098 23.1088 281.957 23.1088C280.191 23.1088 278.754 22.5585 277.646 21.4687C276.536 20.3762 275.98 19.0059 275.98 17.3658C275.98 15.6781 276.536 14.284 277.638 13.1677C278.746 12.0567 280.135 11.4985 281.798 11.4985C283.569 11.4985 285.012 12.0567 286.123 13.1677C287.231 14.284 287.789 15.7522 287.789 17.5774L287.784 18.1039ZM265.131 11.779H267.956V15.9109L271.847 11.779H275.287L270.27 17.1595L275.352 22.8204H271.607L268.256 18.9265L267.956 19.2731V22.8204H265.131V11.779ZM249.502 18.7414L252.958 11.779H254.818L257.633 22.8204H254.872L253.371 16.35L250.022 22.8204H248.863L245.582 16.35L244.072 22.8204H241.322L244.134 11.779H245.997L249.502 18.7414ZM237.496 15.9215C237.31 15.3078 236.94 14.8078 236.393 14.419C235.846 14.0354 235.207 13.8423 234.485 13.8423C233.7 13.8423 233.01 14.0592 232.417 14.493C232.045 14.7628 231.7 15.2416 231.381 15.9241H237.496V15.9215ZM240.332 18.1039H231.26C231.392 18.8895 231.743 19.5112 232.311 19.9741C232.878 20.4396 233.603 20.6698 234.487 20.6698C235.541 20.6698 236.45 20.3074 237.208 19.5852L239.586 20.683C238.992 21.5057 238.283 22.1168 237.455 22.5162C236.628 22.9104 235.647 23.1088 234.506 23.1088C232.743 23.1088 231.306 22.5585 230.195 21.4687C229.084 20.3762 228.529 19.0059 228.529 17.3658C228.529 15.6781 229.084 14.284 230.187 13.1677C231.295 12.0567 232.684 11.4985 234.349 11.4985C236.121 11.4985 237.561 12.0567 238.674 13.1677C239.782 14.284 240.34 15.7522 240.34 17.5774L240.332 18.1039ZM223.379 18.4372H221.114C219.586 18.4372 218.405 18.1488 217.583 17.5722C216.758 16.9928 216.348 16.0405 216.348 14.7152V11.779H219.181V14.501C219.181 15.4665 219.842 15.9532 221.158 15.9532L222.252 15.94H223.382V11.7763H226.215V22.8178H223.382V18.4372H223.379ZM212.705 20.0085L214.72 21.0057L212.169 25.2885L210.762 24.6245L212.705 20.0085ZM206.229 15.9215C206.043 15.3078 205.674 14.8078 205.127 14.419C204.579 14.0354 203.94 13.8423 203.218 13.8423C202.433 13.8423 201.743 14.0592 201.15 14.493C200.778 14.7628 200.433 15.2416 200.115 15.9241H206.229V15.9215ZM209.066 18.1039H199.993C200.125 18.8895 200.476 19.5112 201.045 19.9741C201.611 20.4396 202.336 20.6698 203.221 20.6698C204.275 20.6698 205.183 20.3074 205.941 19.5852L208.319 20.683C207.726 21.5057 207.017 22.1168 206.189 22.5162C205.364 22.9104 204.38 23.1088 203.239 23.1088C201.476 23.1088 200.039 22.5585 198.928 21.4687C197.818 20.3762 197.262 19.0059 197.262 17.3658C197.262 15.6781 197.818 14.284 198.92 13.1677C200.028 12.0567 201.417 11.4985 203.083 11.4985C204.854 11.4985 206.294 12.0567 207.405 13.1677C208.513 14.284 209.071 15.7522 209.071 17.5774L209.066 18.1039ZM194.938 22.8204H178.699V11.779H181.533V20.1619H185.402V11.779H188.236V20.1619H192.11V11.779H194.936V22.8204H194.938ZM170.738 20.6936H171.596C172.108 20.6936 172.475 20.6592 172.703 20.5852C172.93 20.5111 173.132 20.3788 173.305 20.1725C173.472 19.9714 173.561 19.7228 173.561 19.4345C173.561 18.4874 173.011 18.0113 171.908 18.0113H170.741V20.6936H170.738ZM170.738 15.7601H171.574C172.752 15.7601 173.661 15.8474 174.286 16.03C174.917 16.2045 175.451 16.5802 175.885 17.1489C176.322 17.715 176.54 18.4292 176.54 19.2863C176.54 20.1407 176.34 20.8497 175.95 21.4158C175.556 21.9792 175.052 22.3575 174.443 22.5401C173.833 22.7279 172.978 22.8204 171.87 22.8204H167.902V11.779H170.735V15.7601H170.738ZM166.422 22.8204H163.548L160.735 15.8474L157.867 22.8204H155.007L159.803 11.779H161.625L166.422 22.8204ZM148.137 14.1042C147.261 14.1042 146.53 14.4057 145.948 15.0062C145.365 15.6041 145.077 16.3712 145.077 17.3023C145.077 18.2652 145.362 19.0403 145.942 19.6355C146.516 20.2333 147.244 20.5296 148.126 20.5296C149.008 20.5296 149.744 20.228 150.329 19.6249C150.914 19.0218 151.207 18.2494 151.207 17.3023C151.207 16.3553 150.922 15.5855 150.345 14.993C149.768 14.4004 149.035 14.1042 148.137 14.1042ZM148.094 11.4959C149.156 11.4959 150.153 11.7604 151.092 12.2816C152.022 12.8001 152.752 13.509 153.276 14.4004C153.801 15.2945 154.063 16.2575 154.063 17.2944C154.063 18.3367 153.798 19.3101 153.273 20.2175C152.742 21.1248 152.027 21.8311 151.113 22.3443C150.202 22.8522 149.202 23.1114 148.104 23.1114C146.492 23.1114 145.115 22.5453 143.974 21.4211C142.833 20.2942 142.262 18.9265 142.262 17.3156C142.262 15.5908 142.909 14.1544 144.195 13.0037C145.328 11.9985 146.627 11.4959 148.094 11.4959ZM133.961 16.0643V20.1143H134.683C136.007 20.1143 136.843 19.945 137.196 19.6064C137.546 19.2705 137.722 18.8154 137.722 18.2361C137.722 16.7892 136.667 16.0643 134.559 16.0643H133.961ZM131.062 22.8204V7.89299H139.016V10.6653H133.961V13.5248H134.589C135.875 13.5248 136.918 13.665 137.735 13.9454C138.547 14.2205 139.226 14.7417 139.768 15.5088C140.307 16.2786 140.58 17.1859 140.58 18.2335C140.58 19.2757 140.375 20.1037 139.967 20.7227C139.558 21.3417 139 21.847 138.288 22.2358C137.571 22.6247 136.587 22.8178 135.322 22.8178H131.062V22.8204Z" fill="#DD2B1C"/>
<path fill-rule="evenodd" clip-rule="evenodd" d="M258.865 38.6068L256.4 43.785H261.303L258.865 38.6068ZM263.06 47.5652H254.624L251.18 54.7886H246.887L258.079 31.176H259.674L270.719 54.7886H266.521L263.06 47.5652ZM231.101 38.3239L238.724 31.176H244.146L232.628 41.8938L244.784 54.7886H239.575L231.101 45.8166V54.7886H227.184V31.176H231.101V38.3239ZM215.52 39.3801L202.228 54.786H200.517V31.176H204.385V46.8648L217.76 31.176H219.474V54.7886H215.517V39.3801H215.52ZM180.589 48.1392L188.931 31.176H190.531L193.932 54.7886H190.074L188.187 41.0559L181.375 54.7886H179.791L172.882 40.9347L171.006 54.7886H167.192L170.557 31.176H172.16L180.589 48.1392ZM151.191 38.6068L148.726 43.785H153.627L151.191 38.6068ZM155.384 47.5652H146.95L143.506 54.7886H139.211L150.402 31.176H151.997L163.045 54.7886H158.844L155.384 47.5652ZM126.993 34.9695V40.7784C128.517 40.7973 131.593 40.9643 132.894 40.4578C135.226 39.5471 135.113 36.1497 132.956 35.3037C131.777 34.8429 128.425 34.9695 126.993 34.9695ZM126.993 44.58V54.7886H123.124V31.176C125.568 31.176 131.566 31.0225 133.634 31.5317C138.962 32.8411 139.692 38.9517 137.194 41.9989C134.796 44.9197 130.596 44.58 126.993 44.58ZM106.575 35.0019V40.2072H116.907V44.0167H106.575V50.9602H116.907V54.7886H102.707V31.176H116.996V35.0019H106.575ZM84.4847 38.3239L92.1104 31.176H97.533L86.0119 41.8938L98.168 54.7886H92.9589L84.4847 45.8166V54.7886H80.5703V31.176H84.4847V38.3239Z" fill="white"/>
<path fill-rule="evenodd" clip-rule="evenodd" d="M16.638 44.7914L14.1867 37.4294H14.0502L11.6289 44.7914H16.638ZM62.6347 55.3882L55.6985 75.2L0 55.6936L0.109191 55.3773L9.00279 55.3799L10.5833 50.3028L17.6426 50.3054L19.2558 55.3825H26.2577L35.266 55.3851V48.5939C40.4935 48.5939 51.7674 48.9568 50.1107 38.8134H53.9103L53.9077 55.3851H62.6347V55.3882ZM68.4381 38.8161L62.9213 54.5692L62.9239 38.8161H68.4381ZM19.5043 0L75.2 19.5036L70.8568 31.9073V31.8609C55.993 31.8582 41.1296 31.8554 26.2632 31.8527L26.2605 48.4218L20.3696 31.8527H8.35039L19.5043 0ZM41.1541 40.2247C41.1541 36.9845 37.5235 37.2984 35.0367 37.2984V43.1454C37.4007 43.1509 41.1541 43.5303 41.1541 40.2247Z" fill="#DD2B1C"/>
</svg>
