<svg width="876" height="180" viewBox="0 0 876 180" fill="none" xmlns="http://www.w3.org/2000/svg">
<path fill-rule="evenodd" clip-rule="evenodd" d="M870.87 45.6729C872.011 45.6729 872.976 46.0739 873.79 46.876C874.592 47.6718 875 48.6431 875 49.7835C875 50.9052 874.592 51.864 873.79 52.6786C872.976 53.4869 872.011 53.8942 870.87 53.8942C869.724 53.8942 868.759 53.4869 867.956 52.6974C867.161 51.8953 866.76 50.924 866.76 49.7835C866.76 48.6431 867.161 47.6718 867.956 46.876C868.759 46.0739 869.724 45.6729 870.87 45.6729ZM867.555 16.9734H874.185V42.8092H867.555V16.9734ZM847.24 32.4573C845.21 32.4573 843.518 33.1717 842.177 34.6067C840.83 36.0479 840.159 37.8776 840.159 40.121C840.159 42.3831 840.842 44.2379 842.208 45.698C843.581 47.158 845.273 47.8912 847.265 47.8912C849.333 47.8912 851.05 47.1642 852.416 45.7355C853.776 44.3068 854.453 42.427 854.453 40.1022C854.453 37.8275 853.776 35.9852 852.416 34.5816C851.044 33.1592 849.327 32.4573 847.24 32.4573ZM854.139 27.0621H860.681V53.2175H854.139V50.4541C852.861 51.676 851.576 52.547 850.286 53.0859C848.988 53.6185 847.591 53.8942 846.081 53.8942C842.703 53.8942 839.777 52.5783 837.308 49.959C834.846 47.3397 833.611 44.0813 833.611 40.1899C833.611 36.1544 834.802 32.8458 837.189 30.2641C839.577 27.6887 842.484 26.3916 845.893 26.3916C847.46 26.3916 848.938 26.6986 850.317 27.2877C851.689 27.8829 852.968 28.7728 854.133 29.9571V27.0621H854.139ZM808.364 27.0621H814.931V36.85L823.974 27.0621H831.976L820.314 39.8077L832.12 53.2175H823.416L815.627 43.9935L814.931 44.8144V53.2175H808.364V27.0621ZM782.284 53.2175H778.794V27.0621H785.198V42.4332L798.583 27.0621H801.722V53.2175H795.33V38.1722L782.284 53.2175ZM756.279 43.5549L764.306 27.0621H768.636L775.172 53.2175H768.755L765.265 37.8902L757.482 53.2175H754.788L747.168 37.8902L743.653 53.2175H737.261L743.797 27.0621H748.127L756.279 43.5549ZM720.198 32.4573C718.168 32.4573 716.476 33.1717 715.129 34.6067C713.788 36.0479 713.117 37.8776 713.117 40.121C713.117 42.3831 713.794 44.2379 715.166 45.698C716.532 47.158 718.224 47.8912 720.223 47.8912C722.291 47.8912 724.008 47.1642 725.368 45.7355C726.734 44.3068 727.41 42.427 727.41 40.1022C727.41 37.8275 726.734 35.9852 725.368 34.5816C724.008 33.1592 722.285 32.4573 720.198 32.4573ZM727.103 27.0621H733.645V53.2175H727.103V50.4541C725.825 51.676 724.54 52.547 723.25 53.0859C721.953 53.6185 720.555 53.8942 719.045 53.8942C715.661 53.8942 712.741 52.5783 710.272 49.959C707.803 47.3397 706.575 44.0813 706.575 40.1899C706.575 36.1544 707.766 32.8458 710.153 30.2641C712.541 27.6887 715.442 26.3916 718.857 26.3916C720.424 26.3916 721.896 26.6986 723.275 27.2877C724.653 27.8829 725.925 28.7728 727.097 29.9571V27.0621H727.103ZM688.691 32.4573C686.623 32.4573 684.906 33.1591 683.547 34.5753C682.18 35.979 681.504 37.8275 681.504 40.0959C681.504 42.4207 682.18 44.3069 683.547 45.7293C684.906 47.1643 686.623 47.8849 688.691 47.8849C690.696 47.8849 692.382 47.1517 693.748 45.6917C695.12 44.2379 695.797 42.3768 695.797 40.1147C695.797 37.8714 695.127 36.0354 693.786 34.6004C692.438 33.1717 690.74 32.4573 688.691 32.4573ZM681.786 27.0621V29.9508C682.97 28.7728 684.255 27.8767 685.633 27.2814C687.012 26.6924 688.484 26.3853 690.051 26.3853C693.466 26.3853 696.367 27.6824 698.755 30.2579C701.142 32.8396 702.333 36.1482 702.333 40.1836C702.333 44.0812 701.105 47.3335 698.636 49.9528C696.167 52.572 693.247 53.888 689.863 53.888C688.353 53.888 686.949 53.6122 685.652 53.0796C684.349 52.5407 683.07 51.6697 681.779 50.4478V62.7798H675.263V27.0558H681.786V27.0621ZM663.375 36.875C662.937 35.4213 662.085 34.237 660.813 33.3158C659.54 32.4072 658.055 31.9498 656.37 31.9498C654.553 31.9498 652.942 32.4636 651.564 33.4913C650.705 34.1304 649.903 35.2646 649.164 36.8813H663.375V36.875ZM669.968 42.0447H648.882C649.182 43.9058 650.003 45.3784 651.319 46.475C652.641 47.5778 654.321 48.123 656.376 48.123C658.832 48.123 660.938 47.2645 662.705 45.5538L668.232 48.1543C666.853 50.1031 665.205 51.5507 663.275 52.4969C661.358 53.4305 659.077 53.9005 656.426 53.9005C652.322 53.9005 648.982 52.5971 646.406 50.0154C643.825 47.4274 642.534 44.1815 642.534 40.2964C642.534 36.2986 643.825 32.9962 646.388 30.3519C648.963 27.72 652.19 26.3978 656.056 26.3978C660.173 26.3978 663.526 27.72 666.108 30.3519C668.683 32.9962 669.98 36.474 669.98 40.7977L669.968 42.0447ZM617.318 27.0621H623.885V36.85L632.928 27.0621H640.923L629.262 39.8077L641.074 53.2175H632.37L624.581 43.9935L623.885 44.8144V53.2175H617.318V27.0621ZM580.993 43.5549L589.026 27.0621H593.35L599.892 53.2175H593.475L589.985 37.8902L582.202 53.2175H579.508L571.882 37.8902L568.373 53.2175H561.981L568.517 27.0621H572.847L580.993 43.5549ZM553.089 36.875C552.657 35.4213 551.798 34.237 550.526 33.3158C549.254 32.4072 547.769 31.9498 546.09 31.9498C544.266 31.9498 542.662 32.4636 541.284 33.4913C540.419 34.1304 539.617 35.2646 538.877 36.8813H553.089V36.875ZM559.681 42.0447H538.595C538.902 43.9058 539.717 45.3784 541.039 46.475C542.355 47.5778 544.041 48.123 546.096 48.123C548.546 48.123 550.658 47.2645 552.419 45.5538L557.946 48.1543C556.567 50.1031 554.919 51.5507 552.995 52.4969C551.071 53.4305 548.791 53.9005 546.14 53.9005C542.042 53.9005 538.702 52.5971 536.12 50.0154C533.538 47.4274 532.248 44.1815 532.248 40.2964C532.248 36.2986 533.538 32.9962 536.101 30.3519C538.677 27.72 541.904 26.3978 545.776 26.3978C549.893 26.3978 553.24 27.72 555.828 30.3519C558.403 32.9962 559.7 36.474 559.7 40.7977L559.681 42.0447ZM520.279 42.8343H515.015C511.462 42.8343 508.718 42.1512 506.807 40.7852C504.889 39.4129 503.937 37.157 503.937 34.0176V27.0621H510.522V33.5101C510.522 35.7972 512.058 36.9502 515.116 36.9502L517.66 36.9189H520.285V27.0558H526.871V53.2112H520.285V42.8343H520.279ZM495.471 46.5564L500.152 48.9188L494.224 59.0639L490.953 57.4911L495.471 46.5564ZM480.419 36.875C479.987 35.4213 479.128 34.237 477.856 33.3158C476.584 32.4072 475.099 31.9498 473.42 31.9498C471.596 31.9498 469.992 32.4636 468.614 33.4913C467.749 34.1304 466.947 35.2646 466.207 36.8813H480.419V36.875ZM487.011 42.0447H465.925C466.232 43.9058 467.047 45.3784 468.369 46.475C469.685 47.5778 471.371 48.123 473.426 48.123C475.876 48.123 477.988 47.2645 479.749 45.5538L485.276 48.1543C483.897 50.1031 482.249 51.5507 480.325 52.4969C478.408 53.4305 476.121 53.9005 473.47 53.9005C469.372 53.9005 466.032 52.5971 463.45 50.0154C460.869 47.4274 459.578 44.1815 459.578 40.2964C459.578 36.2986 460.869 32.9962 463.431 30.3519C466.007 27.72 469.234 26.3978 473.107 26.3978C477.223 26.3978 480.57 27.72 483.151 30.3519C485.727 32.9962 487.024 36.474 487.024 40.7977L487.011 42.0447ZM454.176 53.2175H416.434V27.0621H423.02V46.9199H432.012V27.0621H438.598V46.9199H447.603V27.0621H454.17V53.2175H454.176ZM397.93 48.1794H399.923C401.113 48.1794 401.966 48.0979 402.498 47.9225C403.025 47.747 403.495 47.4337 403.896 46.9449C404.284 46.4687 404.491 45.8797 404.491 45.1967C404.491 42.9533 403.213 41.8254 400.65 41.8254H397.936V48.1794H397.93ZM397.93 36.4928H399.873C402.611 36.4928 404.723 36.6996 406.177 37.132C407.643 37.5455 408.884 38.4354 409.892 39.7826C410.908 41.1236 411.415 42.8155 411.415 44.8457C411.415 46.8697 410.951 48.5491 410.043 49.8901C409.128 51.2248 407.956 52.1209 406.54 52.5533C405.124 52.9982 403.137 53.2175 400.562 53.2175H391.338V27.0621H397.924V36.4928H397.93ZM387.898 53.2175H381.218L374.682 36.6996L368.015 53.2175H361.367L372.514 27.0621H376.75L387.898 53.2175ZM345.4 32.5701C343.364 32.5701 341.665 33.2845 340.312 34.7069C338.958 36.1231 338.288 37.9403 338.288 40.146C338.288 42.427 338.952 44.263 340.299 45.6729C341.634 47.089 343.326 47.7909 345.375 47.7909C347.424 47.7909 349.135 47.0765 350.495 45.6478C351.854 44.2191 352.537 42.3894 352.537 40.146C352.537 37.9027 351.873 36.0792 350.532 34.6756C349.191 33.2719 347.487 32.5701 345.4 32.5701ZM345.3 26.3916C347.769 26.3916 350.087 27.0182 352.268 28.2527C354.43 29.4809 356.128 31.1602 357.344 33.2719C358.565 35.3899 359.173 37.6709 359.173 40.1272C359.173 42.5962 358.559 44.9021 357.337 47.0515C356.103 49.2008 354.442 50.8739 352.318 52.0896C350.2 53.2927 347.875 53.9068 345.325 53.9068C341.578 53.9068 338.376 52.5658 335.725 49.9026C333.074 47.2332 331.746 43.9935 331.746 40.1774C331.746 36.0918 333.25 32.6892 336.239 29.9634C338.871 27.5822 341.891 26.3916 345.3 26.3916ZM312.452 37.2134V46.8071H314.131C317.208 46.8071 319.151 46.406 319.972 45.604C320.786 44.8082 321.193 43.7303 321.193 42.358C321.193 38.9304 318.743 37.2134 313.843 37.2134H312.452V37.2134ZM305.716 53.2175V17.8569H324.201V24.424H312.452V31.1978H313.912C316.901 31.1978 319.326 31.5299 321.225 32.1941C323.111 32.8458 324.69 34.0803 325.95 35.8975C327.203 37.721 327.836 39.8703 327.836 42.3518C327.836 44.8207 327.359 46.782 326.413 48.2483C325.461 49.7146 324.164 50.9115 322.509 51.8326C320.843 52.7538 318.555 53.2112 315.617 53.2112H305.716V53.2175Z" fill="#DD2B1C"/>
<path d="M870.87 45.6729C872.011 45.6729 872.976 46.0739 873.79 46.876C874.592 47.6718 875 48.6431 875 49.7835C875 50.9052 874.592 51.864 873.79 52.6786C872.976 53.4869 872.011 53.8942 870.87 53.8942C869.724 53.8942 868.759 53.4869 867.956 52.6974C867.161 51.8953 866.76 50.924 866.76 49.7835C866.76 48.6431 867.161 47.6718 867.956 46.876C868.759 46.0739 869.724 45.6729 870.87 45.6729ZM867.555 16.9734H874.185V42.8092H867.555V16.9734ZM847.24 32.4573C845.21 32.4573 843.518 33.1717 842.177 34.6067C840.83 36.0479 840.159 37.8776 840.159 40.121C840.159 42.3831 840.842 44.2379 842.208 45.698C843.581 47.158 845.273 47.8912 847.265 47.8912C849.333 47.8912 851.05 47.1642 852.416 45.7355C853.776 44.3068 854.453 42.427 854.453 40.1022C854.453 37.8275 853.776 35.9852 852.416 34.5816C851.044 33.1592 849.327 32.4573 847.24 32.4573ZM854.139 27.0621H860.681V53.2175H854.139V50.4541C852.861 51.676 851.576 52.547 850.286 53.0859C848.988 53.6185 847.591 53.8942 846.081 53.8942C842.703 53.8942 839.777 52.5783 837.308 49.959C834.846 47.3397 833.611 44.0813 833.611 40.1899C833.611 36.1544 834.802 32.8458 837.189 30.2641C839.577 27.6887 842.484 26.3916 845.893 26.3916C847.46 26.3916 848.938 26.6986 850.317 27.2877C851.689 27.8829 852.968 28.7728 854.133 29.9571V27.0621H854.139ZM808.364 27.0621H814.931V36.85L823.974 27.0621H831.976L820.314 39.8077L832.12 53.2175H823.416L815.627 43.9935L814.931 44.8144V53.2175H808.364V27.0621ZM782.284 53.2175H778.794V27.0621H785.198V42.4332L798.583 27.0621H801.722V53.2175H795.33V38.1722L782.284 53.2175ZM756.279 43.5549L764.306 27.0621H768.636L775.172 53.2175H768.755L765.265 37.8902L757.482 53.2175H754.788L747.168 37.8902L743.653 53.2175H737.261L743.797 27.0621H748.127L756.279 43.5549ZM720.198 32.4573C718.168 32.4573 716.476 33.1717 715.129 34.6067C713.788 36.0479 713.117 37.8776 713.117 40.121C713.117 42.3831 713.794 44.2379 715.166 45.698C716.532 47.158 718.224 47.8912 720.223 47.8912C722.291 47.8912 724.008 47.1642 725.368 45.7355C726.734 44.3068 727.41 42.427 727.41 40.1022C727.41 37.8275 726.734 35.9852 725.368 34.5816C724.008 33.1592 722.285 32.4573 720.198 32.4573ZM727.103 27.0621H733.645V53.2175H727.103V50.4541C725.825 51.676 724.54 52.547 723.25 53.0859C721.953 53.6185 720.555 53.8942 719.045 53.8942C715.661 53.8942 712.741 52.5783 710.272 49.959C707.803 47.3397 706.575 44.0813 706.575 40.1899C706.575 36.1544 707.766 32.8458 710.153 30.2641C712.541 27.6887 715.442 26.3916 718.857 26.3916C720.424 26.3916 721.896 26.6986 723.275 27.2877C724.653 27.8829 725.925 28.7728 727.097 29.9571V27.0621H727.103ZM688.691 32.4573C686.623 32.4573 684.906 33.1591 683.547 34.5753C682.18 35.979 681.504 37.8275 681.504 40.0959C681.504 42.4207 682.18 44.3069 683.547 45.7293C684.906 47.1643 686.623 47.8849 688.691 47.8849C690.696 47.8849 692.382 47.1517 693.748 45.6917C695.12 44.2379 695.797 42.3768 695.797 40.1147C695.797 37.8714 695.127 36.0354 693.786 34.6004C692.438 33.1717 690.74 32.4573 688.691 32.4573ZM681.786 27.0621V29.9508C682.97 28.7728 684.255 27.8767 685.633 27.2814C687.012 26.6924 688.484 26.3853 690.051 26.3853C693.466 26.3853 696.367 27.6824 698.755 30.2579C701.142 32.8396 702.333 36.1482 702.333 40.1836C702.333 44.0812 701.105 47.3335 698.636 49.9528C696.167 52.572 693.247 53.888 689.863 53.888C688.353 53.888 686.949 53.6122 685.652 53.0796C684.349 52.5407 683.07 51.6697 681.779 50.4478V62.7798H675.263V27.0558H681.786V27.0621ZM663.375 36.875C662.937 35.4213 662.085 34.237 660.813 33.3158C659.54 32.4072 658.055 31.9498 656.37 31.9498C654.553 31.9498 652.942 32.4636 651.564 33.4913C650.705 34.1304 649.903 35.2646 649.164 36.8813H663.375V36.875ZM669.968 42.0447H648.882C649.182 43.9058 650.003 45.3784 651.319 46.475C652.641 47.5778 654.321 48.123 656.376 48.123C658.832 48.123 660.938 47.2645 662.705 45.5538L668.232 48.1543C666.853 50.1031 665.205 51.5507 663.275 52.4969C661.358 53.4305 659.077 53.9005 656.426 53.9005C652.322 53.9005 648.982 52.5971 646.406 50.0154C643.825 47.4274 642.534 44.1815 642.534 40.2964C642.534 36.2986 643.825 32.9962 646.388 30.3519C648.963 27.72 652.19 26.3978 656.056 26.3978C660.173 26.3978 663.526 27.72 666.108 30.3519C668.683 32.9962 669.98 36.474 669.98 40.7977L669.968 42.0447ZM617.318 27.0621H623.885V36.85L632.928 27.0621H640.923L629.262 39.8077L641.074 53.2175H632.37L624.581 43.9935L623.885 44.8144V53.2175H617.318V27.0621ZM580.993 43.5549L589.026 27.0621H593.35L599.892 53.2175H593.475L589.985 37.8902L582.202 53.2175H579.508L571.882 37.8902L568.373 53.2175H561.981L568.517 27.0621H572.847L580.993 43.5549ZM553.089 36.875C552.657 35.4213 551.798 34.237 550.526 33.3158C549.254 32.4072 547.769 31.9498 546.09 31.9498C544.266 31.9498 542.662 32.4636 541.284 33.4913C540.419 34.1304 539.617 35.2646 538.877 36.8813H553.089V36.875ZM559.681 42.0447H538.595C538.902 43.9058 539.717 45.3784 541.039 46.475C542.355 47.5778 544.041 48.123 546.096 48.123C548.546 48.123 550.658 47.2645 552.419 45.5538L557.946 48.1543C556.567 50.1031 554.919 51.5507 552.995 52.4969C551.071 53.4305 548.791 53.9005 546.14 53.9005C542.042 53.9005 538.702 52.5971 536.12 50.0154C533.538 47.4274 532.248 44.1815 532.248 40.2964C532.248 36.2986 533.538 32.9962 536.101 30.3519C538.677 27.72 541.904 26.3978 545.776 26.3978C549.893 26.3978 553.24 27.72 555.828 30.3519C558.403 32.9962 559.7 36.474 559.7 40.7977L559.681 42.0447ZM520.279 42.8343H515.015C511.462 42.8343 508.718 42.1512 506.807 40.7852C504.889 39.4129 503.937 37.157 503.937 34.0176V27.0621H510.522V33.5101C510.522 35.7972 512.058 36.9502 515.116 36.9502L517.66 36.9189H520.285V27.0558H526.871V53.2112H520.285V42.8343H520.279ZM495.471 46.5564L500.152 48.9188L494.224 59.0639L490.953 57.4911L495.471 46.5564ZM480.419 36.875C479.987 35.4213 479.128 34.237 477.856 33.3158C476.584 32.4072 475.099 31.9498 473.42 31.9498C471.596 31.9498 469.992 32.4636 468.614 33.4913C467.749 34.1304 466.947 35.2646 466.207 36.8813H480.419V36.875ZM487.011 42.0447H465.925C466.232 43.9058 467.047 45.3784 468.369 46.475C469.685 47.5778 471.371 48.123 473.426 48.123C475.876 48.123 477.988 47.2645 479.749 45.5538L485.276 48.1543C483.897 50.1031 482.249 51.5507 480.325 52.4969C478.408 53.4305 476.121 53.9005 473.47 53.9005C469.372 53.9005 466.032 52.5971 463.45 50.0154C460.869 47.4274 459.578 44.1815 459.578 40.2964C459.578 36.2986 460.869 32.9962 463.431 30.3519C466.007 27.72 469.234 26.3978 473.107 26.3978C477.223 26.3978 480.57 27.72 483.151 30.3519C485.727 32.9962 487.024 36.474 487.024 40.7977L487.011 42.0447ZM454.176 53.2175H416.434V27.0621H423.02V46.9199H432.012V27.0621H438.598V46.9199H447.603V27.0621H454.17V53.2175H454.176ZM397.93 48.1794H399.923C401.113 48.1794 401.966 48.0979 402.498 47.9225C403.025 47.747 403.495 47.4337 403.896 46.9449C404.284 46.4687 404.491 45.8797 404.491 45.1967C404.491 42.9533 403.213 41.8254 400.65 41.8254H397.936V48.1794H397.93ZM397.93 36.4928H399.873C402.611 36.4928 404.723 36.6996 406.177 37.132C407.643 37.5455 408.884 38.4354 409.892 39.7826C410.908 41.1236 411.415 42.8155 411.415 44.8457C411.415 46.8697 410.951 48.5491 410.043 49.8901C409.128 51.2248 407.956 52.1209 406.54 52.5533C405.124 52.9982 403.137 53.2175 400.562 53.2175H391.338V27.0621H397.924V36.4928H397.93ZM387.898 53.2175H381.218L374.682 36.6996L368.015 53.2175H361.367L372.514 27.0621H376.75L387.898 53.2175ZM345.4 32.5701C343.364 32.5701 341.665 33.2845 340.312 34.7069C338.958 36.1231 338.288 37.9403 338.288 40.146C338.288 42.427 338.952 44.263 340.299 45.6729C341.634 47.089 343.326 47.7909 345.375 47.7909C347.424 47.7909 349.135 47.0765 350.495 45.6478C351.854 44.2191 352.537 42.3894 352.537 40.146C352.537 37.9027 351.873 36.0792 350.532 34.6756C349.191 33.2719 347.487 32.5701 345.4 32.5701ZM345.3 26.3916C347.769 26.3916 350.087 27.0182 352.268 28.2527C354.43 29.4809 356.128 31.1602 357.344 33.2719C358.565 35.3899 359.173 37.6709 359.173 40.1272C359.173 42.5962 358.559 44.9021 357.337 47.0515C356.103 49.2008 354.442 50.8739 352.318 52.0896C350.2 53.2927 347.875 53.9068 345.325 53.9068C341.578 53.9068 338.376 52.5658 335.725 49.9026C333.074 47.2332 331.746 43.9935 331.746 40.1774C331.746 36.0918 333.25 32.6892 336.239 29.9634C338.871 27.5822 341.891 26.3916 345.3 26.3916ZM312.452 37.2134V46.8071H314.131C317.208 46.8071 319.151 46.406 319.972 45.604C320.786 44.8082 321.193 43.7303 321.193 42.358C321.193 38.9304 318.743 37.2134 313.843 37.2134H312.452V37.2134ZM305.716 53.2175V17.8569H324.201V24.424H312.452V31.1978H313.912C316.901 31.1978 319.326 31.5299 321.225 32.1941C323.111 32.8458 324.69 34.0803 325.95 35.8975C327.203 37.721 327.836 39.8703 327.836 42.3518C327.836 44.8207 327.359 46.782 326.413 48.2483C325.461 49.7146 324.164 50.9115 322.509 51.8326C320.843 52.7538 318.555 53.2112 315.617 53.2112H305.716V53.2175Z" stroke="white" stroke-width="0.216"/>
<path fill-rule="evenodd" clip-rule="evenodd" d="M604.429 93.7665L598.714 105.81H610.081L604.429 93.7665ZM614.148 114.596H594.591L586.614 131.395H576.657L602.599 76.4779H606.296L631.906 131.395H622.168L614.148 114.596ZM540.068 93.1085L557.745 76.4841H570.315L543.608 101.411L571.788 131.402H559.713L540.068 110.535V131.402H530.994V76.4841H540.068V93.1085ZM503.949 95.5649L473.138 131.395H469.171V76.4779H478.138V112.966L509.144 76.4779H513.117V131.395H503.943V95.5649H503.949ZM422.976 115.937L442.32 76.4841H446.024L453.907 131.402H444.965L440.591 99.4626L424.8 131.402H421.128L405.111 99.1806L400.762 131.402H391.921L399.722 76.4841H403.438L422.976 115.937ZM354.831 93.7665L349.116 105.81H360.477L354.831 93.7665ZM364.55 114.596H344.993L337.009 131.395H327.052L352.988 76.4779H356.686L382.296 131.395H372.558L364.55 114.596ZM298.735 85.307V98.8171C302.276 98.861 309.4 99.2495 312.414 98.0714C317.828 95.9534 317.559 88.0517 312.558 86.0841C309.826 85.0063 302.056 85.307 298.735 85.307ZM298.735 107.659V131.402H289.768V76.4841C295.433 76.4841 309.338 76.127 314.131 77.3113C326.482 80.3567 328.174 94.5686 322.384 101.656C316.826 108.442 307.088 107.659 298.735 107.659ZM251.406 85.376V97.4824H275.356V106.343H251.406V122.497H275.356V131.395H242.439V76.4779H275.556V85.376H251.406ZM200.198 93.1085L217.875 76.4841H230.445L203.739 101.411L231.918 131.402H219.843L200.198 110.535V131.402H191.125V76.4841H200.198V93.1085Z" fill="white"/>
<path d="M604.429 93.7665L598.714 105.81H610.081L604.429 93.7665ZM614.148 114.596H594.591L586.614 131.395H576.657L602.599 76.4779H606.296L631.906 131.395H622.168L614.148 114.596ZM540.068 93.1085L557.745 76.4841H570.315L543.608 101.411L571.788 131.402H559.713L540.068 110.535V131.402H530.994V76.4841H540.068V93.1085ZM503.949 95.5649L473.138 131.395H469.171V76.4779H478.138V112.966L509.144 76.4779H513.117V131.395H503.943V95.5649H503.949ZM422.976 115.937L442.32 76.4841H446.024L453.907 131.402H444.965L440.591 99.4626L424.8 131.402H421.128L405.111 99.1806L400.762 131.402H391.921L399.722 76.4841H403.438L422.976 115.937ZM354.831 93.7665L349.116 105.81H360.477L354.831 93.7665ZM364.55 114.596H344.993L337.009 131.395H327.052L352.988 76.4779H356.686L382.296 131.395H372.558L364.55 114.596ZM298.735 85.307V98.8171C302.276 98.861 309.4 99.2495 312.414 98.0714C317.828 95.9534 317.559 88.0517 312.558 86.0841C309.826 85.0063 302.056 85.307 298.735 85.307ZM298.735 107.659V131.402H289.768V76.4841C295.433 76.4841 309.338 76.127 314.131 77.3113C326.482 80.3567 328.174 94.5686 322.384 101.656C316.826 108.442 307.088 107.659 298.735 107.659ZM251.406 85.376V97.4824H275.356V106.343H251.406V122.497H275.356V131.395H242.439V76.4779H275.556V85.376H251.406ZM200.198 93.1085L217.875 76.4841H230.445L203.739 101.411L231.918 131.402H219.843L200.198 110.535V131.402H191.125V76.4841H200.198V93.1085Z" stroke="white" stroke-width="0.5669"/>
<path fill-rule="evenodd" clip-rule="evenodd" d="M44.6947 108.436L27.475 108.43L34.3929 87.4062L37.6827 87.3999L44.6947 108.436ZM164.224 78.7462C131.482 78.74 98.735 78.7337 65.9937 78.7274L65.9875 126.664L48.9432 78.7274L19.8928 78.7212L47.1448 0.900391L178.899 47.0389L164.224 88.9477V78.7462ZM100.17 95.8782C100.17 105.209 90.6076 104.663 84.0594 104.657H81.9915V87.0991H84.0594C90.6452 87.1054 100.17 86.648 100.17 95.8782ZM150.325 128.626L132.755 178.8L1 132.661L2.41618 128.601H22.7815L26.4097 116.952H45.6471L49.3505 128.607L82.5241 128.613V113.023H84.592C98.4906 113.023 119.934 113.211 116.625 92.9769L116.23 90.5706L129.452 90.5769L129.446 128.619L145.995 128.626L146.001 90.5832L163.635 90.5895L150.325 128.626Z" fill="white"/>
<path d="M44.6947 108.436L27.475 108.43L34.3929 87.4062L37.6827 87.3999L44.6947 108.436ZM164.224 78.7462C131.482 78.74 98.735 78.7337 65.9937 78.7274L65.9875 126.664L48.9432 78.7274L19.8928 78.7212L47.1448 0.900391L178.899 47.0389L164.224 88.9477V78.7462ZM100.17 95.8782C100.17 105.209 90.6076 104.663 84.0594 104.657H81.9915V87.0991H84.0594C90.6452 87.1054 100.17 86.648 100.17 95.8782ZM150.325 128.626L132.755 178.8L1 132.661L2.41618 128.601H22.7815L26.4097 116.952H45.6471L49.3505 128.607L82.5241 128.613V113.023H84.592C98.4906 113.023 119.934 113.211 116.625 92.9769L116.23 90.5706L129.452 90.5769L129.446 128.619L145.995 128.626L146.001 90.5832L163.635 90.5895L150.325 128.626Z" stroke="white" stroke-width="0.5669"/>
<path fill-rule="evenodd" clip-rule="evenodd" d="M41.8247 106.368L36.1914 89.4677H35.8906L30.3324 106.368H41.8247ZM147.411 130.693L131.489 176.168L3.63184 131.395L3.88875 130.668H24.3042L27.9324 119.019H44.137L47.8403 130.675H63.9133L84.592 130.681V115.09C96.5919 115.09 122.472 115.924 118.668 92.6384H127.391L127.384 130.681L147.411 130.693ZM160.733 92.651L148.069 128.814L148.076 92.651H160.733ZM48.4043 3.54468L176.255 48.3171L166.285 76.7973V76.6845C132.165 76.6783 98.0457 76.672 63.9196 76.672L63.9133 114.702L50.3907 76.6657H22.8003L48.4043 3.54468ZM98.1021 95.8781C98.1021 88.4401 89.7679 89.1607 84.0594 89.1607V102.589C89.4859 102.596 98.1021 103.479 98.1021 95.8781Z" fill="white"/>
<path d="M41.8247 106.368L36.1914 89.4677H35.8906L30.3324 106.368H41.8247ZM147.411 130.693L131.489 176.168L3.63184 131.395L3.88875 130.668H24.3042L27.9324 119.019H44.137L47.8403 130.675H63.9133L84.592 130.681V115.09C96.5919 115.09 122.472 115.924 118.668 92.6384H127.391L127.384 130.681L147.411 130.693ZM160.733 92.651L148.069 128.814L148.076 92.651H160.733ZM48.4043 3.54468L176.255 48.3171L166.285 76.7973V76.6845C132.165 76.6783 98.0457 76.672 63.9196 76.672L63.9133 114.702L50.3907 76.6657H22.8003L48.4043 3.54468ZM98.1021 95.8781C98.1021 88.4401 89.7679 89.1607 84.0594 89.1607V102.589C89.4859 102.596 98.1021 103.479 98.1021 95.8781Z" stroke="white" stroke-width="0.5669"/>
<path fill-rule="evenodd" clip-rule="evenodd" d="M602.618 90.7587L596.903 102.802H608.27L602.618 90.7587ZM612.343 111.594H592.786L584.803 128.394H574.852L600.795 73.4763H604.492L630.096 128.394H620.364L612.343 111.594ZM538.257 90.1007L555.928 73.4763H568.498L541.798 98.4035L569.977 128.394H557.902L538.257 107.527V128.394H529.177V73.4763H538.257V90.1007ZM502.139 92.5571L471.327 128.388H467.361V73.4763H476.328V109.965L507.333 73.4763H511.306V128.394H502.132V92.5571H502.139ZM421.166 112.929L440.504 73.4763H444.213L452.096 128.394H443.154L438.78 96.4547L422.989 128.394H419.317L403.301 96.1728L398.952 128.394H390.11L397.912 73.4763H401.628L421.166 112.929ZM353.02 90.7587L347.305 102.802H358.666L353.02 90.7587ZM362.739 111.594H343.188L335.205 128.394H325.248L351.19 73.4763H354.888L380.498 128.394H370.76L362.739 111.594ZM296.925 82.2992V95.8093C300.459 95.8532 307.59 96.2417 310.604 95.0636C316.012 92.9456 315.748 85.0439 310.748 83.0763C308.016 82.0047 300.246 82.2992 296.925 82.2992ZM296.925 104.651V128.394H287.958V73.4763C293.622 73.4763 307.527 73.1192 312.321 74.3035C324.672 77.3489 326.363 91.5608 320.573 98.6479C315.015 105.441 305.278 104.651 296.925 104.651ZM249.595 82.3744V94.4809H273.545V103.341H249.595V119.49H273.545V128.394H240.628V73.4763H273.752V82.3744H249.595ZM198.388 90.1007L216.065 73.4763H228.635L201.928 98.4035L230.107 128.394H218.032L198.388 107.527V128.394H189.314V73.4763H198.388V90.1007Z" fill="#151616"/>
<path fill-rule="evenodd" clip-rule="evenodd" d="M40.0137 103.36L34.3866 86.4599H34.0733L28.5151 103.36H40.0137ZM145.6 127.686L129.678 173.166L1.8208 128.387L2.07145 127.661L22.4869 127.667L26.1151 116.012L42.3197 116.018L46.023 127.673H62.096L82.7747 127.679V112.089C94.7746 112.089 120.654 112.922 116.851 89.6369H125.573L125.567 127.679H145.6V127.686ZM158.922 89.6432L146.258 125.806L146.264 89.6432H158.922ZM46.5933 0.536865L174.444 45.3093L164.474 73.7832V73.6767C130.354 73.6705 96.2346 73.6642 62.1085 73.6579L62.1023 111.694L48.5797 73.6579H20.9893L46.5933 0.536865ZM96.291 92.8766C96.291 85.4385 87.9569 86.1591 82.2483 86.1591V99.5815C87.6749 99.594 96.291 100.465 96.291 92.8766Z" fill="#DD2B1C"/>
<path d="M40.0137 103.36L34.3866 86.4599H34.0733L28.5151 103.36H40.0137ZM145.6 127.686L129.678 173.166L1.8208 128.387L2.07145 127.661L22.4869 127.667L26.1151 116.012L42.3197 116.018L46.023 127.673H62.096L82.7747 127.679V112.089C94.7746 112.089 120.654 112.922 116.851 89.6369H125.573L125.567 127.679H145.6V127.686ZM158.922 89.6432L146.258 125.806L146.264 89.6432H158.922ZM46.5933 0.536865L174.444 45.3093L164.474 73.7832V73.6767C130.354 73.6705 96.2346 73.6642 62.1085 73.6579L62.1023 111.694L48.5797 73.6579H20.9893L46.5933 0.536865ZM96.291 92.8766C96.291 85.4385 87.9569 86.1591 82.2483 86.1591V99.5815C87.6749 99.594 96.291 100.465 96.291 92.8766Z" stroke="black" stroke-width="0.5669"/>
</svg>
