<svg width="50" height="50" viewBox="0 0 50 50" fill="none" xmlns="http://www.w3.org/2000/svg">
<path d="M25 41L25.5 41L25.5 40.5L25.5 0.99201L49.5 18.752L49.5 49.5L0.500004 49.5L0.499999 41L25 41Z" stroke="black"/>
<rect x="45.5" y="43.5" width="4" height="2" stroke="black" stroke-linejoin="round"/>
<rect x="43.5" y="41.5" width="4" height="2" stroke="black" stroke-linejoin="round"/>
<rect x="41.5" y="43.5" width="4" height="2" stroke="black" stroke-linejoin="round"/>
<rect x="37.5" y="43.5" width="4" height="2" stroke="black" stroke-linejoin="round"/>
<rect x="43.5" y="45.5" width="4" height="2" stroke="black" stroke-linejoin="round"/>
<rect x="39.5" y="45.5" width="4" height="2" stroke="black" stroke-linejoin="round"/>
<rect x="41.5" y="47.5" width="4" height="2" stroke="black" stroke-linejoin="round"/>
<rect x="39.5" y="41.5" width="4" height="2" stroke="black" stroke-linejoin="round"/>
<rect x="35.5" y="41.5" width="4" height="2" stroke="black" stroke-linejoin="round"/>
<rect x="33.5" y="43.5" width="4" height="2" stroke="black" stroke-linejoin="round"/>
<rect x="41.5" y="39.5" width="4" height="2" stroke="black" stroke-linejoin="round"/>
<rect x="33.5" y="35.5" width="4" height="2" stroke="black" stroke-linejoin="round"/>
<rect x="37.5" y="39.5" width="4" height="2" stroke="black" stroke-linejoin="round"/>
<rect x="35.5" y="37.5" width="4" height="2" stroke="black" stroke-linejoin="round"/>
<rect x="37.5" y="35.5" width="4" height="2" stroke="black" stroke-linejoin="round"/>
<rect x="45.5" y="39.5" width="4" height="2" stroke="black" stroke-linejoin="round"/>
<rect x="31.5" y="41.5" width="4" height="2" stroke="black" stroke-linejoin="round"/>
<rect x="29.5" y="39.5" width="4" height="2" stroke="black" stroke-linejoin="round"/>
<rect x="27.5" y="41.5" width="4" height="2" stroke="black" stroke-linejoin="round"/>
<rect x="23.5" y="41.5" width="4" height="2" stroke="black" stroke-linejoin="round"/>
<rect x="29.5" y="43.5" width="4" height="2" stroke="black" stroke-linejoin="round"/>
<rect x="25.5" y="43.5" width="4" height="2" stroke="black" stroke-linejoin="round"/>
<rect x="27.5" y="45.5" width="4" height="2" stroke="black" stroke-linejoin="round"/>
<rect x="25.5" y="39.5" width="4" height="2" stroke="black" stroke-linejoin="round"/>
<rect x="31.5" y="45.5" width="4" height="2" stroke="black" stroke-linejoin="round"/>
<rect x="19.5" y="41.5" width="4" height="2" stroke="black" stroke-linejoin="round"/>
<rect x="27.5" y="37.5" width="4" height="2" stroke="black" stroke-linejoin="round"/>
<rect x="27.5" y="29.5" width="4" height="2" stroke="black" stroke-linejoin="round"/>
<rect x="42.5" y="37.5" width="4" height="2" stroke="black" stroke-linejoin="round"/>
<rect x="31.5" y="33.5" width="4" height="2" stroke="black" stroke-linejoin="round"/>
<rect x="33.5" y="31.5" width="4" height="2" stroke="black" stroke-linejoin="round"/>
<rect x="25.5" y="31.5" width="4" height="2" stroke="black" stroke-linejoin="round"/>
<rect x="29.5" y="35.5" width="4" height="2" stroke="black" stroke-linejoin="round"/>
<rect x="29.5" y="31.5" width="4" height="2" stroke="black" stroke-linejoin="round"/>
<rect x="31.5" y="37.5" width="4" height="2" stroke="black" stroke-linejoin="round"/>
<rect x="27" y="19" width="2" height="2" fill="black"/>
<rect x="31" y="19" width="2" height="2" fill="black"/>
<rect x="35" y="19" width="2" height="2" fill="black"/>
<rect x="39" y="19" width="2" height="2" fill="black"/>
<rect x="27" y="15" width="2" height="2" fill="black"/>
<rect x="31" y="15" width="2" height="2" fill="black"/>
<rect x="35" y="15" width="2" height="2" fill="black"/>
<rect x="27" y="11" width="2" height="2" fill="black"/>
<rect x="31" y="11" width="2" height="2" fill="black"/>
<rect x="27" y="7" width="2" height="2" fill="black"/>
<rect x="35" y="11" width="2" height="2" fill="black"/>
<rect x="39" y="15" width="2" height="2" fill="black"/>
<rect x="43" y="19" width="2" height="2" fill="black"/>
<rect x="27" y="23" width="2" height="2" fill="black"/>
<rect x="31" y="23" width="2" height="2" fill="black"/>
<rect x="35" y="23" width="2" height="2" fill="black"/>
<rect x="39" y="23" width="2" height="2" fill="black"/>
<rect x="43" y="23" width="2" height="2" fill="black"/>
<rect x="3" y="45" width="2" height="2" fill="black"/>
<rect x="7" y="45" width="2" height="2" fill="black"/>
<rect x="11" y="45" width="2" height="2" fill="black"/>
<rect x="15" y="45" width="2" height="2" fill="black"/>
<rect x="19" y="45" width="2" height="2" fill="black"/>
<rect x="35" y="27" width="2" height="2" fill="black"/>
<rect x="39" y="27" width="2" height="2" fill="black"/>
<rect x="43" y="27" width="2" height="2" fill="black"/>
<rect x="23.5" y="11.5" width="2" height="9" stroke="black" stroke-linejoin="round"/>
<path d="M46 8H47V17L46 16.3729V8Z" fill="black"/>
<path d="M43 3H44V15L43 14.1639V3Z" fill="black"/>
<rect x="7" y="27" width="1" height="14" fill="black"/>
<rect x="3" y="33" width="1" height="8" fill="black"/>
<rect x="11" y="37" width="1" height="4" fill="black"/>
</svg>
