<svg width="40" height="40" viewBox="0 0 40 40" fill="none" xmlns="http://www.w3.org/2000/svg">
<path d="M20 32.9L20.5 32.9L20.5 32.4L20.5 0.992018L39.5 15.052L39.5 39.5L0.500008 39.5L0.500003 32.9L20 32.9Z" stroke="black"/>
<rect x="36.4998" y="34.9" width="3" height="1.4" stroke="black" stroke-linejoin="round"/>
<rect x="34.8998" y="33.3" width="3" height="1.4" stroke="black" stroke-linejoin="round"/>
<rect x="33.2998" y="34.9" width="3" height="1.4" stroke="black" stroke-linejoin="round"/>
<rect x="30.0998" y="34.9" width="3" height="1.4" stroke="black" stroke-linejoin="round"/>
<rect x="34.8998" y="36.5001" width="3" height="1.4" stroke="black" stroke-linejoin="round"/>
<rect x="31.6998" y="36.5001" width="3" height="1.4" stroke="black" stroke-linejoin="round"/>
<rect x="33.2998" y="38.1001" width="3" height="1.4" stroke="black" stroke-linejoin="round"/>
<rect x="31.6998" y="33.3" width="3" height="1.4" stroke="black" stroke-linejoin="round"/>
<rect x="28.4998" y="33.3" width="3" height="1.4" stroke="black" stroke-linejoin="round"/>
<rect x="26.8998" y="34.9" width="3" height="1.4" stroke="black" stroke-linejoin="round"/>
<rect x="33.2998" y="31.7001" width="3" height="1.4" stroke="black" stroke-linejoin="round"/>
<rect x="26.8998" y="28.5001" width="3" height="1.4" stroke="black" stroke-linejoin="round"/>
<rect x="30.0998" y="31.7001" width="3" height="1.4" stroke="black" stroke-linejoin="round"/>
<rect x="28.4998" y="30.1001" width="3" height="1.4" stroke="black" stroke-linejoin="round"/>
<rect x="30.0998" y="28.5001" width="3" height="1.4" stroke="black" stroke-linejoin="round"/>
<rect x="36.4998" y="31.7001" width="3" height="1.4" stroke="black" stroke-linejoin="round"/>
<rect x="25.2998" y="33.3" width="3" height="1.4" stroke="black" stroke-linejoin="round"/>
<rect x="23.6998" y="31.7001" width="3" height="1.4" stroke="black" stroke-linejoin="round"/>
<rect x="22.0998" y="33.3" width="3" height="1.4" stroke="black" stroke-linejoin="round"/>
<rect x="18.8998" y="33.3" width="3" height="1.4" stroke="black" stroke-linejoin="round"/>
<rect x="23.6998" y="34.9" width="3" height="1.4" stroke="black" stroke-linejoin="round"/>
<rect x="20.4998" y="34.9" width="3" height="1.4" stroke="black" stroke-linejoin="round"/>
<rect x="22.0998" y="36.5001" width="3" height="1.4" stroke="black" stroke-linejoin="round"/>
<rect x="20.4998" y="31.7001" width="3" height="1.4" stroke="black" stroke-linejoin="round"/>
<rect x="25.2998" y="36.5001" width="3" height="1.4" stroke="black" stroke-linejoin="round"/>
<rect x="15.6998" y="33.3" width="3" height="1.4" stroke="black" stroke-linejoin="round"/>
<rect x="22.0998" y="30.1001" width="3" height="1.4" stroke="black" stroke-linejoin="round"/>
<rect x="22.0998" y="23.7001" width="3" height="1.4" stroke="black" stroke-linejoin="round"/>
<rect x="34.0998" y="30.1001" width="3" height="1.4" stroke="black" stroke-linejoin="round"/>
<rect x="25.2998" y="26.9" width="3" height="1.4" stroke="black" stroke-linejoin="round"/>
<rect x="26.8998" y="25.3" width="3" height="1.4" stroke="black" stroke-linejoin="round"/>
<rect x="20.4998" y="25.3" width="3" height="1.4" stroke="black" stroke-linejoin="round"/>
<rect x="23.6998" y="28.5001" width="3" height="1.4" stroke="black" stroke-linejoin="round"/>
<rect x="23.6998" y="25.3" width="3" height="1.4" stroke="black" stroke-linejoin="round"/>
<rect x="25.2998" y="30.1001" width="3" height="1.4" stroke="black" stroke-linejoin="round"/>
<rect x="21.6" y="15.2" width="1.6" height="1.6" fill="black"/>
<rect x="24.8" y="15.2" width="1.6" height="1.6" fill="black"/>
<rect x="28" y="15.2" width="1.6" height="1.6" fill="black"/>
<rect x="31.2" y="15.2" width="1.6" height="1.6" fill="black"/>
<rect x="21.6" y="12" width="1.6" height="1.6" fill="black"/>
<rect x="24.8" y="12" width="1.6" height="1.6" fill="black"/>
<rect x="28" y="12" width="1.6" height="1.6" fill="black"/>
<rect x="21.6" y="8.80005" width="1.6" height="1.6" fill="black"/>
<rect x="24.8" y="8.80005" width="1.6" height="1.6" fill="black"/>
<rect x="21.6" y="5.59998" width="1.6" height="1.6" fill="black"/>
<rect x="28" y="8.80005" width="1.6" height="1.6" fill="black"/>
<rect x="31.2" y="12" width="1.6" height="1.6" fill="black"/>
<rect x="34.4" y="15.2" width="1.6" height="1.6" fill="black"/>
<rect x="21.6" y="18.4" width="1.6" height="1.6" fill="black"/>
<rect x="24.8" y="18.4" width="1.6" height="1.6" fill="black"/>
<rect x="28" y="18.4" width="1.6" height="1.6" fill="black"/>
<rect x="31.2" y="18.4" width="1.6" height="1.6" fill="black"/>
<rect x="34.4" y="18.4" width="1.6" height="1.6" fill="black"/>
<rect x="2.39999" y="36" width="1.6" height="1.6" fill="black"/>
<rect x="5.60001" y="36" width="1.6" height="1.6" fill="black"/>
<rect x="8.8" y="36" width="1.6" height="1.6" fill="black"/>
<rect x="12" y="36" width="1.6" height="1.6" fill="black"/>
<rect x="15.2" y="36" width="1.6" height="1.6" fill="black"/>
<rect x="28" y="21.6" width="1.6" height="1.6" fill="black"/>
<rect x="31.2" y="21.6" width="1.6" height="1.6" fill="black"/>
<rect x="34.4" y="21.6" width="1.6" height="1.6" fill="black"/>
<rect x="18.9" y="9.30005" width="1.4" height="7" stroke="black" stroke-linejoin="round"/>
<path d="M36.8 6.40002H37.6V13.6L36.8 13.0984V6.40002Z" fill="black"/>
<path d="M34.4 2.40002H35.2V12L34.4 11.3312V2.40002Z" fill="black"/>
<rect x="5.60001" y="21.6" width="0.8" height="11.2" fill="black"/>
<rect x="2.39999" y="26.4" width="0.8" height="6.4" fill="black"/>
<rect x="8.8" y="29.6" width="0.8" height="3.2" fill="black"/>
</svg>
