<svg width="29" height="40" viewBox="0 0 29 40" fill="none" xmlns="http://www.w3.org/2000/svg">
<rect x="1.5" y="21.3" width="26.2" height="3.8" stroke="black" stroke-linejoin="round"/>
<rect x="4.70001" y="25.3" width="19.8" height="4.6" stroke="black" stroke-linejoin="round"/>
<rect x="1.5" y="25.3" width="3" height="14.2" stroke="black" stroke-linejoin="round"/>
<rect x="24.7" y="25.3" width="3" height="14.2" stroke="black" stroke-linejoin="round"/>
<rect x="12.2" y="15.2568" width="4.61746" height="0.8" transform="rotate(-45 12.2 15.2568)" fill="black"/>
<rect x="11.4" y="13.665" width="2.17794" height="0.8" transform="rotate(-45 11.4 13.665)" fill="black"/>
<rect x="10.6" y="27.2" width="8" height="0.8" fill="black"/>
<path d="M20.5 9.2C20.5 11.6512 19.808 13.8487 18.715 15.4198C17.6208 16.9928 16.158 17.9 14.6 17.9C13.0421 17.9 11.5792 16.9928 10.485 15.4198C9.39199 13.8487 8.70001 11.6512 8.70001 9.2C8.70001 6.74883 9.39199 4.55133 10.485 2.98015C11.5792 1.40718 13.0421 0.5 14.6 0.5C16.158 0.5 17.6208 1.40718 18.715 2.98015C19.808 4.55133 20.5 6.74883 20.5 9.2Z" stroke="black"/>
<path d="M18.9 9.19998C18.9 11.219 18.3821 13.0232 17.5714 14.307C16.7565 15.5971 15.6934 16.3 14.6 16.3C13.5066 16.3 12.4434 15.5971 11.6286 14.307C10.8178 13.0232 10.3 11.219 10.3 9.19998C10.3 7.18099 10.8178 5.37671 11.6286 4.09296C12.4434 2.80282 13.5066 2.09998 14.6 2.09998C15.6934 2.09998 16.7565 2.80282 17.5714 4.09296C18.3821 5.37671 18.9 7.18099 18.9 9.19998Z" stroke="black"/>
<path d="M28.2 20.8C26.2 20.6666 21.56 19.44 19 15.6" stroke="black"/>
<path d="M1.00001 20.8C3.08697 20.6564 7.52871 19.7354 10.2 15.6" stroke="black"/>
</svg>
