<svg width="40" height="40" viewBox="0 0 40 40" fill="none" xmlns="http://www.w3.org/2000/svg">
<rect x="0.5" y="0.5" width="11.8" height="23.8" stroke="black"/>
<rect x="14.1" y="15.7" width="11.8" height="23.8" stroke="black"/>
<rect x="0.5" y="26.1" width="11.8" height="13.4" stroke="black"/>
<rect x="27.7" y="0.5" width="11.8" height="23.8" stroke="black"/>
<rect x="27.7" y="26.1" width="11.8" height="13.4" stroke="black"/>
<rect x="14.1" y="0.5" width="11.8" height="13.4" stroke="black"/>
<path d="M35.6 1.59998L37.2 3.19998" stroke="black"/>
<path d="M34.4 5.59998L32.8 7.19998" stroke="black"/>
<path d="M30.4 1.59998L32 3.19998" stroke="black"/>
<path d="M35.6 9.59998L37.2 11.2" stroke="black"/>
<path d="M34.4 13.6L32.8 15.2" stroke="black"/>
<path d="M30.4 9.59998L32 11.2" stroke="black"/>
<path d="M35.6 17.6L37.2 19.2" stroke="black"/>
<path d="M34.4 21.6L32.8 23.2" stroke="black"/>
<path d="M30.4 17.6L32 19.2" stroke="black"/>
<path d="M22 16.8L23.6 18.4" stroke="black"/>
<path d="M20.8 20.8L19.2 22.4" stroke="black"/>
<path d="M16.8 16.8L18.4 18.4" stroke="black"/>
<path d="M22 24.8L23.6 26.4" stroke="black"/>
<path d="M20.8 28.8L19.2 30.4" stroke="black"/>
<path d="M16.8 24.8L18.4 26.4" stroke="black"/>
<path d="M22 32.8L23.6 34.4" stroke="black"/>
<path d="M20.8 36.8L19.2 38.4" stroke="black"/>
<path d="M16.8 32.8L18.4 34.4" stroke="black"/>
<path d="M8.40002 1.59998L10 3.19998" stroke="black"/>
<path d="M7.20001 5.59998L5.60001 7.19998" stroke="black"/>
<path d="M3.20001 1.59998L4.80001 3.19998" stroke="black"/>
<path d="M8.40002 9.59998L10 11.2" stroke="black"/>
<path d="M7.20001 13.6L5.60001 15.2" stroke="black"/>
<path d="M3.20001 9.59998L4.80001 11.2" stroke="black"/>
<path d="M22 2.40002L23.6 4.00002" stroke="black"/>
<path d="M20.8 6.40002L19.2 8.00002" stroke="black"/>
<path d="M16.8 2.40002L18.4 4.00002" stroke="black"/>
<path d="M22 10.4L23.6 12" stroke="black"/>
<path d="M16.8 10.4L18.4 12" stroke="black"/>
<path d="M8.40002 28L10 29.6" stroke="black"/>
<path d="M7.20001 32L5.60001 33.6" stroke="black"/>
<path d="M3.20001 28L4.80001 29.6" stroke="black"/>
<path d="M8.40002 36L10 37.6" stroke="black"/>
<path d="M3.20001 36L4.80001 37.6" stroke="black"/>
<path d="M35.6 28L37.2 29.6" stroke="black"/>
<path d="M34.4 32L32.8 33.6" stroke="black"/>
<path d="M30.4 28L32 29.6" stroke="black"/>
<path d="M35.6 36L37.2 37.6" stroke="black"/>
<path d="M30.4 36L32 37.6" stroke="black"/>
<path d="M8.40002 17.6L10 19.2" stroke="black"/>
<path d="M7.20001 21.6L5.60001 23.2" stroke="black"/>
<path d="M3.20001 17.6L4.80001 19.2" stroke="black"/>
</svg>
