<svg width="40" height="40" viewBox="0 0 40 40" fill="none" xmlns="http://www.w3.org/2000/svg">
<rect x="10.9" y="0.5" width="28.6" height="28.6" fill="white" stroke="black"/>
<path d="M30 0.400024L39.6 10" stroke="black"/>
<path d="M20.8 0.400024L39.6 18.8" stroke="black"/>
<path d="M11.2 0.400024L32.4 21.2" stroke="black"/>
<path d="M37.2 0.400024L16.4 21.2" stroke="black"/>
<path d="M26.4 0.400024L5.60001 21.2" stroke="black"/>
<path d="M15.2 0.400024L10.8 4.40002" stroke="black"/>
<path d="M39.6 9.59998L27.2 21.2" stroke="black"/>
<rect x="0.5" y="5.30005" width="17.4" height="34.2" fill="white" stroke="black"/>
<path d="M13.6 6.40002L15.2 8.00002" stroke="black"/>
<path d="M8.79999 6.40002L10.4 8.00002" stroke="black"/>
<path d="M11.2 10.4L12.8 12" stroke="black"/>
<path d="M6.39999 10.4L7.99999 12" stroke="black"/>
<path d="M3.20001 6.40002L4.80001 8.00002" stroke="black"/>
<path d="M13.6 15.2L15.2 16.8" stroke="black"/>
<path d="M8.79999 15.2L10.4 16.8" stroke="black"/>
<path d="M11.2 19.2L12.8 20.8" stroke="black"/>
<path d="M6.39999 19.2L7.99999 20.8" stroke="black"/>
<path d="M3.20001 15.2L4.80001 16.8" stroke="black"/>
<path d="M13.6 23.2L15.2 24.8" stroke="black"/>
<path d="M8.79999 23.2L10.4 24.8" stroke="black"/>
<path d="M11.2 27.2L12.8 28.8" stroke="black"/>
<path d="M6.39999 27.2L7.99999 28.8" stroke="black"/>
<path d="M3.20001 23.2L4.80001 24.8" stroke="black"/>
<path d="M13.6 31.2L15.2 32.8" stroke="black"/>
<path d="M8.79999 31.2L10.4 32.8" stroke="black"/>
<path d="M11.2 35.2L12.8 36.8" stroke="black"/>
<path d="M6.39999 35.2L7.99999 36.8" stroke="black"/>
<path d="M3.20001 31.2L4.80001 32.8" stroke="black"/>
<rect x="10.9" y="21.3" width="28.6" height="18.2" fill="white" stroke="black"/>
<rect x="18.9" y="29.3" width="20.6" height="10.2" fill="white" stroke="black"/>
<path d="M34 29.2L39.6 34.8M30 29.2L39.2 39.2M26 29.2L35.6 39.6M22 29.2L31.6 39.6M18.8 30.4L27.6 39.6M18.8 35.2L23.2 39.6" stroke="black"/>
</svg>
