<svg width="42" height="42" viewBox="0 0 42 42" fill="none" xmlns="http://www.w3.org/2000/svg">
<g clip-path="url(#clip0)">
<path d="M9.01953 21.8203C8.56676 21.8203 8.19922 22.1879 8.19922 22.6406C8.19922 23.0934 8.56676 23.4609 9.01953 23.4609C9.47231 23.4609 9.83984 23.0934 9.83984 22.6406C9.83984 22.1879 9.47231 21.8203 9.01953 21.8203Z" fill="#E31E25"/>
<path d="M40.2011 16.7872C40.1232 16.3938 40.2565 15.8269 40.385 15.2786C40.5792 14.4522 40.7987 13.5159 40.4436 12.6581C40.0812 11.7849 39.2545 11.2742 38.5249 10.8236C38.0535 10.5324 37.5658 10.2312 37.3524 9.912C37.1342 9.5858 37.0403 9.01575 36.95 8.4646C36.8118 7.62314 36.6552 6.6692 35.9928 6.00687C35.3305 5.34453 34.3762 5.18816 33.5348 5.05005C32.9836 4.95969 32.4139 4.86612 32.0886 4.64886C31.7688 4.43481 31.468 3.94711 31.1767 3.47543C30.7258 2.7458 30.2151 1.91844 29.3416 1.55635C28.4844 1.20099 27.5481 1.42081 26.722 1.61467C26.1734 1.74348 25.6062 1.87646 25.2131 1.79892C24.8218 1.72137 24.2588 1.3862 23.7144 1.06192C22.838 0.539932 21.9315 0 21 0C20.0679 0 19.161 0.539932 18.284 1.06192C17.7396 1.3862 17.1766 1.72137 16.7853 1.79892C16.3925 1.87646 15.8256 1.74348 15.2774 1.61467C14.451 1.42081 13.5146 1.20099 12.6572 1.55635C11.784 1.91876 11.2732 2.7458 10.8224 3.47543C10.5314 3.94711 10.2302 4.43481 9.91104 4.64854C9.5858 4.86612 9.01607 4.95969 8.46492 5.05005C7.62314 5.18816 6.6692 5.34485 6.00623 6.00719C5.34453 6.66888 5.18816 7.62186 5.05005 8.463C4.95969 9.01447 4.86612 9.58484 4.64694 9.91168C4.43321 10.2315 3.94583 10.5324 3.47447 10.8236C2.74516 11.2745 1.91844 11.7849 1.55635 12.6588C1.20131 13.5159 1.42049 14.4519 1.61403 15.2777C1.74252 15.8259 1.8755 16.3931 1.79732 16.7872C1.72009 17.1788 1.38492 17.7418 1.06064 18.2866C0.539291 19.1629 0 20.0688 0 21C0 21.9318 0.539291 22.8383 1.06096 23.715C1.38492 24.2598 1.72009 24.8228 1.79732 25.2153C1.87518 25.6082 1.74252 26.1753 1.61403 26.7236C1.42049 27.5497 1.20131 28.4857 1.55635 29.3425C1.91876 30.216 2.74516 30.7265 3.47447 31.1773C3.94583 31.4683 4.43321 31.7695 4.6479 32.0902C4.86612 32.4155 4.96001 32.9859 5.05037 33.5373C5.18816 34.3781 5.34453 35.3311 6.00623 35.9938C6.66824 36.6555 7.62122 36.8118 8.46204 36.95C9.01382 37.0403 9.5842 37.1339 9.91104 37.3531C10.2305 37.5668 10.5317 38.0542 10.823 38.5255C11.2735 39.2548 11.7843 40.0812 12.6578 40.4436C13.5143 40.7987 14.4503 40.5792 15.2764 40.386C15.8247 40.2575 16.3922 40.1248 16.7856 40.2027C17.1769 40.2799 17.7402 40.6151 18.285 40.939C19.1617 41.4607 20.0682 42 21 42C21.9312 42 22.8374 41.4607 23.7134 40.9394C24.2582 40.6151 24.8215 40.2799 25.2134 40.2027C25.6069 40.1248 26.1741 40.2575 26.723 40.386C27.5487 40.5795 28.4847 40.7987 29.3419 40.4436C30.2151 40.0816 30.7258 39.2548 31.1764 38.5255C31.4676 38.0542 31.7685 37.5668 32.089 37.3527C32.4152 37.1339 32.9855 37.0403 33.537 36.95C34.3778 36.8118 35.3311 36.6555 35.9928 35.9938C36.6552 35.3318 36.8118 34.3778 36.95 33.5364C37.0403 32.9849 37.1342 32.4152 37.3521 32.089C37.5658 31.7695 38.0535 31.4683 38.5249 31.177C39.2545 30.7265 40.0812 30.2157 40.4436 29.3422C40.7987 28.485 40.5792 27.5487 40.385 26.7226C40.2565 26.1744 40.1235 25.6078 40.2011 25.215C40.2783 24.8234 40.6138 24.2604 40.9378 23.716C41.4601 22.839 42 21.9321 42 21C42 20.0685 41.4601 19.162 40.9381 18.2856C40.6138 17.7412 40.2786 17.1782 40.2011 16.7872ZM39.5282 22.8768C39.1331 23.5407 38.7242 24.2274 38.5915 24.8962V24.8965C38.4451 25.6373 38.6194 26.3795 38.788 27.0975C38.9322 27.7112 39.0808 28.3456 38.9283 28.7141C38.7691 29.0983 38.2067 29.4454 37.6629 29.7815C37.0422 30.1647 36.4007 30.5608 35.9886 31.177C35.573 31.7986 35.45 32.5469 35.3311 33.2704C35.2283 33.8969 35.1219 34.5448 34.8328 34.8335C34.5444 35.1219 33.8975 35.2283 33.2717 35.3308C32.5469 35.4497 31.7977 35.5727 31.176 35.9896C30.5602 36.4014 30.1641 37.0429 29.7805 37.6632C29.4447 38.2067 29.0977 38.7687 28.7135 38.928C28.3447 39.0808 27.7105 38.9322 27.0969 38.7886C26.3788 38.6204 25.636 38.4464 24.8952 38.5931C24.2258 38.7252 23.5388 39.134 22.8745 39.5294C22.2209 39.9185 21.48 40.3594 21 40.3594C20.5193 40.3594 19.7782 39.9181 19.1239 39.5291C18.4596 39.1337 17.7726 38.7252 17.1042 38.5931C16.3668 38.447 15.6308 38.6178 14.9021 38.7886C14.2888 38.9322 13.6544 39.0808 13.2859 38.9283C12.9017 38.7687 12.5546 38.2067 12.2185 37.6632C11.8353 37.0429 11.4392 36.4014 10.824 35.9899C10.2017 35.5727 9.4525 35.4497 8.72768 35.3308C8.10219 35.2283 7.45491 35.1222 7.16684 34.8338C6.87813 34.5451 6.77206 33.8978 6.6692 33.2717C6.55032 32.5472 6.4276 31.7977 6.01071 31.1767C5.59863 30.5611 4.95744 30.1647 4.33708 29.7815C3.7933 29.4457 3.23126 29.0983 3.07201 28.7145C2.91916 28.3456 3.06784 27.7112 3.2114 27.0979C3.37962 26.3795 3.55362 25.637 3.40686 24.8968C3.27484 24.2274 2.86629 23.5404 2.47087 22.8761C2.08186 22.2221 1.64062 21.4807 1.64062 21C1.64062 20.52 2.08154 19.7791 2.47055 19.1255C2.86597 18.4612 3.27484 17.7742 3.40654 17.1054C3.55362 16.3643 3.37962 15.6215 3.2114 14.9034C3.06784 14.2898 2.91916 13.6556 3.07169 13.2868C3.23126 12.9023 3.7933 12.5553 4.33676 12.2195C4.95712 11.8359 5.59863 11.4398 6.01007 10.8246C6.42728 10.2023 6.55032 9.45314 6.6692 8.72832C6.77174 8.10251 6.87781 7.45555 7.1662 7.16748C7.45555 6.87845 8.10379 6.77206 8.73088 6.6692C9.45442 6.55032 10.2023 6.4276 10.8236 6.01199C11.4392 5.59959 11.8353 4.95808 12.2185 4.33772C12.5543 3.79362 12.9017 3.23126 13.2855 3.07201C13.6544 2.91916 14.2888 3.06784 14.9025 3.21204C15.6202 3.38058 16.3627 3.5549 17.1038 3.40846C17.7726 3.27612 18.4593 2.86725 19.1232 2.47183C19.7775 2.08218 20.5193 1.64062 21 1.64062C21.48 1.64062 22.2212 2.08218 22.8749 2.47151C23.5388 2.86693 24.2255 3.2758 24.8949 3.40846C25.636 3.5549 26.3785 3.38058 27.0966 3.21204C27.7102 3.06816 28.3447 2.91916 28.7132 3.07169C29.0974 3.23126 29.4447 3.79362 29.7805 4.33772C30.1638 4.95808 30.5602 5.59959 31.1764 6.01263C31.7977 6.4276 32.5456 6.55032 33.2691 6.66888C33.8959 6.77174 34.5438 6.87813 34.8328 7.16716C35.1216 7.45587 35.2283 8.10379 35.3311 8.73024C35.45 9.4541 35.5727 10.2023 35.9886 10.824C36.4007 11.4398 37.0422 11.8359 37.6629 12.2195C38.2067 12.5553 38.7687 12.9023 38.928 13.2862C39.0808 13.6553 38.9318 14.2898 38.788 14.9034C38.6194 15.6215 38.4451 16.364 38.5915 17.1051C38.7242 17.7745 39.1331 18.4612 39.5285 19.1251C39.9178 19.7788 40.3594 20.52 40.3594 21C40.3594 21.4807 39.9178 22.2225 39.5282 22.8768Z" fill="#E31E25"/>
<path d="M20.9961 4.92188C12.4216 4.92188 4.91797 12.3973 4.91797 21C4.91797 29.5745 12.3934 37.0781 20.9961 37.0781C29.5706 37.0781 37.0742 29.6027 37.0742 21C37.0742 12.4255 29.5988 4.92188 20.9961 4.92188ZM20.9961 35.4375C13.305 35.4375 6.55859 28.6911 6.55859 21C6.55859 13.3089 13.305 6.5625 20.9961 6.5625C28.6872 6.5625 35.4336 13.3089 35.4336 21C35.4336 28.6911 28.6872 35.4375 20.9961 35.4375Z" fill="#E31E25"/>
<path d="M20.9971 9.84375C21.4502 9.84375 21.8174 9.47653 21.8174 9.02344C21.8174 8.57034 21.4502 8.20312 20.9971 8.20312C14.8255 8.20312 9.18393 13.2573 8.32484 19.2447C8.26043 19.6929 8.5719 20.1086 9.0205 20.173C9.05992 20.1787 9.09901 20.1813 9.1381 20.1813C9.53929 20.1813 9.89016 19.8865 9.9488 19.4773C10.698 14.2555 15.7573 9.84375 20.9971 9.84375Z" fill="#E31E25"/>
<path d="M28.4946 19.0643L23.8111 18.384L21.7174 14.1401C21.5793 13.8601 21.2941 13.6829 20.9817 13.6829C20.6696 13.6829 20.3844 13.8601 20.2463 14.1401L18.1516 18.384L13.4678 19.0643C13.1589 19.1091 12.9022 19.3257 12.8058 19.6228C12.7093 19.9195 12.7898 20.2457 13.0134 20.4636L16.4023 23.7669L15.6025 28.4322C15.5497 28.7398 15.6762 29.0509 15.9291 29.2342C16.1816 29.4178 16.5164 29.4418 16.7929 29.2967L20.9817 27.094L25.1698 29.2967C25.4434 29.4402 25.7786 29.4197 26.034 29.2342C26.2865 29.0509 26.413 28.7398 26.3602 28.4318L25.5604 23.7669L28.9496 20.4636C29.1733 20.2454 29.2537 19.9195 29.1572 19.6224C29.0605 19.3257 28.8038 19.1091 28.4946 19.0643ZM24.1062 22.8931C23.913 23.0815 23.8246 23.3533 23.8704 23.6192L24.4622 27.0709L21.3636 25.4412C21.1246 25.3156 20.8391 25.3156 20.6 25.4412L17.5005 27.0709L18.0923 23.6192C18.1378 23.3533 18.0497 23.0819 17.8565 22.8931L15.3488 20.4492L18.8143 19.9458C19.0815 19.907 19.3125 19.7391 19.4321 19.4968L20.9817 16.3569L22.5307 19.4968C22.6502 19.7391 22.8812 19.907 23.1485 19.9458L26.614 20.4492L24.1062 22.8931Z" fill="#E31E25"/>
</g>
<defs>
<clipPath id="clip0">
<rect width="42" height="42" fill="white"/>
</clipPath>
</defs>
</svg>
