<svg width="44" height="44" viewBox="0 0 44 44" fill="none" xmlns="http://www.w3.org/2000/svg">
<g clip-path="url(#clip0)">
<path d="M15.2797 17.7824C15.6158 17.4463 15.6158 16.9022 15.2797 16.5671C14.9447 16.2311 14.4006 16.2311 14.0645 16.5671C13.7285 16.9022 13.7285 17.4463 14.0645 17.7824C14.4006 18.1174 14.9447 18.1174 15.2797 17.7824Z" fill="#E31E23"/>
<path d="M23.7888 18.9976C24.7939 17.9925 24.7939 16.357 23.7888 15.3519C22.7814 14.3445 21.1499 14.3442 20.1425 15.3519C19.1348 16.3594 19.1348 17.9898 20.1425 18.9976C21.1476 20.0026 22.7834 20.003 23.7888 18.9976ZM21.3577 16.5671C21.6938 16.2315 22.2376 16.2315 22.5736 16.5671C22.9083 16.9022 22.9083 17.447 22.5736 17.782C22.2383 18.117 21.6928 18.1174 21.3577 17.782C21.0224 17.447 21.021 16.9038 21.3577 16.5671Z" fill="#E31E23"/>
<path d="M20.1425 25.0736C19.1348 26.0814 19.1348 27.7125 20.1425 28.7202C21.1499 29.7277 22.7811 29.728 23.7888 28.7202C24.7942 27.7148 24.7942 26.079 23.7888 25.0736C22.7814 24.0665 21.1499 24.0662 20.1425 25.0736ZM22.5736 27.505C22.2376 27.8407 21.6934 27.8407 21.3577 27.505C21.0224 27.1697 21.021 26.6259 21.3577 26.2892C21.6938 25.9531 22.2376 25.9535 22.5736 26.2892C22.9086 26.6242 22.9086 27.1697 22.5736 27.505Z" fill="#E31E23"/>
<path d="M15.0443 23.4197C15.1373 23.8856 15.5905 24.1867 16.0554 24.0937L28.2085 21.6626C28.6738 21.5696 28.9755 21.1168 28.8826 20.6515C28.7896 20.1859 28.3367 19.8845 27.8714 19.9775L15.7183 22.4085C15.2527 22.5015 14.951 22.9544 15.0443 23.4197Z" fill="#E31E23"/>
<path d="M26.1257 4.86185C25.8977 4.86185 25.6792 4.95215 25.5181 5.11329L16.4956 14.1357C16.16 14.4714 16.16 15.0156 16.4956 15.3513C16.8313 15.687 17.3755 15.687 17.7109 15.3513L26.1257 6.93644L37.0632 17.8743L17.7703 37.1673L6.83239 26.2297L12.8497 20.2124C13.1854 19.8771 13.1854 19.3329 12.8497 18.9972C12.514 18.6619 11.9698 18.6619 11.6341 18.9972L5.00958 25.6221C4.67389 25.9575 4.67389 26.5017 5.00958 26.8373L17.1627 38.9905C17.4984 39.3261 18.0422 39.3261 18.3779 38.9905L38.8864 18.4819C39.2221 18.1462 39.2221 17.6021 38.8864 17.2664L26.7333 5.11329C26.5721 4.95215 26.3536 4.86185 26.1257 4.86185Z" fill="#E31E23"/>
<path d="M42.5327 0.252062L38.8441 3.94033C36.6919 2.31523 33.7201 2.28871 31.5861 3.87319L28.5648 0.76433C28.5618 0.761309 28.5591 0.758624 28.5561 0.755602C27.5537 -0.246778 25.9236 -0.25752 24.9091 0.756945L0.755687 25.0145C-0.251728 26.0219 -0.252063 27.6534 0.755687 28.6611L4.16431 32.0694C3.40296 34.2484 3.95215 36.7188 5.61685 38.3828C7.28122 40.0478 9.75158 40.5967 11.9306 39.836L15.3392 43.2443C16.3466 44.2517 17.9787 44.2514 18.9841 43.2457L43.2443 19.0895C44.2521 18.0817 44.2521 16.4513 43.2443 15.4439C43.2413 15.4408 43.2386 15.4382 43.2356 15.4351L40.1271 12.4146C41.7058 10.295 41.6998 7.32177 40.0596 5.15587L43.7479 1.46761C44.0836 1.13191 44.0836 0.587756 43.7479 0.252062C43.4122 -0.0836312 42.8684 -0.0836312 42.5327 0.252062ZM38.3405 11.8593C38.1781 12.0221 38.0874 12.243 38.0888 12.4733C38.0904 12.7033 38.1844 12.9231 38.3493 13.0833L42.0325 16.6628C42.3658 16.9998 42.3621 17.5409 42.0301 17.8726L17.7703 42.0288C17.4349 42.3641 16.8894 42.3641 16.5544 42.0288L12.7429 38.2176C12.5785 38.0528 12.3582 37.9659 12.1353 37.9659C12.0118 37.9659 11.8873 37.9924 11.7704 38.0471C10.1178 38.8226 8.13321 38.4691 6.8324 37.1673C5.53058 35.8665 5.1771 33.8822 5.95255 32.2296C6.10629 31.9016 6.03848 31.5128 5.78235 31.2567L1.97123 27.4456C1.63587 27.1102 1.63587 26.5651 1.97224 26.2284L26.126 1.97081C26.4604 1.6368 27.0008 1.63478 27.3372 1.96712L30.9163 5.65035C31.2373 5.98067 31.7868 6.0129 32.1406 5.65941C33.6116 4.18773 35.9151 4.03063 37.6121 5.17232L36.3515 6.43285C35.3931 5.97631 34.2095 6.14382 33.4173 6.93605C32.4122 7.94146 32.4122 9.57729 33.4173 10.5824C34.4247 11.5898 36.0561 11.5901 37.0639 10.5824C37.8743 9.77199 38.0162 8.5833 37.5681 7.64705L38.8283 6.38686C39.9613 8.06398 39.8307 10.3695 38.3405 11.8593ZM35.8483 8.15126C36.1837 8.48662 36.185 9.03045 35.8483 9.36715C35.5126 9.70284 34.9685 9.70284 34.6328 9.36715C34.2974 9.03179 34.2974 8.48629 34.6325 8.15126C34.9678 7.81658 35.5133 7.81591 35.8483 8.15126Z" fill="#E31E23"/>
</g>
<defs>
<clipPath id="clip0">
<rect width="44" height="44" fill="white"/>
</clipPath>
</defs>
</svg>
