<svg width="40" height="40" viewBox="0 0 40 40" fill="none" xmlns="http://www.w3.org/2000/svg">
<path d="M37.6562 0C36.6599 0 3.33954 0 2.34375 0C1.05133 0 0 1.05133 0 2.34375V37.6562C0 38.9487 1.05133 40 2.34375 40H37.6562C38.9487 40 40 38.9487 40 37.6562C40 36.6599 40 3.33954 40 2.34375C40 1.05133 38.9487 0 37.6562 0ZM38.4375 2.34375V19.2188H20.7812V1.5625H37.6562C38.0872 1.5625 38.4375 1.91284 38.4375 2.34375ZM2.34375 1.5625H19.2188V19.2188H1.5625V2.34375C1.5625 1.91284 1.91284 1.5625 2.34375 1.5625ZM1.5625 37.6562V20.7812H19.2188V38.4375H2.34375C1.91284 38.4375 1.5625 38.0872 1.5625 37.6562ZM38.4375 37.6562C38.4375 38.0872 38.0872 38.4375 37.6562 38.4375H20.7812V20.7812H38.4375V37.6562Z" fill="#E31E25"/>
<path d="M5.46875 28.5938C4.17633 28.5938 3.125 29.6451 3.125 30.9375C3.125 31.9559 3.77808 32.8244 4.6875 33.147V34.0625C4.6875 34.494 5.03723 34.8438 5.46875 34.8438C5.90027 34.8438 6.25 34.494 6.25 34.0625V33.147C7.15942 32.8244 7.8125 31.9559 7.8125 30.9375C7.8125 29.6451 6.76117 28.5938 5.46875 28.5938ZM5.46875 31.7188C5.03784 31.7188 4.6875 31.3684 4.6875 30.9375C4.6875 30.5066 5.03784 30.1562 5.46875 30.1562C5.89966 30.1562 6.25 30.5066 6.25 30.9375C6.25 31.3684 5.89966 31.7188 5.46875 31.7188Z" fill="#E31E25"/>
<path d="M13.2812 23.9062H16.875C17.3065 23.9062 17.6562 23.5565 17.6562 23.125C17.6562 22.6935 17.3065 22.3438 16.875 22.3438H13.2812C12.8497 22.3438 12.5 22.6935 12.5 23.125C12.5 23.5565 12.8497 23.9062 13.2812 23.9062Z" fill="#E31E25"/>
<path d="M16.875 25.4688H13.2812C12.8497 25.4688 12.5 25.8185 12.5 26.25C12.5 26.6815 12.8497 27.0312 13.2812 27.0312H16.875C17.3065 27.0312 17.6562 26.6815 17.6562 26.25C17.6562 25.8185 17.3065 25.4688 16.875 25.4688Z" fill="#E31E25"/>
<path d="M16.875 28.5938H13.2812C12.8497 28.5938 12.5 28.9435 12.5 29.375C12.5 29.8065 12.8497 30.1562 13.2812 30.1562H16.875C17.3065 30.1562 17.6562 29.8065 17.6562 29.375C17.6562 28.9435 17.3065 28.5938 16.875 28.5938Z" fill="#E31E25"/>
<path d="M23.9062 33.147V34.0625C23.9062 34.494 24.256 34.8438 24.6875 34.8438C25.119 34.8438 25.4688 34.494 25.4688 34.0625V33.147C26.3782 32.8244 27.0312 31.9559 27.0312 30.9375C27.0312 29.6451 25.9799 28.5938 24.6875 28.5938C23.3951 28.5938 22.3438 29.6451 22.3438 30.9375C22.3438 31.9559 22.9968 32.8244 23.9062 33.147ZM24.6875 30.1562C25.1184 30.1562 25.4688 30.5066 25.4688 30.9375C25.4688 31.3684 25.1184 31.7188 24.6875 31.7188C24.2566 31.7188 23.9062 31.3684 23.9062 30.9375C23.9062 30.5066 24.2566 30.1562 24.6875 30.1562Z" fill="#E31E25"/>
<path d="M32.5 23.9062H36.0938C36.5253 23.9062 36.875 23.5565 36.875 23.125C36.875 22.6935 36.5253 22.3438 36.0938 22.3438H32.5C32.0685 22.3438 31.7188 22.6935 31.7188 23.125C31.7188 23.5565 32.0685 23.9062 32.5 23.9062Z" fill="#E31E25"/>
<path d="M32.5 27.0312H36.0938C36.5253 27.0312 36.875 26.6815 36.875 26.25C36.875 25.8185 36.5253 25.4688 36.0938 25.4688H32.5C32.0685 25.4688 31.7188 25.8185 31.7188 26.25C31.7188 26.6815 32.0685 27.0312 32.5 27.0312Z" fill="#E31E25"/>
<path d="M32.5 30.1562H36.0938C36.5253 30.1562 36.875 29.8065 36.875 29.375C36.875 28.9435 36.5253 28.5938 36.0938 28.5938H32.5C32.0685 28.5938 31.7188 28.9435 31.7188 29.375C31.7188 29.8065 32.0685 30.1562 32.5 30.1562Z" fill="#E31E25"/>
<path d="M23.9062 13.9282V14.8438C23.9062 15.2753 24.256 15.625 24.6875 15.625C25.119 15.625 25.4688 15.2753 25.4688 14.8438V13.9282C26.3782 13.6057 27.0312 12.7371 27.0312 11.7188C27.0312 10.4263 25.9799 9.375 24.6875 9.375C23.3951 9.375 22.3438 10.4263 22.3438 11.7188C22.3438 12.7371 22.9968 13.6057 23.9062 13.9282ZM24.6875 10.9375C25.1184 10.9375 25.4688 11.2878 25.4688 11.7188C25.4688 12.1497 25.1184 12.5 24.6875 12.5C24.2566 12.5 23.9062 12.1497 23.9062 11.7188C23.9062 11.2878 24.2566 10.9375 24.6875 10.9375Z" fill="#E31E25"/>
<path d="M32.5 4.6875H36.0938C36.5253 4.6875 36.875 4.33777 36.875 3.90625C36.875 3.47473 36.5253 3.125 36.0938 3.125H32.5C32.0685 3.125 31.7188 3.47473 31.7188 3.90625C31.7188 4.33777 32.0685 4.6875 32.5 4.6875Z" fill="#E31E25"/>
<path d="M32.5 7.8125H36.0938C36.5253 7.8125 36.875 7.46277 36.875 7.03125C36.875 6.59973 36.5253 6.25 36.0938 6.25H32.5C32.0685 6.25 31.7188 6.59973 31.7188 7.03125C31.7188 7.46277 32.0685 7.8125 32.5 7.8125Z" fill="#E31E25"/>
<path d="M32.5 10.9375H36.0938C36.5253 10.9375 36.875 10.5878 36.875 10.1562C36.875 9.72473 36.5253 9.375 36.0938 9.375H32.5C32.0685 9.375 31.7188 9.72473 31.7188 10.1562C31.7188 10.5878 32.0685 10.9375 32.5 10.9375Z" fill="#E31E25"/>
<path d="M4.6875 13.9282V14.8438C4.6875 15.2753 5.03723 15.625 5.46875 15.625C5.90027 15.625 6.25 15.2753 6.25 14.8438V13.9282C7.15942 13.6057 7.8125 12.7371 7.8125 11.7188C7.8125 10.4263 6.76117 9.375 5.46875 9.375C4.17633 9.375 3.125 10.4263 3.125 11.7188C3.125 12.7371 3.77808 13.6057 4.6875 13.9282ZM5.46875 10.9375C5.89966 10.9375 6.25 11.2878 6.25 11.7188C6.25 12.1497 5.89966 12.5 5.46875 12.5C5.03784 12.5 4.6875 12.1497 4.6875 11.7188C4.6875 11.2878 5.03784 10.9375 5.46875 10.9375Z" fill="#E31E25"/>
<path d="M13.2812 4.6875H16.875C17.3065 4.6875 17.6562 4.33777 17.6562 3.90625C17.6562 3.47473 17.3065 3.125 16.875 3.125H13.2812C12.8497 3.125 12.5 3.47473 12.5 3.90625C12.5 4.33777 12.8497 4.6875 13.2812 4.6875Z" fill="#E31E25"/>
<path d="M10.1562 3.125C10.5875 3.125 10.9375 3.47504 10.9375 3.90625C10.9375 4.33746 10.5875 4.6875 10.1562 4.6875C9.72504 4.6875 9.375 4.33746 9.375 3.90625C9.375 3.47504 9.72504 3.125 10.1562 3.125Z" fill="#E31E25"/>
<path d="M13.2812 7.8125H16.875C17.3065 7.8125 17.6562 7.46277 17.6562 7.03125C17.6562 6.59973 17.3065 6.25 16.875 6.25H13.2812C12.8497 6.25 12.5 6.59973 12.5 7.03125C12.5 7.46277 12.8497 7.8125 13.2812 7.8125Z" fill="#E31E25"/>
<path d="M13.2812 10.9375H16.875C17.3065 10.9375 17.6562 10.5878 17.6562 10.1562C17.6562 9.72473 17.3065 9.375 16.875 9.375H13.2812C12.8497 9.375 12.5 9.72473 12.5 10.1562C12.5 10.5878 12.8497 10.9375 13.2812 10.9375Z" fill="#E31E25"/>
<path d="M29.375 3.125C29.8062 3.125 30.1562 3.47504 30.1562 3.90625C30.1562 4.33746 29.8062 4.6875 29.375 4.6875C28.9438 4.6875 28.5938 4.33746 28.5938 3.90625C28.5938 3.47504 28.9438 3.125 29.375 3.125Z" fill="#E31E25"/>
<path d="M29.375 22.3438C29.8062 22.3438 30.1562 22.6938 30.1562 23.125C30.1562 23.5562 29.8062 23.9062 29.375 23.9062C28.9438 23.9062 28.5938 23.5562 28.5938 23.125C28.5938 22.6938 28.9438 22.3438 29.375 22.3438Z" fill="#E31E25"/>
<path d="M10.1562 22.3438C10.5875 22.3438 10.9375 22.6938 10.9375 23.125C10.9375 23.5562 10.5875 23.9062 10.1562 23.9062C9.72504 23.9062 9.375 23.5562 9.375 23.125C9.375 22.6938 9.72504 22.3438 10.1562 22.3438Z" fill="#E31E25"/>
</svg>
