<svg width="60" height="60" viewBox="0 0 60 60" fill="none" xmlns="http://www.w3.org/2000/svg">
<path d="M21.2109 24.1406C20.5701 24.1406 20.0482 24.6561 20.0391 25.296V25.3125C20.0391 25.9593 20.5641 26.4844 21.2109 26.4844C21.8578 26.4844 22.3828 25.9593 22.3828 25.3125C22.3828 25.3065 22.3828 25.302 22.3828 25.296C22.3737 24.6561 21.8518 24.1406 21.2109 24.1406Z" fill="black"/>
<path d="M21.2109 0C13.6404 0 5.97656 2.01279 5.97656 5.85938V42.4219C5.97656 46.2685 13.6404 48.2812 21.2109 48.2812C21.4394 48.2812 21.666 48.279 21.8903 48.2758C23.9543 55.199 30.3351 60 37.6172 60C46.6635 60 54.0234 52.6401 54.0234 43.5938C54.0234 34.5474 46.6635 27.1875 37.6172 27.1875C37.224 27.1875 36.8294 27.2031 36.4352 27.231C36.4362 26.4615 36.4412 14.8476 36.4417 13.3379C36.443 13.3058 36.4453 13.2738 36.4453 13.2422C36.4453 13.2193 36.443 13.1973 36.4421 13.1749L36.4453 5.85983V5.85938C36.4453 2.01279 28.7814 0 21.2109 0ZM22.0061 38.5469C21.7369 38.5519 21.4709 38.5547 21.2109 38.5547C17.5777 38.5547 14.1779 38.0882 11.6382 37.2418C9.01382 36.367 8.32031 35.4185 8.32031 35.0391V30.9306C11.1662 32.6367 16.2085 33.5156 21.2109 33.5156C22.4245 33.5156 23.6311 33.4644 24.7989 33.365C23.5675 34.91 22.6144 36.6719 22.0061 38.5469ZM27.5372 30.6519C25.6041 30.9911 23.4251 31.1719 21.2109 31.1719C17.5777 31.1719 14.1779 30.7054 11.6382 29.859C9.01382 28.9842 8.32031 28.0357 8.32031 27.6562V23.9095C8.97491 24.2995 9.67438 24.6117 10.3926 24.8744C12.3042 25.5913 15.8052 26.2184 16.5317 26.2184C17.119 26.2184 17.6257 25.778 17.6944 25.1811C17.769 24.538 17.3076 23.9566 16.6649 23.8824C16.29 23.8211 12.1582 23.4073 9.63913 21.9667C8.63571 21.3968 8.51303 21.0535 8.33313 20.728C8.30246 20.5623 8.33176 20.8905 8.32031 16.5166C11.1662 18.2227 16.2085 19.1016 21.2109 19.1016C25.041 19.1016 28.6707 18.6035 31.431 17.6994C32.5397 17.3364 33.4236 16.9395 34.1084 16.5303C34.1057 20.8305 34.1075 20.6914 34.1057 20.7028C34.0585 20.9225 33.8727 21.1359 33.7125 21.2933C33.7006 21.2979 31.8782 23.1853 25.7712 23.8806L25.757 23.8824C25.1138 23.9566 24.6529 24.538 24.727 25.1811C24.7961 25.778 25.3024 26.2184 25.8897 26.2184C27.2946 26.2184 31.8915 25.2283 34.1048 23.9149L34.1029 27.5684C31.7226 28.0911 29.4681 29.1454 27.5372 30.6519ZM34.1052 20.7092C34.1052 20.7083 34.1057 20.7074 34.1057 20.7065C34.1048 20.7101 34.1052 20.7092 34.1052 20.7092ZM34.1098 13.2825C34.0695 13.6775 33.3051 14.6196 30.7013 15.4724C28.1703 16.3014 24.7998 16.7578 21.2109 16.7578C17.5777 16.7578 14.1779 16.2914 11.6382 15.4449C9.01382 14.5702 8.32031 13.6217 8.32031 13.2422V9.13376C11.1662 10.8398 16.2085 11.7188 21.2109 11.7188C26.2125 11.7188 31.2657 10.8398 34.1116 9.13467L34.1098 13.2825ZM11.6382 3.65662C14.1779 2.81021 17.5777 2.34375 21.2109 2.34375C24.8442 2.34375 28.244 2.81021 30.7837 3.65662C33.4081 4.5314 34.1016 5.47989 34.1016 5.85938C34.1016 6.23886 33.4081 7.18735 30.7837 8.06213C28.244 8.90854 24.8442 9.375 21.2109 9.375C17.5777 9.375 14.1779 8.90854 11.6382 8.06213C9.01382 7.18735 8.32031 6.23886 8.32031 5.85938C8.32031 5.47989 9.01382 4.5314 11.6382 3.65662ZM11.6382 44.6246C9.01382 43.7498 8.32031 42.8014 8.32031 42.4219V38.3134C11.1662 40.0195 16.2085 40.8984 21.2109 40.8984C21.2842 40.8984 21.3588 40.8975 21.4325 40.8975C21.286 41.7847 21.2109 42.6869 21.2109 43.5938C21.2109 44.3802 21.2668 45.1639 21.3776 45.9366C21.3217 45.937 21.2668 45.9375 21.2109 45.9375C17.5777 45.9375 14.1779 45.471 11.6382 44.6246ZM51.6797 43.5938C51.6797 51.3478 45.3712 57.6562 37.6172 57.6562C31.0497 57.6562 25.4192 53.1972 23.9246 46.8127C23.9236 46.8095 23.9232 46.8068 23.9227 46.8036C23.9223 46.8022 23.9218 46.8004 23.9214 46.7986C23.6783 45.7562 23.5547 44.6782 23.5547 43.5938C23.5547 42.3793 23.709 41.1758 24.0134 40.0168C25.5817 34.0356 31.0396 29.5312 37.6172 29.5312C45.3712 29.5312 51.6797 35.8397 51.6797 43.5938Z" fill="black"/>
<path d="M34.1024 41.25C34.1024 43.1886 35.6794 44.7656 37.618 44.7656C38.2644 44.7656 38.7899 45.2911 38.7899 45.9375C38.7899 46.5839 38.2644 47.1094 37.618 47.1094C37.1172 47.1094 36.5766 46.7944 36.0964 46.2231C35.6798 45.7274 34.9405 45.6633 34.4452 46.0799C33.9495 46.4964 33.8859 47.2357 34.3024 47.731C34.9286 48.4763 35.6656 48.9958 36.4461 49.2572V50.625C36.4461 51.2723 36.9707 51.7969 37.618 51.7969C38.2653 51.7969 38.7899 51.2723 38.7899 50.625V49.2517C40.154 48.7679 41.1336 47.4651 41.1336 45.9375C41.1336 43.9989 39.5566 42.4219 37.618 42.4219C36.9716 42.4219 36.4461 41.8964 36.4461 41.25C36.4461 40.6036 36.9716 40.0781 37.618 40.0781C38.0332 40.0781 38.4713 40.2901 38.8856 40.6906C39.3506 41.1406 40.0927 41.1282 40.5427 40.6636C40.9926 40.1981 40.9803 39.4565 40.5152 39.0065C39.9206 38.4306 39.3255 38.1052 38.7899 37.9276V36.5625C38.7899 35.9152 38.2653 35.3906 37.618 35.3906C36.9707 35.3906 36.4461 35.9152 36.4461 36.5625V37.9358C35.082 38.4196 34.1024 39.7224 34.1024 41.25Z" fill="black"/>
</svg>
