<svg width="65" height="65" viewBox="0 0 65 65" fill="none" xmlns="http://www.w3.org/2000/svg">
<path d="M41.3516 15.2344C40.6508 15.2344 40.082 14.6656 40.082 13.9648C40.082 13.2641 40.6508 12.6953 41.3516 12.6953C42.0523 12.6953 42.6211 13.2641 42.6211 13.9648C42.6211 14.6656 42.0523 15.2344 41.3516 15.2344Z" fill="black"/>
<path d="M9.57455 22.8882C9.57455 20.5485 10.8004 18.4131 12.7335 17.2135C12.4325 16.4444 12.2763 15.6217 12.2763 14.7811C12.2763 11.5056 14.6323 8.7657 17.7843 8.20929C18.3378 5.08407 21.0742 2.70271 24.3557 2.70271C25.1967 2.70271 26.0194 2.85842 26.7881 3.15944C27.9877 1.22589 30.1231 0 32.4633 0C34.803 0 36.9389 1.22589 38.138 3.15944C38.9072 2.85842 39.7294 2.70271 40.5704 2.70271C42.3562 2.70271 44.0339 3.39897 45.2935 4.66304C46.27 5.64296 46.9042 6.87232 47.1353 8.20731C48.4753 8.44088 49.7091 9.07812 50.6915 10.0585C51.9546 11.3196 52.6498 12.9968 52.6498 14.7811C52.6498 15.6217 52.4941 16.4444 52.1926 17.2135C54.1257 18.4126 55.3516 20.5485 55.3516 22.8882C55.3516 25.2289 54.1257 27.3648 52.1926 28.5639C52.4941 29.3336 52.6498 30.1553 52.6498 30.9954C52.6498 34.2773 50.27 37.0137 47.1452 37.5681C46.8045 39.5151 45.6173 41.2081 43.8891 42.194V63.7304C43.8891 64.2441 43.5796 64.7068 43.1055 64.9032C42.631 65.0996 42.085 64.991 41.722 64.628L32.4633 55.3698L23.2047 64.628C22.8411 64.9915 22.2956 65.0996 21.8211 64.9032C21.347 64.7068 21.0375 64.2441 21.0375 63.7304V42.1925C19.3118 41.2071 18.133 39.5161 17.8027 37.5731C16.4618 37.3415 15.2264 36.7063 14.2421 35.7263C12.9745 34.4642 12.2763 32.7841 12.2763 30.9954C12.2763 30.1553 12.4325 29.3331 12.7335 28.5639C10.8004 27.3648 9.57455 25.2289 9.57455 22.8882ZM41.35 43.0286C41.0926 43.0584 40.8328 43.0752 40.5704 43.0752C39.9699 43.0752 39.3798 42.9944 38.811 42.8392V58.1266L41.35 60.6656V43.0286ZM33.3609 52.6765L36.2719 55.587V44.5788C35.1819 45.34 33.8623 45.7779 32.4633 45.7779C31.0723 45.7779 29.7502 45.341 28.6547 44.5803V55.5875L31.5652 52.6765C32.0611 52.1806 32.865 52.1806 33.3609 52.6765ZM26.1156 58.1261V42.8392C25.5463 42.9944 24.9557 43.0752 24.3557 43.0752C24.0938 43.0752 23.834 43.0584 23.5766 43.0281V60.6656L26.1156 58.1261ZM14.8793 26.793C15.2497 26.9229 15.5394 27.217 15.6633 27.5899C15.7873 27.9624 15.7318 28.3715 15.5131 28.6978C15.0563 29.3782 14.8153 30.1726 14.8153 30.9959C14.8153 32.1042 15.2478 33.1451 16.0333 33.9267C16.8148 34.7043 17.8508 35.1317 18.9527 35.1317C18.9611 35.1317 18.9691 35.1317 18.978 35.1317C19.3157 35.1317 19.6395 35.2661 19.8781 35.5057C20.1176 35.7462 20.2505 36.073 20.2475 36.4127C20.2327 38.0913 21.2299 39.589 22.7886 40.2287C22.7891 40.2287 22.7891 40.2287 22.7891 40.2287C23.286 40.4325 23.8131 40.5362 24.3557 40.5362C25.1794 40.5362 25.9748 40.2952 26.6562 39.8389C26.8367 39.7184 27.043 39.6495 27.2543 39.6316C27.2552 39.6311 27.2562 39.6311 27.2572 39.6311C27.2905 39.6282 27.3237 39.6262 27.3569 39.6262C27.3663 39.6257 27.3753 39.6247 27.3847 39.6247C28.0026 39.6247 28.5168 40.066 28.6304 40.6507C29.2572 42.2039 30.7782 43.2389 32.4628 43.2389C34.2079 43.2389 35.7542 42.1459 36.3255 40.5163C36.3711 40.3641 36.4445 40.2247 36.5402 40.1027C36.5407 40.1022 36.5412 40.1013 36.5422 40.1003C36.5675 40.068 36.5937 40.0373 36.622 40.008C36.626 40.0041 36.6294 39.9996 36.6329 39.9956C36.6572 39.9708 36.683 39.9475 36.7093 39.9252C36.7172 39.9183 36.7247 39.9103 36.7331 39.9034C36.741 39.8969 36.75 39.891 36.7584 39.8845C36.8908 39.7799 37.0435 39.7006 37.2102 39.6554C37.5672 39.5582 37.9486 39.6217 38.255 39.8285C38.9389 40.2917 39.7398 40.5362 40.5704 40.5362C41.114 40.5362 41.6416 40.433 42.138 40.2297C43.7001 39.5895 44.7083 38.0874 44.7063 36.4028C44.7058 36.066 44.8397 35.7427 45.0778 35.5042C45.3158 35.2656 45.6392 35.1317 45.9759 35.1317C48.2561 35.1317 50.1108 33.2765 50.1108 30.9959C50.1108 30.1731 49.8693 29.3782 49.413 28.6978C49.1943 28.3715 49.1388 27.9624 49.2628 27.5899C49.3867 27.217 49.6764 26.9229 50.0468 26.793C51.7007 26.2123 52.812 24.6432 52.812 22.8882C52.812 21.1342 51.7012 19.5656 50.0468 18.9854C49.6764 18.8555 49.3867 18.5609 49.2628 18.1885C49.1388 17.8156 49.1943 17.4064 49.413 17.0801C49.8693 16.3997 50.1108 15.6048 50.1108 14.7811C50.1108 13.6757 49.6798 12.6368 48.8973 11.8557C48.1157 11.0757 47.0778 10.6462 45.9739 10.6462H45.9645C45.6273 10.6462 45.3039 10.5123 45.0659 10.2738C44.8273 10.0347 44.6935 9.71041 44.6949 9.3722C44.6984 8.27128 44.2724 7.23532 43.4953 6.45526C42.7153 5.67271 41.6763 5.24177 40.5704 5.24177C39.7453 5.24177 38.9503 5.48228 38.2709 5.93802C37.9451 6.15672 37.536 6.21226 37.163 6.08828C36.7901 5.96431 36.496 5.6747 36.3661 5.30425C35.7854 3.65039 34.2173 2.53906 32.4633 2.53906C30.7093 2.53906 29.1407 3.65039 28.56 5.30425C28.4301 5.6747 28.1355 5.96431 27.7631 6.08828C27.3901 6.21226 26.9815 6.15672 26.6552 5.93802C25.9758 5.48278 25.1809 5.24177 24.3557 5.24177C22.076 5.24177 20.2213 7.09697 20.2213 9.37666C20.2213 10.0779 19.6524 10.6462 18.9517 10.6462C16.6547 10.6462 14.8153 12.5019 14.8153 14.7811C14.8153 15.6043 15.0568 16.3997 15.5131 17.0801C15.7318 17.4064 15.7873 17.8156 15.6633 18.1885C15.5394 18.5609 15.2497 18.855 14.8793 18.9854C13.2249 19.5656 12.1141 21.1342 12.1141 22.8882C12.1136 24.6432 13.2249 26.2123 14.8793 26.793Z" fill="black"/>
<path d="M32.4648 8.88672C34.2561 8.88672 36.0032 9.22245 37.6575 9.88399C38.3087 10.1443 38.625 10.8833 38.3647 11.5339C38.1043 12.185 37.3654 12.5014 36.7148 12.2415C35.3615 11.7 33.9317 11.4258 32.4648 11.4258C26.1643 11.4258 21.0391 16.5515 21.0391 22.8515C21.0391 29.1516 26.1643 34.2773 32.4648 34.2773C38.7649 34.2773 43.8906 29.1516 43.8906 22.8515C43.8906 21.3846 43.6159 19.9549 43.0749 18.6016C42.8145 17.9505 43.1309 17.2116 43.782 16.9512C44.4332 16.6913 45.1716 17.0072 45.4324 17.6584C46.094 19.3132 46.4297 21.0603 46.4297 22.8515C46.4297 30.5515 40.1648 36.8164 32.4648 36.8164C24.7643 36.8164 18.5 30.5515 18.5 22.8515C18.5 15.1515 24.7643 8.88672 32.4648 8.88672Z" fill="black"/>
<path d="M26.1172 22.8515C26.1172 23.5528 25.5484 24.1211 24.8477 24.1211C24.1464 24.1211 23.5781 23.5528 23.5781 22.8515C23.5781 17.9515 27.5647 13.9648 32.4648 13.9648C33.1656 13.9648 33.7344 14.5332 33.7344 15.2344C33.7344 15.9356 33.1656 16.5039 32.4648 16.5039C28.9647 16.5039 26.1172 19.3514 26.1172 22.8515Z" fill="black"/>
</svg>
