<svg width="57" height="58" viewBox="0 0 57 58" fill="none" xmlns="http://www.w3.org/2000/svg">
<g clip-path="url(#clip0)">
<path d="M34.1389 20.2773C34.7546 20.2773 35.2544 19.7698 35.2544 19.1445C35.2544 18.5193 34.7546 18.0117 34.1389 18.0117C33.5219 18.0117 33.0234 18.5193 33.0234 19.1445C33.0234 19.7698 33.5219 20.2773 34.1389 20.2773Z" fill="black"/>
<path d="M22.9826 20.2773C23.5983 20.2773 24.0981 19.7698 24.0981 19.1445C24.0981 18.5193 23.5983 18.0117 22.9826 18.0117C22.3657 18.0117 21.8672 18.5193 21.8672 19.1445C21.8672 19.7698 22.3657 20.2773 22.9826 20.2773Z" fill="black"/>
<path d="M25.5776 28.0637C26.514 28.512 27.5175 28.7394 28.5593 28.7394C29.5785 28.7394 30.5623 28.5213 31.4839 28.0911C32.0438 27.8296 32.2887 27.157 32.0316 26.5884C31.7741 26.0202 31.1118 25.7711 30.5519 26.0326C29.9249 26.3251 29.2543 26.4738 28.5593 26.4738C27.8486 26.4738 27.1654 26.3193 26.5288 26.0145C25.9715 25.7476 25.3066 25.9901 25.0443 26.5561C24.7815 27.122 25.0203 27.7969 25.5776 28.0637Z" fill="black"/>
<path d="M53.1627 45.8529C53.1627 39.6237 46.1772 34.7385 40.1894 34.507L37.1345 31.7197C40.8552 28.9629 43.1136 24.5325 43.1136 19.8243V12.3477C43.1136 5.47689 37.5916 -0.113281 30.8043 -0.113281H26.3425C19.5643 -0.113281 14.1116 5.45698 14.1116 12.3477V19.8243C14.1116 24.5246 16.3399 28.9465 20.0122 31.6985L16.9343 34.507C10.9596 34.738 3.96094 39.6109 3.96094 45.8529V56.754C3.96094 57.3797 4.46028 57.8868 5.0764 57.8868H52.0473C52.6634 57.8868 53.1627 57.3797 53.1627 56.754V45.8529ZM26.0911 50.4103H31.0265L32.196 55.6212H24.8876L26.0911 50.4103ZM31.1224 48.1446H26.0205L25.1647 45.4369L28.5625 43.7116L32.0331 45.4745L31.1224 48.1446ZM28.5621 40.3078L24.6858 34.0106C25.9446 34.3659 27.2527 34.5504 28.5734 34.5504C29.8814 34.5504 31.1799 34.3694 32.4322 34.0198L28.5621 40.3078ZM30.1586 41.9894L35.5141 33.2866L38.4025 35.9222L34.7272 44.3099L30.1586 41.9894ZM26.3425 2.15235H30.8043C36.3616 2.15235 40.8827 6.72565 40.8827 12.3477V13.284L38.7881 10.221C38.5986 9.94355 38.2966 9.76654 37.965 9.73822C37.633 9.7099 37.3071 9.83336 37.0744 10.075C34.8069 12.43 32.1816 13.4805 28.5625 13.4805C24.9438 13.4805 22.3181 12.43 20.0488 10.075C19.8153 9.83204 19.4863 9.70902 19.1539 9.73867C18.821 9.76831 18.5186 9.94797 18.3303 10.2285L16.3425 13.1867V12.3477C16.3425 6.72565 20.8283 2.15235 26.3425 2.15235ZM16.3425 19.8243V17.206L19.4406 12.5955C21.9225 14.7394 24.8553 15.7461 28.5625 15.7461C32.2736 15.7461 35.2086 14.7372 37.691 12.5888L40.8827 17.2564V19.8243C40.8827 26.6083 35.4226 32.2852 28.5734 32.2852C21.7464 32.2852 16.3425 26.626 16.3425 19.8243ZM21.6096 33.2871L26.966 41.9894L22.3965 44.3099L18.7212 35.9222L21.6096 33.2871ZM6.19186 45.8529C6.19186 41.1862 11.7779 37.1568 16.6593 36.7904L20.8327 46.3135C20.9565 46.5959 21.1887 46.8149 21.4754 46.9193C21.7621 47.0238 22.078 47.0043 22.3508 46.8662L23.1455 46.4622L24.0505 49.3243L22.5961 55.6212H6.19186V45.8529ZM50.9318 55.6212H34.484L33.0749 49.3416L34.0452 46.4963L34.7729 46.8662C35.0474 47.0056 35.3642 47.0229 35.6483 46.9193C35.935 46.8149 36.1672 46.5959 36.291 46.3135L40.4644 36.7904C45.3458 37.1572 50.9318 41.1862 50.9318 45.8529V55.6212Z" fill="black"/>
<path d="M43.0617 50.4102H38.5998C37.9837 50.4102 37.4844 50.9173 37.4844 51.543C37.4844 52.1687 37.9837 52.6758 38.5998 52.6758H43.0617C43.6778 52.6758 44.1771 52.1687 44.1771 51.543C44.1771 50.9173 43.6778 50.4102 43.0617 50.4102Z" fill="black"/>
<path d="M47.4631 50.4102C48.0788 50.4102 48.5786 50.9177 48.5786 51.543C48.5786 52.1682 48.0788 52.6758 47.4631 52.6758C46.8474 52.6758 46.3477 52.1682 46.3477 51.543C46.3477 50.9177 46.8474 50.4102 47.4631 50.4102Z" fill="black"/>
</g>
<defs>
<clipPath id="clip0">
<rect width="57" height="58" fill="white"/>
</clipPath>
</defs>
</svg>
