<svg width="18" height="18" viewBox="0 0 18 18" fill="none" xmlns="http://www.w3.org/2000/svg">
<path d="M18 8.7682C18 13.6108 14.0442 17.5364 9.1636 17.5364C7.6142 17.5364 6.1586 17.1404 4.8922 16.4454L0 18L1.595 13.2956C0.7904 11.9744 0.327 10.4248 0.327 8.7682C0.327 3.9256 4.2832 0 9.1636 0C14.0446 0 18 3.9256 18 8.7682ZM9.1636 1.3964C5.0668 1.3964 1.7344 4.7034 1.7344 8.7682C1.7344 10.3812 2.2602 11.875 3.1496 13.0902L2.2214 15.828L5.0764 14.9206C6.2494 15.6908 7.6546 16.14 9.1638 16.14C13.26 16.14 16.593 12.8334 16.593 8.7686C16.593 4.7038 13.2602 1.3964 9.1636 1.3964ZM13.6258 10.7876C13.5712 10.6982 13.427 10.6442 13.2106 10.5368C12.9938 10.4294 11.9286 9.9092 11.7306 9.8378C11.532 9.7662 11.3872 9.7302 11.243 9.9452C11.0988 10.1604 10.6836 10.6442 10.557 10.7876C10.4306 10.9314 10.3044 10.9494 10.0876 10.8418C9.8712 10.7344 9.1734 10.5072 8.346 9.7752C7.7022 9.2056 7.2674 8.5024 7.141 8.287C7.0148 8.072 7.1278 7.9558 7.236 7.8488C7.3336 7.7524 7.4528 7.5978 7.561 7.4724C7.6696 7.3468 7.7056 7.2574 7.7774 7.1138C7.85 6.9704 7.8138 6.845 7.7594 6.7372C7.7054 6.6298 7.2718 5.5722 7.0914 5.1418C6.911 4.7118 6.7308 4.7834 6.6042 4.7834C6.478 4.7834 6.3334 4.7654 6.189 4.7654C6.0446 4.7654 5.8098 4.8192 5.6112 5.0342C5.4128 5.2494 4.8534 5.7694 4.8534 6.8268C4.8534 7.8844 5.6292 8.9062 5.7378 9.0494C5.846 9.1926 7.2358 11.4334 9.4378 12.294C11.64 13.1542 11.64 12.8672 12.0372 12.8312C12.434 12.7954 13.3184 12.3114 13.4996 11.8098C13.6796 11.3074 13.6796 10.8772 13.6258 10.7876Z" fill="black"/>
</svg>
