<svg width="12" height="16" viewBox="0 0 12 16" fill="none" xmlns="http://www.w3.org/2000/svg">
<path d="M8.0576 0H0V16H12V4.02454L8.0576 0ZM8.32653 1.60046L10.4322 3.75H8.32653V1.60046ZM4.67758 13.1875H3.54229L4.85073 11.8518L5.42207 12.4399L4.67758 13.1875ZM8.59762 10.5664L11.0816 13.1022V13.1875H5.98721L8.59762 10.5664ZM11.0816 11.7764L8.60288 9.24609L6.07689 11.7825L4.85336 10.5232L2.24342 13.1875H0.918367V6.5625H11.0816V11.7764ZM11.0816 15.0625H0.918367V14.125H11.0816V15.0625ZM0.918367 5.625V0.9375H7.40816V4.6875H11.0816V5.625H0.918367Z" fill="black"/>
<path d="M3.21447 10.3446C3.97403 10.3446 4.59202 9.71337 4.59202 8.93746C4.59202 8.16155 3.97403 7.53027 3.21447 7.53027C2.4549 7.53027 1.83691 8.16155 1.83691 8.93746C1.83691 9.71337 2.4549 10.3446 3.21447 10.3446ZM3.21447 8.4684C3.46761 8.4684 3.67365 8.67887 3.67365 8.93746C3.67365 9.19606 3.46761 9.40652 3.21447 9.40652C2.96132 9.40652 2.75528 9.19606 2.75528 8.93746C2.75528 8.67887 2.96132 8.4684 3.21447 8.4684Z" fill="black"/>
</svg>
