<svg width="20" height="16" viewBox="0 0 20 16" fill="none" xmlns="http://www.w3.org/2000/svg">
<path d="M17.9114 2.43874H14.3142V0.408596C14.3142 0.182978 14.1312 0 13.9056 0H5.36315C5.13754 0 4.95456 0.182978 4.95456 0.408596V2.43878H1.35732C0.608886 2.43874 0 3.04766 0 3.7961V10.3007C0 11.0491 0.608886 11.6581 1.35732 11.6581H4.95456V15.5914C4.95456 15.817 5.13754 16 5.36315 16H13.9057C14.1313 16 14.3142 15.817 14.3142 15.5914V11.6581H17.9115C18.6599 11.6581 19.2688 11.0492 19.2688 10.3007V3.7961C19.2688 3.04766 18.6598 2.43874 17.9114 2.43874ZM14.3142 3.25589H15.2888V4.39941H14.3142V3.25589ZM5.77171 0.817191H13.497V4.39945H5.77171V0.817191ZM3.97994 3.25593H4.95456V4.39945H3.97994V3.25593ZM13.4971 15.1828H5.77171V9.80189H13.497V15.1828H13.4971ZM18.4517 10.3007H18.4516C18.4516 10.5986 18.2093 10.8409 17.9115 10.8409H14.3142V9.80193H15.0596C15.2852 9.80193 15.4682 9.61895 15.4682 9.39334C15.4682 9.16772 15.2852 8.98474 15.0596 8.98474H13.9057H5.36315H4.20925C3.98363 8.98474 3.80065 9.16772 3.80065 9.39334C3.80065 9.61895 3.98363 9.80193 4.20925 9.80193H4.95459V10.8409H1.35732C1.05952 10.8409 0.817191 10.5986 0.817191 10.3007V3.7961C0.817191 3.49826 1.05952 3.25589 1.35732 3.25589H3.16279V4.80797C3.16279 5.03359 3.34573 5.21657 3.57138 5.21657H15.6974C15.923 5.21657 16.106 5.03359 16.106 4.80797V3.25589H17.9115C18.2093 3.25589 18.4517 3.49822 18.4517 3.7961V10.3007Z" fill="#000"/>
<path d="M2.59003 7.12878C2.87274 7.12878 3.10193 6.8996 3.10193 6.61688C3.10193 6.33417 2.87274 6.10498 2.59003 6.10498C2.30731 6.10498 2.07812 6.33417 2.07812 6.61688C2.07812 6.8996 2.30731 7.12878 2.59003 7.12878Z" fill="#000"/>
<path d="M9.51512 12.9098H7.60781C7.3822 12.9098 7.19922 13.0927 7.19922 13.3184C7.19922 13.544 7.38216 13.727 7.60781 13.727H9.51512C9.74074 13.727 9.92372 13.544 9.92372 13.3184C9.92372 13.0927 9.74074 12.9098 9.51512 12.9098Z" fill="#000"/>
<path d="M11.6596 10.8411H7.60781C7.3822 10.8411 7.19922 11.024 7.19922 11.2497C7.19922 11.4753 7.38216 11.6583 7.60781 11.6583H11.6596C11.8852 11.6583 12.0682 11.4753 12.0682 11.2497C12.0682 11.024 11.8852 10.8411 11.6596 10.8411Z" fill="#000"/>
</svg>
