<svg width="19" height="19" viewBox="0 0 19 19" fill="none" xmlns="http://www.w3.org/2000/svg">
<g clip-path="url(#clip0)">
<path d="M0.00534025 1.52645C-0.0419444 1.13649 0.229841 0.782018 0.619798 0.734733C1.00975 0.687449 1.36423 0.959234 1.41151 1.34919L1.83691 4.64602C3.44398 2.25908 6.1618 0.781977 9.09231 0.781977C12.8264 0.781977 16.1468 3.15712 17.364 6.67849C17.4939 7.04481 17.2931 7.44656 16.9268 7.57654C16.8559 7.60018 16.7731 7.61198 16.6904 7.61198C16.395 7.61198 16.1232 7.42292 16.0169 7.13929C15.0007 4.18514 12.2119 2.19995 9.09235 2.19995C6.53995 2.19995 4.16481 3.54704 2.84137 5.69768L6.38634 5.29592C6.77629 5.24864 7.13077 5.53226 7.16625 5.92222C7.20169 6.31218 6.92991 6.66665 6.53995 6.70213L1.43515 7.28115C1.41151 7.28115 1.37607 7.28115 1.35243 7.28115C0.997913 7.28115 0.690684 7.02116 0.655241 6.66669L0.00534025 1.52645ZM17.5648 11.0152L12.46 11.5942C12.0701 11.6415 11.7865 11.9841 11.8337 12.3741C11.881 12.7641 12.2237 13.0477 12.6136 13.0004L15.6978 12.6577C14.4925 15.1983 11.9283 16.8408 9.08047 16.8408C5.87817 16.8408 2.9949 14.702 2.07321 11.6415C1.95504 11.2634 1.56509 11.0507 1.18697 11.1688C0.808855 11.2869 0.596155 11.6769 0.714286 12.055C1.24602 13.8157 2.3568 15.3991 3.82206 16.5099C5.3464 17.6561 7.16617 18.2706 9.08047 18.2706C12.5782 18.2706 15.7096 16.1909 17.0921 13.0358L17.5884 16.9707C17.6357 17.3253 17.9429 17.5852 18.2856 17.5852C18.3211 17.5852 18.3447 17.5852 18.3801 17.5852C18.7701 17.5379 19.0419 17.1834 18.9946 16.7935L18.3329 11.6533C18.2974 11.2515 17.9548 10.9797 17.5648 11.0152Z" fill="black"/>
</g>
<defs>
<clipPath id="clip0">
<rect width="19" height="19" fill="white"/>
</clipPath>
</defs>
</svg>
