<svg width="43" height="43" viewBox="0 0 43 43" fill="none" xmlns="http://www.w3.org/2000/svg">
<g clip-path="url(#clip0)">
<path d="M32.8945 8.85022C33.1153 8.85022 33.3318 8.76033 33.488 8.60417C33.6445 8.44801 33.7344 8.23149 33.7344 8.01038C33.7344 7.78959 33.6445 7.57307 33.488 7.41658C33.3318 7.26042 33.1153 7.17053 32.8945 7.17053C32.6728 7.17053 32.4569 7.26042 32.2998 7.41658C32.1436 7.57307 32.0547 7.78959 32.0547 8.01038C32.0547 8.23149 32.1436 8.44801 32.2998 8.60417C32.4569 8.76033 32.6728 8.85022 32.8945 8.85022Z" fill="white"/>
<path d="M42.5551 16.2008L35.6684 12.5284C35.4083 12.3897 35.0943 12.3975 34.8414 12.5494C34.5884 12.701 34.4336 12.9746 34.4336 13.2695V15.5424L28.7817 12.5284C28.5216 12.3897 28.2076 12.3975 27.9547 12.5494C27.7017 12.7013 27.5469 12.9746 27.5469 13.2695V15.5424L21.895 12.5284C21.6348 12.3897 21.3209 12.3975 21.0679 12.5494C20.815 12.701 20.6602 12.9746 20.6602 13.2695V22.5078H7.72656V13.2695C7.72656 12.8056 7.3506 12.4297 6.88672 12.4297H5.6824V11.2405C5.6824 11.0394 5.84577 10.876 6.04688 10.876C6.51076 10.876 6.88672 10.5 6.88672 10.0361C6.88672 9.57225 6.51076 9.19629 6.04688 9.19629C4.91965 9.19629 4.00271 10.1132 4.00271 11.2405V12.4297H2.51953V8.47914C2.51953 6.8795 3.82096 5.57807 5.42027 5.57807H6.77649C6.72531 5.80837 6.69775 6.04425 6.69775 6.28177C6.69775 8.05102 8.1373 9.49023 9.90622 9.49023H13.0773C13.5412 9.49023 13.9171 9.11427 13.9171 8.65039C13.9171 8.18651 13.5412 7.81055 13.0773 7.81055H9.90622C9.06342 7.81055 8.37744 7.12457 8.37744 6.28177C8.37744 5.85627 8.55361 5.43963 8.86035 5.13847C9.15561 4.84911 9.53715 4.69558 9.93706 4.70148C10.1592 4.70575 10.3724 4.7566 10.5705 4.85207C10.7822 4.95409 11.0266 4.96295 11.245 4.87667C11.4632 4.79006 11.6354 4.61619 11.7198 4.39704C12.3444 2.77181 13.9342 1.67969 15.6756 1.67969C17.4333 1.67969 18.9992 2.78231 19.6235 4.37965C19.3669 4.52105 19.1245 4.68836 18.9037 4.88028C18.5343 5.20113 18.2276 5.58037 17.9917 6.00751C17.7673 6.41332 17.9146 6.92445 18.3207 7.14851C18.4493 7.2197 18.5888 7.25349 18.7262 7.25349C19.0218 7.25349 19.3089 7.09701 19.4617 6.81979C19.6025 6.56554 19.7855 6.33951 20.0057 6.14792C20.2704 5.91795 20.5857 5.74571 20.92 5.64631C21.1467 5.57906 21.3829 5.54395 21.6227 5.54395C22.9825 5.54395 24.0891 6.65051 24.0891 8.01034C24.0891 8.47422 24.465 8.85018 24.9289 8.85018H29.5103C29.9742 8.85018 30.3502 8.47422 30.3502 8.01034C30.3502 7.54646 29.9742 7.17049 29.5103 7.17049H25.6835C25.2941 5.28544 23.6213 3.86427 21.6227 3.86427C21.4918 3.86427 21.3616 3.8705 21.232 3.88264C20.3898 1.59078 18.1708 0 15.6756 0C13.5113 0 11.515 1.20793 10.4872 3.07363C10.3176 3.04279 10.1447 3.02541 9.96954 3.02213C9.13363 3.00539 8.34201 3.31738 7.7282 3.89838H5.42027C2.89484 3.89838 0.839844 5.95338 0.839844 8.47914V12.4297C0.375961 12.4297 0 12.8056 0 13.2695V42.1602C0 42.624 0.375961 43 0.839844 43H42.1602C42.624 43 43 42.624 43 42.1602V16.9419C43 16.6315 42.8291 16.3468 42.5551 16.2008ZM1.67969 17.4688H6.04688V37.9609H1.67969V17.4688ZM6.04688 15.7891H1.67969V14.1094H6.04688V15.7891ZM1.67969 39.6406H6.04688V41.3203H1.67969V39.6406ZM21.5 41.3203H7.72656V27.5469H15.2852C15.749 27.5469 16.125 27.1709 16.125 26.707C16.125 26.2431 15.749 25.8672 15.2852 25.8672H7.72656V24.1875H32.9219V41.3203H21.5ZM41.3203 41.3203H34.6016V23.3477C34.6016 22.8838 34.2256 22.5078 33.7617 22.5078H22.3398V14.6691L27.9917 17.683C28.2519 17.8217 28.5658 17.8135 28.8188 17.662C29.0717 17.5101 29.2266 17.2368 29.2266 16.9419V14.6691L34.8784 17.6826C35.1386 17.8217 35.4526 17.8135 35.7055 17.662C35.9584 17.5101 36.1133 17.2368 36.1133 16.9416V14.6691L41.3203 17.4455V41.3203Z" fill="white"/>
<path d="M14.2773 29.8984H10.2461C9.78221 29.8984 9.40625 30.2744 9.40625 30.7383V34.7695C9.40625 35.2334 9.78221 35.6094 10.2461 35.6094H14.2773C14.7412 35.6094 15.1172 35.2334 15.1172 34.7695V30.7383C15.1172 30.2744 14.7412 29.8984 14.2773 29.8984ZM13.4375 33.9297H11.0859V31.5781H13.4375V33.9297Z" fill="white"/>
<path d="M22.3398 29.8984H18.3086C17.8447 29.8984 17.4688 30.2744 17.4688 30.7383V34.7695C17.4688 35.2334 17.8447 35.6094 18.3086 35.6094H22.3398C22.8037 35.6094 23.1797 35.2334 23.1797 34.7695V30.7383C23.1797 30.2744 22.8037 29.8984 22.3398 29.8984ZM21.5 33.9297H19.1484V31.5781H21.5V33.9297Z" fill="white"/>
<path d="M30.4023 29.8984H26.3711C25.9072 29.8984 25.5312 30.2744 25.5312 30.7383V34.7695C25.5312 35.2334 25.9072 35.6094 26.3711 35.6094H30.4023C30.8662 35.6094 31.2422 35.2334 31.2422 34.7695V30.7383C31.2422 30.2744 30.8662 29.8984 30.4023 29.8984ZM29.5625 33.9297H27.2109V31.5781H29.5625V33.9297Z" fill="white"/>
<path d="M18.4062 27.5469C18.627 27.5469 18.8436 27.457 18.9997 27.3008C19.1562 27.1447 19.2461 26.9278 19.2461 26.707C19.2461 26.4862 19.1562 26.2694 18.9997 26.1132C18.8436 25.9571 18.627 25.8672 18.4062 25.8672C18.1845 25.8672 17.9686 25.9571 17.8125 26.1132C17.6553 26.2694 17.5664 26.4862 17.5664 26.707C17.5664 26.9278 17.6553 27.1447 17.8125 27.3008C17.9686 27.457 18.1851 27.5469 18.4062 27.5469Z" fill="white"/>
</g>
<defs>
<clipPath id="clip0">
<rect width="43" height="43" fill="white"/>
</clipPath>
</defs>
</svg>
