<svg width="46" height="46" viewBox="0 0 46 46" fill="none" xmlns="http://www.w3.org/2000/svg">
<path d="M38.8125 32.8828C37.8197 32.8828 37.0156 33.6868 37.0156 34.6797C37.0156 35.6725 37.8197 36.4766 38.8125 36.4766C39.8053 36.4766 40.6094 35.6725 40.6094 34.6797C40.6094 33.6868 39.8053 32.8828 38.8125 32.8828Z" fill="white"/>
<path d="M37.9141 25.6953C37.4182 25.6953 37.0156 26.0979 37.0156 26.5938C37.0156 27.0896 37.4182 27.4922 37.9141 27.4922C38.41 27.4922 38.8125 27.0896 38.8125 26.5938C38.8125 26.0979 38.41 25.6953 37.9141 25.6953Z" fill="white"/>
<path d="M11.3203 32.8828C10.3275 32.8828 9.52344 33.6868 9.52344 34.6797C9.52344 35.6725 10.3275 36.4766 11.3203 36.4766C12.3132 36.4766 13.1172 35.6725 13.1172 34.6797C13.1172 33.6868 12.3132 32.8828 11.3203 32.8828Z" fill="white"/>
<path d="M42.2238 22.1591L40.6747 15.9627C41.2253 15.4359 41.5078 14.7372 41.5078 14.0156C41.5078 12.5293 40.2988 11.3203 38.8125 11.3203H31.625V8.625C31.625 7.13872 30.416 5.92969 28.9297 5.92969H2.69531C1.20903 5.92969 0 7.13872 0 8.625V31.9844C0 33.4707 1.20903 34.6797 2.69531 34.6797H5.92969C5.92969 37.6523 8.34775 40.0703 11.3203 40.0703C14.2929 40.0703 16.7109 37.6523 16.7109 34.6797H33.4219C33.4219 37.6523 35.8399 40.0703 38.8125 40.0703C41.7851 40.0703 44.2031 37.6523 44.2031 34.6797C44.2031 34.6284 44.2007 34.5776 44.1993 34.5263C45.2469 34.1568 46 33.1569 46 31.9844V26.5938C46 24.3603 44.3618 22.5031 42.2238 22.1591ZM39.0094 16.7109L40.357 22.1016H32.8954L34.9555 20.0415C35.3065 19.6905 35.3065 19.122 34.9555 18.771C34.6046 18.4201 34.036 18.4201 33.6851 18.771L31.625 20.8308V16.7109H39.0094ZM39.7109 14.0156C39.7109 14.5115 39.3084 14.9141 38.8125 14.9141H31.625V13.1172H38.8125C39.308 13.1172 39.7109 13.5201 39.7109 14.0156ZM11.3203 38.2734C9.33884 38.2734 7.72656 36.6612 7.72656 34.6797C7.72656 32.6712 9.36797 31.0859 11.3203 31.0859C13.2772 31.0859 14.9141 32.6754 14.9141 34.6797C14.9141 36.6612 13.3018 38.2734 11.3203 38.2734ZM16.4025 32.8828C15.6521 30.7627 13.6212 29.2891 11.3203 29.2891C9.01842 29.2891 6.98676 30.7638 6.23782 32.8828H2.69531C2.19977 32.8828 1.79688 32.4799 1.79688 31.9844V8.625C1.79688 8.12946 2.19977 7.72656 2.69531 7.72656H28.9297C29.4252 7.72656 29.8281 8.12946 29.8281 8.625V32.8828H16.4025ZM38.8125 38.2734C36.831 38.2734 35.2188 36.6612 35.2188 34.6797C35.2188 32.6712 36.8602 31.0859 38.8125 31.0859C40.7694 31.0859 42.4062 32.6754 42.4062 34.6797C42.4062 36.6612 40.794 38.2734 38.8125 38.2734ZM43.8308 32.7112C43.0338 30.6834 41.0509 29.2891 38.8125 29.2891C36.5106 29.2891 34.4789 30.7638 33.73 32.8828H31.625V23.8984H41.5078C42.6789 23.8984 43.6777 24.6495 44.0487 25.6953H41.5078C41.0116 25.6953 40.6094 26.0975 40.6094 26.5938C40.6094 27.09 41.0116 27.4922 41.5078 27.4922H44.2031V31.9844C44.2031 32.283 44.0557 32.5477 43.8308 32.7112Z" fill="white"/>
</svg>
