<svg width="40" height="40" viewBox="0 0 40 40" fill="none" xmlns="http://www.w3.org/2000/svg">
<g clip-path="url(#clip0)">
<path d="M20.0621 40.0001C19.9287 40.0001 19.7946 39.9581 19.682 39.8744L0.496403 25.6533C0.33048 25.5305 0.234728 25.3346 0.238382 25.1281C0.241671 24.9217 0.345464 24.7294 0.515773 24.6132L2.77364 23.0662C3.06528 22.867 3.46218 22.9419 3.66172 23.2321C3.86054 23.5234 3.78671 23.9206 3.49544 24.1202L1.97691 25.1607L20.0621 38.566L38.1627 25.1497L36.6668 24.0811C36.3803 23.8757 36.3134 23.477 36.5184 23.1904C36.7234 22.9035 37.1229 22.8367 37.4091 23.0417L39.6191 24.6205C39.7853 24.7389 39.8847 24.9304 39.8866 25.1344C39.8884 25.339 39.7923 25.5316 39.6282 25.6533L20.4422 39.8741C20.33 39.9581 20.1959 40.0001 20.0621 40.0001Z" fill="black"/>
<path d="M20.0621 36.7803C19.9287 36.7803 19.7946 36.7383 19.682 36.6546L0.496403 22.4332C0.33048 22.3096 0.234728 22.1145 0.238382 21.9076C0.241671 21.7011 0.345464 21.5092 0.515773 21.3927L2.60771 19.96C2.90045 19.7612 3.29626 19.8358 3.4958 20.1259C3.69498 20.4172 3.62079 20.8145 3.32988 21.0144L1.97692 21.9405L20.0621 35.3462L38.163 21.9292L36.8759 21.0097C36.589 20.805 36.5221 20.4059 36.7271 20.119C36.9321 19.8325 37.332 19.7656 37.6181 19.9706L39.6198 21.4003C39.7861 21.5187 39.8855 21.7099 39.8873 21.9142C39.8891 22.1181 39.793 22.3114 39.6289 22.4332L20.4429 36.6546C20.33 36.7383 20.1959 36.7803 20.0621 36.7803Z" fill="black"/>
<path d="M32.2861 14.3662C32.1578 14.3662 32.0277 14.3278 31.9155 14.2471L25.5037 9.66774C25.2168 9.46308 25.1503 9.06399 25.3553 8.7771C25.5604 8.49021 25.9598 8.42369 26.246 8.62872L32.6578 13.208C32.9447 13.4127 33.0115 13.8118 32.8065 14.0987C32.6819 14.2734 32.4856 14.3662 32.2861 14.3662Z" fill="black"/>
<path d="M13.5307 28.7185C13.3988 28.7185 13.2657 28.6779 13.151 28.5931L6.85395 23.9258C6.57072 23.7156 6.51151 23.3158 6.72092 23.0318C6.9318 22.7486 7.33089 22.6897 7.61486 22.8992L13.9123 27.5665C14.1955 27.7767 14.2543 28.1765 14.0449 28.4601C13.9196 28.6293 13.7259 28.7185 13.5307 28.7185Z" fill="black"/>
<path d="M16.2832 17.1258C16.2265 17.1258 16.1692 17.1185 16.1129 17.1028L7.43885 14.7039C7.19946 14.6377 7.02002 14.4389 6.97945 14.1937C6.93852 13.9484 7.04341 13.7014 7.24807 13.5611L20.1034 4.75655C20.3253 4.60488 20.6173 4.60817 20.8355 4.76423L26.2458 8.62869C26.4107 8.74674 26.5101 8.93495 26.5134 9.13779C26.5167 9.34062 26.4235 9.5325 26.2627 9.65566L16.6717 16.9943C16.5587 17.0801 16.4217 17.1258 16.2832 17.1258ZM9.10355 13.8388L16.1476 15.7868L24.8008 9.16593L20.4568 6.06347L9.10355 13.8388Z" fill="black"/>
<path d="M7.23381 24.0515C7.10041 24.0515 6.96629 24.0095 6.85372 23.9258L0.496403 19.2134C0.33048 19.0899 0.234728 18.8947 0.238382 18.6882C0.241671 18.4814 0.345464 18.2895 0.515773 18.1729L7.24879 13.5611C7.5408 13.3615 7.93734 13.4376 8.13688 13.7274C8.33606 14.0187 8.26187 14.4159 7.97096 14.6155L1.97691 18.7208L7.22796 22.613L15.8965 15.9801C16.1761 15.766 16.5785 15.8189 16.7919 16.0993C17.0064 16.3792 16.9527 16.7805 16.6728 16.9943L7.6223 23.9196C7.50791 24.0076 7.3705 24.0515 7.23381 24.0515Z" fill="black"/>
<path d="M20.0623 33.5598C19.9289 33.5598 19.7948 33.5182 19.6823 33.4345L13.151 28.5931C12.9902 28.4733 12.894 28.285 12.8926 28.0848C12.8915 27.8838 12.9836 27.6941 13.1433 27.5724L22.2383 20.6135C22.4149 20.4779 22.6499 20.4439 22.8574 20.5258C23.065 20.6062 23.2156 20.7893 23.2547 21.0086L24.8127 29.7539C24.8554 29.9929 24.7593 30.2348 24.5645 30.3795L20.4432 33.4345C20.3302 33.5182 20.1961 33.5598 20.0623 33.5598ZM14.5931 28.0716L20.0623 32.1257L23.4864 29.5887L22.1813 22.265L14.5931 28.0716Z" fill="black"/>
<path d="M24.1836 30.5049C23.9877 30.5049 23.7947 30.4161 23.6697 30.2466C23.4599 29.963 23.5191 29.5631 23.8024 29.353L38.162 18.7094L32.2999 14.5219L23.013 21.6281C22.7341 21.8426 22.3317 21.7896 22.1179 21.5089C21.9034 21.229 21.9568 20.8277 22.2371 20.6139L31.8986 13.2208C32.1204 13.0502 32.4293 13.0443 32.6577 13.2084L39.6187 18.1806C39.785 18.299 39.8844 18.4902 39.8863 18.6945C39.8881 18.8988 39.792 19.0917 39.6279 19.2134L24.5633 30.3796C24.4485 30.4644 24.3155 30.5049 24.1836 30.5049Z" fill="black"/>
<path d="M16.7415 4.7617C16.5781 4.7617 16.4148 4.6992 16.2898 4.57458L14.2673 2.55171C14.0177 2.30209 14.0177 1.89789 14.2673 1.64864C14.5165 1.39902 14.9207 1.39902 15.1704 1.64864L17.1932 3.67114C17.4425 3.92075 17.4425 4.32496 17.1932 4.57458C17.0682 4.6992 16.9049 4.7617 16.7415 4.7617Z" fill="black"/>
<path d="M24.1855 4.7617C24.0218 4.7617 23.8588 4.6992 23.7338 4.57458C23.4846 4.32496 23.4846 3.92075 23.7338 3.67114L25.7567 1.64864C26.0059 1.39902 26.4101 1.39902 26.6597 1.64864C26.909 1.89789 26.909 2.30209 26.6597 2.55171L24.6369 4.57458C24.5123 4.6992 24.3489 4.7617 24.1855 4.7617Z" fill="black"/>
<path d="M19.9142 3.8323C19.5612 3.8323 19.2754 3.5465 19.2754 3.19346V0.638839C19.2754 0.285796 19.5612 0 19.9142 0C20.2669 0 20.5527 0.285796 20.5527 0.638839V3.19346C20.5527 3.54687 20.2673 3.8323 19.9142 3.8323Z" fill="black"/>
</g>
<defs>
<clipPath id="clip0">
<rect width="40" height="40" fill="white"/>
</clipPath>
</defs>
</svg>
