<svg width="19" height="17" viewBox="0 0 19 17" fill="none" xmlns="http://www.w3.org/2000/svg">
<path d="M0.335596 8.16085L4.71358 9.79485L6.40812 15.2445C6.51655 15.5935 6.94335 15.7225 7.22664 15.4909L9.667 13.5015C9.9228 13.2931 10.2872 13.2827 10.5545 13.4767L14.956 16.6723C15.2591 16.8926 15.6884 16.7266 15.7644 16.3604L18.9888 0.850598C19.0717 0.450585 18.6787 0.116881 18.2978 0.264195L0.330466 7.19546C-0.112931 7.36646 -0.109067 7.99422 0.335596 8.16085ZM6.13503 8.92503L14.6912 3.65525C14.845 3.56082 15.0032 3.76874 14.8712 3.89123L7.80982 10.4551C7.56161 10.6861 7.40151 10.9953 7.35616 11.3309L7.11562 13.1135C7.08376 13.3515 6.74943 13.3751 6.68375 13.1448L5.75864 9.89422C5.65268 9.52347 5.80709 9.12744 6.13503 8.92503Z" fill="black"/>
</svg>
