<svg width="19" height="20" viewBox="0 0 19 20" fill="none" xmlns="http://www.w3.org/2000/svg">
<path d="M18.4792 5.02256L18.4738 5.00091C18.0359 3.23069 16.0618 1.33115 14.2489 0.935964L14.2284 0.931754C11.2961 0.372358 8.32291 0.372358 5.39119 0.931754L5.37014 0.935964C3.55782 1.33115 1.58369 3.23069 1.1452 5.00091L1.14039 5.02256C0.599037 7.49473 0.599037 10.0018 1.14039 12.474L1.1452 12.4956C1.56499 14.1903 3.39211 16.0025 5.13736 16.5009V18.477C5.13736 19.1922 6.00894 19.5435 6.50457 19.0274L8.50667 16.9462C8.94089 16.9705 9.37536 16.9841 9.80982 16.9841C11.2859 16.9841 12.7626 16.8445 14.2284 16.5648L14.2489 16.5606C16.0618 16.1654 18.0359 14.2659 18.4738 12.4957L18.4792 12.474C19.0206 10.0018 19.0206 7.49473 18.4792 5.02256ZM16.8949 12.1155C16.6026 13.2703 15.1036 14.7061 13.9127 14.9714C12.3535 15.2679 10.782 15.3946 9.21211 15.3511C9.18089 15.3503 9.15087 15.3624 9.1291 15.3847C8.9063 15.6134 7.66727 16.8854 7.66727 16.8854L6.11239 18.4811C5.99871 18.5996 5.79901 18.519 5.79901 18.3554V15.0819C5.79901 15.0279 5.7604 14.9819 5.70728 14.9715C5.70698 14.9714 5.70668 14.9714 5.70638 14.9713C4.51541 14.7061 3.01707 13.2703 2.72414 12.1154C2.23692 9.88082 2.23692 7.61557 2.72414 5.381C3.01707 4.22611 4.51541 2.79033 5.70638 2.52507C8.42937 2.00718 11.1903 2.00718 13.9127 2.52507C15.1042 2.79033 16.6026 4.22611 16.8949 5.381C17.3827 7.61563 17.3827 9.88088 16.8949 12.1155Z" fill="black"/>
<path d="M12.4017 13.6265C12.2186 13.5709 12.0441 13.5336 11.8821 13.4663C10.2029 12.7697 8.65754 11.8709 7.43343 10.4932C6.73731 9.70971 6.19247 8.8252 5.7319 7.88915C5.5135 7.44524 5.32944 6.98395 5.14183 6.52567C4.97076 6.10774 5.22273 5.67599 5.48805 5.3611C5.73702 5.06558 6.05737 4.83942 6.40432 4.67274C6.67512 4.54264 6.94224 4.61764 7.14002 4.84718C7.56756 5.34342 7.96028 5.86504 8.2783 6.44025C8.47384 6.79406 8.42019 7.22653 8.06579 7.46731C7.97965 7.52584 7.90116 7.59453 7.82092 7.66064C7.75054 7.71856 7.68431 7.77709 7.63607 7.85552C7.54789 7.99904 7.54368 8.1683 7.60046 8.32433C8.03752 9.52541 8.77417 10.4594 9.98307 10.9624C10.1765 11.0429 10.3708 11.1366 10.5937 11.1106C10.9669 11.067 11.0877 10.6576 11.3493 10.4437C11.6049 10.2347 11.9316 10.2319 12.2069 10.4062C12.4824 10.5805 12.7494 10.7676 13.0148 10.9567C13.2753 11.1424 13.5346 11.324 13.7749 11.5356C14.006 11.7391 14.0855 12.006 13.9554 12.2821C13.7172 12.7879 13.3707 13.2086 12.8707 13.4772C12.7295 13.5529 12.5609 13.5775 12.4017 13.6265C12.2186 13.5709 12.5609 13.5775 12.4017 13.6265Z" fill="black"/>
<path d="M9.81395 4.09442C12.0103 4.15595 13.8143 5.61357 14.2009 7.78499C14.2667 8.15497 14.2902 8.53326 14.3195 8.90877C14.3318 9.06673 14.2424 9.2168 14.0719 9.21885C13.8959 9.22095 13.8166 9.07364 13.8052 8.91575C13.7826 8.60321 13.7669 8.28929 13.7238 7.97933C13.4965 6.34319 12.1918 4.98957 10.5632 4.69911C10.3182 4.65538 10.0674 4.64389 9.81912 4.61785C9.66219 4.60136 9.45666 4.59186 9.42189 4.39679C9.39272 4.23325 9.53076 4.10302 9.68649 4.09466C9.72884 4.09231 9.77142 4.09424 9.81395 4.09442C12.0103 4.15595 9.77142 4.09424 9.81395 4.09442Z" fill="black"/>
<path d="M13.1507 8.42146C13.1471 8.44889 13.1452 8.51337 13.1291 8.57412C13.0708 8.79463 12.7365 8.82224 12.6595 8.59969C12.6367 8.53364 12.6333 8.45851 12.6332 8.38742C12.6324 7.92222 12.5313 7.4575 12.2967 7.05275C12.0556 6.63675 11.6872 6.28704 11.255 6.07543C10.9937 5.94749 10.7112 5.86797 10.4248 5.82057C10.2996 5.79988 10.1731 5.78731 10.0473 5.7698C9.89492 5.74863 9.81354 5.65149 9.82075 5.50129C9.82749 5.36054 9.93035 5.25931 10.0837 5.26797C10.5878 5.2966 11.0746 5.40554 11.5228 5.64283C12.434 6.12541 12.9546 6.88715 13.1065 7.90429C13.1134 7.95037 13.1244 7.99602 13.1279 8.04227C13.1365 8.1565 13.1419 8.27085 13.1507 8.42146C13.1471 8.44889 13.1419 8.27085 13.1507 8.42146Z" fill="black"/>
<path d="M11.7869 8.36828C11.6031 8.37159 11.5048 8.26988 11.4858 8.1014C11.4727 7.98393 11.4622 7.86489 11.4342 7.7506C11.379 7.52552 11.2594 7.31692 11.07 7.179C10.9806 7.11386 10.8793 7.0664 10.7732 7.03578C10.6384 6.99686 10.4985 7.00757 10.364 6.97461C10.2179 6.93882 10.1371 6.82056 10.1601 6.68354C10.181 6.55885 10.3023 6.46153 10.4386 6.47139C11.2901 6.53287 11.8987 6.9731 11.9856 7.97557C11.9917 8.0463 11.9989 8.12107 11.9832 8.18874C11.9563 8.30459 11.8705 8.36263 11.7869 8.36828C11.6031 8.37159 11.8705 8.36263 11.7869 8.36828Z" fill="black"/>
</svg>
