<svg width="29" height="28" viewBox="0 0 29 28" fill="none" xmlns="http://www.w3.org/2000/svg">
<path fill-rule="evenodd" clip-rule="evenodd" d="M28.3333 14C28.3333 21.732 22.0653 28 14.3333 28C6.60133 28 0.333313 21.732 0.333313 14C0.333313 6.26801 6.60133 0 14.3333 0C22.0653 0 28.3333 6.26801 28.3333 14ZM20.5749 10.6167C20.6332 10.675 20.6332 10.7333 20.6332 10.7917C20.7499 11.375 20.8666 12.6 20.8666 14C20.8666 15.1436 20.7498 16.1704 20.6752 16.8261C20.6585 16.9731 20.6439 17.1015 20.6332 17.2083C20.5749 17.2667 20.5749 17.325 20.5749 17.3833V17.4417C20.3999 17.9667 19.9332 18.3167 19.3499 18.3167H19.4666C19.4666 18.3167 17.1332 18.6667 14.0999 18.6667C11.0082 18.6667 8.73323 18.3167 8.73323 18.3167H8.8499C8.26656 18.3167 7.7999 17.9667 7.6249 17.4417V17.3833C7.56656 17.325 7.56657 17.2667 7.56657 17.2083C7.55588 17.1015 7.54129 16.9731 7.52457 16.8261C7.45 16.1704 7.33323 15.1436 7.33323 14C7.33323 12.8564 7.45 11.8296 7.52457 11.1739C7.54129 11.0269 7.55588 10.8985 7.56657 10.7917C7.6249 10.7333 7.6249 10.675 7.6249 10.6167V10.5583C7.7999 10.0333 8.26656 9.68333 8.8499 9.68333H8.73323C8.73323 9.68333 11.0666 9.33333 14.0999 9.33333C17.1916 9.33333 19.4666 9.68333 19.4666 9.68333H19.3499C19.9332 9.68333 20.3999 10.0333 20.5749 10.5583V10.6167ZM13.3416 16.275L16.0832 14.2917C16.1999 14.2333 16.2582 14.1167 16.1999 14C16.1999 13.8833 16.1416 13.7667 16.0832 13.7083L13.3416 11.725C13.2249 11.6667 13.1082 11.6667 12.9916 11.725C12.8749 11.7833 12.8166 11.9 12.8166 12.0167V15.9833C12.8166 16.1 12.8749 16.2167 12.9916 16.275C13.0499 16.3333 13.1082 16.3333 13.1666 16.3333C13.2249 16.3333 13.2832 16.3333 13.3416 16.275Z" fill="#D33030"/>
</svg>
