<svg width="40" height="40" viewBox="0 0 40 40" fill="none" xmlns="http://www.w3.org/2000/svg"><path d="M39.984 38.126a8.94 8.94 0 0 0-8.928-8.903h-4.32a.579.579 0 0 1-.584-.572v-3.28l1.724-2.111a4.639 4.639 0 0 0 1.044-2.924v-1.459a2.499 2.499 0 0 0 1.693-2.365v-2.499a2.5 2.5 0 0 0-1.562-2.318v-1.027a4.215 4.215 0 0 0 2.596-6.5.936.936 0 0 0-1.424-.144 2.35 2.35 0 0 1-.547.39A4.223 4.223 0 0 0 28.067.819a.937.937 0 0 0-1.4.293c-.214.397-.54.722-.937.937a9.059 9.059 0 0 0-14.797 7.026v2.62a2.499 2.499 0 0 0-1.562 2.318v2.5a2.5 2.5 0 0 0 1.693 2.364v1.459a4.642 4.642 0 0 0 1.044 2.924l1.724 2.111v3.28a.58.58 0 0 1-.584.572h-4.32A8.943 8.943 0 0 0 0 38.153v.91A.937.937 0 0 0 .937 40h38.11a.937.937 0 0 0 .937-.937v-.937zm-38.11 0A7.063 7.063 0 0 1 8.928 31.1h4.32a2.456 2.456 0 0 0 2.458-2.446V25.04a.937.937 0 0 0-.212-.593l-1.937-2.371a2.762 2.762 0 0 1-.625-1.74v-2.262a.937.937 0 0 0-.937-.937h-.125a.624.624 0 0 1-.624-.625v-2.499a.624.624 0 0 1 .624-.624.937.937 0 0 0 .938-.938V9.075A7.185 7.185 0 0 1 24.9 3.83a.937.937 0 0 0 .909.212 4.205 4.205 0 0 0 1.73-1.009 2.346 2.346 0 0 1 .031 2.156.937.937 0 0 0 .785 1.355 4.242 4.242 0 0 0 2.114-.43 2.344 2.344 0 0 1-1.427 2.61 2.28 2.28 0 0 1-.928.16.984.984 0 0 0-.672.269.938.938 0 0 0-.28.668v2.63a.937.937 0 0 0 .936.938.625.625 0 0 1 .625.624v2.5a.625.625 0 0 1-.625.624h-.13a.937.937 0 0 0-.938.937v2.262a2.758 2.758 0 0 1-.625 1.74l-1.915 2.37a.937.937 0 0 0-.212.594v3.611a2.455 2.455 0 0 0 2.458 2.446h4.32a7.063 7.063 0 0 1 7.054 7.029H1.874z" fill="#E31E23"/></svg>