<svg width="35" height="40" viewBox="0 0 35 40" fill="none" xmlns="http://www.w3.org/2000/svg"><path d="M8.785 32.238L12.91 40l4.585-7.94L22.08 40l4.127-7.761 8.783.307-6.88-11.917 1.03-.458-.386-3.707 2.187-3.018-2.187-3.018.388-3.708-3.406-1.515L24.221 1.8l-3.707.386L17.495 0l-3.018 2.187L10.77 1.8 9.255 5.205 5.85 6.72l.386 3.708-2.186 3.018 2.187 3.018-.387 3.707 1.03.46L0 32.544l8.785-.307zm17.804-10.931l5.473 9.48-6.833-.24-3.209 6.037-3.569-6.182 3.22-5.576.79.083 1.76.184 1.514-3.407.854-.38zm-18.967-2.16l.328-3.142-1.855-2.56 1.855-2.558-.328-3.142L10.51 6.46l1.285-2.888 3.141.328 2.56-1.854L20.055 3.9l3.141-.328 1.285 2.888 2.888 1.285-.328 3.142 1.855 2.559-1.855 2.559.328 3.141-.09.04-2.798 1.245-1.285 2.888-3.141-.328-2.56 1.855-2.559-1.855-3.14.328-1.286-2.887-2.797-1.245-.091-.04zm3.148 5.945l3.708-.387 3.018 2.186 1.84-1.334-2.796 4.845-3.569 6.182-3.21-6.037-6.83.24 5.472-9.48.853.38 1.514 3.405z" fill="#E31E23"/></svg>