<svg width="50" height="40" viewBox="0 0 50 40" fill="none" xmlns="http://www.w3.org/2000/svg"><path d="M48.517 38.298h-1.703V13.52a1.008 1.008 0 0 0 0-.17.85.85 0 0 0-.068-.153l-.093-.128a.572.572 0 0 0-.128-.12s-.042-.05-.076-.067L25.169.114a.851.851 0 0 0-.851 0L3.038 12.882s-.05.05-.076.068a.774.774 0 0 0-.221.255.57.57 0 0 0-.068.145 1.006 1.006 0 0 0 0 .17l-.12.094v24.684H.852a.85.85 0 1 0 0 1.702h47.666a.851.851 0 0 0 0-1.702zm-34.898 0H8.512v-8.512h5.107v8.512zm27.237 0H20.428V21.274h20.428v17.024zm4.256 0H42.56V20.423a.85.85 0 0 0-.851-.851H19.577a.85.85 0 0 0-.851.851v17.875H15.32v-9.363a.851.851 0 0 0-.851-.851H7.66a.851.851 0 0 0-.85.85v9.364H4.255v-24.2L24.684 1.843 45.112 14.1v24.199z" fill="#E31E23"/><path d="M28.94 17.87h3.405a.851.851 0 1 0 0-1.703H28.94a.851.851 0 0 0 0 1.703zm-4.256 8.511h11.917a.852.852 0 0 0 0-1.702H24.684a.85.85 0 1 0 0 1.702zm0 4.256h11.917a.852.852 0 0 0 0-1.702H24.684a.851.851 0 1 0 0 1.702zm0 4.256h11.917a.852.852 0 0 0 0-1.702H24.684a.851.851 0 1 0 0 1.702zM12.768 24.679H9.363a.85.85 0 1 0 0 1.702h3.405a.852.852 0 0 0 0-1.702z" fill="#E31E23"/></svg>