<svg width="109" height="109" viewBox="0 0 109 109" fill="none" xmlns="http://www.w3.org/2000/svg"><path stroke="#fff" d="M.5.5h33.88v66.58H.5zm37.06 41.42h33.88v66.58H37.56zM.5 70.26h33.88v38.24H.5zM74.619.5h33.88v66.58h-33.88zm0 69.76h33.88v38.24h-33.88zM37.56.5h33.88v38.24H37.56zm59.45 3.86l4.36 4.36m-7.63 6.54l-4.36 4.36M82.84 4.36l4.36 4.36m9.81 17.44l4.36 4.36m-7.63 6.54l-4.36 4.36m-6.54-15.26l4.36 4.36m9.81 17.44l4.36 4.36m-7.63 6.54l-4.36 4.36m-6.54-15.26l4.36 4.36m-27.25-6.54l4.36 4.36m-7.63 6.54l-4.36 4.36m-6.54-15.26l4.36 4.36m9.81 17.44l4.36 4.36m-7.63 6.54l-4.36 4.36m-6.54-15.26l4.36 4.36m9.81 17.44l4.36 4.36m-7.63 6.54l-4.36 4.36m-6.54-15.26l4.36 4.36M22.89 4.36l4.36 4.36m-7.63 6.54l-4.36 4.36M8.72 4.36l4.36 4.36m9.81 17.44l4.36 4.36m-7.63 6.54l-4.36 4.36M8.72 26.16l4.36 4.36M59.95 6.54l4.36 4.36m-7.63 6.54l-4.36 4.36M45.78 6.54l4.36 4.36m9.81 17.44l4.36 4.36m-18.53-4.36l4.36 4.36M22.89 76.3l4.36 4.36m-7.63 6.54l-4.36 4.36M8.72 76.3l4.36 4.36m9.81 17.44l4.36 4.36M8.72 98.1l4.36 4.36M97.01 76.3l4.36 4.36m-7.63 6.54l-4.36 4.36M82.84 76.3l4.36 4.36m9.81 17.44l4.36 4.36M82.84 98.1l4.36 4.36m-64.31-54.5l4.36 4.36m-7.63 6.54l-4.36 4.36M8.72 47.96l4.36 4.36"/></svg>