<svg width="102" height="102" viewBox="0 0 102 102" fill="none" xmlns="http://www.w3.org/2000/svg"><path fill="#fff" stroke="#000" d="M27.02.5h74.48v74.48H27.02z"/><path d="M76.5 1.02l24.48 24.48M53.041 1.02l47.94 46.92M28.559 1.02l54.06 53.04M94.86 1.02L41.82 54.06m25.5-53.04L14.28 54.06M38.761 1.02l-11.22 10.2m73.439 13.26L69.36 54.06" stroke="#000"/><path fill="#fff" stroke="#000" d="M.5 12.74h45.92v88.76H.5z"/><path d="M34.682 16.32l4.08 4.08m-16.321-4.08l4.08 4.08m2.038 6.12l4.08 4.08M16.32 26.52l4.08 4.08M8.16 16.32l4.08 4.08m22.442 18.36l4.08 4.08m-16.321-4.08l4.08 4.08m2.038 6.12l4.08 4.08M16.32 48.96l4.08 4.08M8.16 38.76l4.08 4.08m22.442 16.32l4.08 4.08m-16.321-4.08l4.08 4.08m2.038 6.12l4.08 4.08M16.32 69.36l4.08 4.08M8.16 59.16l4.08 4.08m22.442 16.32l4.08 4.08m-16.321-4.08l4.08 4.08m2.038 6.12l4.08 4.08M16.32 89.76l4.08 4.08M8.16 79.56l4.08 4.08" stroke="#000"/><path fill="#fff" stroke="#000" d="M27.02 53.54h74.48v47.96H27.02z"/><path fill="#fff" stroke="#000" d="M47.42 73.94h54.08v27.56H47.42z"/><path d="M86.702 74.46l14.28 14.28m-24.48-14.28l23.46 25.5m-33.66-25.5l24.48 26.52m-34.68-26.52l24.48 26.52m-32.64-23.46l22.44 23.46m-22.44-11.22l11.22 11.22" stroke="#000"/></svg>