<svg width="113" height="113" viewBox="0 0 113 113" fill="none" xmlns="http://www.w3.org/2000/svg"><path d="M57 92.5h.5V1.003l55 41.426V112.5H.5v-20H57z" stroke="#000"/><path stroke="#000" stroke-linejoin="round" d="M62.5 67.5h10v5h-10zm0 20h10v5h-10zm10-10h10v5h-10zm0 10h10v5h-10zm10 0h10v5h-10zm10 0h10v5h-10zm-30 10h10v5h-10zm-10 0h10v5h-10zm0 10h10v5h-10zm10 0h10v5h-10zm10-10h10v5h-10zm10 0h10v5h-10zm10 0h10v5h-10zm10-10h10v5h-10zm0 10h10v5h-10zm-10 10h10v5h-10zm10 0h10v5h-10zm-45-35h10v5h-10zm10 0h10v5h-10zm10 0h10v5h-10zm-20 20h10v5h-10zm10 0h10v5h-10zm-30 0h10v5h-10zm10 0h10v5h-10zm30 0h10v5h-10zm10 0h10v5h-10zm10 0h10v5h-10zm-40 10h10v5h-10zm10 0h10v5h-10zm10 0h10v5h-10zm10 0h10v5h-10zm10 0h10v5h-10zm-10-20h10v5h-10zm10 0h10v5h-10zm-30 0h10v5h-10zm10 0h10v5h-10z"/><path fill="#000" d="M61.56 43.32h4.56v4.56h-4.56zm9.12 0h4.56v4.56h-4.56zm9.121 0h4.56v4.56h-4.56zm9.119 0h4.56v4.56h-4.56zM61.56 34.2h4.56v4.56h-4.56zm9.12 0h4.56v4.56h-4.56zm9.121 0h4.56v4.56h-4.56zM61.56 25.08h4.56v4.56h-4.56zm9.12 0h4.56v4.56h-4.56zm-9.12-9.12h4.56v4.56h-4.56zm18.241 9.12h4.56v4.56h-4.56zm9.119 9.12h4.56v4.56h-4.56zm9.119 9.12h4.56v4.56h-4.56zM61.56 52.44h4.56V57h-4.56zm9.12 0h4.56V57h-4.56zm9.121 0h4.56V57h-4.56zm9.119 0h4.56V57h-4.56zm9.119 0h4.56V57h-4.56zM6.84 102.6h4.56v4.56H6.84zm9.121 0h4.56v4.56h-4.56zm9.119 0h4.56v4.56h-4.56zm9.119 0h4.56v4.56h-4.56zm9.121 0h4.56v4.56h-4.56zm36.481-41.04h4.56v4.56h-4.56zm9.119 0h4.56v4.56h-4.56zm9.119 0h4.56v4.56h-4.56z"/><path stroke="#000" stroke-linejoin="round" d="M52.5 25.5h5v21h-5z"/><path d="M104.879 17.24h2.28v20.52l-2.28-1.43V17.24zM98.04 5.84h2.279V33.2l-2.28-1.906V5.84zM15.961 60.56h2.28v31.92h-2.28zM6.84 74.24h2.28v18.24H6.84zm18.24 9.12h2.28v9.12h-2.28z" fill="#000"/></svg>