<svg width="79" height="114" viewBox="0 0 79 114" fill="none" xmlns="http://www.w3.org/2000/svg"><path d="M1.5 59.5h77v13h-77v-13zm10 13h56v13h-56zm-10 0h10v41h-10zm66 0h11v41h-11z" stroke="#000" stroke-linejoin="round"/><path fill="#000" d="M32.92 43.482l9.305-9.305 1.613 1.612-9.306 9.305zm-3.28-3.536l4.39-4.39 1.612 1.613-4.39 4.389zM28.359 77.52h22.8v2.28h-22.8z"/><path d="M57.5 26.22c0 7.151-2.018 13.604-5.253 18.255-3.237 4.653-7.66 7.465-12.487 7.465-4.828 0-9.25-2.812-12.488-7.465-3.235-4.651-5.252-11.104-5.252-18.255s2.017-13.604 5.252-18.255C30.51 3.312 34.932.5 39.76.5c4.827 0 9.25 2.812 12.487 7.465 3.235 4.651 5.252 11.104 5.252 18.255z" stroke="#000"/><path d="M52.94 26.22c0 5.901-1.512 11.22-3.93 15.049-2.421 3.834-5.704 6.111-9.25 6.111-3.545 0-6.829-2.277-9.25-6.111-2.418-3.828-3.93-9.148-3.93-15.049 0-5.902 1.512-11.22 3.93-15.049 2.421-3.834 5.704-6.111 9.25-6.111 3.546 0 6.829 2.277 9.25 6.111 2.418 3.828 3.93 9.147 3.93 15.049zm25.58 33.06c-5.7-.38-18.923-3.876-26.22-14.82M1 59.28c5.949-.41 18.608-3.034 26.22-14.82" stroke="#000"/></svg>