<svg width="125" height="116" viewBox="0 0 125 116" fill="none" xmlns="http://www.w3.org/2000/svg"><rect x=".5" y="61.313" width="123.611" height="13.953" rx="5.5" stroke="#000"/><path d="M8 85l108-1.02M7.476 62.06V8a7 7 0 0 1 7-7h20.891a7 7 0 0 1 7 7v6.707" stroke="#000"/><rect x="32.9" y="13.961" width="18.938" height="8.969" rx="4.484" stroke="#000"/><rect x="97.697" y="3.992" width="18.938" height="18.938" rx="1.5" stroke="#000"/><path stroke="#000" d="M102.682 23.438h8.969v8.969h-8.969zm13.038 80.328l3.321 3.678a3.362 3.362 0 0 1-4.992 4.507l-3.321-3.678 4.992-4.507zm-101.898 4.885l-3.504 3.504a3.363 3.363 0 0 1-4.755-4.756l3.504-3.504 4.755 4.756z"/><path d="M7.5 75.5h109V98c0 6.351-5.149 11.5-11.5 11.5H19c-6.351 0-11.5-5.149-11.5-11.5V75.5z" stroke="#000"/><path fill="#000" d="M44.859 43.368h2.492v4.984h-2.492zm0-14.954h2.492v4.984h-2.492zm-4.982 7.477h2.492v4.984h-2.492zm-2.494-9.969h2.492v4.984h-2.492z"/></svg>