<svg width="32" height="36" viewBox="0 0 32 36" fill="none" xmlns="http://www.w3.org/2000/svg"><path d="M30.031 3.296l-.436-.436C31.124 4.39 32 6.288 32 8.07v22.724a.574.574 0 0 1-.127.36l-3.418 4.23a.582.582 0 0 1-.446.212H1.536a.573.573 0 0 1-.573-.573V22.282a.573.573 0 1 1 1.147 0v12.167h25.325V9.83a5.2 5.2 0 0 0-5.193-5.193H2.11V19.76a.573.573 0 1 1-1.147 0V4.064a.58.58 0 0 1 .239-.466L5.43.56a.573.573 0 0 1 .334-.107h14.927a.573.573 0 0 1 0 1.146H5.95l-.278.2h2.475a.573.573 0 1 1 0 1.147H4.075l-.758.544h18.925a6.347 6.347 0 0 1 6.34 6.34v23.571l.545-.674v-6.59a.573.573 0 0 1 1.147 0v5.171l.58-.717V8.07c0-1.46-.775-3.104-2.071-4.4-1.297-1.297-2.941-2.07-4.4-2.07h-1.02a.573.573 0 1 1 0-1.147h1.02c1.782 0 3.68.876 5.209 2.404-.382-.382-.762-.762.002.001l.437.438z" fill="#000"/><path d="M16.267 9.459H4.765a.573.573 0 1 0 0 1.146h11.502a.573.573 0 1 0 0-1.146zm0 1.979H4.765a.573.573 0 1 0 0 1.146h11.502a.573.573 0 1 0 0-1.146zM6.964 25.359h-2.2a.573.573 0 1 0 0 1.147h2.2a.573.573 0 1 0 0-1.147zm7.81 1.769H4.764a.573.573 0 1 0 0 1.146h10.01a.573.573 0 0 0 0-1.146zm0 2.219H4.764a.573.573 0 1 0 0 1.146h10.01a.573.573 0 1 0 0-1.146z" fill="#000"/></svg>