<svg width="33" height="45" viewBox="0 0 33 45" fill="none" xmlns="http://www.w3.org/2000/svg"><path fill-rule="evenodd" clip-rule="evenodd" d="M30.38 41.414c.989 0 1.793.804 1.793 1.793 0 .989-.804 1.793-1.793 1.793H2.56a1.795 1.795 0 0 1-1.792-1.793c0-.989.804-1.793 1.793-1.793v-11.4a2.299 2.299 0 0 1-1.443-2.13V24.55c0-.092.02-.184.057-.268l2.422-5.442v-5.816a1.773 1.773 0 0 1-.989-1.587c0-.977.796-1.773 1.773-1.773h4.364a5.768 5.768 0 0 1-2.106-4.457V1.42c0-.782.637-1.42 1.42-1.42h10.97c.784 0 1.422.638 1.422 1.421v.046a3.83 3.83 0 0 1 2.066-.61 3.83 3.83 0 0 1 3.826 3.826 3.83 3.83 0 0 1-3.826 3.826 3.813 3.813 0 0 1-2.556-.979 5.806 5.806 0 0 1-1.616 2.134h10.261a1.773 1.773 0 1 1 .785 3.36v5.784l2.436 5.474a.664.664 0 0 1 .057.268v3.333a2.3 2.3 0 0 1-1.505 2.155v11.376zM28.664 28.2a.977.977 0 0 0 1.9-.317V25.21h-.565v-.01H3v.01h-.562v2.673a.977.977 0 0 0 1.9.317h1.424a.978.978 0 0 0 1.847 0h1.425a.978.978 0 0 0 1.847 0h1.425a.978.978 0 0 0 1.847 0h1.424a.978.978 0 0 0 1.847 0h1.425a.978.978 0 0 0 1.847 0h1.425a.977.977 0 0 0 1.847 0h1.425a.978.978 0 0 0 1.847 0h1.425zm-.593-14.99H4.916v5.11h23.156v-5.11zM4.685 19.64l-1.891 4.25h27.414l-1.89-4.25H4.684zM25.024 4.683a2.51 2.51 0 0 0-2.507-2.507 2.52 2.52 0 0 0-2.066 1.088v1.943c0 .274-.021.543-.058.806a2.498 2.498 0 0 0 2.124 1.177 2.51 2.51 0 0 0 2.507-2.507zM7.958 3.737v1.47c0 2.458 2 4.457 4.457 4.457h2.259c2.458 0 4.457-2 4.457-4.457v-1.47H7.958zm3.735-1.32H7.958v-.996c0-.056.046-.102.102-.102h10.97a.1.1 0 0 1 .1.102v.996h-7.437zm16.914 8.567H4.38a.454.454 0 0 0 0 .906h24.226a.454.454 0 0 0 0-.906zM5.05 29.492a2.293 2.293 0 0 1-1.169.639v11.283h14.747v-7.668a2.352 2.352 0 0 1 2.349-2.35h4.542a2.352 2.352 0 0 1 2.35 2.35v7.668h1.19V30.117a2.299 2.299 0 0 1-1.107-.625 2.29 2.29 0 0 1-3.272 0 2.288 2.288 0 0 1-3.271 0 2.289 2.289 0 0 1-3.272 0 2.288 2.288 0 0 1-3.272 0 2.29 2.29 0 0 1-3.272 0 2.289 2.289 0 0 1-3.272 0 2.288 2.288 0 0 1-3.271 0zm21.499 9.957v-5.703a1.03 1.03 0 0 0-1.03-1.03h-4.542a1.03 1.03 0 0 0-1.03 1.03v7.668h6.602v-1.965zM2.56 43.681h27.82a.474.474 0 0 0 0-.948H2.56a.474.474 0 0 0 0 .948z" fill="#000"/></svg>