<svg width="36" height="36" viewBox="0 0 36 36" fill="none" xmlns="http://www.w3.org/2000/svg"><g clip-path="url(#a)"><path d="M35.162 7.916a.696.696 0 0 0-.696.696v2.208h-4.207a.696.696 0 0 0-.696.696v2.105h-3.51V6.57a.703.703 0 0 0-.46-.655L9.38.042a.695.695 0 0 0-.934.654v14.561a19.857 19.857 0 0 0-2.419 2.358c-1.693 1.954-3.041 4.253-4.007 6.834C.82 27.656.211 31.308.211 35.304c0 .384.312.696.696.696h34.255a.696.696 0 0 0 .696-.696V8.612a.696.696 0 0 0-.696-.696zm-4.206 4.297h3.51v1.408h-3.51v-1.408zM9.838 5.259l1.663.718v7.277c-.371.18-.953.493-1.663.968V5.26zm-6.534 19.73c.899-2.42 2.151-4.573 3.722-6.402 1.714-1.993 3.443-3.165 4.475-3.754v5.68H7.417a.696.696 0 0 0 0 1.392H11.5v1.38H5.997a.696.696 0 0 0 0 1.392H11.5v1.378H5.073a.696.696 0 0 0 0 1.393H11.5v1.379H4.404a.696.696 0 0 0 0 1.392H11.5v1.38H4.193a.696.696 0 0 0 0 1.392H11.5v1.617H1.61c.066-3.535.635-6.767 1.694-9.619zm9.59 9.619V5.52a.696.696 0 0 0-.42-.64L9.838 3.742V1.689l13.848 5.016-1.949 1.088a.696.696 0 0 0-.356.608V28.89a.696.696 0 0 0 1.392 0V8.81l1.887-1.054v26.852H12.894zm21.572 0h-8.413V15.014h8.412v19.594z" fill="#000"/></g><defs><clipPath id="a"><path fill="#fff" d="M0 0h36v36H0z"/></clipPath></defs></svg>