<svg width="38" height="38" viewBox="0 0 38 38" fill="none" xmlns="http://www.w3.org/2000/svg"><g clip-path="url(#a)" fill="#000"><path d="M37.118 8.014h-5.003L23.633.197A.742.742 0 0 0 23.13 0h-8.337a.741.741 0 0 0-.502.197L5.809 8.014H.89a.742.742 0 0 0-.743.742v3.14c0 .41.333.742.743.742h.647v24.62c0 .41.333.742.742.742h33.448a.742.742 0 1 0 0-1.484h-4.66V31.72a3.73 3.73 0 0 0-2.981-3.65V12.639h6.899v23.85a.742.742 0 0 0 1.484 0v-23.85h.648c.41 0 .742-.332.742-.742v-3.14a.742.742 0 0 0-.742-.742zM22.84 1.484l7.084 6.53h-2.281l-6.8-6.53h1.997zM11.406 9.072L19 1.772l7.603 7.3v18.926H11.406V9.072zm3.677-7.588h2.073l-6.79 6.53H7.998l7.084-6.53zM1.633 9.5h8.29v1.654h-8.29V9.5zm1.39 3.139h6.9v15.434c-1.306.263-2.417 1.257-2.81 2.532a3.801 3.801 0 0 0-.172 1.117v4.795H3.023V12.638zm10.381 23.878V33.74h2.33v2.775h-2.33zm9.105 0V33.74h2.33v2.775h-2.33zm7.063 0h-3.25V33a.742.742 0 0 0-.741-.742h-3.814a.742.742 0 0 0-.742.742v3.517h-3.807V33a.742.742 0 0 0-.742-.742h-3.814a.742.742 0 0 0-.742.742v3.517H8.426V31.72a2.241 2.241 0 0 1 2.238-2.24h16.67a2.241 2.241 0 0 1 2.238 2.24v4.795zm-1.485-25.363V9.5h8.289v1.654h-8.29z"/><path d="M14.896 11.566h3.36v3.36a.742.742 0 0 0 1.485 0v-3.36h3.36a.742.742 0 0 0 0-1.484h-3.36V6.72a.742.742 0 1 0-1.484 0v3.36h-3.36a.742.742 0 1 0 0 1.485z"/></g><defs><clipPath id="a"><path fill="#fff" d="M0 0h38v38H0z"/></clipPath></defs></svg>