<svg width="35" height="35" viewBox="0 0 35 35" fill="none" xmlns="http://www.w3.org/2000/svg"><g clip-path="url(#a)" fill="#000"><path d="M16.333 9.917a1.73 1.73 0 0 0-.107-.584h2.548a1.73 1.73 0 0 0-.108.584 1.75 1.75 0 0 0 3.5 0 1.73 1.73 0 0 0-.107-.584h.69a.583.583 0 0 0 .584-.525l.583-5.833a.584.584 0 0 0-.583-.642h-11.41L11.66.5a.584.584 0 0 0-.578-.5h-1.75v1.167h1.244l1.095 7.666c.041.287.287.5.578.5h.69a1.73 1.73 0 0 0-.107.584 1.75 1.75 0 0 0 3.5 0zm4.667 0a.583.583 0 1 1-1.167 0 .583.583 0 0 1 1.167 0zM12.09 3.5h10.6l-.466 4.667h-9.47L12.09 3.5zm2.493 7a.583.583 0 1 1 0-1.167.583.583 0 0 1 0 1.167z"/><path d="M34.559 16.35l-8.892-2.222V12.25a.583.583 0 0 0-.584-.583H9.917a.583.583 0 0 0-.584.583v1.878L.441 16.35a.584.584 0 0 0-.441.566v17.5c0 .322.261.583.583.583h33.834a.583.583 0 0 0 .583-.583v-17.5a.583.583 0 0 0-.441-.566zM1.166 17.373l8.166-2.041v18.502H1.167v-16.46zm9.333-4.539h14v21h-2.917v-5.25A.583.583 0 0 0 21 28h-7a.583.583 0 0 0-.583.583v5.25H10.5v-21zm4.083 16.334h2.334v4.666h-2.334v-4.666zm3.5 4.666v-4.666h2.334v4.666h-2.334zm15.75 0h-8.166V15.331l8.166 2.041v16.461z"/></g><defs><clipPath id="a"><path fill="#fff" d="M0 0h35v35H0z"/></clipPath></defs></svg>