<svg width="42" height="42" viewBox="0 0 42 42" fill="none" xmlns="http://www.w3.org/2000/svg"><path d="M36.029 17.348h-5.062V.712A.712.712 0 0 0 30.255 0H5.974a.712.712 0 0 0-.712.712v40.576c0 .393.318.712.712.712h30.055a.712.712 0 0 0 .711-.712V18.06a.712.712 0 0 0-.712-.712zm-25.55.712v22.516H6.686V1.424h22.858v15.924H11.191a.712.712 0 0 0-.711.712zm12.416 22.516h-6.407v-6.57h6.407v6.57zm7.83 0h-6.407v-6.57h6.407v6.57zm1.402 0v-7.282a.712.712 0 0 0-.711-.712H15.804a.712.712 0 0 0-.711.712v7.282h-3.19V18.772h23.414l.021 21.804h-3.21z" fill="#000"/><path d="M25.378 4.004h-4.05a.712.712 0 0 0-.713.712v4.043c0 .393.319.712.712.712h4.043a.712.712 0 0 0 .712-.712V4.716a.712.712 0 0 0-.704-.712zm-3.339 4.043v-2.62h2.62l.007 2.62h-2.627zm-7.346 1.275h-4.044a.712.712 0 0 0-.711.712v4.057a.71.71 0 0 0 .711.712h4.044a.712.712 0 0 0 .712-.712v-4.057a.712.712 0 0 0-.712-.712zm-.712 4.043h-2.62v-2.62h2.62v2.62zm6.307 7.389h-4.043a.712.712 0 0 0-.712.712v4.043c0 .394.319.712.712.712h4.043A.712.712 0 0 0 21 25.51v-4.043a.712.712 0 0 0-.712-.712zm-.711 4.044h-2.62v-2.62h2.62v2.62zm11.388.527h-4.043a.712.712 0 0 0-.712.712v4.043c0 .393.319.712.712.712h4.043a.712.712 0 0 0 .712-.712v-4.043a.712.712 0 0 0-.712-.712zm-.712 4.043h-2.62v-2.62h2.62v2.62z" fill="#000"/></svg>