<svg width="37" height="37" viewBox="0 0 37 37" fill="none" xmlns="http://www.w3.org/2000/svg"><path d="M9.924 5.008c.185 0 .37-.07.51-.211L11.23 4c.205-.205.478-.318.767-.318h1.296c.676 0 1.31-.263 1.789-.74l1.179-1.18c.205-.205.477-.318.767-.318h3.857a.723.723 0 0 0 0-1.445h-3.857c-.676 0-1.311.263-1.789.741l-1.18 1.18a1.078 1.078 0 0 1-.766.317h-1.296c-.676 0-1.31.263-1.789.741l-.795.795a.723.723 0 0 0 .51 1.234zm10.961-1.975h-1.598c-.676 0-1.31.264-1.788.741a1.078 1.078 0 0 1-.767.318h-.916a.723.723 0 1 0 0 1.446h.916c.675 0 1.31-.264 1.788-.741.205-.205.478-.318.767-.318h1.598a.723.723 0 1 0 0-1.446zM23.5.999a.73.73 0 0 0 .703.445.729.729 0 0 0 .652-.5.728.728 0 0 0-.247-.794.73.73 0 0 0-.841-.028A.727.727 0 0 0 23.5 1zm12.352 25.456h-.193v-8.017a.721.721 0 0 0 .881-1.129l-.88-.896V8.995a.723.723 0 0 0-.724-.723h-7.282l-1.226-1.246a.723.723 0 0 0-.512-.216h-.004a.718.718 0 0 0-.51.211l-1.384 1.382H13.442v-1.81a.723.723 0 0 0-.722-.723H8.528a.723.723 0 0 0-.722.723v1.81H.94a.723.723 0 0 0-.722.723v7.583c0 .399.323.722.722.722h.727v9.024H1.64a.723.723 0 0 0 0 1.445h.027v8.377c0 .4.324.723.723.723h32.547a.723.723 0 0 0 .722-.723V27.9h.193a.723.723 0 0 0 0-1.445zm-5.721-13.602l3.081 3.133h-6.217l3.136-3.133zm-1.014-1.03l-4.167 4.163h-6.48l7.438-7.428 3.21 3.264zm-11.67 5.608h7.08v9.024h-7.08v-9.023zm8.525 0h8.242v9.024h-8.242v-9.023zm8.242-7.714v5.226l-5.138-5.225h5.138zM9.251 7.316h2.746v4.676H9.251V7.316zM1.663 9.848h6.143v2.144H7.11a.723.723 0 0 0 0 1.446h7.253a.723.723 0 1 0 0-1.446h-.92V9.848h9.128l-6.146 6.138H1.663V9.848zM3.113 27.9h3.094a.723.723 0 1 0 0-1.445H3.113v-9.023H15.03a.723.723 0 0 0 .97.967v8.056h-3.15a.723.723 0 0 0 0 1.445H16v7.655h-3.5v-5.138a.723.723 0 0 0-.723-.723h-4.43c-.4 0-.723.324-.723.723v5.138H3.113V27.9zm4.957 7.655v-4.416h2.985v4.416H8.07zm9.377-7.655h7.08v7.655h-7.08V27.9zm16.767 7.655h-8.242V27.9h8.242v7.655z" fill="#000"/></svg>