<svg width="37" height="37" viewBox="0 0 37 37" fill="none" xmlns="http://www.w3.org/2000/svg"><path d="M36.322 8.158h-2.247c.01-.11.01-.22 0-.329V2.39a1.67 1.67 0 0 0-1.67-1.671H4.554a1.67 1.67 0 0 0-1.67 1.67V7.85c-.011.11-.011.22 0 .33H.67a.67.67 0 0 0-.671.67v4.025c0 .371.3.671.67.671h.538V34.84c0 .796.645 1.442 1.442 1.442h31.7c.797 0 1.442-.646 1.442-1.442V13.506h.537c.37 0 .671-.301.671-.672V8.81a.67.67 0 0 0-.678-.65zM4.227 2.388c0-.181.147-.328.328-.328h27.883c.181 0 .329.147.329.328V7.85a.329.329 0 0 1-.33.33H4.556a.329.329 0 0 1-.328-.33V2.39zM17.826 34.94h-4.113V24.656h4.113V34.94zm5.454 0h-4.113V24.656h4.113V34.94zm11.077 0h-9.735V23.985c0-.37-.3-.671-.671-.671H13.042c-.37 0-.67.3-.67.67V34.94h-9.73a.1.1 0 0 1-.1-.1V13.606a.1.1 0 0 1 .1-.1H34.35a.1.1 0 0 1 .1.1l.007 21.234a.1.1 0 0 1-.1.1zM1.342 12.163V9.48h34.31l.006 2.683H1.342z" fill="#000"/><path d="M12.633 3.361a.382.382 0 0 0-.295-.12.376.376 0 0 0-.288.12.543.543 0 0 0-.114.37v1.146h-1.738V3.73a.53.53 0 0 0-.114-.369.39.39 0 0 0-.309-.127.37.37 0 0 0-.295.12.55.55 0 0 0-.107.37v3.16a.544.544 0 0 0 .107.368.369.369 0 0 0 .295.128.39.39 0 0 0 .295-.12.53.53 0 0 0 .114-.37V5.548h1.752V6.89a.55.55 0 0 0 .107.37.369.369 0 0 0 .295.127c.111.004.22-.04.295-.121a.53.53 0 0 0 .114-.37V3.73a.523.523 0 0 0-.114-.369zm4.522.846a1.638 1.638 0 0 0-.671-.718 2.14 2.14 0 0 0-1.074-.255 2.2 2.2 0 0 0-.818.14c-.232.092-.44.234-.61.417a1.82 1.82 0 0 0-.383.67 2.6 2.6 0 0 0-.134.846c-.002.284.04.567.127.838.074.242.198.466.363.658.172.189.386.336.624.43.269.106.556.158.845.154a2.25 2.25 0 0 0 .839-.148 1.64 1.64 0 0 0 .617-.43c.172-.194.3-.422.376-.67.087-.273.13-.559.127-.846a2.45 2.45 0 0 0-.228-1.086zm-.752 1.891a1.08 1.08 0 0 1-.415.484 1.14 1.14 0 0 1-1.02.067 1.026 1.026 0 0 1-.363-.275 1.275 1.275 0 0 1-.241-.457c-.06-.2-.09-.408-.087-.617a2.013 2.013 0 0 1 .087-.617v.007c.047-.164.127-.317.235-.45a.994.994 0 0 1 .355-.268 1.1 1.1 0 0 1 .45-.094 1.067 1.067 0 0 1 1.013.657c.1.243.147.503.14.765.009.274-.044.547-.153.798zm4.381-2.703a.457.457 0 0 0-.315-.094h-2.583a.456.456 0 0 0-.309.087.309.309 0 0 0-.107.248.309.309 0 0 0 .1.242.45.45 0 0 0 .316.094h.886v2.911a.536.536 0 0 0 .114.37.382.382 0 0 0 .295.12.374.374 0 0 0 .288-.12.537.537 0 0 0 .114-.376V3.972h.886a.463.463 0 0 0 .315-.094.31.31 0 0 0 .1-.242.315.315 0 0 0-.1-.241zm3.564 3.368a.416.416 0 0 0-.289-.088h-1.878v-1.14h1.684a.39.39 0 0 0 .282-.087.295.295 0 0 0 .087-.222.282.282 0 0 0-.094-.221.403.403 0 0 0-.275-.08H22.18V3.93h1.831a.416.416 0 0 0 .289-.087.295.295 0 0 0 .094-.228.288.288 0 0 0-.094-.228.416.416 0 0 0-.288-.087h-2.16a.672.672 0 0 0-.283.053.323.323 0 0 0-.16.161.67.67 0 0 0-.054.289v3.019a.423.423 0 0 0 .496.496v-.006h2.207a.415.415 0 0 0 .289-.087.302.302 0 0 0 .094-.229.309.309 0 0 0-.094-.234zm3.488-.027a.436.436 0 0 0-.302-.094h-1.657V3.73a.523.523 0 0 0-.114-.369.39.39 0 0 0-.296-.12.376.376 0 0 0-.288.12.543.543 0 0 0-.107.37v3.085a.423.423 0 0 0 .496.497h1.973a.45.45 0 0 0 .301-.094.309.309 0 0 0 .101-.242.308.308 0 0 0-.107-.241z" fill="#000"/></svg>