<svg width="38" height="44" viewBox="0 0 38 44" fill="none" xmlns="http://www.w3.org/2000/svg"><g clip-path="url(#a)"><path fill-rule="evenodd" clip-rule="evenodd" d="M23.48 14.003c3.462.205 9.65.874 12.759 2.636 1.168.662 1.761 1.436 1.761 2.3v14.138c0 3.584-10.332 4.627-13.393 4.858l.395.84c.402.855-.097 1.908-.937 1.97-3.352.248-6.854.25-10.15.017-.832-.06-1.332-1.103-.932-1.954l.41-.873c-3.185-.24-8.75-.926-11.632-2.56-1.168-.662-1.76-1.435-1.76-2.299V18.94L0 18.938c0-3.764 11.29-4.744 14.52-4.935V12.88h-.714c-.52 0-.943-.49-.943-1.092V5.61c0-.602.423-1.092.943-1.092h.715V3.71c0-.356.249-.644.556-.644.308 0 .557.288.557.644v.807h2.06c.308 0 .557.288.557.644 0 .356-.25.645-.557.645h-3.718v5.784h10.049v-1.388c0-.356.249-.645.556-.645.308 0 .557.289.557.645v1.585c0 .602-.423 1.092-.943 1.092h-.715v1.123zm13.407 4.935c0-1.172-4.599-3.117-13.407-3.644v2.197c2.004.204 7.426.886 7.426 3.148 0 .411-.17.784-.51 1.123.52-.1 1.014-.205 1.533-.329 3.921-.94 4.958-2.043 4.958-2.495zm-14.52-6.058h-6.733v1.066a77.72 77.72 0 0 1 6.732 0V12.88zm0 2.356a76.89 76.89 0 0 0-6.733 0v2.158a47.25 47.25 0 0 1 6.732 0v-2.158zm-6.733 3.702c0 .356-.25.645-.557.645-.307 0-.557-.289-.557-.645v-.152c-1.168.122-2.25.292-3.197.506-2.337.528-3.036 1.149-3.113 1.347.077.198.776.819 3.113 1.347 4.303.972 11.057.971 15.354 0 2.337-.528 3.036-1.15 3.112-1.347-.076-.198-.775-.82-3.112-1.347a27.795 27.795 0 0 0-3.197-.506v.152c0 .356-.25.645-.557.645-.307 0-.557-.289-.557-.645v-.251a45.892 45.892 0 0 0-6.732 0v.251zM6.07 16.444c-3.919.94-4.956 2.041-4.958 2.494 0 .451 1.037 1.555 4.959 2.495.488.117 1 .227 1.532.329-.34-.339-.51-.712-.51-1.123 0-2.263 5.426-2.944 7.426-3.148v-2.197c-3.173.19-6.08.582-8.449 1.15zm30.816 4.371c-5.591 4.248-30.193 4.233-35.774 0V29c0 2.539 5.888 3.92 12.887 4.3V37h10v-3.806c6.999-.52 12.887-1.97 12.887-4.194v-8.185zM1.113 33.075c0 1.049 3.984 2.978 12.631 3.595v-2.174c-3.194-.227-9.957-.984-12.63-3.005v1.585zm12.87 6.4c3.265.23 6.72.227 10.011-.017.028-.002.044-.037.03-.066l-.646-1.375a77.27 77.27 0 0 1-8.756 0l-.661 1.407c-.01.023.001.05.022.05zM31.93 35.57c3.921-.94 4.958-2.043 4.958-2.495v-1.584c-2.673 2.02-9.437 2.778-12.631 3.004v2.174c2.87-.205 5.5-.578 7.673-1.1z" fill="#000"/><path d="M24.196 4.518h-.715V3.71c0-.356-.25-.645-.557-.645-.307 0-.556.289-.556.645v.807h-5.075c-.308 0-.557.288-.557.644 0 .356.25.645.557.645h6.732v4.388c0 .356.25.644.557.644.308 0 .557-.288.557-.644V5.609c0-.601-.423-1.091-.943-1.091z" fill="#000"/><path d="M14 38l.025-6.429c.216-.334.55-.543.897-.543h8.092c.265-.065.835-.06.986.483V38" stroke="#000" stroke-width="1.2"/></g><defs><clipPath id="a"><path fill="#fff" d="M0 0h38v44H0z"/></clipPath></defs></svg>