<svg width="32" height="32" viewBox="0 0 32 32" fill="none" xmlns="http://www.w3.org/2000/svg"><g clip-path="url(#a)" fill="#000"><path d="M28 5.813c.345 0 .625-.28.625-.625V1.874A1.877 1.877 0 0 0 26.75 0H1.875A1.877 1.877 0 0 0 0 1.875v28.25C0 31.159.841 32 1.875 32H26.75a1.877 1.877 0 0 0 1.875-1.875v-1.75a.625.625 0 1 0-1.25 0v1.75c0 .345-.28.625-.625.625H1.875a.626.626 0 0 1-.625-.625V1.875c0-.345.28-.625.625-.625H26.75c.345 0 .625.28.625.625v3.313c0 .345.28.625.625.625z"/><path d="M25 3H3.626A.625.625 0 0 0 3 3.625v13.063a.625.625 0 1 0 1.25 0V4.25h20.126v1a.625.625 0 1 0 1.25 0V3.625A.625.625 0 0 0 25 3zM4.067 18.558a.629.629 0 0 0-.884 0A.63.63 0 0 0 3 19a.63.63 0 0 0 .183.442A.629.629 0 0 0 4.25 19a.627.627 0 0 0-.183-.442zM25 26.375a.625.625 0 0 0-.624.625v.75H4.25v-6.344a.625.625 0 0 0-1.25 0v6.969c0 .345.28.625.625.625h21.376c.345 0 .625-.28.625-.625V27a.625.625 0 0 0-.625-.625z"/><path d="M19.369 22.084a.625.625 0 0 0-.884 0l-1.235 1.235-.768-.768a1.245 1.245 0 0 0-1.758 0l-.5.5a.625.625 0 1 0 .884.883l.495-.494.768.767c.242.243.56.364.879.364.318 0 .637-.121.879-.364l1.24-1.24a.625.625 0 0 0 0-.883z"/><path d="M31.713 13.111a1.822 1.822 0 0 0-.696-2.596.57.57 0 0 1-.307-.531 1.82 1.82 0 0 0-1.9-1.9.568.568 0 0 1-.532-.308 1.822 1.822 0 0 0-2.596-.695.57.57 0 0 1-.613 0 1.822 1.822 0 0 0-2.597.695.57.57 0 0 1-.531.307 1.822 1.822 0 0 0-1.9 1.9.57.57 0 0 1-.308.532 1.822 1.822 0 0 0-.965 1.86H7.862a.625.625 0 1 0 0 1.25h11.225a.568.568 0 0 1-.05.1 1.822 1.822 0 0 0-.159 1.65H7.861a.625.625 0 1 0 0 1.25h12.142a.58.58 0 0 1 .037.227 1.822 1.822 0 0 0 1.9 1.901.57.57 0 0 1 .532.307c.075.145.17.278.278.396v5.838a.625.625 0 0 0 1.066.442l1.56-1.55 1.558 1.55A.625.625 0 0 0 28 25.293v-5.837c.11-.118.203-.25.278-.396a.57.57 0 0 1 .532-.307 1.82 1.82 0 0 0 1.9-1.9.57.57 0 0 1 .307-.532c.453-.234.79-.651.921-1.144a1.823 1.823 0 0 0-.225-1.452.57.57 0 0 1 0-.614zm-4.963 10.68l-.934-.93a.625.625 0 0 0-.882 0l-.934.93v-3.75c.374.017.749-.08 1.069-.285a.57.57 0 0 1 .613 0c.295.189.637.287.982.287.029 0 .057-.002.086-.003v3.75zm3.98-8.938a.562.562 0 0 1-.287.358 1.823 1.823 0 0 0-.981 1.7.562.562 0 0 1-.166.428.562.562 0 0 1-.428.166 1.823 1.823 0 0 0-1.7.98.562.562 0 0 1-.358.289.562.562 0 0 1-.453-.07 1.818 1.818 0 0 0-1.963 0 .563.563 0 0 1-.454.07.562.562 0 0 1-.358-.288 1.823 1.823 0 0 0-1.7-.981.562.562 0 0 1-.428-.166.562.562 0 0 1-.165-.428 1.822 1.822 0 0 0-.982-1.7.562.562 0 0 1-.288-.358.561.561 0 0 1 .07-.454 1.823 1.823 0 0 0 0-1.962.562.562 0 0 1-.07-.454.562.562 0 0 1 .288-.358 1.823 1.823 0 0 0 .982-1.7.562.562 0 0 1 .165-.428.562.562 0 0 1 .429-.165 1.823 1.823 0 0 0 1.7-.982.562.562 0 0 1 .357-.288.562.562 0 0 1 .454.07 1.823 1.823 0 0 0 1.962 0 .562.562 0 0 1 .454-.07.562.562 0 0 1 .358.288 1.823 1.823 0 0 0 1.7.982.562.562 0 0 1 .428.165.562.562 0 0 1 .166.429 1.823 1.823 0 0 0 .981 1.7.561.561 0 0 1 .288.357.562.562 0 0 1-.07.454 1.823 1.823 0 0 0 0 1.962.561.561 0 0 1 .07.454z"/><path d="M28.347 11.718a.625.625 0 0 0-.884 0l-2.074 2.074-.826-.825a.625.625 0 0 0-.884.883l1.268 1.268a.623.623 0 0 0 .884 0l2.516-2.516a.625.625 0 0 0 0-.884zM7.63 7.558a.63.63 0 0 0-.442-.183.63.63 0 0 0-.442.183.63.63 0 0 0-.184.442.63.63 0 0 0 .184.442.63.63 0 0 0 .441.183.63.63 0 0 0 .442-.183A.63.63 0 0 0 7.813 8a.63.63 0 0 0-.184-.442zm4.933-.183H9.521a.625.625 0 1 0 0 1.25h3.042a.625.625 0 1 0 0-1.25zm6.365 11h-7.145a.625.625 0 1 0 0 1.25h7.145a.625.625 0 1 0 0-1.25z"/></g><defs><clipPath id="a"><path fill="#fff" d="M0 0h32v32H0z"/></clipPath></defs></svg>