<svg width="31" height="25" viewBox="0 0 31 25" fill="none" xmlns="http://www.w3.org/2000/svg"><path d="M23.896 24.88c-2.496 0-4.384-1.024-5.664-3.072-1.088-1.728-1.632-3.84-1.632-6.336 0-3.2.8-6.08 2.4-8.64 1.664-2.56 4.16-4.608 7.488-6.144l.864 1.728c-1.984.832-3.712 2.144-5.184 3.936-1.408 1.792-2.112 3.616-2.112 5.472 0 .768.096 1.44.288 2.016 1.024-.832 2.208-1.248 3.552-1.248 1.728 0 3.168.576 4.32 1.728 1.216 1.088 1.824 2.56 1.824 4.416 0 1.728-.608 3.2-1.824 4.416-1.152 1.152-2.592 1.728-4.32 1.728zm-16.32 0c-2.496 0-4.384-1.024-5.664-3.072C.824 20.08.28 17.968.28 15.472c0-3.2.8-6.08 2.4-8.64 1.664-2.56 4.16-4.608 7.488-6.144l.864 1.728C9.048 3.248 7.32 4.56 5.848 6.352 4.44 8.144 3.736 9.968 3.736 11.824c0 .768.096 1.44.288 2.016 1.024-.832 2.208-1.248 3.552-1.248 1.728 0 3.168.576 4.32 1.728 1.216 1.088 1.824 2.56 1.824 4.416 0 1.728-.608 3.2-1.824 4.416-1.152 1.152-2.592 1.728-4.32 1.728z" fill="#A2A2A2"/></svg>