<svg width="30" height="25" viewBox="0 0 30 25" fill="none" xmlns="http://www.w3.org/2000/svg"><path d="M6.328.688c2.496 0 4.384 1.024 5.664 3.072 1.088 1.728 1.632 3.84 1.632 6.336 0 3.2-.832 6.08-2.496 8.64-1.6 2.56-4.064 4.608-7.392 6.144l-.864-1.728c1.984-.832 3.68-2.144 5.088-3.936 1.472-1.792 2.208-3.616 2.208-5.472 0-.768-.096-1.44-.288-2.016-1.024.832-2.208 1.248-3.552 1.248-1.728 0-3.2-.544-4.416-1.632C.76 10.192.184 8.688.184 6.832c0-1.728.576-3.168 1.728-4.32C3.128 1.296 4.6.688 6.328.688zm16.32 0c2.496 0 4.384 1.024 5.664 3.072 1.088 1.728 1.632 3.84 1.632 6.336 0 3.2-.832 6.08-2.496 8.64-1.6 2.56-4.064 4.608-7.392 6.144l-.864-1.728c1.984-.832 3.68-2.144 5.088-3.936 1.472-1.792 2.208-3.616 2.208-5.472 0-.768-.096-1.44-.288-2.016-1.024.832-2.208 1.248-3.552 1.248-1.728 0-3.2-.544-4.416-1.632-1.152-1.152-1.728-2.656-1.728-4.512 0-1.728.576-3.168 1.728-4.32C19.448 1.296 20.92.688 22.648.688z" fill="#A2A2A2"/></svg>