<svg width="28" height="28" viewBox="0 0 28 28" fill="none" xmlns="http://www.w3.org/2000/svg"><path d="M13.886 16.618a2.504 2.504 0 1 0 0-5.008 2.504 2.504 0 0 0 0 5.008z" fill="url(#a)"/><path d="M17.016 7.967h-6.26c-.91 0-1.707.285-2.22.797-.511.512-.796 1.309-.796 2.22v6.26c0 .91.285 1.707.854 2.276.569.512 1.309.797 2.22.797h6.202c.911 0 1.708-.285 2.22-.797.569-.512.854-1.309.854-2.22v-6.26c0-.91-.285-1.65-.797-2.22-.57-.568-1.31-.853-2.277-.853zm-3.13 10.017a3.874 3.874 0 0 1-3.87-3.87 3.874 3.874 0 0 1 3.87-3.87c2.106 0 3.927 1.707 3.927 3.87 0 2.162-1.764 3.87-3.927 3.87zm4.041-7a.899.899 0 0 1-.91-.911c0-.512.398-.91.91-.91s.91.398.91.91-.398.91-.91.91z" fill="url(#b)"/><path d="M14 0C6.26 0 0 6.26 0 14s6.26 14 14 14 14-6.26 14-14c.057-7.74-6.26-14-14-14zm7.455 17.3c0 1.31-.455 2.448-1.252 3.245-.796.796-1.935 1.195-3.187 1.195h-6.203c-1.252 0-2.39-.398-3.187-1.195-.854-.797-1.252-1.935-1.252-3.244v-6.26c0-2.618 1.764-4.44 4.439-4.44h6.26c1.31 0 2.39.456 3.187 1.253.797.796 1.195 1.878 1.195 3.187v6.26z" fill="url(#c)"/><defs><linearGradient id="a" x1="11.382" y1="15.575" x2="16.39" y2="12.862" gradientUnits="userSpaceOnUse"><stop stop-color="#933154"/><stop offset="1" stop-color="#9635D2"/></linearGradient><linearGradient id="b" x1="7.74" y1="17.744" x2="20.09" y2="11.055" gradientUnits="userSpaceOnUse"><stop stop-color="#933154"/><stop offset="1" stop-color="#9635D2"/></linearGradient><linearGradient id="c" y1="22.167" x2="28" y2="7" gradientUnits="userSpaceOnUse"><stop stop-color="#933154"/><stop offset="1" stop-color="#9635D2"/></linearGradient></defs></svg>