<svg width="876" height="180" viewBox="0 0 876 180" fill="none" xmlns="http://www.w3.org/2000/svg"><path fill-rule="evenodd" clip-rule="evenodd" d="M870.87 45.673c1.141 0 2.106.4 2.92 1.203a3.951 3.951 0 0 1 1.21 2.907c0 1.122-.408 2.081-1.21 2.896-.814.808-1.779 1.215-2.92 1.215-1.146 0-2.111-.407-2.914-1.197-.795-.802-1.196-1.773-1.196-2.914 0-1.14.401-2.111 1.196-2.907.803-.802 1.768-1.203 2.914-1.203zm-3.315-28.7h6.63V42.81h-6.63V16.973zM847.24 32.457c-2.03 0-3.722.715-5.063 2.15-1.347 1.44-2.018 3.27-2.018 5.514 0 2.262.683 4.117 2.049 5.577 1.373 1.46 3.065 2.193 5.057 2.193 2.068 0 3.785-.727 5.151-2.155 1.36-1.43 2.037-3.309 2.037-5.634 0-2.274-.677-4.117-2.037-5.52-1.372-1.423-3.089-2.125-5.176-2.125zm6.899-5.395h6.542v26.155h-6.542v-2.763c-1.278 1.222-2.563 2.093-3.853 2.632a10.957 10.957 0 0 1-4.205.808c-3.378 0-6.304-1.316-8.773-3.935-2.462-2.62-3.697-5.878-3.697-9.77 0-4.035 1.191-7.343 3.578-9.925 2.388-2.575 5.295-3.872 8.704-3.872 1.567 0 3.045.307 4.424.896 1.372.595 2.651 1.485 3.816 2.67v-2.896h.006zm-45.775 0h6.567v9.788l9.043-9.788h8.002l-11.662 12.746 11.806 13.41h-8.704l-7.789-9.225-.696.821v8.404h-6.567V27.062zm-26.08 26.155h-3.49V27.063h6.404v15.371l13.385-15.37h3.139v26.155h-6.392V38.172l-13.046 15.046zm-26.005-9.662l8.027-16.493h4.33l6.536 26.155h-6.417l-3.49-15.327-7.783 15.328h-2.694l-7.62-15.328-3.515 15.328h-6.392l6.536-26.156h4.33l8.152 16.493zm-36.081-11.098c-2.03 0-3.722.715-5.069 2.15-1.341 1.44-2.012 3.27-2.012 5.514 0 2.262.677 4.117 2.049 5.577 1.366 1.46 3.058 2.193 5.057 2.193 2.068 0 3.785-.727 5.145-2.155 1.366-1.43 2.042-3.309 2.042-5.634 0-2.274-.676-4.117-2.042-5.52-1.36-1.423-3.083-2.125-5.17-2.125zm6.905-5.395h6.542v26.155h-6.542v-2.763c-1.278 1.222-2.563 2.093-3.853 2.632a10.953 10.953 0 0 1-4.205.808c-3.384 0-6.304-1.316-8.773-3.935-2.469-2.62-3.697-5.878-3.697-9.77 0-4.035 1.191-7.343 3.578-9.925 2.388-2.575 5.289-3.872 8.704-3.872 1.567 0 3.039.307 4.418.896 1.378.595 2.65 1.485 3.822 2.67v-2.896h.006zm-38.412 5.395c-2.068 0-3.785.702-5.144 2.118-1.367 1.404-2.043 3.252-2.043 5.52 0 2.326.676 4.212 2.043 5.634 1.359 1.435 3.076 2.156 5.144 2.156 2.005 0 3.691-.733 5.057-2.193 1.372-1.454 2.049-3.315 2.049-5.577 0-2.244-.67-4.08-2.011-5.515-1.348-1.428-3.046-2.143-5.095-2.143zm-6.905-5.395v2.889c1.184-1.178 2.469-2.074 3.847-2.67a11.135 11.135 0 0 1 4.418-.896c3.415 0 6.316 1.297 8.704 3.873 2.387 2.582 3.578 5.89 3.578 9.926 0 3.897-1.228 7.15-3.697 9.769-2.469 2.619-5.389 3.935-8.773 3.935-1.51 0-2.914-.276-4.211-.808-1.303-.54-2.582-1.41-3.873-2.632V62.78h-6.516V27.056h6.523v.006zm-18.411 9.813c-.438-1.454-1.29-2.638-2.562-3.56-1.273-.908-2.758-1.365-4.443-1.365-1.817 0-3.428.514-4.806 1.541-.859.64-1.661 1.774-2.4 3.39h14.211v-.006zm6.593 5.17h-21.086c.3 1.86 1.121 3.333 2.437 4.43 1.322 1.103 3.002 1.648 5.057 1.648 2.456 0 4.562-.858 6.329-2.57l5.527 2.601c-1.379 1.95-3.027 3.397-4.957 4.343-1.917.934-4.198 1.404-6.849 1.404-4.104 0-7.444-1.304-10.02-3.886-2.581-2.588-3.872-5.834-3.872-9.719 0-3.997 1.291-7.3 3.854-9.944 2.575-2.632 5.802-3.954 9.668-3.954 4.117 0 7.47 1.322 10.052 3.954 2.575 2.644 3.872 6.122 3.872 10.446l-.012 1.247zm-52.65-14.983h6.567v9.788l9.043-9.788h7.995l-11.661 12.746 11.812 13.41h-8.704l-7.789-9.225-.696.821v8.404h-6.567V27.062zm-36.325 16.493l8.033-16.493h4.324l6.542 26.155h-6.417l-3.49-15.327-7.783 15.328h-2.694l-7.626-15.328-3.509 15.328h-6.392l6.536-26.156h4.33l8.146 16.493zm-27.904-6.68c-.432-1.454-1.291-2.638-2.563-3.56-1.272-.908-2.757-1.365-4.436-1.365-1.824 0-3.428.514-4.806 1.541-.865.64-1.667 1.774-2.407 3.39h14.212v-.006zm6.592 5.17h-21.086c.307 1.86 1.122 3.333 2.444 4.43 1.316 1.103 3.002 1.648 5.057 1.648 2.45 0 4.562-.858 6.323-2.57l5.527 2.601c-1.379 1.95-3.027 3.397-4.951 4.343-1.924.934-4.204 1.404-6.855 1.404-4.098 0-7.438-1.304-10.02-3.886-2.582-2.588-3.872-5.834-3.872-9.719 0-3.997 1.29-7.3 3.853-9.944 2.576-2.632 5.803-3.954 9.675-3.954 4.117 0 7.464 1.322 10.052 3.954 2.575 2.644 3.872 6.122 3.872 10.446l-.019 1.247zm-39.402.79h-5.264c-3.553 0-6.297-.684-8.208-2.05-1.918-1.372-2.87-3.628-2.87-6.767v-6.956h6.585v6.448c0 2.287 1.536 3.44 4.594 3.44l2.544-.031h2.625v-9.863h6.586V53.21h-6.586V42.834h-.006zm-24.808 3.721l4.681 2.363-5.928 10.145-3.271-1.573 4.518-10.935zm-15.052-9.681c-.432-1.454-1.291-2.638-2.563-3.56-1.272-.908-2.757-1.365-4.436-1.365-1.824 0-3.428.514-4.806 1.541-.865.64-1.667 1.774-2.407 3.39h14.212v-.006zm6.592 5.17h-21.086c.307 1.86 1.122 3.333 2.444 4.43 1.316 1.103 3.002 1.648 5.057 1.648 2.45 0 4.562-.858 6.323-2.57l5.527 2.601c-1.379 1.95-3.027 3.397-4.951 4.343-1.917.934-4.204 1.404-6.855 1.404-4.098 0-7.438-1.304-10.02-3.886-2.581-2.588-3.872-5.834-3.872-9.719 0-3.997 1.291-7.3 3.853-9.944 2.576-2.632 5.803-3.954 9.676-3.954 4.116 0 7.463 1.322 10.044 3.954 2.576 2.644 3.873 6.122 3.873 10.446l-.013 1.247zm-32.835 11.172h-37.742V27.063h6.586V46.92h8.992V27.062h6.586V46.92h9.005V27.062h6.567v26.155h.006zM397.93 48.18h1.993c1.19 0 2.043-.081 2.575-.257a3.007 3.007 0 0 0 1.398-.977c.388-.476.595-1.065.595-1.748 0-2.244-1.278-3.372-3.841-3.372h-2.714v6.354h-.006zm0-11.686h1.943c2.738 0 4.85.207 6.304.639 1.466.413 2.707 1.303 3.715 2.65 1.016 1.342 1.523 3.034 1.523 5.064 0 2.024-.464 3.703-1.372 5.044-.915 1.335-2.087 2.23-3.503 2.663-1.416.445-3.403.665-5.978.665h-9.224V27.062h6.586v9.43h.006zm-10.032 16.724h-6.68L374.682 36.7l-6.667 16.517h-6.648l11.147-26.155h4.236l11.148 26.155zM345.4 32.57c-2.036 0-3.735.715-5.088 2.137-1.354 1.416-2.024 3.233-2.024 5.439 0 2.281.664 4.117 2.011 5.527 1.335 1.416 3.027 2.118 5.076 2.118 2.049 0 3.76-.714 5.12-2.143 1.359-1.429 2.042-3.259 2.042-5.502s-.664-4.067-2.005-5.47c-1.341-1.404-3.045-2.106-5.132-2.106zm-.1-6.178c2.469 0 4.787.626 6.968 1.86 2.162 1.229 3.86 2.908 5.076 5.02a13.482 13.482 0 0 1 1.829 6.855 13.78 13.78 0 0 1-1.836 6.924c-1.234 2.15-2.895 3.823-5.019 5.039-2.118 1.203-4.443 1.817-6.993 1.817-3.747 0-6.949-1.341-9.6-4.004-2.651-2.67-3.979-5.91-3.979-9.726 0-4.085 1.504-7.488 4.493-10.214 2.632-2.38 5.652-3.571 9.061-3.571zm-32.848 10.821v9.594h1.679c3.077 0 5.02-.401 5.841-1.203.814-.796 1.221-1.874 1.221-3.246 0-3.428-2.45-5.145-7.35-5.145h-1.391zm-6.736 16.005V17.857h18.485v6.567h-11.749v6.774h1.46c2.989 0 5.414.332 7.313.996 1.886.652 3.465 1.886 4.725 3.703 1.253 1.824 1.886 3.973 1.886 6.455 0 2.469-.477 4.43-1.423 5.896-.952 1.467-2.249 2.663-3.904 3.585-1.666.92-3.954 1.378-6.892 1.378h-9.901v.007z" fill="#DD2B1C"/><path d="M870.87 45.673c1.141 0 2.106.4 2.92 1.203a3.951 3.951 0 0 1 1.21 2.907c0 1.122-.408 2.081-1.21 2.896-.814.808-1.779 1.215-2.92 1.215-1.146 0-2.111-.407-2.914-1.197-.795-.802-1.196-1.773-1.196-2.914 0-1.14.401-2.111 1.196-2.907.803-.802 1.768-1.203 2.914-1.203zm-3.315-28.7h6.63V42.81h-6.63V16.973zM847.24 32.457c-2.03 0-3.722.715-5.063 2.15-1.347 1.44-2.018 3.27-2.018 5.514 0 2.262.683 4.117 2.049 5.577 1.373 1.46 3.065 2.193 5.057 2.193 2.068 0 3.785-.727 5.151-2.155 1.36-1.43 2.037-3.309 2.037-5.634 0-2.274-.677-4.117-2.037-5.52-1.372-1.423-3.089-2.125-5.176-2.125zm6.899-5.395h6.542v26.155h-6.542v-2.763c-1.278 1.222-2.563 2.093-3.853 2.632a10.957 10.957 0 0 1-4.205.808c-3.378 0-6.304-1.316-8.773-3.935-2.462-2.62-3.697-5.878-3.697-9.77 0-4.035 1.191-7.343 3.578-9.925 2.388-2.575 5.295-3.872 8.704-3.872 1.567 0 3.045.307 4.424.896 1.372.595 2.651 1.485 3.816 2.67v-2.896h.006zm-45.775 0h6.567v9.788l9.043-9.788h8.002l-11.662 12.746 11.806 13.41h-8.704l-7.789-9.225-.696.821v8.404h-6.567V27.062zm-26.08 26.155h-3.49V27.063h6.404v15.371l13.385-15.37h3.139v26.155h-6.392V38.172l-13.046 15.046zm-26.005-9.662l8.027-16.493h4.33l6.536 26.155h-6.417l-3.49-15.327-7.783 15.328h-2.694l-7.62-15.328-3.515 15.328h-6.392l6.536-26.156h4.33l8.152 16.493zm-36.081-11.098c-2.03 0-3.722.715-5.069 2.15-1.341 1.44-2.012 3.27-2.012 5.514 0 2.262.677 4.117 2.049 5.577 1.366 1.46 3.058 2.193 5.057 2.193 2.068 0 3.785-.727 5.145-2.155 1.366-1.43 2.042-3.309 2.042-5.634 0-2.274-.676-4.117-2.042-5.52-1.36-1.423-3.083-2.125-5.17-2.125zm6.905-5.395h6.542v26.155h-6.542v-2.763c-1.278 1.222-2.563 2.093-3.853 2.632a10.953 10.953 0 0 1-4.205.808c-3.384 0-6.304-1.316-8.773-3.935-2.469-2.62-3.697-5.878-3.697-9.77 0-4.035 1.191-7.343 3.578-9.925 2.388-2.575 5.289-3.872 8.704-3.872 1.567 0 3.039.307 4.418.896 1.378.595 2.65 1.485 3.822 2.67v-2.896h.006zm-38.412 5.395c-2.068 0-3.785.702-5.144 2.118-1.367 1.404-2.043 3.252-2.043 5.52 0 2.326.676 4.212 2.043 5.634 1.359 1.435 3.076 2.156 5.144 2.156 2.005 0 3.691-.733 5.057-2.193 1.372-1.454 2.049-3.315 2.049-5.577 0-2.244-.67-4.08-2.011-5.515-1.348-1.428-3.046-2.143-5.095-2.143zm-6.905-5.395v2.889c1.184-1.178 2.469-2.074 3.847-2.67a11.135 11.135 0 0 1 4.418-.896c3.415 0 6.316 1.297 8.704 3.873 2.387 2.582 3.578 5.89 3.578 9.926 0 3.897-1.228 7.15-3.697 9.769-2.469 2.619-5.389 3.935-8.773 3.935-1.51 0-2.914-.276-4.211-.808-1.303-.54-2.582-1.41-3.873-2.632V62.78h-6.516V27.056h6.523v.006zm-18.411 9.813c-.438-1.454-1.29-2.638-2.562-3.56-1.273-.908-2.758-1.365-4.443-1.365-1.817 0-3.428.514-4.806 1.541-.859.64-1.661 1.774-2.4 3.39h14.211v-.006zm6.593 5.17h-21.086c.3 1.86 1.121 3.333 2.437 4.43 1.322 1.103 3.002 1.648 5.057 1.648 2.456 0 4.562-.858 6.329-2.57l5.527 2.601c-1.379 1.95-3.027 3.397-4.957 4.343-1.917.934-4.198 1.404-6.849 1.404-4.104 0-7.444-1.304-10.02-3.886-2.581-2.588-3.872-5.834-3.872-9.719 0-3.997 1.291-7.3 3.854-9.944 2.575-2.632 5.802-3.954 9.668-3.954 4.117 0 7.47 1.322 10.052 3.954 2.575 2.644 3.872 6.122 3.872 10.446l-.012 1.247zm-52.65-14.983h6.567v9.788l9.043-9.788h7.995l-11.661 12.746 11.812 13.41h-8.704l-7.789-9.225-.696.821v8.404h-6.567V27.062zm-36.325 16.493l8.033-16.493h4.324l6.542 26.155h-6.417l-3.49-15.327-7.783 15.328h-2.694l-7.626-15.328-3.509 15.328h-6.392l6.536-26.156h4.33l8.146 16.493zm-27.904-6.68c-.432-1.454-1.291-2.638-2.563-3.56-1.272-.908-2.757-1.365-4.436-1.365-1.824 0-3.428.514-4.806 1.541-.865.64-1.667 1.774-2.407 3.39h14.212v-.006zm6.592 5.17h-21.086c.307 1.86 1.122 3.333 2.444 4.43 1.316 1.103 3.002 1.648 5.057 1.648 2.45 0 4.562-.858 6.323-2.57l5.527 2.601c-1.379 1.95-3.027 3.397-4.951 4.343-1.924.934-4.204 1.404-6.855 1.404-4.098 0-7.438-1.304-10.02-3.886-2.582-2.588-3.872-5.834-3.872-9.719 0-3.997 1.29-7.3 3.853-9.944 2.576-2.632 5.803-3.954 9.675-3.954 4.117 0 7.464 1.322 10.052 3.954 2.575 2.644 3.872 6.122 3.872 10.446l-.019 1.247zm-39.402.79h-5.264c-3.553 0-6.297-.684-8.208-2.05-1.918-1.372-2.87-3.628-2.87-6.767v-6.956h6.585v6.448c0 2.287 1.536 3.44 4.594 3.44l2.544-.031h2.625v-9.863h6.586V53.21h-6.586V42.834h-.006zm-24.808 3.721l4.681 2.363-5.928 10.145-3.271-1.573 4.518-10.935zm-15.052-9.681c-.432-1.454-1.291-2.638-2.563-3.56-1.272-.908-2.757-1.365-4.436-1.365-1.824 0-3.428.514-4.806 1.541-.865.64-1.667 1.774-2.407 3.39h14.212v-.006zm6.592 5.17h-21.086c.307 1.86 1.122 3.333 2.444 4.43 1.316 1.103 3.002 1.648 5.057 1.648 2.45 0 4.562-.858 6.323-2.57l5.527 2.601c-1.379 1.95-3.027 3.397-4.951 4.343-1.917.934-4.204 1.404-6.855 1.404-4.098 0-7.438-1.304-10.02-3.886-2.581-2.588-3.872-5.834-3.872-9.719 0-3.997 1.291-7.3 3.853-9.944 2.576-2.632 5.803-3.954 9.676-3.954 4.116 0 7.463 1.322 10.044 3.954 2.576 2.644 3.873 6.122 3.873 10.446l-.013 1.247zm-32.835 11.172h-37.742V27.063h6.586V46.92h8.992V27.062h6.586V46.92h9.005V27.062h6.567v26.155h.006zM397.93 48.18h1.993c1.19 0 2.043-.081 2.575-.257a3.007 3.007 0 0 0 1.398-.977c.388-.476.595-1.065.595-1.748 0-2.244-1.278-3.372-3.841-3.372h-2.714v6.354h-.006zm0-11.686h1.943c2.738 0 4.85.207 6.304.639 1.466.413 2.707 1.303 3.715 2.65 1.016 1.342 1.523 3.034 1.523 5.064 0 2.024-.464 3.703-1.372 5.044-.915 1.335-2.087 2.23-3.503 2.663-1.416.445-3.403.665-5.978.665h-9.224V27.062h6.586v9.43h.006zm-10.032 16.724h-6.68L374.682 36.7l-6.667 16.517h-6.648l11.147-26.155h4.236l11.148 26.155zM345.4 32.57c-2.036 0-3.735.715-5.088 2.137-1.354 1.416-2.024 3.233-2.024 5.439 0 2.281.664 4.117 2.011 5.527 1.335 1.416 3.027 2.118 5.076 2.118 2.049 0 3.76-.714 5.12-2.143 1.359-1.429 2.042-3.259 2.042-5.502s-.664-4.067-2.005-5.47c-1.341-1.404-3.045-2.106-5.132-2.106zm-.1-6.178c2.469 0 4.787.626 6.968 1.86 2.162 1.229 3.86 2.908 5.076 5.02a13.482 13.482 0 0 1 1.829 6.855 13.78 13.78 0 0 1-1.836 6.924c-1.234 2.15-2.895 3.823-5.019 5.039-2.118 1.203-4.443 1.817-6.993 1.817-3.747 0-6.949-1.341-9.6-4.004-2.651-2.67-3.979-5.91-3.979-9.726 0-4.085 1.504-7.488 4.493-10.214 2.632-2.38 5.652-3.571 9.061-3.571zm-32.848 10.821v9.594h1.679c3.077 0 5.02-.401 5.841-1.203.814-.796 1.221-1.874 1.221-3.246 0-3.428-2.45-5.145-7.35-5.145h-1.391zm-6.736 16.005V17.857h18.485v6.567h-11.749v6.774h1.46c2.989 0 5.414.332 7.313.996 1.886.652 3.465 1.886 4.725 3.703 1.253 1.824 1.886 3.973 1.886 6.455 0 2.469-.477 4.43-1.423 5.896-.952 1.467-2.249 2.663-3.904 3.585-1.666.92-3.954 1.378-6.892 1.378h-9.901v.007z" stroke="#fff" stroke-width=".216"/><path fill-rule="evenodd" clip-rule="evenodd" d="M604.429 93.766l-5.715 12.044h11.367l-5.652-12.044zm9.719 20.83h-19.557l-7.977 16.799h-9.957l25.942-54.917h3.697l25.61 54.917h-9.738l-8.02-16.799zm-74.08-21.487l17.677-16.625h12.57l-26.707 24.927 28.18 29.991h-12.075l-19.645-20.867v20.867h-9.074V76.484h9.074V93.11zm-36.119 2.456l-30.811 35.83h-3.967V76.478h8.967v36.488l31.006-36.488h3.973v54.917h-9.174v-35.83h.006zm-80.973 20.372l19.344-39.453h3.704l7.883 54.918h-8.942l-4.374-31.94-15.791 31.94h-3.672l-16.017-32.221-4.349 32.221h-8.841l7.801-54.918h3.716l19.538 39.453zm-68.145-22.17l-5.715 12.043h11.361l-5.646-12.044zm9.719 20.829h-19.557l-7.984 16.799h-9.957l25.936-54.917h3.698l25.61 54.917h-9.738l-8.008-16.799zm-65.815-29.289v13.51c3.541.044 10.665.433 13.679-.746 5.414-2.118 5.145-10.02.144-11.987-2.732-1.078-10.502-.777-13.823-.777zm0 22.352v23.743h-8.967V76.484c5.665 0 19.57-.357 24.363.827 12.351 3.046 14.043 17.258 8.253 24.345-5.558 6.786-15.296 6.003-23.649 6.003zm-47.329-22.283v12.106h23.95v8.861h-23.95v16.154h23.95v8.898h-32.917V76.478h33.117v8.898h-24.15zm-51.208 7.733l17.677-16.625h12.57l-26.706 24.927 28.179 29.991h-12.075l-19.645-20.867v20.867h-9.073V76.484h9.073V93.11z" fill="#fff"/><path d="M604.429 93.766l-5.715 12.044h11.367l-5.652-12.044zm9.719 20.83h-19.557l-7.977 16.799h-9.957l25.942-54.917h3.697l25.61 54.917h-9.738l-8.02-16.799zm-74.08-21.487l17.677-16.625h12.57l-26.707 24.927 28.18 29.991h-12.075l-19.645-20.867v20.867h-9.074V76.484h9.074V93.11zm-36.119 2.456l-30.811 35.83h-3.967V76.478h8.967v36.488l31.006-36.488h3.973v54.917h-9.174v-35.83h.006zm-80.973 20.372l19.344-39.453h3.704l7.883 54.918h-8.942l-4.374-31.94-15.791 31.94h-3.672l-16.017-32.221-4.349 32.221h-8.841l7.801-54.918h3.716l19.538 39.453zm-68.145-22.17l-5.715 12.043h11.361l-5.646-12.044zm9.719 20.829h-19.557l-7.984 16.799h-9.957l25.936-54.917h3.698l25.61 54.917h-9.738l-8.008-16.799zm-65.815-29.289v13.51c3.541.044 10.665.433 13.679-.746 5.414-2.118 5.145-10.02.144-11.987-2.732-1.078-10.502-.777-13.823-.777zm0 22.352v23.743h-8.967V76.484c5.665 0 19.57-.357 24.363.827 12.351 3.046 14.043 17.258 8.253 24.345-5.558 6.786-15.296 6.003-23.649 6.003zm-47.329-22.283v12.106h23.95v8.861h-23.95v16.154h23.95v8.898h-32.917V76.478h33.117v8.898h-24.15zm-51.208 7.733l17.677-16.625h12.57l-26.706 24.927 28.179 29.991h-12.075l-19.645-20.867v20.867h-9.073V76.484h9.073V93.11z" stroke="#fff" stroke-width=".567"/><path fill-rule="evenodd" clip-rule="evenodd" d="M44.695 108.436l-17.22-.006 6.918-21.024 3.29-.006 7.012 21.036zm119.529-29.69l-98.23-.019-.007 47.937-17.044-47.937-29.05-.006L47.145.901l131.754 46.138-14.675 41.909V78.746zM100.17 95.878c0 9.331-9.562 8.785-16.11 8.779h-2.07V87.099h2.068c6.586.006 16.111-.451 16.111 8.78zm50.155 32.748l-17.57 50.174L1 132.661l1.416-4.06h20.366l3.628-11.649h19.237l3.703 11.655 33.174.006v-15.59h2.068c13.899 0 35.342.188 32.033-20.046l-.395-2.406 13.222.006-.006 38.042 16.549.007.006-38.043 17.634.007-13.31 38.036z" fill="#fff"/><path d="M44.695 108.436l-17.22-.006 6.918-21.024 3.29-.006 7.012 21.036zm119.529-29.69l-98.23-.019-.007 47.937-17.044-47.937-29.05-.006L47.145.901l131.754 46.138-14.675 41.909V78.746zM100.17 95.878c0 9.331-9.562 8.785-16.11 8.779h-2.07V87.099h2.068c6.586.006 16.111-.451 16.111 8.78zm50.155 32.748l-17.57 50.174L1 132.661l1.416-4.06h20.366l3.628-11.649h19.237l3.703 11.655 33.174.006v-15.59h2.068c13.899 0 35.342.188 32.033-20.046l-.395-2.406 13.222.006-.006 38.042 16.549.007.006-38.043 17.634.007-13.31 38.036z" stroke="#fff" stroke-width=".567"/><path fill-rule="evenodd" clip-rule="evenodd" d="M41.825 106.368l-5.634-16.9h-.3l-5.559 16.9h11.493zm105.586 24.325l-15.922 45.475L3.632 131.395l.257-.727h20.415l3.628-11.649h16.205l3.703 11.656h16.073l20.679.006V115.09c12 0 37.88.834 34.076-22.452h8.723l-.007 38.043 20.027.012zm13.322-38.042l-12.664 36.163.007-36.163h12.657zM48.404 3.545l127.851 44.772-9.97 28.48v-.112c-34.12-.007-68.24-.013-102.365-.013l-.007 38.03-13.522-38.036H22.8L48.403 3.545zm49.698 92.333c0-7.438-8.334-6.717-14.043-6.717v13.428c5.427.007 14.043.89 14.043-6.71z" fill="#fff"/><path d="M41.825 106.368l-5.634-16.9h-.3l-5.559 16.9h11.493zm105.586 24.325l-15.922 45.475L3.632 131.395l.257-.727h20.415l3.628-11.649h16.205l3.703 11.656h16.073l20.679.006V115.09c12 0 37.88.834 34.076-22.452h8.723l-.007 38.043 20.027.012zm13.322-38.042l-12.664 36.163.007-36.163h12.657zM48.404 3.545l127.851 44.772-9.97 28.48v-.112c-34.12-.007-68.24-.013-102.365-.013l-.007 38.03-13.522-38.036H22.8L48.403 3.545zm49.698 92.333c0-7.438-8.334-6.717-14.043-6.717v13.428c5.427.007 14.043.89 14.043-6.71z" stroke="#fff" stroke-width=".567"/><path fill-rule="evenodd" clip-rule="evenodd" d="M602.618 90.759l-5.715 12.043h11.367l-5.652-12.043zm9.725 20.835h-19.557l-7.983 16.8h-9.951l25.943-54.918h3.697l25.604 54.918h-9.732l-8.021-16.8zm-74.086-21.493l17.671-16.625h12.57l-26.7 24.927 28.179 29.991h-12.075l-19.645-20.867v20.867h-9.08V73.476h9.08v16.625zm-36.118 2.456l-30.812 35.831h-3.966V73.476h8.967v36.489l31.005-36.489h3.973v54.918h-9.174V92.557h.007zm-80.973 20.372l19.338-39.453h3.709l7.883 54.918h-8.942l-4.374-31.94-15.791 31.94h-3.672l-16.016-32.221-4.349 32.221h-8.842l7.802-54.918h3.716l19.538 39.453zm-68.146-22.17l-5.715 12.043h11.361l-5.646-12.043zm9.719 20.835h-19.551l-7.983 16.8h-9.957l25.942-54.918h3.698l25.61 54.918h-9.738l-8.021-16.8zm-65.814-29.295v13.51c3.534.044 10.665.433 13.679-.745 5.408-2.118 5.144-10.02.144-11.988-2.732-1.071-10.502-.777-13.823-.777zm0 22.352v23.743h-8.967V73.476c5.664 0 19.569-.357 24.363.828 12.351 3.045 14.042 17.257 8.252 24.344-5.558 6.793-15.295 6.003-23.648 6.003zm-47.33-22.277v12.107h23.95v8.86h-23.95v16.149h23.95v8.904h-32.917V73.476h33.124v8.898h-24.157zm-51.207 7.727l17.677-16.625h12.57l-26.707 24.927 28.179 29.991h-12.075l-19.644-20.867v20.867h-9.074V73.476h9.074v16.625z" fill="#151616"/><path fill-rule="evenodd" clip-rule="evenodd" d="M40.014 103.36l-5.627-16.9h-.314l-5.558 16.9h11.499zM145.6 127.686l-15.922 45.48L1.821 128.387l.25-.726 20.416.006 3.628-11.655 16.205.006 3.703 11.655h16.073l20.679.006v-15.59c12 0 37.879.833 34.076-22.452h8.722l-.006 38.042H145.6v.007zm13.322-38.043l-12.664 36.163.006-36.163h12.658zM46.593.537l127.851 44.772-9.97 28.474v-.106l-102.365-.02-.007 38.037L48.58 73.658H20.99L46.592.537zm49.698 92.34c0-7.438-8.334-6.718-14.043-6.718v13.422c5.427.013 14.043.884 14.043-6.704z" fill="#DD2B1C"/><path d="M40.014 103.36l-5.627-16.9h-.314l-5.558 16.9h11.499zM145.6 127.686l-15.922 45.48L1.821 128.387l.25-.726 20.416.006 3.628-11.655 16.205.006 3.703 11.655h16.073l20.679.006v-15.59c12 0 37.879.833 34.076-22.452h8.722l-.006 38.042H145.6v.007zm13.322-38.043l-12.664 36.163.006-36.163h12.658zM46.593.537l127.851 44.772-9.97 28.474v-.106l-102.365-.02-.007 38.037L48.58 73.658H20.99L46.592.537zm49.698 92.34c0-7.438-8.334-6.718-14.043-6.718v13.422c5.427.013 14.043.884 14.043-6.704z" stroke="#000" stroke-width=".567"/></svg>