<svg width="376" height="76" viewBox="0 0 376 76" fill="none" xmlns="http://www.w3.org/2000/svg"><path fill-rule="evenodd" clip-rule="evenodd" d="M374.223 19.636c.491 0 .906.169 1.256.507.345.336.521.746.521 1.228 0 .473-.176.878-.521 1.222-.35.341-.765.513-1.256.513a1.74 1.74 0 0 1-1.254-.505 1.669 1.669 0 0 1-.515-1.23c0-.482.173-.892.515-1.228a1.721 1.721 0 0 1 1.254-.508zM372.796 7.52h2.853v10.907h-2.853V7.52zm-8.74 6.537c-.874 0-1.602.301-2.179.907-.579.608-.868 1.38-.868 2.328 0 .955.294 1.738.882 2.354a2.9 2.9 0 0 0 2.176.926c.889 0 1.628-.307 2.216-.91.585-.603.876-1.397.876-2.378 0-.96-.291-1.738-.876-2.33-.591-.601-1.329-.898-2.227-.898zm2.968-2.278h2.815V22.82h-2.815v-1.166c-.55.516-1.103.883-1.658 1.11a4.79 4.79 0 0 1-1.809.342c-1.453 0-2.712-.555-3.775-1.661-1.059-1.106-1.59-2.481-1.59-4.124 0-1.704.512-3.1 1.539-4.19 1.028-1.088 2.278-1.635 3.745-1.635a4.9 4.9 0 0 1 1.904.378c.59.252 1.14.627 1.642 1.127V11.78h.002zm-19.695 0h2.826v4.132l3.89-4.132h3.443l-5.017 5.38 5.079 5.661h-3.745l-3.351-3.893-.299.346v3.547h-2.826V11.78zM336.108 22.82h-1.501V11.78h2.755v6.489l5.759-6.489h1.35v11.04h-2.75v-6.35l-5.613 6.35zm-11.189-4.079l3.454-6.962h1.863l2.812 11.041h-2.761l-1.501-6.47-3.349 6.47h-1.159l-3.279-6.47-1.512 6.47h-2.75l2.812-11.041h1.863l3.507 6.962zm-15.524-4.684c-.873 0-1.601.301-2.181.907-.577.608-.865 1.38-.865 2.328 0 .955.291 1.738.881 2.354a2.895 2.895 0 0 0 2.176.926c.89 0 1.629-.307 2.214-.91.587-.603.878-1.397.878-2.378 0-.96-.291-1.738-.878-2.33-.585-.601-1.327-.898-2.225-.898zm2.971-2.278h2.815V22.82h-2.815v-1.166c-.55.516-1.102.883-1.658 1.11a4.79 4.79 0 0 1-1.809.342c-1.456 0-2.712-.555-3.774-1.661-1.063-1.106-1.591-2.481-1.591-4.124 0-1.704.512-3.1 1.539-4.19 1.028-1.088 2.276-1.635 3.745-1.635.675 0 1.308.13 1.901.378.593.252 1.14.627 1.645 1.127V11.78h.002zm-16.527 2.277c-.889 0-1.628.297-2.213.895-.588.592-.879 1.373-.879 2.33 0 .982.291 1.778.879 2.378.585.606 1.324.91 2.213.91.863 0 1.588-.31 2.176-.926.59-.613.882-1.399.882-2.354 0-.947-.289-1.722-.866-2.328-.58-.603-1.31-.905-2.192-.905zm-2.971-2.277v1.22a5.391 5.391 0 0 1 1.656-1.128 4.867 4.867 0 0 1 1.9-.378c1.47 0 2.718.548 3.745 1.635 1.027 1.09 1.54 2.487 1.54 4.19 0 1.646-.529 3.018-1.591 4.124-1.062 1.106-2.318 1.662-3.774 1.662-.65 0-1.254-.117-1.812-.342-.561-.227-1.111-.595-1.667-1.11v5.205h-2.803v-15.08h2.806v.002zm-7.921 4.143a2.818 2.818 0 0 0-1.102-1.503c-.548-.384-1.187-.577-1.912-.577-.782 0-1.475.217-2.068.651-.369.27-.714.749-1.032 1.431h6.114v-.002zm2.837 2.182h-9.073c.129.786.483 1.407 1.049 1.87.569.466 1.291.696 2.176.696a3.817 3.817 0 0 0 2.723-1.085l2.378 1.098c-.594.823-1.303 1.434-2.133 1.833-.825.394-1.806.593-2.947.593-1.766 0-3.203-.55-4.311-1.64-1.11-1.093-1.666-2.463-1.666-4.103 0-1.688.556-3.082 1.658-4.198 1.108-1.111 2.497-1.67 4.16-1.67 1.771 0 3.214.559 4.325 1.67 1.108 1.116 1.666 2.584 1.666 4.41l-.005.526zm-22.653-6.325h2.825v4.132l3.891-4.132h3.44l-5.017 5.38 5.082 5.661h-3.745l-3.351-3.893-.3.346v3.547h-2.825V11.78zm-15.629 6.962l3.456-6.962h1.86l2.815 11.041h-2.761l-1.501-6.47-3.349 6.47h-1.159l-3.281-6.47-1.51 6.47h-2.75l2.812-11.041h1.863l3.505 6.962zm-12.006-2.82c-.186-.613-.556-1.113-1.103-1.502-.547-.384-1.186-.577-1.908-.577-.785 0-1.475.217-2.068.651-.372.27-.717.749-1.036 1.431h6.115v-.002zm2.836 2.183h-9.072c.132.786.483 1.407 1.051 1.87.567.466 1.292.696 2.176.696a3.81 3.81 0 0 0 2.721-1.085l2.378 1.098c-.594.823-1.303 1.434-2.131 1.833-.827.394-1.808.593-2.949.593-1.763 0-3.2-.55-4.311-1.64-1.111-1.093-1.666-2.463-1.666-4.103 0-1.688.555-3.082 1.658-4.198 1.108-1.111 2.497-1.67 4.162-1.67 1.772 0 3.212.559 4.325 1.67 1.108 1.116 1.666 2.584 1.666 4.41l-.008.526zm-16.953.333h-2.265c-1.528 0-2.709-.288-3.531-.865-.825-.58-1.235-1.531-1.235-2.857V11.78h2.833v2.722c0 .966.661 1.452 1.977 1.452l1.094-.013h1.13v-4.164h2.833v11.042h-2.833v-4.38h-.003zm-10.674 1.572l2.015.997-2.551 4.282-1.407-.663 1.943-4.616zm-6.476-4.088c-.186-.613-.555-1.113-1.102-1.502-.548-.384-1.187-.577-1.909-.577-.785 0-1.475.217-2.068.651-.372.27-.717.749-1.035 1.431h6.114v-.002zm2.837 2.183h-9.073c.132.786.483 1.407 1.052 1.87.566.466 1.291.696 2.176.696a3.809 3.809 0 0 0 2.72-1.085l2.378 1.098c-.593.823-1.302 1.434-2.13 1.833-.825.394-1.809.593-2.95.593-1.763 0-3.2-.55-4.311-1.64-1.11-1.093-1.666-2.463-1.666-4.103 0-1.688.556-3.082 1.658-4.198 1.108-1.111 2.497-1.67 4.163-1.67 1.771 0 3.211.559 4.322 1.67 1.108 1.116 1.666 2.584 1.666 4.41l-.005.526zm-14.128 4.716h-16.239V11.78h2.834v8.383h3.869V11.78h2.834v8.383h3.874V11.78h2.826v11.04h.002zm-24.2-2.126h.858c.512 0 .879-.035 1.107-.109.227-.074.429-.206.602-.413.167-.2.256-.45.256-.738 0-.947-.55-1.423-1.653-1.423h-1.167v2.683h-.003zm0-4.934h.836c1.178 0 2.087.087 2.712.27.631.174 1.165.55 1.599 1.119.437.566.655 1.28.655 2.137 0 .855-.2 1.564-.59 2.13-.394.563-.898.942-1.507 1.124-.61.188-1.465.28-2.573.28h-3.968V11.78h2.833v3.981h.003zm-4.316 7.06h-2.874l-2.813-6.973-2.868 6.973h-2.86l4.796-11.041h1.822l4.797 11.041zm-18.285-8.716c-.876 0-1.607.302-2.189.902-.583.598-.871 1.365-.871 2.296 0 .963.285 1.738.865 2.334.574.597 1.302.894 2.184.894.882 0 1.618-.302 2.203-.905.585-.603.878-1.376.878-2.323 0-.947-.285-1.716-.862-2.309-.577-.593-1.31-.889-2.208-.889zm-.043-2.608c1.062 0 2.059.264 2.998.786a5.71 5.71 0 0 1 2.184 2.118c.525.894.787 1.857.787 2.894a5.74 5.74 0 0 1-.79 2.924 5.677 5.677 0 0 1-2.16 2.126 6.07 6.07 0 0 1-3.009.767c-1.612 0-2.989-.566-4.13-1.69-1.141-1.127-1.712-2.494-1.712-4.105 0-1.725.647-3.162 1.933-4.312 1.133-1.005 2.432-1.508 3.899-1.508zm-14.133 4.568v4.05h.722c1.324 0 2.16-.169 2.513-.508.35-.336.526-.79.526-1.37 0-1.447-1.055-2.172-3.163-2.172h-.598zm-2.899 6.756V7.893h7.954v2.772h-5.055v2.86h.628c1.286 0 2.329.14 3.146.42.812.275 1.491.797 2.033 1.564.539.77.812 1.677.812 2.724 0 1.043-.205 1.87-.613 2.49-.409.619-.967 1.124-1.679 1.513-.717.389-1.701.582-2.966.582h-4.26v.002z" fill="#DD2B1C"/><path fill-rule="evenodd" clip-rule="evenodd" d="M258.865 38.607l-2.465 5.178h4.903l-2.438-5.178zm4.195 8.958h-8.436l-3.444 7.224h-4.293l11.192-23.613h1.595l11.045 23.613h-4.198l-3.461-7.224zm-31.959-9.241l7.623-7.148h5.422l-11.518 10.718 12.156 12.895h-5.209l-8.474-8.972v8.972h-3.917V31.176h3.917v7.148zM215.52 39.38l-13.292 15.406h-1.711v-23.61h3.868v15.689l13.375-15.689h1.714v23.613h-3.957V39.38h.003zm-34.931 8.76l8.342-16.964h1.6l3.401 23.613h-3.858l-1.887-13.733-6.812 13.733h-1.584l-6.909-13.854-1.876 13.854h-3.814l3.365-23.613h1.603l8.429 16.963zm-29.398-9.533l-2.465 5.178h4.901l-2.436-5.178zm4.193 8.958h-8.434l-3.444 7.224h-4.295l11.191-23.613h1.595l11.048 23.613h-4.201l-3.46-7.224zM126.993 34.97v5.81c1.524.018 4.6.185 5.901-.321 2.332-.91 2.219-4.308.062-5.154-1.179-.461-4.531-.335-5.963-.335zm0 9.611V54.79h-3.869V31.176c2.444 0 8.442-.153 10.51.356 5.328 1.31 6.058 7.42 3.56 10.467-2.398 2.92-6.598 2.581-10.201 2.581zm-20.418-9.578v5.205h10.332v3.81h-10.332v6.943h10.332v3.829h-14.2V31.176h14.289v3.826h-10.421zm-22.09 3.322l7.625-7.148h5.423L86.012 41.894l12.156 12.895h-5.21l-8.473-8.972v8.972H80.57V31.176h3.915v7.148z" fill="#fff"/><path fill-rule="evenodd" clip-rule="evenodd" d="M16.638 44.791l-2.451-7.362h-.137l-2.421 7.362h5.009zm45.997 10.597L55.699 75.2 0 55.694l.11-.317 8.893.003 1.58-5.077 7.06.002 1.613 5.078h7.002l9.008.002v-6.791c5.227 0 16.501.363 14.845-9.78h3.8l-.003 16.571h8.727v.003zm5.803-16.572L62.921 54.57l.003-15.753h5.514zM19.504 0L75.2 19.504l-4.343 12.403v-.046l-44.594-.008-.003 16.569-5.89-16.57H8.35L19.504 0zm21.65 40.225c0-3.24-3.63-2.927-6.117-2.927v5.847c2.364.006 6.117.385 6.117-2.92z" fill="#DD2B1C"/></svg>