<svg width="50" height="50" viewBox="0 0 50 50" fill="none" xmlns="http://www.w3.org/2000/svg"><path d="M25 41h.5V.992l24 17.76V49.5H.5V41H25z" stroke="#000"/><path stroke="#000" stroke-linejoin="round" d="M45.5 43.5h4v2h-4zm-2-2h4v2h-4zm-2 2h4v2h-4zm-4 0h4v2h-4zm6 2h4v2h-4zm-4 0h4v2h-4zm2 2h4v2h-4zm-2-6h4v2h-4zm-4 0h4v2h-4zm-2 2h4v2h-4zm8-4h4v2h-4zm-8-4h4v2h-4zm4 4h4v2h-4zm-2-2h4v2h-4zm2-2h4v2h-4zm8 4h4v2h-4zm-14 2h4v2h-4zm-2-2h4v2h-4zm-2 2h4v2h-4zm-4 0h4v2h-4zm6 2h4v2h-4zm-4 0h4v2h-4zm2 2h4v2h-4zm-2-6h4v2h-4zm6 6h4v2h-4zm-12-4h4v2h-4zm8-4h4v2h-4zm0-8h4v2h-4zm15 8h4v2h-4zm-11-4h4v2h-4zm2-2h4v2h-4zm-8 0h4v2h-4zm4 4h4v2h-4zm0-4h4v2h-4zm2 6h4v2h-4z"/><path fill="#000" d="M27 19h2v2h-2zm4 0h2v2h-2zm4 0h2v2h-2zm4 0h2v2h-2zm-12-4h2v2h-2zm4 0h2v2h-2zm4 0h2v2h-2zm-8-4h2v2h-2zm4 0h2v2h-2zm-4-4h2v2h-2zm8 4h2v2h-2zm4 4h2v2h-2zm4 4h2v2h-2zm-16 4h2v2h-2zm4 0h2v2h-2zm4 0h2v2h-2zm4 0h2v2h-2zm4 0h2v2h-2zM3 45h2v2H3zm4 0h2v2H7zm4 0h2v2h-2zm4 0h2v2h-2zm4 0h2v2h-2zm16-18h2v2h-2zm4 0h2v2h-2zm4 0h2v2h-2z"/><path stroke="#000" stroke-linejoin="round" d="M23.5 11.5h2v9h-2z"/><path d="M46 8h1v9l-1-.627V8zm-3-5h1v12l-1-.836V3zM7 27h1v14H7zm-4 6h1v8H3zm8 4h1v4h-1z" fill="#000"/></svg>