<svg width="50" height="48" viewBox="0 0 50 48" fill="none" xmlns="http://www.w3.org/2000/svg"><rect x=".5" y="25.5" width="49" height="5" rx="2.5" stroke="#000"/><path d="M4 34.5h42m-43-9V8a7 7 0 0 1 7-7h1.5A5.5 5.5 0 0 1 17 6.5" stroke="#000"/><rect x="13.5" y="6.5" width="7" height="3" rx="1.5" stroke="#000"/><rect x="39.5" y="2.5" width="7" height="7" rx="1.5" stroke="#000"/><path stroke="#000" d="M41.5 9.5h3v3h-3zm2.51 32.14l1.558 1.725a1.5 1.5 0 0 1-2.227 2.01l-1.558-1.725 2.227-2.01zM8.533 43.828L6.89 45.472a1.5 1.5 0 1 1-2.12-2.121l1.643-1.644 2.121 2.121z"/><path d="M3.5 30.5h43V34c0 6.351-5.149 11.5-11.5 11.5H15C8.649 45.5 3.5 40.351 3.5 34v-3.5z" stroke="#000"/><path fill="#000" d="M18 18h1v2h-1zm0-6h1v2h-1zm-2 3h1v2h-1zm-1-4h1v2h-1z"/></svg>