<svg width="36" height="50" viewBox="0 0 36 50" fill="none" xmlns="http://www.w3.org/2000/svg"><path stroke="#000" stroke-linejoin="round" d="M1.5 26.5h33v5h-33zm4 5h25v6h-25zm-4 0h4v18h-4zm29 0h4v18h-4z"/><path fill="#000" d="M15 19.071l4.081-4.081.707.707-4.081 4.081zm-1-1.99l1.925-1.925.707.707-1.925 1.925zM13 34h10v1H13z"/><path d="M25.5 11.5c0 3.086-.871 5.859-2.254 7.846C21.863 21.336 20 22.5 18 22.5c-2 0-3.863-1.165-5.246-3.154C11.37 17.36 10.5 14.586 10.5 11.5c0-3.086.871-5.859 2.254-7.846C14.137 1.664 16 .5 18 .5c2 0 3.863 1.165 5.246 3.154C24.63 5.64 25.5 8.414 25.5 11.5z" stroke="#000"/><path d="M23.5 11.5c0 2.544-.652 4.823-1.68 6.45-1.032 1.634-2.395 2.55-3.82 2.55-1.425 0-2.788-.916-3.82-2.55-1.028-1.627-1.68-3.906-1.68-6.45s.652-4.823 1.68-6.45C15.212 3.415 16.575 2.5 18 2.5c1.425 0 2.788.916 3.82 2.55 1.028 1.627 1.68 3.906 1.68 6.45zM35 26c-2.5-.167-8.3-1.7-11.5-6.5M1 26c2.609-.18 8.16-1.33 11.5-6.5" stroke="#000"/></svg>