<svg width="50" height="50" viewBox="0 0 50 50" fill="none" xmlns="http://www.w3.org/2000/svg"><path fill="#fff" stroke="#000" d="M13.5.5h36v36h-36z"/><path d="M37.5.5l12 12M26 .5l23.5 23M14 .5l26.5 26m6-26l-26 26M33 .5l-26 26m12-26l-5.5 5m36 6.5L34 26.5" stroke="#000"/><path fill="#fff" stroke="#000" d="M.5 6.5h22v43H.5z"/><path d="M17 8l2 2m-8-2l2 2m1 3l2 2m-8-2l2 2M4 8l2 2m11 9l2 2m-8-2l2 2m1 3l2 2m-8-2l2 2m-6-7l2 2m11 8l2 2m-8-2l2 2m1 3l2 2m-8-2l2 2m-6-7l2 2m11 8l2 2m-8-2l2 2m1 3l2 2m-8-2l2 2m-6-7l2 2" stroke="#000"/><path fill="#fff" stroke="#000" d="M13.5 26.5h36v23h-36z"/><path fill="#fff" stroke="#000" d="M23.5 36.5h26v13h-26z"/><path d="M42.5 36.5l7 7m-12-7L49 49M32.5 36.5l12 13m-17-13l12 13M23.5 38l11 11.5m-11-5.5l5.5 5.5" stroke="#000"/></svg>