<svg width="50" height="50" viewBox="0 0 50 50" fill="none" xmlns="http://www.w3.org/2000/svg"><path stroke="#000" d="M.5.5h15v30H.5zm17 19h15v30h-15zm-17 13h15v17H.5zm34-32h15v30h-15zm0 32h15v17h-15zm-17-32h15v17h-15zm27 1.5l2 2M43 7l-2 2m-3-7l2 2m4.5 8l2 2M43 17l-2 2m-3-7l2 2m4.5 8l2 2M43 27l-2 2m-3-7l2 2m-12.5-3l2 2M26 26l-2 2m-3-7l2 2m4.5 8l2 2M26 36l-2 2m-3-7l2 2m4.5 8l2 2M26 46l-2 2m-3-7l2 2M10.5 2l2 2M9 7L7 9M4 2l2 2m4.5 8l2 2M9 17l-2 2m-3-7l2 2M27.5 3l2 2M26 8l-2 2m-3-7l2 2m4.5 8l2 2M21 13l2 2M10.5 35l2 2M9 40l-2 2m-3-7l2 2m4.5 8l2 2M4 45l2 2m38.5-12l2 2M43 40l-2 2m-3-7l2 2m4.5 8l2 2M38 45l2 2M10.5 22l2 2M9 27l-2 2m-3-7l2 2"/></svg>