<svg width="29" height="40" viewBox="0 0 29 40" fill="none" xmlns="http://www.w3.org/2000/svg"><path stroke="#000" stroke-linejoin="round" d="M1.5 21.3h26.2v3.8H1.5zm3.2 4h19.8v4.6H4.7zm-3.2 0h3v14.2h-3zm23.2 0h3v14.2h-3z"/><path fill="#000" d="M12.2 15.257l3.265-3.265.566.566-3.265 3.265zm-.8-1.592l1.54-1.54.566.566-1.54 1.54zM10.6 27.2h8v.8h-8z"/><path d="M20.5 9.2c0 2.451-.692 4.649-1.785 6.22-1.094 1.573-2.557 2.48-4.115 2.48-1.558 0-3.02-.907-4.115-2.48C9.392 13.849 8.7 11.65 8.7 9.2c0-2.451.692-4.649 1.785-6.22C11.579 1.407 13.042.5 14.6.5c1.558 0 3.02.907 4.115 2.48C19.808 4.551 20.5 6.75 20.5 9.2z" stroke="#000"/><path d="M18.9 9.2c0 2.019-.518 3.823-1.329 5.107-.815 1.29-1.878 1.993-2.971 1.993-1.093 0-2.157-.703-2.971-1.993-.811-1.284-1.329-3.088-1.329-5.107s.518-3.823 1.329-5.107C12.443 2.803 13.507 2.1 14.6 2.1c1.093 0 2.156.703 2.971 1.993C18.382 5.377 18.9 7.181 18.9 9.2zm9.3 11.6c-2-.133-6.64-1.36-9.2-5.2M1 20.8c2.087-.144 6.529-1.065 9.2-5.2" stroke="#000"/></svg>