<svg width="40" height="40" viewBox="0 0 40 40" fill="none" xmlns="http://www.w3.org/2000/svg"><path fill="#fff" stroke="#000" d="M10.9.5h28.6v28.6H10.9z"/><path d="M30 .4l9.6 9.6M20.8.4l18.8 18.4M11.2.4l21.2 20.8M37.2.4L16.4 21.2M26.4.4L5.6 21.2M15.2.4l-4.4 4m28.8 5.2L27.2 21.2" stroke="#000"/><path fill="#fff" stroke="#000" d="M.5 5.3h17.4v34.2H.5z"/><path d="M13.6 6.4L15.2 8M8.8 6.4L10.4 8m.8 2.4l1.6 1.6m-6.4-1.6L8 12M3.2 6.4L4.8 8m8.8 7.2l1.6 1.6m-6.4-1.6l1.6 1.6m.8 2.4l1.6 1.6m-6.4-1.6L8 20.8m-4.8-5.6l1.6 1.6m8.8 6.4l1.6 1.6m-6.4-1.6l1.6 1.6m.8 2.4l1.6 1.6m-6.4-1.6L8 28.8m-4.8-5.6l1.6 1.6m8.8 6.4l1.6 1.6m-6.4-1.6l1.6 1.6m.8 2.4l1.6 1.6m-6.4-1.6L8 36.8m-4.8-5.6l1.6 1.6" stroke="#000"/><path fill="#fff" stroke="#000" d="M10.9 21.3h28.6v18.2H10.9z"/><path fill="#fff" stroke="#000" d="M18.9 29.3h20.6v10.2H18.9z"/><path d="M34 29.2l5.6 5.6M30 29.2l9.2 10M26 29.2l9.6 10.4M22 29.2l9.6 10.4m-12.8-9.2l8.8 9.2m-8.8-4.4l4.4 4.4" stroke="#000"/></svg>