<svg width="40" height="40" viewBox="0 0 40 40" fill="none" xmlns="http://www.w3.org/2000/svg"><path d="M20 32.9h.5V.992l19 14.06V39.5H.5v-6.6H20z" stroke="#000"/><path stroke="#000" stroke-linejoin="round" d="M36.5 34.9h3v1.4h-3zm-1.6-1.6h3v1.4h-3zm-1.6 1.6h3v1.4h-3zm-3.2 0h3v1.4h-3zm4.8 1.6h3v1.4h-3zm-3.2 0h3v1.4h-3zm1.6 1.6h3v1.4h-3zm-1.6-4.8h3v1.4h-3zm-3.2 0h3v1.4h-3zm-1.6 1.6h3v1.4h-3zm6.4-3.2h3v1.4h-3zm-6.4-3.2h3v1.4h-3zm3.2 3.2h3v1.4h-3zm-1.6-1.6h3v1.4h-3zm1.6-1.6h3v1.4h-3zm6.4 3.2h3v1.4h-3zm-11.2 1.6h3v1.4h-3zm-1.6-1.6h3v1.4h-3zm-1.6 1.6h3v1.4h-3zm-3.2 0h3v1.4h-3zm4.8 1.6h3v1.4h-3zm-3.2 0h3v1.4h-3zm1.6 1.6h3v1.4h-3zm-1.6-4.8h3v1.4h-3zm4.8 4.8h3v1.4h-3zm-9.6-3.2h3v1.4h-3zm6.4-3.2h3v1.4h-3zm0-6.4h3v1.4h-3zm12 6.4h3v1.4h-3zm-8.8-3.2h3v1.4h-3zm1.6-1.6h3v1.4h-3zm-6.4 0h3v1.4h-3zm3.2 3.2h3v1.4h-3zm0-3.2h3v1.4h-3zm1.6 4.8h3v1.4h-3z"/><path fill="#000" d="M21.6 15.2h1.6v1.6h-1.6zm3.2 0h1.6v1.6h-1.6zm3.2 0h1.6v1.6H28zm3.2 0h1.6v1.6h-1.6zM21.6 12h1.6v1.6h-1.6zm3.2 0h1.6v1.6h-1.6zm3.2 0h1.6v1.6H28zm-6.4-3.2h1.6v1.6h-1.6zm3.2 0h1.6v1.6h-1.6zm-3.2-3.2h1.6v1.6h-1.6zM28 8.8h1.6v1.6H28zm3.2 3.2h1.6v1.6h-1.6zm3.2 3.2H36v1.6h-1.6zm-12.8 3.2h1.6V20h-1.6zm3.2 0h1.6V20h-1.6zm3.2 0h1.6V20H28zm3.2 0h1.6V20h-1.6zm3.2 0H36V20h-1.6zM2.4 36H4v1.6H2.4zm3.2 0h1.6v1.6H5.6zm3.2 0h1.6v1.6H8.8zm3.2 0h1.6v1.6H12zm3.2 0h1.6v1.6h-1.6zM28 21.6h1.6v1.6H28zm3.2 0h1.6v1.6h-1.6zm3.2 0H36v1.6h-1.6z"/><path stroke="#000" stroke-linejoin="round" d="M18.9 9.3h1.4v7h-1.4z"/><path d="M36.8 6.4h.8v7.2l-.8-.502V6.4zm-2.4-4h.8V12l-.8-.669V2.4zM5.6 21.6h.8v11.2h-.8zm-3.2 4.8h.8v6.4h-.8zm6.4 3.2h.8v3.2h-.8z" fill="#000"/></svg>