<svg width="40" height="38" viewBox="0 0 40 38" fill="none" xmlns="http://www.w3.org/2000/svg"><rect x=".5" y="20.7" width="39" height="3.8" rx="1.9" stroke="#000"/><path d="M3.2 27.8h33.6M2.4 20.6v-14A5.6 5.6 0 0 1 8 1h1.2a4.4 4.4 0 0 1 4.4 4.4" stroke="#000"/><rect x="10.9" y="5.5" width="5.4" height="2.2" rx="1.1" stroke="#000"/><rect x="31.7" y="2.3" width="5.4" height="5.4" rx="1.5" stroke="#000"/><path stroke="#000" d="M33.3 7.9h2.2v2.2h-2.2zm1.9 25.753l1.18 1.306a1.1 1.1 0 0 1-1.633 1.474l-1.18-1.306 1.634-1.474zm-28.515 1.61l-1.244 1.244a1.1 1.1 0 1 1-1.556-1.556l1.244-1.244 1.556 1.556zM2.9 24.7h34.2v.3c0 6.351-5.149 11.5-11.5 11.5H14.4C8.049 36.5 2.9 31.351 2.9 25v-.3z"/><path fill="#000" d="M14.4 14.6h.8v1.6h-.8zm0-4.8h.8v1.6h-.8zm-1.6 2.4h.8v1.6h-.8zM12 9h.8v1.6H12z"/></svg>