<svg width="40" height="40" viewBox="0 0 40 40" fill="none" xmlns="http://www.w3.org/2000/svg"><path stroke="#000" d="M.5.5h11.8v23.8H.5zm13.6 15.2h11.8v23.8H14.1zM.5 26.1h11.8v13.4H.5zM27.7.5h11.8v23.8H27.7zm0 25.6h11.8v13.4H27.7zM14.1.5h11.8v13.4H14.1zm21.5 1.1l1.6 1.6m-2.8 2.4l-1.6 1.6m-2.4-5.6L32 3.2m3.6 6.4l1.6 1.6m-2.8 2.4l-1.6 1.6m-2.4-5.6l1.6 1.6m3.6 6.4l1.6 1.6m-2.8 2.4l-1.6 1.6m-2.4-5.6l1.6 1.6m-10-2.4l1.6 1.6m-2.8 2.4l-1.6 1.6m-2.4-5.6l1.6 1.6m3.6 6.4l1.6 1.6m-2.8 2.4l-1.6 1.6m-2.4-5.6l1.6 1.6m3.6 6.4l1.6 1.6m-2.8 2.4l-1.6 1.6m-2.4-5.6l1.6 1.6M8.4 1.6L10 3.2M7.2 5.6L5.6 7.2M3.2 1.6l1.6 1.6m3.6 6.4l1.6 1.6m-2.8 2.4l-1.6 1.6M3.2 9.6l1.6 1.6M22 2.4L23.6 4m-2.8 2.4L19.2 8m-2.4-5.6L18.4 4m3.6 6.4l1.6 1.6m-6.8-1.6l1.6 1.6m-10 16l1.6 1.6M7.2 32l-1.6 1.6M3.2 28l1.6 1.6M8.4 36l1.6 1.6M3.2 36l1.6 1.6M35.6 28l1.6 1.6M34.4 32l-1.6 1.6M30.4 28l1.6 1.6m3.6 6.4l1.6 1.6M30.4 36l1.6 1.6m-23.6-20l1.6 1.6m-2.8 2.4l-1.6 1.6m-2.4-5.6l1.6 1.6"/></svg>