<svg width="44" height="44" viewBox="0 0 44 44" fill="none" xmlns="http://www.w3.org/2000/svg"><g clip-path="url(#a)" fill="#E31E23"><path d="M15.28 17.782a.858.858 0 1 0-1.215-1.215.859.859 0 1 0 1.215 1.215zm8.509 1.216a2.577 2.577 0 1 0-3.646-3.646 2.576 2.576 0 0 0 0 3.646 2.581 2.581 0 0 0 3.646 0zm-2.431-2.43a.86.86 0 1 1 1.216 1.216.86.86 0 0 1-1.216-1.217zm-1.216 8.506a2.577 2.577 0 0 0 0 3.646 2.577 2.577 0 0 0 3.647 0 2.578 2.578 0 1 0-3.646-3.647zm2.432 2.431a.86.86 0 1 1-1.216-1.216.86.86 0 0 1 1.216 1.216zm-7.53-4.085a.859.859 0 0 0 1.011.674l12.154-2.431a.86.86 0 0 0-.338-1.686l-12.153 2.431a.859.859 0 0 0-.674 1.012z"/><path d="M26.126 4.862a.859.859 0 0 0-.608.251l-9.022 9.023a.86.86 0 0 0 1.215 1.215l8.415-8.415 10.937 10.938L17.77 37.167 6.832 26.23l6.018-6.018a.859.859 0 1 0-1.216-1.215L5.01 25.622a.86.86 0 0 0 0 1.215L17.163 38.99a.86.86 0 0 0 1.215 0l20.508-20.508a.86.86 0 0 0 0-1.216L26.733 5.113a.86.86 0 0 0-.607-.251z"/><path d="M42.533.252L38.844 3.94c-2.152-1.625-5.124-1.651-7.258-.067L28.565.764l-.009-.008a2.576 2.576 0 0 0-3.647 0L.756 25.016a2.577 2.577 0 0 0 0 3.646l3.408 3.408a6.106 6.106 0 0 0 7.767 7.767l3.408 3.408a2.577 2.577 0 0 0 3.645.002l24.26-24.157a2.576 2.576 0 0 0 0-3.645l-.008-.009-3.109-3.02c1.579-2.12 1.573-5.093-.067-7.26l3.688-3.687A.86.86 0 0 0 42.533.252zM38.34 11.86a.862.862 0 0 0 .01 1.224l3.682 3.58a.858.858 0 0 1-.002 1.21L17.77 42.029a.86.86 0 0 1-1.216 0l-3.811-3.811a.858.858 0 0 0-.973-.17 4.375 4.375 0 0 1-4.938-.88 4.375 4.375 0 0 1-.88-4.938.86.86 0 0 0-.17-.973l-3.81-3.811a.861.861 0 0 1 0-1.218L26.126 1.971a.859.859 0 0 1 1.211-.004l3.58 3.683c.32.33.87.363 1.224.01 1.47-1.472 3.774-1.63 5.471-.488l-1.26 1.26a2.582 2.582 0 0 0-2.935.504 2.578 2.578 0 1 0 3.647 3.646 2.58 2.58 0 0 0 .504-2.935l1.26-1.26c1.133 1.677 1.003 3.983-.488 5.472zm-2.492-3.708a.86.86 0 1 1-1.214 1.216.86.86 0 0 1 1.214-1.216z"/></g><defs><clipPath id="a"><path fill="#fff" d="M0 0h44v44H0z"/></clipPath></defs></svg>