<svg width="40" height="40" viewBox="0 0 40 40" fill="none" xmlns="http://www.w3.org/2000/svg"><path d="M37.656 0H2.344A2.346 2.346 0 0 0 0 2.344v35.312A2.346 2.346 0 0 0 2.344 40h35.312A2.346 2.346 0 0 0 40 37.656V2.344A2.346 2.346 0 0 0 37.656 0zm.782 2.344v16.875H20.78V1.562h16.875c.431 0 .782.35.782.782zM2.343 1.563h16.875v17.656H1.562V2.344c0-.431.35-.781.782-.781zm-.781 36.093V20.781h17.656v17.657H2.344a.782.782 0 0 1-.781-.782zm36.874 0c0 .431-.35.782-.78.782H20.78V20.78h17.657v16.875z" fill="#E31E25"/><path d="M5.469 28.594a2.346 2.346 0 0 0-2.344 2.343c0 1.019.653 1.887 1.563 2.21v.916a.781.781 0 1 0 1.562 0v-.916a2.348 2.348 0 0 0 1.563-2.21 2.346 2.346 0 0 0-2.344-2.343zm0 3.125a.782.782 0 1 1 .001-1.564.782.782 0 0 1-.001 1.564zm7.812-7.813h3.594a.781.781 0 1 0 0-1.562h-3.594a.781.781 0 1 0 0 1.562zm3.594 1.563h-3.594a.781.781 0 1 0 0 1.562h3.594a.781.781 0 1 0 0-1.562zm0 3.125h-3.594a.781.781 0 1 0 0 1.562h3.594a.781.781 0 1 0 0-1.562zm7.031 4.553v.916a.781.781 0 0 0 1.563 0v-.916a2.348 2.348 0 0 0 1.562-2.21 2.346 2.346 0 0 0-2.343-2.343 2.346 2.346 0 0 0-2.344 2.343c0 1.019.653 1.887 1.562 2.21zm.782-2.99a.782.782 0 1 1-.002 1.563.782.782 0 0 1 .002-1.564zm7.812-6.251h3.594a.781.781 0 1 0 0-1.562H32.5a.781.781 0 1 0 0 1.562zm0 3.125h3.594a.781.781 0 1 0 0-1.562H32.5a.781.781 0 1 0 0 1.562zm0 3.125h3.594a.781.781 0 1 0 0-1.562H32.5a.781.781 0 1 0 0 1.562zm-8.594-16.228v.916a.781.781 0 0 0 1.563 0v-.916a2.347 2.347 0 0 0 1.562-2.21 2.346 2.346 0 0 0-2.343-2.343 2.346 2.346 0 0 0-2.344 2.344 2.35 2.35 0 0 0 1.562 2.21zm.782-2.99a.782.782 0 1 1-.002 1.564.782.782 0 0 1 .002-1.565zm7.812-6.25h3.594a.781.781 0 1 0 0-1.563H32.5a.781.781 0 1 0 0 1.563zm0 3.125h3.594a.781.781 0 1 0 0-1.563H32.5a.781.781 0 1 0 0 1.563zm0 3.125h3.594a.781.781 0 1 0 0-1.563H32.5a.781.781 0 1 0 0 1.563zm-27.812 2.99v.916a.781.781 0 1 0 1.562 0v-.916a2.348 2.348 0 0 0 1.563-2.21 2.346 2.346 0 0 0-2.344-2.343 2.346 2.346 0 0 0-2.344 2.344c0 1.018.653 1.887 1.563 2.21zm.78-2.99a.782.782 0 1 1 0 1.563.782.782 0 0 1 0-1.563zm7.813-6.25h3.594a.781.781 0 1 0 0-1.563h-3.594a.781.781 0 1 0 0 1.563zm-3.125-1.563a.782.782 0 1 1 0 1.563.782.782 0 0 1 0-1.563zm3.125 4.688h3.594a.781.781 0 1 0 0-1.563h-3.594a.781.781 0 1 0 0 1.563zm0 3.125h3.594a.781.781 0 1 0 0-1.563h-3.594a.781.781 0 1 0 0 1.563zm16.094-7.813a.782.782 0 1 1 0 1.563.782.782 0 0 1 0-1.563zm0 19.219a.782.782 0 1 1 0 1.563.782.782 0 0 1 0-1.563zm-19.219 0a.782.782 0 1 1 0 1.563.782.782 0 0 1 0-1.563z" fill="#E31E25"/></svg>