<svg width="42" height="42" viewBox="0 0 42 42" fill="none" xmlns="http://www.w3.org/2000/svg"><g clip-path="url(#a)" fill="#E31E25"><path d="M9.02 21.82a.82.82 0 1 0 0 1.642.82.82 0 0 0 0-1.642z"/><path d="M40.201 16.787c-.078-.393.056-.96.184-1.508.194-.827.414-1.763.059-2.62-.363-.874-1.19-1.385-1.92-1.835-.47-.292-.958-.593-1.172-.912-.218-.326-.312-.896-.402-1.447-.138-.842-.295-1.796-.957-2.458-.663-.662-1.617-.819-2.458-.957-.551-.09-1.121-.184-1.446-.401-.32-.214-.621-.702-.912-1.174-.451-.73-.962-1.557-1.835-1.919-.858-.355-1.794-.135-2.62.059-.549.128-1.116.261-1.509.184-.391-.078-.954-.413-1.499-.737C22.838.54 21.932 0 21 0c-.932 0-1.839.54-2.716 1.062-.544.324-1.107.66-1.499.737-.393.077-.96-.056-1.508-.184-.826-.194-1.762-.414-2.62-.059-.873.363-1.384 1.19-1.835 1.92-.29.471-.592.959-.911 1.173-.325.217-.895.31-1.446.401-.842.138-1.796.295-2.459.957-.661.662-.818 1.615-.956 2.456-.09.551-.184 1.122-.403 1.449-.214.32-.701.62-1.173.912-.729.45-1.556.96-1.918 1.835-.355.857-.136 1.793.058 2.619.129.548.261 1.115.183 1.51-.077.39-.412.954-.736 1.499C.539 19.163 0 20.069 0 21c0 .932.54 1.838 1.061 2.715.324.545.66 1.108.736 1.5.078.393-.054.96-.183 1.509-.194.826-.413 1.762-.058 2.619.363.873 1.19 1.384 1.918 1.834.472.291.96.593 1.174.913.218.325.312.896.402 1.447.138.841.295 1.794.956 2.457.662.662 1.615.818 2.456.956.552.09 1.122.184 1.449.403.32.214.62.701.912 1.172.45.73.961 1.556 1.835 1.919.856.355 1.792.135 2.618-.058.549-.129 1.116-.261 1.51-.183.39.077.954.412 1.499.736C19.162 41.461 20.068 42 21 42c.931 0 1.837-.54 2.713-1.06.545-.325 1.108-.66 1.5-.737.394-.078.961.054 1.51.183.826.194 1.762.413 2.619.058.873-.362 1.384-1.19 1.834-1.919.292-.47.593-.958.913-1.172.326-.22.897-.313 1.448-.403.84-.138 1.794-.294 2.456-.956.662-.662.819-1.616.957-2.458.09-.551.184-1.12.402-1.447.214-.32.702-.62 1.173-.912.73-.45 1.556-.961 1.919-1.835.355-.857.135-1.793-.059-2.62-.128-.548-.261-1.114-.184-1.507.077-.392.413-.955.737-1.499C41.46 22.839 42 21.932 42 21c0-.931-.54-1.838-1.062-2.714-.324-.545-.66-1.108-.737-1.499zm-.673 6.09c-.395.664-.804 1.35-.936 2.02-.147.74.027 1.483.196 2.2.144.614.293 1.249.14 1.617-.159.384-.721.731-1.265 1.068-.62.383-1.262.779-1.674 1.395-.416.622-.539 1.37-.658 2.093-.103.627-.21 1.275-.498 1.563-.289.289-.935.395-1.561.498-.725.119-1.474.242-2.096.659-.616.411-1.012 1.053-1.395 1.673-.336.544-.683 1.106-1.067 1.265-.37.153-1.003.004-1.617-.14-.718-.168-1.461-.342-2.202-.195-.67.132-1.356.541-2.02.936-.654.39-1.395.83-1.875.83s-1.222-.44-1.876-.83c-.664-.395-1.351-.804-2.02-.936-.737-.146-1.473.025-2.202.196-.613.143-1.248.292-1.616.14-.384-.16-.731-.722-1.067-1.266-.384-.62-.78-1.262-1.395-1.673-.622-.417-1.371-.54-2.096-.66-.626-.102-1.273-.208-1.561-.496-.289-.289-.395-.936-.498-1.562-.119-.725-.241-1.474-.658-2.095-.412-.616-1.054-1.012-1.674-1.395-.544-.336-1.106-.684-1.265-1.067-.153-.37-.004-1.004.14-1.617.168-.718.342-1.461.195-2.201-.132-.67-.54-1.357-.936-2.02-.39-.655-.83-1.396-.83-1.877 0-.48.44-1.22.83-1.875.395-.664.804-1.35.936-2.02.147-.74-.027-1.484-.196-2.202-.143-.613-.292-1.247-.14-1.616.16-.385.722-.732 1.266-1.068.62-.383 1.262-.78 1.673-1.394.417-.623.54-1.372.66-2.097.102-.625.208-1.272.496-1.56.29-.29.938-.396 1.565-.499.723-.119 1.471-.241 2.093-.657.615-.412 1.011-1.054 1.395-1.674.335-.544.683-1.107 1.067-1.266.368-.153 1.003-.004 1.617.14.717.169 1.46.343 2.2.196.67-.132 1.356-.54 2.02-.936.654-.39 1.396-.831 1.877-.831.48 0 1.221.441 1.875.83.664.396 1.35.805 2.02.937.741.147 1.483-.027 2.202-.196.613-.144 1.248-.293 1.616-.14.384.16.732.722 1.067 1.266.384.62.78 1.262 1.396 1.675.622.415 1.37.537 2.093.656.627.103 1.275.21 1.564.498.289.289.395.937.498 1.563.119.724.242 1.472.658 2.094.412.616 1.053 1.012 1.674 1.396.544.335 1.106.682 1.265 1.066.153.37.004 1.004-.14 1.617-.169.718-.343 1.461-.196 2.202.132.67.541 1.356.937 2.02.389.654.83 1.395.83 1.875s-.441 1.223-.83 1.877z"/><path d="M20.996 4.922C12.422 4.922 4.918 12.397 4.918 21c0 8.575 7.475 16.078 16.078 16.078 8.575 0 16.078-7.475 16.078-16.078 0-8.575-7.475-16.078-16.078-16.078zm0 30.515C13.305 35.438 6.56 28.691 6.56 21c0-7.691 6.746-14.438 14.437-14.438 7.691 0 14.438 6.747 14.438 14.438 0 7.691-6.747 14.438-14.438 14.438z"/><path d="M20.997 9.844a.82.82 0 1 0 0-1.64c-6.171 0-11.813 5.053-12.672 11.04a.82.82 0 1 0 1.624.233c.749-5.222 5.808-9.633 11.048-9.633zm7.498 9.22l-4.684-.68-2.094-4.244a.82.82 0 0 0-1.47 0l-2.095 4.244-4.684.68a.82.82 0 0 0-.455 1.4l3.39 3.303-.8 4.665a.82.82 0 0 0 1.19.865l4.189-2.203 4.188 2.203a.821.821 0 0 0 1.19-.865l-.8-4.665 3.39-3.303a.82.82 0 0 0-.455-1.4zm-4.389 3.83a.82.82 0 0 0-.236.725l.592 3.452-3.098-1.63a.82.82 0 0 0-.764 0l-3.1 1.63.592-3.452a.822.822 0 0 0-.235-.726l-2.508-2.444 3.465-.503a.82.82 0 0 0 .618-.45l1.55-3.14 1.549 3.14a.82.82 0 0 0 .617.45l3.466.503-2.508 2.444z"/></g><defs><clipPath id="a"><path fill="#fff" d="M0 0h42v42H0z"/></clipPath></defs></svg>