<svg width="60" height="60" viewBox="0 0 60 60" fill="none" xmlns="http://www.w3.org/2000/svg"><path d="M21.21 24.14c-.64 0-1.162.516-1.17 1.156v.017a1.172 1.172 0 0 0 2.343 0v-.017a1.173 1.173 0 0 0-1.172-1.155z" fill="#000"/><path d="M21.21 0C13.64 0 5.978 2.013 5.978 5.86v36.562c0 3.847 7.663 5.86 15.234 5.86.228 0 .455-.003.68-.006A16.42 16.42 0 0 0 37.616 60c9.047 0 16.406-7.36 16.406-16.406 0-9.047-7.36-16.407-16.406-16.407-.393 0-.788.016-1.182.044l.007-13.893.003-.096c0-.023-.002-.045-.003-.067l.003-7.315C36.444 2.013 28.78 0 21.21 0zm.796 38.547c-.27.005-.535.008-.795.008-3.633 0-7.033-.467-9.573-1.313-2.624-.875-3.318-1.823-3.318-2.203v-4.108c2.846 1.706 7.889 2.585 12.89 2.585 1.214 0 2.421-.052 3.589-.151a16.514 16.514 0 0 0-2.793 5.182zm5.531-7.895c-1.933.34-4.112.52-6.326.52-3.633 0-7.033-.467-9.573-1.313-2.624-.875-3.318-1.823-3.318-2.203V23.91c.655.39 1.354.702 2.073.964 1.911.717 5.412 1.344 6.139 1.344a1.172 1.172 0 0 0 .133-2.336c-.375-.06-4.507-.475-7.026-1.915-1.003-.57-1.126-.913-1.306-1.239-.03-.166-.001.162-.013-4.211 2.846 1.706 7.889 2.585 12.89 2.585 3.831 0 7.46-.498 10.221-1.403 1.109-.363 1.993-.76 2.677-1.169-.002 4.3 0 4.161-.002 4.173-.047.22-.233.433-.394.59-.011.005-1.834 1.892-7.94 2.588l-.015.001a1.172 1.172 0 0 0 .133 2.336c1.405 0 6.002-.99 8.215-2.303l-.002 3.653a16.42 16.42 0 0 0-6.566 3.084zm6.568-9.943v-.003.003zm.005-7.426c-.04.395-.805 1.337-3.409 2.19-2.53.828-5.901 1.285-9.49 1.285-3.633 0-7.033-.467-9.573-1.313-2.624-.875-3.318-1.823-3.318-2.203V9.134c2.846 1.706 7.889 2.585 12.89 2.585 5.002 0 10.056-.88 12.902-2.584l-.002 4.148zM11.638 3.657c2.54-.847 5.94-1.313 9.573-1.313s7.033.466 9.573 1.313c2.624.874 3.318 1.823 3.318 2.202 0 .38-.694 1.328-3.318 2.203-2.54.847-5.94 1.313-9.573 1.313s-7.033-.466-9.573-1.313C9.014 7.187 8.32 6.24 8.32 5.86c0-.38.694-1.328 3.318-2.202zm0 40.968C9.014 43.75 8.32 42.8 8.32 42.422v-4.109c2.846 1.706 7.889 2.585 12.89 2.585h.223a16.554 16.554 0 0 0-.055 5.039h-.167c-3.633 0-7.033-.466-9.573-1.312zm40.042-1.031c0 7.754-6.309 14.062-14.063 14.062-6.567 0-12.198-4.459-13.692-10.843l-.002-.01-.002-.004a14.128 14.128 0 0 1-.366-3.205c0-1.215.154-2.418.458-3.577 1.569-5.981 7.027-10.486 13.604-10.486 7.754 0 14.063 6.309 14.063 14.063z" fill="#000"/><path d="M34.102 41.25a3.52 3.52 0 0 0 3.516 3.516 1.173 1.173 0 0 1 0 2.343c-.5 0-1.041-.315-1.522-.886a1.172 1.172 0 1 0-1.794 1.508c.627.745 1.364 1.265 2.144 1.526v1.368a1.172 1.172 0 1 0 2.344 0v-1.373a3.521 3.521 0 0 0 2.344-3.315 3.52 3.52 0 0 0-3.516-3.515 1.173 1.173 0 0 1 0-2.344c.415 0 .853.212 1.268.613a1.172 1.172 0 0 0 1.63-1.684c-.595-.576-1.19-.902-1.726-1.08v-1.364a1.172 1.172 0 1 0-2.344 0v1.373a3.521 3.521 0 0 0-2.344 3.314z" fill="#000"/></svg>