<svg width="65" height="65" viewBox="0 0 65 65" fill="none" xmlns="http://www.w3.org/2000/svg"><path d="M41.352 15.234a1.27 1.27 0 1 1 0-2.54 1.27 1.27 0 0 1 0 2.54z" fill="#000"/><path d="M9.575 22.888a6.687 6.687 0 0 1 3.159-5.675 6.665 6.665 0 0 1-.458-2.432 6.669 6.669 0 0 1 5.508-6.572c.554-3.125 3.29-5.506 6.572-5.506.84 0 1.663.155 2.432.456A6.687 6.687 0 0 1 32.463 0a6.686 6.686 0 0 1 5.675 3.16 6.663 6.663 0 0 1 2.432-.457c1.786 0 3.464.696 4.724 1.96a6.6 6.6 0 0 1 1.841 3.544 6.63 6.63 0 0 1 3.556 1.851 6.63 6.63 0 0 1 1.959 4.723c0 .84-.156 1.663-.457 2.432a6.687 6.687 0 0 1 3.159 5.675 6.687 6.687 0 0 1-3.16 5.676c.302.77.458 1.591.458 2.431a6.686 6.686 0 0 1-5.505 6.573 6.636 6.636 0 0 1-3.256 4.626V63.73a1.27 1.27 0 0 1-2.167.898l-9.259-9.258-9.258 9.258a1.27 1.27 0 0 1-2.167-.898V42.193a6.581 6.581 0 0 1-3.235-4.62 6.628 6.628 0 0 1-3.56-1.847 6.631 6.631 0 0 1-1.967-4.73c0-.84.156-1.663.457-2.432a6.687 6.687 0 0 1-3.158-5.676zm31.775 20.14a6.676 6.676 0 0 1-2.539-.19v15.289l2.539 2.539V43.029zm-7.99 9.648l2.912 2.911V44.579a6.643 6.643 0 0 1-3.809 1.199 6.677 6.677 0 0 1-3.808-1.198v11.008l2.91-2.912a1.27 1.27 0 0 1 1.796 0zm-7.244 5.45V42.84a6.685 6.685 0 0 1-2.54.19v17.637l2.54-2.54zM14.879 26.793a1.268 1.268 0 0 1 .634 1.905 4.107 4.107 0 0 0-.698 2.298c0 1.108.433 2.15 1.218 2.93a4.111 4.111 0 0 0 2.92 1.206h.025a1.27 1.27 0 0 1 1.27 1.28 4.07 4.07 0 0 0 2.54 3.817h.001a4.108 4.108 0 0 0 1.567.307 4.12 4.12 0 0 0 2.3-.697c.18-.12.387-.19.598-.207h.003a1.15 1.15 0 0 1 .1-.006l.028-.001a1.27 1.27 0 0 1 1.245 1.026 4.146 4.146 0 0 0 3.833 2.588 4.083 4.083 0 0 0 3.862-2.723 1.25 1.25 0 0 1 .215-.413l.002-.003c.026-.032.052-.063.08-.092l.01-.012a.994.994 0 0 1 .077-.07l.024-.023.025-.018a1.262 1.262 0 0 1 1.497-.056 4.113 4.113 0 0 0 2.315.707 4.12 4.12 0 0 0 1.568-.306 4.117 4.117 0 0 0 2.568-3.827 1.27 1.27 0 0 1 1.27-1.271 4.14 4.14 0 0 0 4.135-4.136c0-.823-.242-1.618-.698-2.298a1.27 1.27 0 0 1 .634-1.905 4.14 4.14 0 0 0 0-7.808 1.27 1.27 0 0 1-.634-1.905c.456-.68.698-1.475.698-2.299a4.106 4.106 0 0 0-1.214-2.925 4.111 4.111 0 0 0-2.923-1.21h-.01a1.27 1.27 0 0 1-1.27-1.274 4.087 4.087 0 0 0-1.199-2.917 4.102 4.102 0 0 0-2.925-1.213c-.825 0-1.62.24-2.3.696a1.27 1.27 0 0 1-1.904-.634 4.141 4.141 0 0 0-3.903-2.765 4.142 4.142 0 0 0-3.903 2.765 1.27 1.27 0 0 1-1.905.634 4.14 4.14 0 0 0-6.434 3.439 1.27 1.27 0 0 1-1.27 1.27 4.13 4.13 0 0 0-4.136 4.134c0 .823.242 1.619.698 2.3a1.27 1.27 0 0 1-.634 1.904 4.14 4.14 0 0 0 0 7.808z" fill="#000"/><path d="M32.465 8.887c1.791 0 3.538.335 5.192.997a1.27 1.27 0 1 1-.942 2.357 11.388 11.388 0 0 0-4.25-.815c-6.3 0-11.426 5.126-11.426 11.426s5.125 11.425 11.426 11.425c6.3 0 11.426-5.125 11.426-11.425 0-1.467-.275-2.897-.816-4.25a1.27 1.27 0 1 1 2.357-.944c.662 1.655.998 3.402.998 5.194 0 7.7-6.265 13.964-13.965 13.964S18.5 30.551 18.5 22.851 24.764 8.888 32.465 8.888z" fill="#000"/><path d="M26.117 22.852a1.27 1.27 0 0 1-2.539 0c0-4.9 3.987-8.887 8.887-8.887a1.27 1.27 0 0 1 0 2.539 6.355 6.355 0 0 0-6.348 6.348z" fill="#000"/></svg>