<svg width="57" height="58" viewBox="0 0 57 58" fill="none" xmlns="http://www.w3.org/2000/svg"><g clip-path="url(#a)" fill="#000"><path d="M34.139 20.277c.616 0 1.115-.507 1.115-1.133 0-.625-.5-1.132-1.115-1.132-.617 0-1.116.507-1.116 1.133 0 .625.499 1.132 1.116 1.132zm-11.156 0c.615 0 1.115-.507 1.115-1.133 0-.625-.5-1.132-1.115-1.132-.617 0-1.116.507-1.116 1.133 0 .625.499 1.132 1.116 1.132zm2.595 7.787c.936.448 1.94.675 2.981.675 1.02 0 2.003-.218 2.925-.648a1.14 1.14 0 0 0 .548-1.503 1.109 1.109 0 0 0-1.48-.555 4.68 4.68 0 0 1-1.993.44c-.71 0-1.394-.154-2.03-.458a1.108 1.108 0 0 0-1.485.541 1.14 1.14 0 0 0 .534 1.508z"/><path d="M53.163 45.853c0-6.23-6.986-11.114-12.974-11.346l-3.054-2.787a14.852 14.852 0 0 0 5.979-11.896v-7.476c0-6.871-5.522-12.461-12.31-12.461h-4.461c-6.779 0-12.231 5.57-12.231 12.46v7.477c0 4.7 2.228 9.122 5.9 11.874l-3.078 2.809c-5.974.231-12.973 5.104-12.973 11.346v10.901c0 .626.5 1.133 1.115 1.133h46.971c.616 0 1.116-.507 1.116-1.133V45.853zM26.09 50.41h4.935l1.17 5.211h-7.308l1.203-5.21zm5.031-2.265H26.02l-.855-2.708 3.398-1.725 3.47 1.762-.91 2.67zm-2.56-7.837l-3.876-6.297a14.314 14.314 0 0 0 7.746.009l-3.87 6.288zm1.597 1.681l5.355-8.702 2.889 2.635-3.676 8.388-4.568-2.32zM26.343 2.152h4.461c5.558 0 10.079 4.574 10.079 10.196v.936l-2.095-3.063a1.105 1.105 0 0 0-1.714-.146c-2.267 2.355-4.892 3.405-8.512 3.405-3.618 0-6.244-1.05-8.513-3.405a1.105 1.105 0 0 0-1.719.154l-1.987 2.958v-.84c0-5.621 4.485-10.195 10-10.195zm-10 17.672v-2.618l3.098-4.61c2.482 2.143 5.414 3.15 9.122 3.15 3.71 0 6.646-1.009 9.128-3.157l3.192 4.667v2.568c0 6.784-5.46 12.461-12.31 12.461-6.827 0-12.23-5.659-12.23-12.46zm5.267 13.463l5.356 8.702-4.57 2.32-3.675-8.387 2.889-2.635zM6.192 45.853c0-4.667 5.586-8.696 10.467-9.063l4.174 9.523c.123.283.356.502.642.606a1.1 1.1 0 0 0 .876-.053l.794-.404.905 2.862-1.454 6.297H6.192v-9.768zm44.74 9.768H34.484l-1.41-6.28.971-2.845.728.37a1.1 1.1 0 0 0 .875.053c.287-.104.52-.323.643-.605l4.173-9.524c4.882.367 10.468 4.396 10.468 9.063v9.768z"/><path d="M43.062 50.41H38.6c-.616 0-1.116.507-1.116 1.133s.5 1.133 1.116 1.133h4.462c.616 0 1.115-.507 1.115-1.133s-.5-1.133-1.115-1.133zm4.401 0c.616 0 1.116.508 1.116 1.133s-.5 1.133-1.116 1.133a1.125 1.125 0 0 1-1.115-1.133c0-.625.5-1.133 1.115-1.133z"/></g><defs><clipPath id="a"><path fill="#fff" d="M0 0h57v58H0z"/></clipPath></defs></svg>