<svg width="18" height="18" viewBox="0 0 18 18" fill="none" xmlns="http://www.w3.org/2000/svg"><path d="M18 8.768c0 4.843-3.956 8.768-8.836 8.768a8.851 8.851 0 0 1-4.272-1.09L0 18l1.595-4.704A8.676 8.676 0 0 1 .327 8.768C.327 3.926 4.283 0 9.164 0 14.044 0 18 3.926 18 8.768zM9.164 1.396c-4.097 0-7.43 3.307-7.43 7.372A7.29 7.29 0 0 0 3.15 13.09l-.929 2.738 2.855-.907a7.424 7.424 0 0 0 4.088 1.219c4.096 0 7.429-3.307 7.429-7.371 0-4.065-3.333-7.373-7.43-7.373zm4.462 9.392c-.055-.09-.199-.144-.415-.251-.217-.108-1.282-.628-1.48-.7-.199-.07-.344-.107-.488.108-.144.215-.56.7-.686.843-.126.143-.253.161-.47.054-.216-.108-.914-.335-1.741-1.067-.644-.57-1.079-1.273-1.205-1.488-.126-.215-.013-.331.095-.438.098-.097.217-.251.325-.377.109-.125.145-.215.216-.358.073-.144.037-.269-.018-.377-.054-.107-.487-1.165-.668-1.595-.18-.43-.36-.359-.487-.359-.126 0-.27-.018-.415-.018a.8.8 0 0 0-.578.27c-.198.214-.758.734-.758 1.792 0 1.057.776 2.08.885 2.222.108.144 1.498 2.384 3.7 3.245 2.202.86 2.202.573 2.6.537.396-.036 1.28-.52 1.462-1.021.18-.503.18-.933.126-1.022z" fill="#000"/></svg>