<svg width="12" height="16" viewBox="0 0 12 16" fill="none" xmlns="http://www.w3.org/2000/svg"><path d="M8.058 0H0v16h12V4.025L8.058 0zm.269 1.6l2.105 2.15H8.327V1.6zm-3.65 11.588H3.543l1.309-1.336.571.588-.744.748zm3.92-2.622l2.485 2.536v.085H5.987l2.61-2.62zm2.485 1.21l-2.48-2.53-2.525 2.537-1.224-1.26-2.61 2.665H.918V6.561h10.164v5.214zm0 3.287H.918v-.938h10.164v.938zM.918 5.624V.937h6.49v3.75h3.674v.938H.918z" fill="#000"/><path d="M3.214 10.345c.76 0 1.378-.632 1.378-1.408 0-.775-.618-1.407-1.378-1.407-.76 0-1.377.632-1.377 1.407 0 .776.618 1.408 1.377 1.408zm0-1.877c.254 0 .46.21.46.47a.465.465 0 0 1-.46.469.465.465 0 0 1-.459-.47c0-.258.206-.469.46-.469z" fill="#000"/></svg>