<svg width="20" height="16" viewBox="0 0 20 16" fill="none" xmlns="http://www.w3.org/2000/svg"><path d="M17.911 2.439h-3.597V.409A.409.409 0 0 0 13.906 0H5.363a.409.409 0 0 0-.408.409v2.03H1.357A1.36 1.36 0 0 0 0 3.796v6.505c0 .748.609 1.357 1.357 1.357h3.598v3.933c0 .226.183.409.408.409h8.543a.409.409 0 0 0 .408-.409v-3.933h3.598c.748 0 1.357-.609 1.357-1.357V3.796a1.36 1.36 0 0 0-1.358-1.357zm-3.597.817h.975v1.143h-.975V3.256zM5.772.817h7.725V4.4H5.772V.817zM3.98 3.256h.975v1.143H3.98V3.256zm9.517 11.927H5.772V9.802h7.725v5.38zm4.955-4.882a.54.54 0 0 1-.54.54h-3.598V9.8h.746a.409.409 0 0 0 0-.816H4.209a.409.409 0 0 0 0 .817h.746v1.039H1.357a.54.54 0 0 1-.54-.54V3.796a.54.54 0 0 1 .54-.54h1.806v1.552c0 .226.183.409.408.409h12.126a.409.409 0 0 0 .409-.409V3.256h1.805a.54.54 0 0 1 .54.54v6.505z" fill="#fff"/><path d="M2.59 7.129a.512.512 0 1 0 0-1.024.512.512 0 0 0 0 1.024zm6.925 5.781H7.608a.409.409 0 0 0 0 .817h1.907a.409.409 0 0 0 0-.817zm2.145-2.069H7.608a.409.409 0 0 0 0 .817h4.052a.409.409 0 0 0 0-.817z" fill="#fff"/></svg>