<svg width="19" height="19" viewBox="0 0 19 19" fill="none" xmlns="http://www.w3.org/2000/svg"><g clip-path="url(#a)"><path d="M.005 1.526A.707.707 0 0 1 .62.735a.707.707 0 0 1 .792.614l.425 3.297A8.765 8.765 0 0 1 9.092.782a8.758 8.758 0 0 1 8.272 5.896.708.708 0 0 1-.437.899.726.726 0 0 1-.91-.437A7.33 7.33 0 0 0 9.092 2.2a7.37 7.37 0 0 0-6.25 3.498l3.544-.402a.698.698 0 0 1 .78.626.706.706 0 0 1-.626.78l-5.105.58h-.083a.693.693 0 0 1-.697-.615l-.65-5.14zm17.56 9.49l-5.105.578a.705.705 0 0 0-.626.78c.047.39.39.674.78.626l3.084-.342A7.32 7.32 0 0 1 9.08 16.84c-3.202 0-6.085-2.139-7.007-5.2a.705.705 0 0 0-.886-.472.705.705 0 0 0-.473.886 8.86 8.86 0 0 0 3.108 4.455 8.693 8.693 0 0 0 5.258 1.76 8.75 8.75 0 0 0 8.012-5.234l.496 3.935a.71.71 0 0 0 .698.614h.094a.707.707 0 0 0 .615-.791l-.662-5.14a.696.696 0 0 0-.768-.639z" fill="#000"/></g><defs><clipPath id="a"><path fill="#fff" d="M0 0h19v19H0z"/></clipPath></defs></svg>