<svg width="46" height="46" viewBox="0 0 46 46" fill="none" xmlns="http://www.w3.org/2000/svg"><path d="M38.813 32.883a1.796 1.796 0 1 0-.002 3.592 1.796 1.796 0 0 0 .002-3.592zm-.899-7.188a.899.899 0 1 0 0 1.798.899.899 0 0 0 0-1.798zM11.32 32.883a1.796 1.796 0 1 0 0 3.592 1.796 1.796 0 0 0 0-3.592z" fill="#fff"/><path d="M42.224 22.16l-1.55-6.197a2.674 2.674 0 0 0 .834-1.947 2.698 2.698 0 0 0-2.696-2.696h-7.187V8.625A2.698 2.698 0 0 0 28.93 5.93H2.695A2.698 2.698 0 0 0 0 8.625v23.36a2.698 2.698 0 0 0 2.695 2.695H5.93a5.396 5.396 0 0 0 5.39 5.39 5.396 5.396 0 0 0 5.39-5.39h16.712a5.396 5.396 0 0 0 5.39 5.39 5.396 5.396 0 0 0 5.391-5.39c0-.052-.002-.102-.004-.154A2.7 2.7 0 0 0 46 31.984v-5.39a4.499 4.499 0 0 0-3.776-4.435zm-3.215-5.45l1.348 5.392h-7.462l2.06-2.06a.898.898 0 1 0-1.27-1.271l-2.06 2.06v-4.12h7.384zm.702-2.694a.899.899 0 0 1-.898.898h-7.188v-1.797h7.188a.9.9 0 0 1 .898.899zM11.32 38.273a3.598 3.598 0 0 1-3.594-3.593 3.6 3.6 0 0 1 3.593-3.594 3.6 3.6 0 0 1 3.594 3.594 3.598 3.598 0 0 1-3.594 3.593zm5.082-5.39a5.41 5.41 0 0 0-5.083-3.594 5.41 5.41 0 0 0-5.082 3.594H2.695a.9.9 0 0 1-.898-.899V8.625a.9.9 0 0 1 .898-.898H28.93a.9.9 0 0 1 .898.898v24.258H16.403zm22.41 5.39a3.598 3.598 0 0 1-3.594-3.593 3.6 3.6 0 0 1 3.593-3.594 3.6 3.6 0 0 1 3.594 3.594 3.598 3.598 0 0 1-3.593 3.593zm5.018-5.562a5.41 5.41 0 0 0-5.019-3.422 5.41 5.41 0 0 0-5.082 3.594h-2.105v-8.985h9.883a2.7 2.7 0 0 1 2.54 1.797h-2.54a.898.898 0 1 0 0 1.797h2.695v4.492a.898.898 0 0 1-.372.727z" fill="#fff"/></svg>