<svg width="43" height="43" viewBox="0 0 43 43" fill="none" xmlns="http://www.w3.org/2000/svg"><g clip-path="url(#a)" fill="#fff"><path d="M32.895 8.85a.845.845 0 0 0 .84-.84.846.846 0 0 0-.84-.84.849.849 0 0 0-.595.247.846.846 0 0 0 0 1.187.849.849 0 0 0 .595.246zm9.66 7.35l-6.887-3.672a.84.84 0 0 0-1.234.742v2.272l-5.652-3.014a.84.84 0 0 0-1.235.742v2.272l-5.652-3.014a.84.84 0 0 0-1.235.742v9.238H7.727V13.27a.84.84 0 0 0-.84-.84H5.682v-1.19c0-.2.164-.364.365-.364a.84.84 0 1 0 0-1.68 2.046 2.046 0 0 0-2.044 2.045v1.189H2.52V8.48c0-1.6 1.301-2.902 2.9-2.902h1.356a3.212 3.212 0 0 0 3.13 3.912h3.171a.84.84 0 1 0 0-1.68h-3.17a1.53 1.53 0 0 1-1.53-1.528c0-.426.177-.842.483-1.144a1.497 1.497 0 0 1 1.71-.286.841.841 0 0 0 1.15-.455 4.263 4.263 0 0 1 3.956-2.717 4.26 4.26 0 0 1 3.947 2.7 4.15 4.15 0 0 0-1.631 1.628.84.84 0 1 0 1.47.812 2.482 2.482 0 0 1 1.458-1.174 2.47 2.47 0 0 1 3.17 2.364c0 .464.375.84.839.84h4.581a.84.84 0 1 0 0-1.68h-3.827a4.153 4.153 0 0 0-4.451-3.287A5.95 5.95 0 0 0 15.676 0a5.959 5.959 0 0 0-5.189 3.074 3.147 3.147 0 0 0-2.759.825H5.42a4.586 4.586 0 0 0-4.58 4.58v3.95a.84.84 0 0 0-.84.84V42.16c0 .464.376.84.84.84h41.32a.84.84 0 0 0 .84-.84V16.942a.84.84 0 0 0-.445-.741zM1.68 17.47h4.367v20.49H1.68V17.469zm4.367-1.68H1.68v-1.68h4.367v1.68zM1.68 39.641h4.367v1.68H1.68v-1.68zm19.82 1.68H7.727V27.546h7.558a.84.84 0 0 0 0-1.68H7.727v-1.68h25.195V41.32H21.5zm19.82 0h-6.718V23.347a.84.84 0 0 0-.84-.84H22.34v-7.839l5.652 3.014a.84.84 0 0 0 1.235-.741v-2.273l5.651 3.014a.84.84 0 0 0 1.235-.741v-2.273l5.207 2.776V41.32z"/><path d="M14.277 29.898h-4.03a.84.84 0 0 0-.84.84v4.032c0 .463.375.84.84.84h4.03a.84.84 0 0 0 .84-.84v-4.032a.84.84 0 0 0-.84-.84zm-.84 4.032h-2.351v-2.352h2.351v2.352zm8.903-4.032h-4.031a.84.84 0 0 0-.84.84v4.032c0 .463.376.84.84.84h4.03a.84.84 0 0 0 .84-.84v-4.032a.84.84 0 0 0-.84-.84zm-.84 4.032h-2.352v-2.352H21.5v2.352zm8.902-4.032h-4.03a.84.84 0 0 0-.84.84v4.032c0 .463.375.84.84.84h4.03a.84.84 0 0 0 .84-.84v-4.032a.84.84 0 0 0-.84-.84zm-.84 4.032h-2.351v-2.352h2.352v2.352zm-11.156-6.383c.221 0 .438-.09.594-.246a.845.845 0 0 0 .246-.594c0-.22-.09-.438-.246-.594a.846.846 0 0 0-.594-.246.842.842 0 0 0-.594 1.434.846.846 0 0 0 .594.246z"/></g><defs><clipPath id="a"><path fill="#fff" d="M0 0h43v43H0z"/></clipPath></defs></svg>