<svg width="40" height="40" viewBox="0 0 40 40" fill="none" xmlns="http://www.w3.org/2000/svg"><g clip-path="url(#a)" fill="#000"><path d="M20.062 40a.637.637 0 0 1-.38-.126L.496 25.654a.639.639 0 0 1 .02-1.04l2.258-1.548a.64.64 0 0 1 .721 1.054l-1.518 1.04 18.085 13.406 18.1-13.416-1.495-1.069a.639.639 0 0 1 .742-1.04l2.21 1.58a.639.639 0 0 1 .01 1.032L20.441 39.874a.634.634 0 0 1-.38.126z"/><path d="M20.062 36.78a.637.637 0 0 1-.38-.125L.496 22.433a.64.64 0 0 1 .02-1.04l2.092-1.433a.64.64 0 0 1 .722 1.054l-1.353.927 18.085 13.405L38.163 21.93l-1.287-.92a.639.639 0 1 1 .742-1.038l2.002 1.43a.638.638 0 0 1 .009 1.032L20.443 36.655a.64.64 0 0 1-.38.125zm12.224-22.414a.633.633 0 0 1-.37-.119l-6.412-4.58a.638.638 0 1 1 .742-1.038l6.412 4.579a.639.639 0 0 1-.372 1.158z"/><path d="M13.53 28.718a.636.636 0 0 1-.379-.125l-6.297-4.667a.64.64 0 0 1 .76-1.027l6.298 4.668a.64.64 0 0 1-.381 1.151zm2.753-11.592a.633.633 0 0 1-.17-.023l-8.674-2.4a.637.637 0 0 1-.19-1.142l12.854-8.804a.638.638 0 0 1 .732.007l5.41 3.865a.638.638 0 0 1 .018 1.027l-9.591 7.338a.644.644 0 0 1-.389.132zm-7.18-3.287l7.045 1.948L24.8 9.166l-4.344-3.103L9.104 13.84z"/><path d="M7.234 24.052a.637.637 0 0 1-.38-.126L.496 19.213a.64.64 0 0 1 .02-1.04l6.733-4.612a.64.64 0 0 1 .722 1.055L1.977 18.72l5.251 3.892 8.669-6.633a.639.639 0 0 1 .776 1.014l-9.05 6.926a.637.637 0 0 1-.39.131zm12.828 9.508a.636.636 0 0 1-.38-.126l-6.531-4.84a.64.64 0 0 1-.008-1.022l9.095-6.959a.638.638 0 0 1 1.016.395l1.559 8.746a.639.639 0 0 1-.248.625l-4.122 3.055a.64.64 0 0 1-.38.126zm-5.469-5.488l5.47 4.054 3.423-2.537-1.305-7.324-7.588 5.807z"/><path d="M24.184 30.505a.64.64 0 0 1-.381-1.152l14.359-10.644-5.862-4.187-9.287 7.106a.638.638 0 1 1-.776-1.014L31.9 13.22a.637.637 0 0 1 .759-.013l6.96 4.973a.638.638 0 0 1 .01 1.032L24.563 30.38a.636.636 0 0 1-.38.125zM16.741 4.762a.638.638 0 0 1-.451-.187l-2.023-2.023a.638.638 0 1 1 .903-.903l2.023 2.022a.64.64 0 0 1-.452 1.09zm7.445 0a.637.637 0 0 1-.452-1.09l2.023-2.023a.638.638 0 1 1 .903.903l-2.023 2.023a.637.637 0 0 1-.451.187zm-4.272-.93a.639.639 0 0 1-.639-.639V.64a.639.639 0 1 1 1.278 0v2.554a.638.638 0 0 1-.639.64z"/></g><defs><clipPath id="a"><path fill="#fff" d="M0 0h40v40H0z"/></clipPath></defs></svg>