<svg width="19" height="20" viewBox="0 0 19 20" fill="none" xmlns="http://www.w3.org/2000/svg"><path d="M18.48 5.023L18.473 5c-.438-1.77-2.412-3.67-4.225-4.065l-.02-.004a23.478 23.478 0 0 0-8.838 0l-.02.004C3.557 1.33 1.583 3.23 1.144 5l-.005.022a17.297 17.297 0 0 0 0 7.451l.005.022c.42 1.694 2.247 3.507 3.992 4.005v1.976c0 .715.872 1.067 1.368.55l2.002-2.08a23.322 23.322 0 0 0 5.721-.382l.02-.004c1.814-.396 3.788-2.295 4.226-4.065l.005-.022c.542-2.472.542-4.98 0-7.451zm-1.585 7.093c-.292 1.154-1.791 2.59-2.982 2.855-1.56.297-3.131.424-4.7.38a.112.112 0 0 0-.084.034l-1.462 1.5-1.555 1.596a.182.182 0 0 1-.313-.126v-3.273c0-.054-.039-.1-.092-.11-1.192-.266-2.69-1.702-2.983-2.857a15.697 15.697 0 0 1 0-6.734c.293-1.155 1.791-2.59 2.982-2.856a21.867 21.867 0 0 1 8.207 0c1.191.265 2.69 1.701 2.982 2.856.488 2.235.488 4.5 0 6.735z" fill="#000"/><path d="M12.402 13.627c-.183-.056-.358-.093-.52-.16-1.68-.697-3.224-1.596-4.449-2.974-.696-.783-1.24-1.668-1.701-2.604-.219-.444-.403-.905-.59-1.363-.171-.418.08-.85.346-1.165a2.74 2.74 0 0 1 .916-.688c.271-.13.538-.055.736.174A9.49 9.49 0 0 1 8.278 6.44c.196.354.142.787-.212 1.027-.086.059-.165.128-.245.194a.803.803 0 0 0-.185.195.534.534 0 0 0-.036.468c.438 1.201 1.174 2.135 2.383 2.638.194.08.388.175.61.149.374-.044.495-.453.756-.667.256-.21.583-.212.858-.038.275.175.542.362.808.55.26.186.52.368.76.58.231.203.31.47.18.746-.238.506-.584.927-1.084 1.195-.142.076-.31.1-.47.15-.182-.056.16-.05 0 0zM9.814 4.094c2.196.062 4 1.52 4.387 3.691.066.37.09.748.118 1.124.013.158-.077.308-.247.31-.176.002-.255-.145-.267-.303-.022-.313-.038-.627-.081-.937-.228-1.636-1.532-2.99-3.16-3.28-.246-.044-.497-.055-.745-.081-.157-.017-.362-.026-.397-.221-.03-.164.109-.294.264-.302.043-.003.085 0 .128 0 2.196.061-.043 0 0 0z" fill="#000"/><path d="M13.15 8.421c-.003.028-.005.092-.02.153-.06.22-.394.248-.47.026a.663.663 0 0 1-.027-.213c0-.465-.102-.93-.336-1.334a2.483 2.483 0 0 0-1.042-.978 2.996 2.996 0 0 0-.83-.254c-.125-.021-.252-.034-.378-.051-.152-.021-.233-.119-.226-.269.006-.14.11-.242.263-.233.504.029.99.138 1.439.375.911.482 1.432 1.244 1.584 2.261.006.046.017.092.02.138.01.114.015.229.024.38-.004.027-.01-.151 0 0z" fill="#000"/><path d="M11.787 8.368c-.184.004-.282-.098-.301-.267-.013-.117-.024-.236-.052-.35a.987.987 0 0 0-.364-.572.951.951 0 0 0-.297-.143c-.135-.04-.274-.028-.409-.061-.146-.036-.227-.154-.204-.291a.264.264 0 0 1 .279-.213c.851.062 1.46.502 1.547 1.505.006.07.013.145-.003.213-.027.116-.113.174-.196.18-.184.003.083-.006 0 0z" fill="#000"/></svg>