<svg width="29" height="28" viewBox="0 0 29 28" fill="none" xmlns="http://www.w3.org/2000/svg"><path fill-rule="evenodd" clip-rule="evenodd" d="M28.333 14c0 7.732-6.268 14-14 14s-14-6.268-14-14 6.268-14 14-14 14 6.268 14 14zm-7.758-3.383c.058.058.058.116.058.175.117.583.234 1.808.234 3.208 0 1.144-.117 2.17-.192 2.826l-.042.382c-.058.059-.058.117-.058.175v.059a1.261 1.261 0 0 1-1.225.875h.117s-2.334.35-5.367.35c-3.092 0-5.367-.35-5.367-.35h.117c-.583 0-1.05-.35-1.225-.875v-.059c-.058-.058-.058-.116-.058-.175l-.042-.382c-.075-.656-.192-1.682-.192-2.826 0-1.144.117-2.17.192-2.826l.042-.382c.058-.059.058-.117.058-.175v-.059a1.261 1.261 0 0 1 1.225-.875h-.117s2.334-.35 5.367-.35c3.092 0 5.367.35 5.367.35h-.117c.583 0 1.05.35 1.225.875v.059zm-7.233 5.658l2.741-1.983c.117-.059.175-.175.117-.292a.445.445 0 0 0-.117-.292l-2.741-1.983a.372.372 0 0 0-.35 0 .32.32 0 0 0-.175.292v3.966a.32.32 0 0 0 .175.292c.058.058.116.058.175.058.058 0 .116 0 .175-.058z" fill="#D33030"/></svg>