<svg width="24" height="24" viewBox="0 0 24 24" fill="none" xmlns="http://www.w3.org/2000/svg"><path fill-rule="evenodd" clip-rule="evenodd" d="M24 12c0 6.627-5.373 12-12 12S0 18.627 0 12 5.373 0 12 0s12 5.373 12 12zm-6.65-2.9c.05.05.05.1.05.15.1.5.2 1.55.2 2.75a21 21 0 0 1-.164 2.422c-.014.126-.027.236-.036.328-.05.05-.05.1-.05.15v.05c-.15.45-.55.75-1.05.75h.1s-2 .3-4.6.3c-2.65 0-4.6-.3-4.6-.3h.1c-.5 0-.9-.3-1.05-.75v-.05c-.05-.05-.05-.1-.05-.15l-.036-.328A21.026 21.026 0 0 1 6 12c0-.98.1-1.86.164-2.422.014-.126.027-.236.036-.328.05-.05.05-.1.05-.15v-.05c.15-.45.55-.75 1.05-.75h-.1s2-.3 4.6-.3c2.65 0 4.6.3 4.6.3h-.1c.5 0 .9.3 1.05.75v.05zm-6.2 4.85l2.35-1.7c.1-.05.15-.15.1-.25 0-.1-.05-.2-.1-.25l-2.35-1.7c-.1-.05-.2-.05-.3 0-.1.05-.15.15-.15.25v3.4c0 .1.05.2.15.25.05.05.1.05.15.05.05 0 .1 0 .15-.05z" fill="#000"/></svg>